<svg width="717" height="100" viewBox="0 0 717 100" fill="none" xmlns="http://www.w3.org/2000/svg">
<rect width="717" height="100" rx="50" fill="#A9CDF6"/>
<path d="M53.3457 27.9805V38H49.9707V12.4062H59.4102C62.2109 12.4062 64.4023 13.1211 65.9844 14.5508C67.5781 15.9805 68.375 17.873 68.375 20.2285C68.375 22.7129 67.5957 24.6289 66.0371 25.9766C64.4902 27.3125 62.2695 27.9805 59.375 27.9805H53.3457ZM53.3457 25.2207H59.4102C61.2148 25.2207 62.5977 24.7988 63.5586 23.9551C64.5195 23.0996 65 21.8691 65 20.2637C65 18.7402 64.5195 17.5215 63.5586 16.6074C62.5977 15.6934 61.2793 15.2188 59.6035 15.1836H53.3457V25.2207ZM83.9141 36.1191C82.6484 37.6074 80.791 38.3516 78.3418 38.3516C76.3145 38.3516 74.7676 37.7656 73.7012 36.5938C72.6465 35.4102 72.1133 33.6641 72.1016 31.3555V18.9805H75.3535V31.2676C75.3535 34.1504 76.5254 35.5918 78.8691 35.5918C81.3535 35.5918 83.0059 34.666 83.8262 32.8145V18.9805H87.0781V38H83.9844L83.9141 36.1191ZM108.102 28.7012C108.102 31.5957 107.439 33.9277 106.115 35.6973C104.791 37.4668 102.998 38.3516 100.736 38.3516C98.4277 38.3516 96.6113 37.6191 95.2871 36.1543V45.3125H92.0352V18.9805H95.0059L95.1641 21.0898C96.4883 19.4492 98.3281 18.6289 100.684 18.6289C102.969 18.6289 104.773 19.4902 106.098 21.2129C107.434 22.9355 108.102 25.332 108.102 28.4023V28.7012ZM104.85 28.332C104.85 26.1875 104.393 24.4941 103.479 23.252C102.564 22.0098 101.311 21.3887 99.7168 21.3887C97.748 21.3887 96.2715 22.2617 95.2871 24.0078V33.0957C96.2598 34.8301 97.748 35.6973 99.752 35.6973C101.311 35.6973 102.547 35.082 103.461 33.8516C104.387 32.6094 104.85 30.7695 104.85 28.332ZM128.316 28.7012C128.316 31.5957 127.654 33.9277 126.33 35.6973C125.006 37.4668 123.213 38.3516 120.951 38.3516C118.643 38.3516 116.826 37.6191 115.502 36.1543V45.3125H112.25V18.9805H115.221L115.379 21.0898C116.703 19.4492 118.543 18.6289 120.898 18.6289C123.184 18.6289 124.988 19.4902 126.312 21.2129C127.648 22.9355 128.316 25.332 128.316 28.4023V28.7012ZM125.064 28.332C125.064 26.1875 124.607 24.4941 123.693 23.252C122.779 22.0098 121.525 21.3887 119.932 21.3887C117.963 21.3887 116.486 22.2617 115.502 24.0078V33.0957C116.475 34.8301 117.963 35.6973 119.967 35.6973C121.525 35.6973 122.762 35.082 123.676 33.8516C124.602 32.6094 125.064 30.7695 125.064 28.332ZM135.998 38H132.746V18.9805H135.998V38ZM132.482 13.9355C132.482 13.4082 132.641 12.9629 132.957 12.5996C133.285 12.2363 133.766 12.0547 134.398 12.0547C135.031 12.0547 135.512 12.2363 135.84 12.5996C136.168 12.9629 136.332 13.4082 136.332 13.9355C136.332 14.4629 136.168 14.9023 135.84 15.2539C135.512 15.6055 135.031 15.7812 134.398 15.7812C133.766 15.7812 133.285 15.6055 132.957 15.2539C132.641 14.9023 132.482 14.4629 132.482 13.9355ZM149.111 38.3516C146.533 38.3516 144.436 37.5078 142.818 35.8203C141.201 34.1211 140.393 31.8535 140.393 29.0176V28.4199C140.393 26.5332 140.75 24.8516 141.465 23.375C142.191 21.8867 143.199 20.7266 144.488 19.8945C145.789 19.0508 147.195 18.6289 148.707 18.6289C151.18 18.6289 153.102 19.4434 154.473 21.0723C155.844 22.7012 156.529 25.0332 156.529 28.0684V29.4219H143.645C143.691 31.2969 144.236 32.8145 145.279 33.9746C146.334 35.123 147.67 35.6973 149.287 35.6973C150.436 35.6973 151.408 35.4629 152.205 34.9941C153.002 34.5254 153.699 33.9043 154.297 33.1309L156.283 34.6777C154.689 37.127 152.299 38.3516 149.111 38.3516ZM148.707 21.3008C147.395 21.3008 146.293 21.7812 145.402 22.7422C144.512 23.6914 143.961 25.0273 143.75 26.75H153.277V26.5039C153.184 24.8516 152.738 23.5742 151.941 22.6719C151.145 21.7578 150.066 21.3008 148.707 21.3008ZM171.383 32.9551C171.383 32.0762 171.049 31.3965 170.381 30.916C169.725 30.4238 168.57 30.002 166.918 29.6504C165.277 29.2988 163.971 28.877 162.998 28.3848C162.037 27.8926 161.322 27.3066 160.854 26.627C160.396 25.9473 160.168 25.1387 160.168 24.2012C160.168 22.6426 160.824 21.3242 162.137 20.2461C163.461 19.168 165.148 18.6289 167.199 18.6289C169.355 18.6289 171.102 19.1855 172.438 20.2988C173.785 21.4121 174.459 22.8359 174.459 24.5703H171.189C171.189 23.6797 170.809 22.9121 170.047 22.2676C169.297 21.623 168.348 21.3008 167.199 21.3008C166.016 21.3008 165.09 21.5586 164.422 22.0742C163.754 22.5898 163.42 23.2637 163.42 24.0957C163.42 24.8809 163.73 25.4727 164.352 25.8711C164.973 26.2695 166.092 26.6504 167.709 27.0137C169.338 27.377 170.656 27.8105 171.664 28.3145C172.672 28.8184 173.416 29.4277 173.896 30.1426C174.389 30.8457 174.635 31.707 174.635 32.7266C174.635 34.4258 173.955 35.791 172.596 36.8223C171.236 37.8418 169.473 38.3516 167.305 38.3516C165.781 38.3516 164.434 38.082 163.262 37.543C162.09 37.0039 161.17 36.2539 160.502 35.293C159.846 34.3203 159.518 33.2715 159.518 32.1465H162.77C162.828 33.2363 163.262 34.1035 164.07 34.748C164.891 35.3809 165.969 35.6973 167.305 35.6973C168.535 35.6973 169.52 35.4512 170.258 34.959C171.008 34.4551 171.383 33.7871 171.383 32.9551ZM195.43 35.6973C196.59 35.6973 197.604 35.3457 198.471 34.6426C199.338 33.9395 199.818 33.0605 199.912 32.0059H202.988C202.93 33.0957 202.555 34.1328 201.863 35.1172C201.172 36.1016 200.246 36.8867 199.086 37.4727C197.938 38.0586 196.719 38.3516 195.43 38.3516C192.84 38.3516 190.777 37.4902 189.242 35.7676C187.719 34.0332 186.957 31.666 186.957 28.666V28.1211C186.957 26.2695 187.297 24.623 187.977 23.1816C188.656 21.7402 189.629 20.6211 190.895 19.8242C192.172 19.0273 193.678 18.6289 195.412 18.6289C197.545 18.6289 199.314 19.2676 200.721 20.5449C202.139 21.8223 202.895 23.4805 202.988 25.5195H199.912C199.818 24.2891 199.35 23.2812 198.506 22.4961C197.674 21.6992 196.643 21.3008 195.412 21.3008C193.76 21.3008 192.477 21.8984 191.562 23.0938C190.66 24.2773 190.209 25.9941 190.209 28.2441V28.8594C190.209 31.0508 190.66 32.7383 191.562 33.9219C192.465 35.1055 193.754 35.6973 195.43 35.6973ZM218.387 38C218.199 37.625 218.047 36.957 217.93 35.9961C216.418 37.5664 214.613 38.3516 212.516 38.3516C210.641 38.3516 209.1 37.8242 207.893 36.7695C206.697 35.7031 206.1 34.3555 206.1 32.7266C206.1 30.7461 206.85 29.2109 208.35 28.1211C209.861 27.0195 211.982 26.4688 214.713 26.4688H217.877V24.9746C217.877 23.8379 217.537 22.9355 216.857 22.2676C216.178 21.5879 215.176 21.248 213.852 21.248C212.691 21.248 211.719 21.541 210.934 22.127C210.148 22.7129 209.756 23.4219 209.756 24.2539H206.486C206.486 23.3047 206.82 22.3906 207.488 21.5117C208.168 20.6211 209.082 19.918 210.23 19.4023C211.391 18.8867 212.662 18.6289 214.045 18.6289C216.236 18.6289 217.953 19.1797 219.195 20.2812C220.438 21.3711 221.082 22.877 221.129 24.7988V33.5527C221.129 35.2988 221.352 36.6875 221.797 37.7188V38H218.387ZM212.99 35.5215C214.01 35.5215 214.977 35.2578 215.891 34.7305C216.805 34.2031 217.467 33.5176 217.877 32.6738V28.7715H215.328C211.344 28.7715 209.352 29.9375 209.352 32.2695C209.352 33.2891 209.691 34.0859 210.371 34.6602C211.051 35.2344 211.924 35.5215 212.99 35.5215ZM229.303 18.9805L229.408 21.3711C230.861 19.543 232.76 18.6289 235.104 18.6289C239.123 18.6289 241.15 20.8965 241.186 25.4316V38H237.934V25.4141C237.922 24.043 237.605 23.0293 236.984 22.373C236.375 21.7168 235.42 21.3887 234.119 21.3887C233.064 21.3887 232.139 21.6699 231.342 22.2324C230.545 22.7949 229.924 23.5332 229.479 24.4473V38H226.227V18.9805H229.303ZM266.094 32.9551C266.094 32.0762 265.76 31.3965 265.092 30.916C264.436 30.4238 263.281 30.002 261.629 29.6504C259.988 29.2988 258.682 28.877 257.709 28.3848C256.748 27.8926 256.033 27.3066 255.564 26.627C255.107 25.9473 254.879 25.1387 254.879 24.2012C254.879 22.6426 255.535 21.3242 256.848 20.2461C258.172 19.168 259.859 18.6289 261.91 18.6289C264.066 18.6289 265.812 19.1855 267.148 20.2988C268.496 21.4121 269.17 22.8359 269.17 24.5703H265.9C265.9 23.6797 265.52 22.9121 264.758 22.2676C264.008 21.623 263.059 21.3008 261.91 21.3008C260.727 21.3008 259.801 21.5586 259.133 22.0742C258.465 22.5898 258.131 23.2637 258.131 24.0957C258.131 24.8809 258.441 25.4727 259.062 25.8711C259.684 26.2695 260.803 26.6504 262.42 27.0137C264.049 27.377 265.367 27.8105 266.375 28.3145C267.383 28.8184 268.127 29.4277 268.607 30.1426C269.1 30.8457 269.346 31.707 269.346 32.7266C269.346 34.4258 268.666 35.791 267.307 36.8223C265.947 37.8418 264.184 38.3516 262.016 38.3516C260.492 38.3516 259.145 38.082 257.973 37.543C256.801 37.0039 255.881 36.2539 255.213 35.293C254.557 34.3203 254.229 33.2715 254.229 32.1465H257.48C257.539 33.2363 257.973 34.1035 258.781 34.748C259.602 35.3809 260.68 35.6973 262.016 35.6973C263.246 35.6973 264.23 35.4512 264.969 34.959C265.719 34.4551 266.094 33.7871 266.094 32.9551ZM277.115 38H273.863V11H277.115V38ZM290.229 38.3516C287.65 38.3516 285.553 37.5078 283.936 35.8203C282.318 34.1211 281.51 31.8535 281.51 29.0176V28.4199C281.51 26.5332 281.867 24.8516 282.582 23.375C283.309 21.8867 284.316 20.7266 285.605 19.8945C286.906 19.0508 288.312 18.6289 289.824 18.6289C292.297 18.6289 294.219 19.4434 295.59 21.0723C296.961 22.7012 297.646 25.0332 297.646 28.0684V29.4219H284.762C284.809 31.2969 285.354 32.8145 286.396 33.9746C287.451 35.123 288.787 35.6973 290.404 35.6973C291.553 35.6973 292.525 35.4629 293.322 34.9941C294.119 34.5254 294.816 33.9043 295.414 33.1309L297.4 34.6777C295.807 37.127 293.416 38.3516 290.229 38.3516ZM289.824 21.3008C288.512 21.3008 287.41 21.7812 286.52 22.7422C285.629 23.6914 285.078 25.0273 284.867 26.75H294.395V26.5039C294.301 24.8516 293.855 23.5742 293.059 22.6719C292.262 21.7578 291.184 21.3008 289.824 21.3008ZM309.318 38.3516C306.74 38.3516 304.643 37.5078 303.025 35.8203C301.408 34.1211 300.6 31.8535 300.6 29.0176V28.4199C300.6 26.5332 300.957 24.8516 301.672 23.375C302.398 21.8867 303.406 20.7266 304.695 19.8945C305.996 19.0508 307.402 18.6289 308.914 18.6289C311.387 18.6289 313.309 19.4434 314.68 21.0723C316.051 22.7012 316.736 25.0332 316.736 28.0684V29.4219H303.852C303.898 31.2969 304.443 32.8145 305.486 33.9746C306.541 35.123 307.877 35.6973 309.494 35.6973C310.643 35.6973 311.615 35.4629 312.412 34.9941C313.209 34.5254 313.906 33.9043 314.504 33.1309L316.49 34.6777C314.896 37.127 312.506 38.3516 309.318 38.3516ZM308.914 21.3008C307.602 21.3008 306.5 21.7812 305.609 22.7422C304.719 23.6914 304.168 25.0273 303.957 26.75H313.484V26.5039C313.391 24.8516 312.945 23.5742 312.148 22.6719C311.352 21.7578 310.273 21.3008 308.914 21.3008ZM336.582 28.7012C336.582 31.5957 335.92 33.9277 334.596 35.6973C333.271 37.4668 331.479 38.3516 329.217 38.3516C326.908 38.3516 325.092 37.6191 323.768 36.1543V45.3125H320.516V18.9805H323.486L323.645 21.0898C324.969 19.4492 326.809 18.6289 329.164 18.6289C331.449 18.6289 333.254 19.4902 334.578 21.2129C335.914 22.9355 336.582 25.332 336.582 28.4023V28.7012ZM333.33 28.332C333.33 26.1875 332.873 24.4941 331.959 23.252C331.045 22.0098 329.791 21.3887 328.197 21.3887C326.229 21.3887 324.752 22.2617 323.768 24.0078V33.0957C324.74 34.8301 326.229 35.6973 328.232 35.6973C329.791 35.6973 331.027 35.082 331.941 33.8516C332.867 32.6094 333.33 30.7695 333.33 28.332ZM360.014 38H356.744V16.3262L350.188 18.7344V15.7812L359.504 12.2832H360.014V38ZM385.062 19.0859C385.062 20.3633 384.723 21.5 384.043 22.4961C383.375 23.4922 382.467 24.2715 381.318 24.834C382.654 25.4082 383.709 26.2461 384.482 27.3477C385.268 28.4492 385.66 29.6973 385.66 31.0918C385.66 33.3066 384.91 35.0703 383.41 36.3828C381.922 37.6953 379.959 38.3516 377.521 38.3516C375.061 38.3516 373.086 37.6953 371.598 36.3828C370.121 35.0586 369.383 33.2949 369.383 31.0918C369.383 29.709 369.758 28.4609 370.508 27.3477C371.27 26.2344 372.318 25.3906 373.654 24.8164C372.518 24.2539 371.621 23.4746 370.965 22.4785C370.309 21.4824 369.98 20.3516 369.98 19.0859C369.98 16.9297 370.672 15.2188 372.055 13.9531C373.438 12.6875 375.26 12.0547 377.521 12.0547C379.771 12.0547 381.588 12.6875 382.971 13.9531C384.365 15.2188 385.062 16.9297 385.062 19.0859ZM382.408 31.0215C382.408 29.5918 381.951 28.4258 381.037 27.5234C380.135 26.6211 378.951 26.1699 377.486 26.1699C376.021 26.1699 374.844 26.6152 373.953 27.5059C373.074 28.3965 372.635 29.5684 372.635 31.0215C372.635 32.4746 373.062 33.6172 373.918 34.4492C374.785 35.2812 375.986 35.6973 377.521 35.6973C379.045 35.6973 380.24 35.2812 381.107 34.4492C381.975 33.6055 382.408 32.4629 382.408 31.0215ZM377.521 14.7266C376.244 14.7266 375.207 15.125 374.41 15.9219C373.625 16.707 373.232 17.7793 373.232 19.1387C373.232 20.4395 373.619 21.4941 374.393 22.3027C375.178 23.0996 376.221 23.498 377.521 23.498C378.822 23.498 379.859 23.0996 380.633 22.3027C381.418 21.4941 381.811 20.4395 381.811 19.1387C381.811 17.8379 381.406 16.7773 380.598 15.957C379.789 15.1367 378.764 14.7266 377.521 14.7266ZM403.432 14.375V18.9805H406.982V21.4941H403.432V33.2891C403.432 34.0508 403.59 34.625 403.906 35.0117C404.223 35.3867 404.762 35.5742 405.523 35.5742C405.898 35.5742 406.414 35.5039 407.07 35.3633V38C406.215 38.2344 405.383 38.3516 404.574 38.3516C403.121 38.3516 402.025 37.9121 401.287 37.0332C400.549 36.1543 400.18 34.9062 400.18 33.2891V21.4941H396.717V18.9805H400.18V14.375H403.432ZM409.584 28.3145C409.584 26.4512 409.947 24.7754 410.674 23.2871C411.412 21.7988 412.432 20.6504 413.732 19.8418C415.045 19.0332 416.539 18.6289 418.215 18.6289C420.805 18.6289 422.896 19.5254 424.49 21.3184C426.096 23.1113 426.898 25.4961 426.898 28.4727V28.7012C426.898 30.5527 426.541 32.2168 425.826 33.6934C425.123 35.1582 424.109 36.3008 422.785 37.1211C421.473 37.9414 419.961 38.3516 418.25 38.3516C415.672 38.3516 413.58 37.4551 411.975 35.6621C410.381 33.8691 409.584 31.4961 409.584 28.543V28.3145ZM412.854 28.7012C412.854 30.8105 413.34 32.5039 414.312 33.7812C415.297 35.0586 416.609 35.6973 418.25 35.6973C419.902 35.6973 421.215 35.0527 422.188 33.7637C423.16 32.4629 423.646 30.6465 423.646 28.3145C423.646 26.2285 423.148 24.541 422.152 23.252C421.168 21.9512 419.855 21.3008 418.215 21.3008C416.609 21.3008 415.314 21.9395 414.33 23.2168C413.346 24.4941 412.854 26.3223 412.854 28.7012ZM456.342 38H439.572V35.6621L448.432 25.8184C449.744 24.3301 450.646 23.123 451.139 22.1973C451.643 21.2598 451.895 20.293 451.895 19.2969C451.895 17.9609 451.49 16.8652 450.682 16.0098C449.873 15.1543 448.795 14.7266 447.447 14.7266C445.83 14.7266 444.57 15.1895 443.668 16.1152C442.777 17.0293 442.332 18.3066 442.332 19.9473H439.08C439.08 17.5918 439.836 15.6875 441.348 14.2344C442.871 12.7812 444.904 12.0547 447.447 12.0547C449.826 12.0547 451.707 12.6816 453.09 13.9355C454.473 15.1777 455.164 16.8359 455.164 18.9102C455.164 21.4297 453.559 24.4297 450.348 27.9102L443.492 35.3457H456.342V38ZM475.836 27.084C475.836 30.8926 475.186 33.7227 473.885 35.5742C472.584 37.4258 470.551 38.3516 467.785 38.3516C465.055 38.3516 463.033 37.4492 461.721 35.6445C460.408 33.8281 459.729 31.1211 459.682 27.5234V23.1816C459.682 19.4199 460.332 16.625 461.633 14.7969C462.934 12.9688 464.973 12.0547 467.75 12.0547C470.504 12.0547 472.531 12.9395 473.832 14.709C475.133 16.4668 475.801 19.1855 475.836 22.8652V27.084ZM472.584 22.6367C472.584 19.8828 472.197 17.8789 471.424 16.625C470.65 15.3594 469.426 14.7266 467.75 14.7266C466.086 14.7266 464.873 15.3535 464.111 16.6074C463.35 17.8613 462.957 19.7891 462.934 22.3906V27.5938C462.934 30.3594 463.332 32.4043 464.129 33.7285C464.938 35.041 466.156 35.6973 467.785 35.6973C469.391 35.6973 470.58 35.0762 471.354 33.834C472.139 32.5918 472.549 30.6348 472.584 27.9629V22.6367ZM492.518 21.2832C493.959 19.5137 495.834 18.6289 498.143 18.6289C502.162 18.6289 504.189 20.8965 504.225 25.4316V38H500.973V25.4141C500.961 24.043 500.645 23.0293 500.023 22.373C499.414 21.7168 498.459 21.3887 497.158 21.3887C496.104 21.3887 495.178 21.6699 494.381 22.2324C493.584 22.7949 492.963 23.5332 492.518 24.4473V38H489.266V11H492.518V21.2832ZM508.232 28.3145C508.232 26.4512 508.596 24.7754 509.322 23.2871C510.061 21.7988 511.08 20.6504 512.381 19.8418C513.693 19.0332 515.188 18.6289 516.863 18.6289C519.453 18.6289 521.545 19.5254 523.139 21.3184C524.744 23.1113 525.547 25.4961 525.547 28.4727V28.7012C525.547 30.5527 525.189 32.2168 524.475 33.6934C523.771 35.1582 522.758 36.3008 521.434 37.1211C520.121 37.9414 518.609 38.3516 516.898 38.3516C514.32 38.3516 512.229 37.4551 510.623 35.6621C509.029 33.8691 508.232 31.4961 508.232 28.543V28.3145ZM511.502 28.7012C511.502 30.8105 511.988 32.5039 512.961 33.7812C513.945 35.0586 515.258 35.6973 516.898 35.6973C518.551 35.6973 519.863 35.0527 520.836 33.7637C521.809 32.4629 522.295 30.6465 522.295 28.3145C522.295 26.2285 521.797 24.541 520.801 23.252C519.816 21.9512 518.504 21.3008 516.863 21.3008C515.258 21.3008 513.963 21.9395 512.979 23.2168C511.994 24.4941 511.502 26.3223 511.502 28.7012ZM541.367 36.1191C540.102 37.6074 538.244 38.3516 535.795 38.3516C533.768 38.3516 532.221 37.7656 531.154 36.5938C530.1 35.4102 529.566 33.6641 529.555 31.3555V18.9805H532.807V31.2676C532.807 34.1504 533.979 35.5918 536.322 35.5918C538.807 35.5918 540.459 34.666 541.279 32.8145V18.9805H544.531V38H541.438L541.367 36.1191ZM558.682 21.8984C558.189 21.8164 557.656 21.7754 557.082 21.7754C554.949 21.7754 553.502 22.6836 552.74 24.5V38H549.488V18.9805H552.652L552.705 21.1777C553.771 19.4785 555.283 18.6289 557.24 18.6289C557.873 18.6289 558.354 18.7109 558.682 18.875V21.8984ZM572.762 32.9551C572.762 32.0762 572.428 31.3965 571.76 30.916C571.104 30.4238 569.949 30.002 568.297 29.6504C566.656 29.2988 565.35 28.877 564.377 28.3848C563.416 27.8926 562.701 27.3066 562.232 26.627C561.775 25.9473 561.547 25.1387 561.547 24.2012C561.547 22.6426 562.203 21.3242 563.516 20.2461C564.84 19.168 566.527 18.6289 568.578 18.6289C570.734 18.6289 572.48 19.1855 573.816 20.2988C575.164 21.4121 575.838 22.8359 575.838 24.5703H572.568C572.568 23.6797 572.188 22.9121 571.426 22.2676C570.676 21.623 569.727 21.3008 568.578 21.3008C567.395 21.3008 566.469 21.5586 565.801 22.0742C565.133 22.5898 564.799 23.2637 564.799 24.0957C564.799 24.8809 565.109 25.4727 565.73 25.8711C566.352 26.2695 567.471 26.6504 569.088 27.0137C570.717 27.377 572.035 27.8105 573.043 28.3145C574.051 28.8184 574.795 29.4277 575.275 30.1426C575.768 30.8457 576.014 31.707 576.014 32.7266C576.014 34.4258 575.334 35.791 573.975 36.8223C572.615 37.8418 570.852 38.3516 568.684 38.3516C567.16 38.3516 565.812 38.082 564.641 37.543C563.469 37.0039 562.549 36.2539 561.881 35.293C561.225 34.3203 560.896 33.2715 560.896 32.1465H564.148C564.207 33.2363 564.641 34.1035 565.449 34.748C566.27 35.3809 567.348 35.6973 568.684 35.6973C569.914 35.6973 570.898 35.4512 571.637 34.959C572.387 34.4551 572.762 33.7871 572.762 32.9551ZM600.922 38C600.734 37.625 600.582 36.957 600.465 35.9961C598.953 37.5664 597.148 38.3516 595.051 38.3516C593.176 38.3516 591.635 37.8242 590.428 36.7695C589.232 35.7031 588.635 34.3555 588.635 32.7266C588.635 30.7461 589.385 29.2109 590.885 28.1211C592.396 27.0195 594.518 26.4688 597.248 26.4688H600.412V24.9746C600.412 23.8379 600.072 22.9355 599.393 22.2676C598.713 21.5879 597.711 21.248 596.387 21.248C595.227 21.248 594.254 21.541 593.469 22.127C592.684 22.7129 592.291 23.4219 592.291 24.2539H589.021C589.021 23.3047 589.355 22.3906 590.023 21.5117C590.703 20.6211 591.617 19.918 592.766 19.4023C593.926 18.8867 595.197 18.6289 596.58 18.6289C598.771 18.6289 600.488 19.1797 601.73 20.2812C602.973 21.3711 603.617 22.877 603.664 24.7988V33.5527C603.664 35.2988 603.887 36.6875 604.332 37.7188V38H600.922ZM595.525 35.5215C596.545 35.5215 597.512 35.2578 598.426 34.7305C599.34 34.2031 600.002 33.5176 600.412 32.6738V28.7715H597.863C593.879 28.7715 591.887 29.9375 591.887 32.2695C591.887 33.2891 592.227 34.0859 592.906 34.6602C593.586 35.2344 594.459 35.5215 595.525 35.5215ZM616.9 28.332C616.9 25.4141 617.592 23.0703 618.975 21.3008C620.357 19.5195 622.168 18.6289 624.406 18.6289C626.633 18.6289 628.396 19.3906 629.697 20.9141V11H632.949V38H629.961L629.803 35.9609C628.502 37.5547 626.691 38.3516 624.371 38.3516C622.168 38.3516 620.369 37.4492 618.975 35.6445C617.592 33.8398 616.9 31.4844 616.9 28.5781V28.332ZM620.152 28.7012C620.152 30.8574 620.598 32.5449 621.488 33.7637C622.379 34.9824 623.609 35.5918 625.18 35.5918C627.242 35.5918 628.748 34.666 629.697 32.8145V24.0781C628.725 22.2852 627.23 21.3887 625.215 21.3887C623.621 21.3887 622.379 22.0039 621.488 23.2344C620.598 24.4648 620.152 26.2871 620.152 28.7012ZM649.754 38C649.566 37.625 649.414 36.957 649.297 35.9961C647.785 37.5664 645.98 38.3516 643.883 38.3516C642.008 38.3516 640.467 37.8242 639.26 36.7695C638.064 35.7031 637.467 34.3555 637.467 32.7266C637.467 30.7461 638.217 29.2109 639.717 28.1211C641.229 27.0195 643.35 26.4688 646.08 26.4688H649.244V24.9746C649.244 23.8379 648.904 22.9355 648.225 22.2676C647.545 21.5879 646.543 21.248 645.219 21.248C644.059 21.248 643.086 21.541 642.301 22.127C641.516 22.7129 641.123 23.4219 641.123 24.2539H637.854C637.854 23.3047 638.188 22.3906 638.855 21.5117C639.535 20.6211 640.449 19.918 641.598 19.4023C642.758 18.8867 644.029 18.6289 645.412 18.6289C647.604 18.6289 649.32 19.1797 650.562 20.2812C651.805 21.3711 652.449 22.877 652.496 24.7988V33.5527C652.496 35.2988 652.719 36.6875 653.164 37.7188V38H649.754ZM644.357 35.5215C645.377 35.5215 646.344 35.2578 647.258 34.7305C648.172 34.2031 648.834 33.5176 649.244 32.6738V28.7715H646.695C642.711 28.7715 640.719 29.9375 640.719 32.2695C640.719 33.2891 641.059 34.0859 641.738 34.6602C642.418 35.2344 643.291 35.5215 644.357 35.5215ZM663.535 33.2363L667.965 18.9805H671.445L663.799 40.9355C662.615 44.0996 660.734 45.6816 658.156 45.6816L657.541 45.6289L656.328 45.4004V42.7637L657.207 42.834C658.309 42.834 659.164 42.6113 659.773 42.166C660.395 41.7207 660.904 40.9062 661.303 39.7227L662.023 37.7891L655.238 18.9805H658.789L663.535 33.2363ZM48.6699 70.332C48.6699 67.4141 49.3613 65.0703 50.7441 63.3008C52.127 61.5195 53.9375 60.6289 56.1758 60.6289C58.4023 60.6289 60.166 61.3906 61.4668 62.9141V53H64.7188V80H61.7305L61.5723 77.9609C60.2715 79.5547 58.4609 80.3516 56.1406 80.3516C53.9375 80.3516 52.1387 79.4492 50.7441 77.6445C49.3613 75.8398 48.6699 73.4844 48.6699 70.5781V70.332ZM51.9219 70.7012C51.9219 72.8574 52.3672 74.5449 53.2578 75.7637C54.1484 76.9824 55.3789 77.5918 56.9492 77.5918C59.0117 77.5918 60.5176 76.666 61.4668 74.8145V66.0781C60.4941 64.2852 59 63.3887 56.9844 63.3887C55.3906 63.3887 54.1484 64.0039 53.2578 65.2344C52.3672 66.4648 51.9219 68.2871 51.9219 70.7012ZM81.5234 78.1191C80.2578 79.6074 78.4004 80.3516 75.9512 80.3516C73.9238 80.3516 72.377 79.7656 71.3105 78.5938C70.2559 77.4102 69.7227 75.6641 69.7109 73.3555V60.9805H72.9629V73.2676C72.9629 76.1504 74.1348 77.5918 76.4785 77.5918C78.9629 77.5918 80.6152 76.666 81.4355 74.8145V60.9805H84.6875V80H81.5938L81.5234 78.1191ZM98.8379 63.8984C98.3457 63.8164 97.8125 63.7754 97.2383 63.7754C95.1055 63.7754 93.6582 64.6836 92.8965 66.5V80H89.6445V60.9805H92.8086L92.8613 63.1777C93.9277 61.4785 95.4395 60.6289 97.3965 60.6289C98.0293 60.6289 98.5098 60.7109 98.8379 60.875V63.8984ZM105.377 80H102.125V60.9805H105.377V80ZM101.861 55.9355C101.861 55.4082 102.02 54.9629 102.336 54.5996C102.664 54.2363 103.145 54.0547 103.777 54.0547C104.41 54.0547 104.891 54.2363 105.219 54.5996C105.547 54.9629 105.711 55.4082 105.711 55.9355C105.711 56.4629 105.547 56.9023 105.219 57.2539C104.891 57.6055 104.41 57.7812 103.777 57.7812C103.145 57.7812 102.664 57.6055 102.336 57.2539C102.02 56.9023 101.861 56.4629 101.861 55.9355ZM113.674 60.9805L113.779 63.3711C115.232 61.543 117.131 60.6289 119.475 60.6289C123.494 60.6289 125.521 62.8965 125.557 67.4316V80H122.305V67.4141C122.293 66.043 121.977 65.0293 121.355 64.373C120.746 63.7168 119.791 63.3887 118.49 63.3887C117.436 63.3887 116.51 63.6699 115.713 64.2324C114.916 64.7949 114.295 65.5332 113.85 66.4473V80H110.598V60.9805H113.674ZM129.688 70.332C129.688 67.3672 130.373 65.0117 131.744 63.2656C133.115 61.5078 134.932 60.6289 137.193 60.6289C139.514 60.6289 141.324 61.4492 142.625 63.0898L142.783 60.9805H145.754V79.543C145.754 82.0039 145.021 83.9434 143.557 85.3613C142.104 86.7793 140.146 87.4883 137.686 87.4883C136.314 87.4883 134.973 87.1953 133.66 86.6094C132.348 86.0234 131.346 85.2207 130.654 84.2012L132.342 82.25C133.736 83.9727 135.441 84.834 137.457 84.834C139.039 84.834 140.27 84.3887 141.148 83.498C142.039 82.6074 142.484 81.3535 142.484 79.7363V78.1016C141.184 79.6016 139.408 80.3516 137.158 80.3516C134.932 80.3516 133.127 79.4551 131.744 77.6621C130.373 75.8691 129.688 73.4258 129.688 70.332ZM132.957 70.7012C132.957 72.8457 133.396 74.5332 134.275 75.7637C135.154 76.9824 136.385 77.5918 137.967 77.5918C140.018 77.5918 141.523 76.6602 142.484 74.7969V66.1133C141.488 64.2969 139.994 63.3887 138.002 63.3887C136.42 63.3887 135.184 64.0039 134.293 65.2344C133.402 66.4648 132.957 68.2871 132.957 70.7012ZM164.018 56.375V60.9805H167.568V63.4941H164.018V75.2891C164.018 76.0508 164.176 76.625 164.492 77.0117C164.809 77.3867 165.348 77.5742 166.109 77.5742C166.484 77.5742 167 77.5039 167.656 77.3633V80C166.801 80.2344 165.969 80.3516 165.16 80.3516C163.707 80.3516 162.611 79.9121 161.873 79.0332C161.135 78.1543 160.766 76.9062 160.766 75.2891V63.4941H157.303V60.9805H160.766V56.375H164.018ZM174.635 63.2832C176.076 61.5137 177.951 60.6289 180.26 60.6289C184.279 60.6289 186.307 62.8965 186.342 67.4316V80H183.09V67.4141C183.078 66.043 182.762 65.0293 182.141 64.373C181.531 63.7168 180.576 63.3887 179.275 63.3887C178.221 63.3887 177.295 63.6699 176.498 64.2324C175.701 64.7949 175.08 65.5332 174.635 66.4473V80H171.383V53H174.635V63.2832ZM202.953 80C202.766 79.625 202.613 78.957 202.496 77.9961C200.984 79.5664 199.18 80.3516 197.082 80.3516C195.207 80.3516 193.666 79.8242 192.459 78.7695C191.264 77.7031 190.666 76.3555 190.666 74.7266C190.666 72.7461 191.416 71.2109 192.916 70.1211C194.428 69.0195 196.549 68.4688 199.279 68.4688H202.443V66.9746C202.443 65.8379 202.104 64.9355 201.424 64.2676C200.744 63.5879 199.742 63.248 198.418 63.248C197.258 63.248 196.285 63.541 195.5 64.127C194.715 64.7129 194.322 65.4219 194.322 66.2539H191.053C191.053 65.3047 191.387 64.3906 192.055 63.5117C192.734 62.6211 193.648 61.918 194.797 61.4023C195.957 60.8867 197.229 60.6289 198.611 60.6289C200.803 60.6289 202.52 61.1797 203.762 62.2812C205.004 63.3711 205.648 64.877 205.695 66.7988V75.5527C205.695 77.2988 205.918 78.6875 206.363 79.7188V80H202.953ZM197.557 77.5215C198.576 77.5215 199.543 77.2578 200.457 76.7305C201.371 76.2031 202.033 75.5176 202.443 74.6738V70.7715H199.895C195.91 70.7715 193.918 71.9375 193.918 74.2695C193.918 75.2891 194.258 76.0859 194.938 76.6602C195.617 77.2344 196.49 77.5215 197.557 77.5215ZM215.205 56.375V60.9805H218.756V63.4941H215.205V75.2891C215.205 76.0508 215.363 76.625 215.68 77.0117C215.996 77.3867 216.535 77.5742 217.297 77.5742C217.672 77.5742 218.188 77.5039 218.844 77.3633V80C217.988 80.2344 217.156 80.3516 216.348 80.3516C214.895 80.3516 213.799 79.9121 213.061 79.0332C212.322 78.1543 211.953 76.9062 211.953 75.2891V63.4941H208.49V60.9805H211.953V56.375H215.205ZM240.693 63.8984C240.201 63.8164 239.668 63.7754 239.094 63.7754C236.961 63.7754 235.514 64.6836 234.752 66.5V80H231.5V60.9805H234.664L234.717 63.1777C235.783 61.4785 237.295 60.6289 239.252 60.6289C239.885 60.6289 240.365 60.7109 240.693 60.875V63.8984ZM254.738 80C254.551 79.625 254.398 78.957 254.281 77.9961C252.77 79.5664 250.965 80.3516 248.867 80.3516C246.992 80.3516 245.451 79.8242 244.244 78.7695C243.049 77.7031 242.451 76.3555 242.451 74.7266C242.451 72.7461 243.201 71.2109 244.701 70.1211C246.213 69.0195 248.334 68.4688 251.064 68.4688H254.229V66.9746C254.229 65.8379 253.889 64.9355 253.209 64.2676C252.529 63.5879 251.527 63.248 250.203 63.248C249.043 63.248 248.07 63.541 247.285 64.127C246.5 64.7129 246.107 65.4219 246.107 66.2539H242.838C242.838 65.3047 243.172 64.3906 243.84 63.5117C244.52 62.6211 245.434 61.918 246.582 61.4023C247.742 60.8867 249.014 60.6289 250.396 60.6289C252.588 60.6289 254.305 61.1797 255.547 62.2812C256.789 63.3711 257.434 64.877 257.48 66.7988V75.5527C257.48 77.2988 257.703 78.6875 258.148 79.7188V80H254.738ZM249.342 77.5215C250.361 77.5215 251.328 77.2578 252.242 76.7305C253.156 76.2031 253.818 75.5176 254.229 74.6738V70.7715H251.68C247.695 70.7715 245.703 71.9375 245.703 74.2695C245.703 75.2891 246.043 76.0859 246.723 76.6602C247.402 77.2344 248.275 77.5215 249.342 77.5215ZM278.645 70.7012C278.645 73.5957 277.982 75.9277 276.658 77.6973C275.334 79.4668 273.541 80.3516 271.279 80.3516C268.971 80.3516 267.154 79.6191 265.83 78.1543V87.3125H262.578V60.9805H265.549L265.707 63.0898C267.031 61.4492 268.871 60.6289 271.227 60.6289C273.512 60.6289 275.316 61.4902 276.641 63.2129C277.977 64.9355 278.645 67.332 278.645 70.4023V70.7012ZM275.393 70.332C275.393 68.1875 274.936 66.4941 274.021 65.252C273.107 64.0098 271.854 63.3887 270.26 63.3887C268.291 63.3887 266.814 64.2617 265.83 66.0078V75.0957C266.803 76.8301 268.291 77.6973 270.295 77.6973C271.854 77.6973 273.09 77.082 274.004 75.8516C274.93 74.6094 275.393 72.7695 275.393 70.332ZM286.326 80H283.074V60.9805H286.326V80ZM282.811 55.9355C282.811 55.4082 282.969 54.9629 283.285 54.5996C283.613 54.2363 284.094 54.0547 284.727 54.0547C285.359 54.0547 285.84 54.2363 286.168 54.5996C286.496 54.9629 286.66 55.4082 286.66 55.9355C286.66 56.4629 286.496 56.9023 286.168 57.2539C285.84 57.6055 285.359 57.7812 284.727 57.7812C284.094 57.7812 283.613 57.6055 283.285 57.2539C282.969 56.9023 282.811 56.4629 282.811 55.9355ZM290.756 70.332C290.756 67.4141 291.447 65.0703 292.83 63.3008C294.213 61.5195 296.023 60.6289 298.262 60.6289C300.488 60.6289 302.252 61.3906 303.553 62.9141V53H306.805V80H303.816L303.658 77.9609C302.357 79.5547 300.547 80.3516 298.227 80.3516C296.023 80.3516 294.225 79.4492 292.83 77.6445C291.447 75.8398 290.756 73.4844 290.756 70.5781V70.332ZM294.008 70.7012C294.008 72.8574 294.453 74.5449 295.344 75.7637C296.234 76.9824 297.465 77.5918 299.035 77.5918C301.098 77.5918 302.604 76.666 303.553 74.8145V66.0781C302.58 64.2852 301.086 63.3887 299.07 63.3887C297.477 63.3887 296.234 64.0039 295.344 65.2344C294.453 66.4648 294.008 68.2871 294.008 70.7012ZM336.898 70.7012C336.898 73.6074 336.23 75.9453 334.895 77.7148C333.559 79.4727 331.766 80.3516 329.516 80.3516C327.113 80.3516 325.256 79.502 323.943 77.8027L323.785 80H320.797V53H324.049V63.0723C325.361 61.4434 327.172 60.6289 329.48 60.6289C331.789 60.6289 333.6 61.502 334.912 63.248C336.236 64.9941 336.898 67.3848 336.898 70.4199V70.7012ZM333.646 70.332C333.646 68.1172 333.219 66.4062 332.363 65.1992C331.508 63.9922 330.277 63.3887 328.672 63.3887C326.527 63.3887 324.986 64.3848 324.049 66.377V74.6035C325.045 76.5957 326.598 77.5918 328.707 77.5918C330.266 77.5918 331.479 76.9883 332.346 75.7812C333.213 74.5742 333.646 72.7578 333.646 70.332ZM340.15 70.3145C340.15 68.4512 340.514 66.7754 341.24 65.2871C341.979 63.7988 342.998 62.6504 344.299 61.8418C345.611 61.0332 347.105 60.6289 348.781 60.6289C351.371 60.6289 353.463 61.5254 355.057 63.3184C356.662 65.1113 357.465 67.4961 357.465 70.4727V70.7012C357.465 72.5527 357.107 74.2168 356.393 75.6934C355.689 77.1582 354.676 78.3008 353.352 79.1211C352.039 79.9414 350.527 80.3516 348.816 80.3516C346.238 80.3516 344.146 79.4551 342.541 77.6621C340.947 75.8691 340.15 73.4961 340.15 70.543V70.3145ZM343.42 70.7012C343.42 72.8105 343.906 74.5039 344.879 75.7812C345.863 77.0586 347.176 77.6973 348.816 77.6973C350.469 77.6973 351.781 77.0527 352.754 75.7637C353.727 74.4629 354.213 72.6465 354.213 70.3145C354.213 68.2285 353.715 66.541 352.719 65.252C351.734 63.9512 350.422 63.3008 348.781 63.3008C347.176 63.3008 345.881 63.9395 344.896 65.2168C343.912 66.4941 343.42 68.3223 343.42 70.7012ZM360.752 70.332C360.752 67.4141 361.443 65.0703 362.826 63.3008C364.209 61.5195 366.02 60.6289 368.258 60.6289C370.484 60.6289 372.248 61.3906 373.549 62.9141V53H376.801V80H373.812L373.654 77.9609C372.354 79.5547 370.543 80.3516 368.223 80.3516C366.02 80.3516 364.221 79.4492 362.826 77.6445C361.443 75.8398 360.752 73.4844 360.752 70.5781V70.332ZM364.004 70.7012C364.004 72.8574 364.449 74.5449 365.34 75.7637C366.23 76.9824 367.461 77.5918 369.031 77.5918C371.094 77.5918 372.6 76.666 373.549 74.8145V66.0781C372.576 64.2852 371.082 63.3887 369.066 63.3887C367.473 63.3887 366.23 64.0039 365.34 65.2344C364.449 66.4648 364.004 68.2871 364.004 70.7012ZM388.086 75.2363L392.516 60.9805H395.996L388.35 82.9355C387.166 86.0996 385.285 87.6816 382.707 87.6816L382.092 87.6289L380.879 87.4004V84.7637L381.758 84.834C382.859 84.834 383.715 84.6113 384.324 84.166C384.945 83.7207 385.455 82.9062 385.854 81.7227L386.574 79.7891L379.789 60.9805H383.34L388.086 75.2363ZM407.07 70.332C407.07 67.3672 407.756 65.0117 409.127 63.2656C410.498 61.5078 412.314 60.6289 414.576 60.6289C416.896 60.6289 418.707 61.4492 420.008 63.0898L420.166 60.9805H423.137V79.543C423.137 82.0039 422.404 83.9434 420.939 85.3613C419.486 86.7793 417.529 87.4883 415.068 87.4883C413.697 87.4883 412.355 87.1953 411.043 86.6094C409.73 86.0234 408.729 85.2207 408.037 84.2012L409.725 82.25C411.119 83.9727 412.824 84.834 414.84 84.834C416.422 84.834 417.652 84.3887 418.531 83.498C419.422 82.6074 419.867 81.3535 419.867 79.7363V78.1016C418.566 79.6016 416.791 80.3516 414.541 80.3516C412.314 80.3516 410.51 79.4551 409.127 77.6621C407.756 75.8691 407.07 73.4258 407.07 70.332ZM410.34 70.7012C410.34 72.8457 410.779 74.5332 411.658 75.7637C412.537 76.9824 413.768 77.5918 415.35 77.5918C417.4 77.5918 418.906 76.6602 419.867 74.7969V66.1133C418.871 64.2969 417.377 63.3887 415.385 63.3887C413.803 63.3887 412.566 64.0039 411.676 65.2344C410.785 66.4648 410.34 68.2871 410.34 70.7012ZM437.252 63.8984C436.76 63.8164 436.227 63.7754 435.652 63.7754C433.52 63.7754 432.072 64.6836 431.311 66.5V80H428.059V60.9805H431.223L431.275 63.1777C432.342 61.4785 433.854 60.6289 435.811 60.6289C436.443 60.6289 436.924 60.7109 437.252 60.875V63.8984ZM439.045 70.3145C439.045 68.4512 439.408 66.7754 440.135 65.2871C440.873 63.7988 441.893 62.6504 443.193 61.8418C444.506 61.0332 446 60.6289 447.676 60.6289C450.266 60.6289 452.357 61.5254 453.951 63.3184C455.557 65.1113 456.359 67.4961 456.359 70.4727V70.7012C456.359 72.5527 456.002 74.2168 455.287 75.6934C454.584 77.1582 453.57 78.3008 452.246 79.1211C450.934 79.9414 449.422 80.3516 447.711 80.3516C445.133 80.3516 443.041 79.4551 441.436 77.6621C439.842 75.8691 439.045 73.4961 439.045 70.543V70.3145ZM442.314 70.7012C442.314 72.8105 442.801 74.5039 443.773 75.7812C444.758 77.0586 446.07 77.6973 447.711 77.6973C449.363 77.6973 450.676 77.0527 451.648 75.7637C452.621 74.4629 453.107 72.6465 453.107 70.3145C453.107 68.2285 452.609 66.541 451.613 65.252C450.629 63.9512 449.316 63.3008 447.676 63.3008C446.07 63.3008 444.775 63.9395 443.791 65.2168C442.807 66.4941 442.314 68.3223 442.314 70.7012ZM477.277 75.5176L480.934 60.9805H484.186L478.648 80H476.012L471.389 65.5859L466.889 80H464.252L458.732 60.9805H461.967L465.711 75.2188L470.141 60.9805H472.76L477.277 75.5176ZM491.92 56.375V60.9805H495.471V63.4941H491.92V75.2891C491.92 76.0508 492.078 76.625 492.395 77.0117C492.711 77.3867 493.25 77.5742 494.012 77.5742C494.387 77.5742 494.902 77.5039 495.559 77.3633V80C494.703 80.2344 493.871 80.3516 493.062 80.3516C491.609 80.3516 490.514 79.9121 489.775 79.0332C489.037 78.1543 488.668 76.9062 488.668 75.2891V63.4941H485.205V60.9805H488.668V56.375H491.92ZM502.537 63.2832C503.979 61.5137 505.854 60.6289 508.162 60.6289C512.182 60.6289 514.209 62.8965 514.244 67.4316V80H510.992V67.4141C510.98 66.043 510.664 65.0293 510.043 64.373C509.434 63.7168 508.479 63.3887 507.178 63.3887C506.123 63.3887 505.197 63.6699 504.4 64.2324C503.604 64.7949 502.982 65.5332 502.537 66.4473V80H499.285V53H502.537V63.2832ZM544.109 70.7012C544.109 73.5957 543.447 75.9277 542.123 77.6973C540.799 79.4668 539.006 80.3516 536.744 80.3516C534.436 80.3516 532.619 79.6191 531.295 78.1543V87.3125H528.043V60.9805H531.014L531.172 63.0898C532.496 61.4492 534.336 60.6289 536.691 60.6289C538.977 60.6289 540.781 61.4902 542.105 63.2129C543.441 64.9355 544.109 67.332 544.109 70.4023V70.7012ZM540.857 70.332C540.857 68.1875 540.4 66.4941 539.486 65.252C538.572 64.0098 537.318 63.3887 535.725 63.3887C533.756 63.3887 532.279 64.2617 531.295 66.0078V75.0957C532.268 76.8301 533.756 77.6973 535.76 77.6973C537.318 77.6973 538.555 77.082 539.469 75.8516C540.395 74.6094 540.857 72.7695 540.857 70.332ZM551.51 63.2832C552.951 61.5137 554.826 60.6289 557.135 60.6289C561.154 60.6289 563.182 62.8965 563.217 67.4316V80H559.965V67.4141C559.953 66.043 559.637 65.0293 559.016 64.373C558.406 63.7168 557.451 63.3887 556.15 63.3887C555.096 63.3887 554.17 63.6699 553.373 64.2324C552.576 64.7949 551.955 65.5332 551.51 66.4473V80H548.258V53H551.51V63.2832ZM579.828 80C579.641 79.625 579.488 78.957 579.371 77.9961C577.859 79.5664 576.055 80.3516 573.957 80.3516C572.082 80.3516 570.541 79.8242 569.334 78.7695C568.139 77.7031 567.541 76.3555 567.541 74.7266C567.541 72.7461 568.291 71.2109 569.791 70.1211C571.303 69.0195 573.424 68.4688 576.154 68.4688H579.318V66.9746C579.318 65.8379 578.979 64.9355 578.299 64.2676C577.619 63.5879 576.617 63.248 575.293 63.248C574.133 63.248 573.16 63.541 572.375 64.127C571.59 64.7129 571.197 65.4219 571.197 66.2539H567.928C567.928 65.3047 568.262 64.3906 568.93 63.5117C569.609 62.6211 570.523 61.918 571.672 61.4023C572.832 60.8867 574.104 60.6289 575.486 60.6289C577.678 60.6289 579.395 61.1797 580.637 62.2812C581.879 63.3711 582.523 64.877 582.57 66.7988V75.5527C582.57 77.2988 582.793 78.6875 583.238 79.7188V80H579.828ZM574.432 77.5215C575.451 77.5215 576.418 77.2578 577.332 76.7305C578.246 76.2031 578.908 75.5176 579.318 74.6738V70.7715H576.77C572.785 70.7715 570.793 71.9375 570.793 74.2695C570.793 75.2891 571.133 76.0859 571.812 76.6602C572.492 77.2344 573.365 77.5215 574.432 77.5215ZM598.742 74.9551C598.742 74.0762 598.408 73.3965 597.74 72.916C597.084 72.4238 595.93 72.002 594.277 71.6504C592.637 71.2988 591.33 70.877 590.357 70.3848C589.396 69.8926 588.682 69.3066 588.213 68.627C587.756 67.9473 587.527 67.1387 587.527 66.2012C587.527 64.6426 588.184 63.3242 589.496 62.2461C590.82 61.168 592.508 60.6289 594.559 60.6289C596.715 60.6289 598.461 61.1855 599.797 62.2988C601.145 63.4121 601.818 64.8359 601.818 66.5703H598.549C598.549 65.6797 598.168 64.9121 597.406 64.2676C596.656 63.623 595.707 63.3008 594.559 63.3008C593.375 63.3008 592.449 63.5586 591.781 64.0742C591.113 64.5898 590.779 65.2637 590.779 66.0957C590.779 66.8809 591.09 67.4727 591.711 67.8711C592.332 68.2695 593.451 68.6504 595.068 69.0137C596.697 69.377 598.016 69.8105 599.023 70.3145C600.031 70.8184 600.775 71.4277 601.256 72.1426C601.748 72.8457 601.994 73.707 601.994 74.7266C601.994 76.4258 601.314 77.791 599.955 78.8223C598.596 79.8418 596.832 80.3516 594.664 80.3516C593.141 80.3516 591.793 80.082 590.621 79.543C589.449 79.0039 588.529 78.2539 587.861 77.293C587.205 76.3203 586.877 75.2715 586.877 74.1465H590.129C590.188 75.2363 590.621 76.1035 591.43 76.748C592.25 77.3809 593.328 77.6973 594.664 77.6973C595.895 77.6973 596.879 77.4512 597.617 76.959C598.367 76.4551 598.742 75.7871 598.742 74.9551ZM614.123 80.3516C611.545 80.3516 609.447 79.5078 607.83 77.8203C606.213 76.1211 605.404 73.8535 605.404 71.0176V70.4199C605.404 68.5332 605.762 66.8516 606.477 65.375C607.203 63.8867 608.211 62.7266 609.5 61.8945C610.801 61.0508 612.207 60.6289 613.719 60.6289C616.191 60.6289 618.113 61.4434 619.484 63.0723C620.855 64.7012 621.541 67.0332 621.541 70.0684V71.4219H608.656C608.703 73.2969 609.248 74.8145 610.291 75.9746C611.346 77.123 612.682 77.6973 614.299 77.6973C615.447 77.6973 616.42 77.4629 617.217 76.9941C618.014 76.5254 618.711 75.9043 619.309 75.1309L621.295 76.6777C619.701 79.127 617.311 80.3516 614.123 80.3516ZM613.719 63.3008C612.406 63.3008 611.305 63.7812 610.414 64.7422C609.523 65.6914 608.973 67.0273 608.762 68.75H618.289V68.5039C618.195 66.8516 617.75 65.5742 616.953 64.6719C616.156 63.7578 615.078 63.3008 613.719 63.3008ZM625.391 78.2949C625.391 77.7324 625.555 77.2637 625.883 76.8887C626.223 76.5137 626.727 76.3262 627.395 76.3262C628.062 76.3262 628.566 76.5137 628.906 76.8887C629.258 77.2637 629.434 77.7324 629.434 78.2949C629.434 78.834 629.258 79.2852 628.906 79.6484C628.566 80.0117 628.062 80.1934 627.395 80.1934C626.727 80.1934 626.223 80.0117 625.883 79.6484C625.555 79.2852 625.391 78.834 625.391 78.2949Z" fill="black"/>
</svg>
