<svg width="658" height="135" viewBox="0 0 658 135" fill="none" xmlns="http://www.w3.org/2000/svg">
<rect y="51.8742" width="652.599" height="82.7783" rx="30" transform="rotate(-4.55917 0 51.8742)" fill="#A9CDF6"/>
<path d="M20.6355 104.738L18.5612 79.2283L25.762 78.6428C27.9813 78.4623 29.9834 78.7933 31.7685 79.6358C33.5536 80.4783 34.9811 81.7672 36.0511 83.5026C37.1327 85.2371 37.7748 87.2777 37.9774 89.6244L38.1099 91.2538C38.3055 93.6599 38.0098 95.8062 37.2226 97.6926C36.4471 99.5781 35.2344 101.076 33.5845 102.186C31.9464 103.295 29.9836 103.954 27.6962 104.164L20.6355 104.738ZM22.1502 81.723L23.7757 101.714L27.3148 101.426C29.9078 101.215 31.8571 100.245 33.1627 98.5166C34.48 96.7869 35.0175 94.4329 34.7753 91.4544L34.6542 89.9652C34.4187 87.0685 33.5526 84.8756 32.0559 83.3866C30.5699 81.8849 28.5762 81.224 26.0747 81.4039L22.1502 81.723ZM42.0312 93.2806C41.8802 91.4234 42.1065 89.7237 42.71 88.1814C43.3252 86.6382 44.2483 85.4109 45.4793 84.4996C46.722 83.5873 48.1784 83.0632 49.8487 82.9274C52.43 82.7175 54.5876 83.4415 56.3214 85.0994C58.0669 86.7563 59.0603 89.0682 59.3015 92.035L59.32 92.2627C59.4701 94.1082 59.2487 95.7958 58.6559 97.3254C58.0738 98.8424 57.1561 100.063 55.9027 100.988C54.661 101.912 53.1875 102.444 51.4822 102.582C48.9125 102.791 46.755 102.067 45.0095 100.41C43.2756 98.7524 42.2891 96.4517 42.0497 93.5083L42.0312 93.2806ZM45.3213 93.401C45.4923 95.5035 46.1142 97.1518 47.1872 98.3462C48.2719 99.5395 49.6318 100.07 51.2671 99.9367C52.914 99.8028 54.1699 99.054 55.0349 97.6904C55.8989 96.3151 56.2364 94.4652 56.0474 92.1408C55.8784 90.0618 55.2452 88.4202 54.1479 87.2161C53.0613 85.9994 51.7005 85.4575 50.0652 85.5905C48.465 85.7206 47.2261 86.4621 46.3485 87.815C45.4709 89.168 45.1285 91.03 45.3213 93.401ZM62.5839 91.627C62.3436 88.6719 62.836 86.2686 64.0611 84.4171C65.2852 82.554 67.0244 81.5307 69.2787 81.3474C71.5914 81.1594 73.4624 81.8303 74.8919 83.3601L74.8786 81.2448L77.8396 81.004L79.344 99.5055C79.5435 101.958 78.9706 103.951 77.6255 105.483C76.2921 107.014 74.399 107.879 71.9461 108.079C70.5796 108.19 69.2184 108.006 67.8628 107.529C66.5071 107.051 65.4434 106.332 64.6716 105.372L66.1954 103.291C67.725 104.895 69.4943 105.615 71.5032 105.452C73.0801 105.323 74.2704 104.78 75.0742 103.821C75.8897 102.861 76.232 101.575 76.1009 99.9632L75.9684 98.3338C74.7935 99.9343 73.0847 100.826 70.8421 101.008C68.6229 101.189 66.7515 100.441 65.2279 98.7662C63.716 97.0903 62.8347 94.7105 62.5839 91.627ZM65.8726 91.7299C66.0464 93.8674 66.6212 95.5137 67.5969 96.6689C68.5717 97.8124 69.8475 98.3201 71.4244 98.1918C73.4684 98.0256 74.8938 96.975 75.7006 95.04L74.9968 86.3849C73.8568 84.6552 72.2939 83.8711 70.3083 84.0326C68.7315 84.1608 67.5491 84.8742 66.7611 86.1728C65.9731 87.4714 65.677 89.3238 65.8726 91.7299ZM94.9156 93.6362C94.8444 92.7602 94.4564 92.1098 93.7517 91.6851C93.0577 91.2477 91.873 90.9208 90.1976 90.7043C88.5339 90.4868 87.1974 90.1723 86.188 89.7605C85.1904 89.3478 84.4304 88.8218 83.9081 88.1823C83.3975 87.5419 83.1042 86.7545 83.0282 85.8201C82.9019 84.2666 83.4491 82.8994 84.6699 81.7184C85.9024 80.5365 87.5407 79.8625 89.5847 79.6963C91.7339 79.5215 93.5193 79.9348 94.9411 80.9361C96.3746 81.9365 97.1616 83.3011 97.3021 85.0297L94.0434 85.2947C93.9712 84.407 93.5294 83.6728 92.7179 83.0922C91.9181 82.5105 90.9459 82.2663 89.8013 82.3593C88.6216 82.4553 87.7197 82.7873 87.0957 83.3553C86.4718 83.9234 86.1935 84.6221 86.2609 85.4514C86.3246 86.2339 86.682 86.7986 87.3334 87.1454C87.9847 87.4922 89.1311 87.7811 90.7724 88.0121C92.4254 88.2422 93.7745 88.5675 94.8199 88.9881C95.8652 89.4086 96.6563 89.9557 97.1931 90.6293C97.7407 91.2902 98.0557 92.1287 98.1384 93.1449C98.2761 94.8385 97.7093 96.2544 96.438 97.3924C95.1657 98.5187 93.4491 99.1698 91.2883 99.3455C89.7699 99.469 88.4048 99.3095 87.1931 98.8672C85.9814 98.4249 85.0037 97.7519 84.2601 96.8483C83.5271 95.932 83.1151 94.9132 83.0239 93.7919L86.2652 93.5284C86.4119 94.6099 86.9143 95.4391 87.7725 96.016C88.6414 96.5802 89.7416 96.8082 91.0732 96.6999C92.2996 96.6002 93.2608 96.2751 93.9568 95.7247C94.6634 95.1617 94.9831 94.4655 94.9156 93.6362ZM119.106 94.4205C120.262 94.3264 121.244 93.8939 122.051 93.1228C122.859 92.3517 123.266 91.4367 123.274 90.3779L126.34 90.1286C126.37 91.2196 126.08 92.2837 125.471 93.3209C124.862 94.358 124.003 95.2156 122.894 95.8937C121.797 96.5708 120.606 96.9616 119.321 97.066C116.739 97.2759 114.614 96.5846 112.944 94.992C111.285 93.3868 110.334 91.0892 110.091 88.099L110.047 87.5559C109.897 85.7104 110.102 84.0418 110.663 82.5501C111.223 81.0583 112.102 79.864 113.299 78.9672C114.508 78.0694 115.976 77.5502 117.705 77.4097C119.831 77.2368 121.646 77.73 123.151 78.8891C124.668 80.0474 125.556 81.6389 125.815 83.6636L122.748 83.9129C122.555 82.6941 122.006 81.7276 121.102 81.0134C120.208 80.2866 119.148 79.973 117.921 80.0728C116.274 80.2067 115.044 80.9064 114.23 82.1718C113.426 83.4247 113.116 85.1724 113.298 87.415L113.348 88.0282C113.526 90.2124 114.112 91.8578 115.107 92.9643C116.103 94.0709 117.435 94.5563 119.106 94.4205ZM142.174 94.855C141.957 94.4964 141.751 93.843 141.556 92.8947C140.176 94.5824 138.441 95.5112 136.351 95.6813C134.482 95.8332 132.903 95.4325 131.614 94.4791C130.337 93.5131 129.632 92.2183 129.5 90.5948C129.339 88.6208 129.962 87.0299 131.369 85.8221C132.787 84.6016 134.856 83.8808 137.577 83.6595L140.731 83.403L140.61 81.9138C140.518 80.7808 140.106 79.909 139.374 79.2983C138.642 78.6759 137.616 78.4184 136.296 78.5257C135.14 78.6198 134.194 78.9906 133.459 79.6382C132.724 80.2859 132.39 81.0244 132.457 81.8537L129.198 82.1186C129.122 81.1725 129.38 80.2344 129.975 79.3043C130.58 78.3615 131.434 77.5866 132.537 76.9796C133.652 76.3716 134.898 76.0116 136.276 75.8995C138.461 75.7219 140.216 76.1318 141.544 77.129C142.87 78.1146 143.635 79.5633 143.837 81.475L144.547 90.2001C144.688 91.9405 145.023 93.3065 145.55 94.2983L145.573 94.5786L142.174 94.855ZM136.594 92.822C137.61 92.7394 138.553 92.3982 139.421 91.7985C140.289 91.1989 140.894 90.4619 141.234 89.5877L140.918 85.6982L138.377 85.9048C134.406 86.2277 132.515 87.5513 132.704 89.8757C132.787 90.8919 133.19 91.6586 133.914 92.1758C134.638 92.693 135.531 92.9085 136.594 92.822ZM151.512 75.0133L151.811 77.3876C153.111 75.4477 154.93 74.3828 157.266 74.1928C161.272 73.867 163.476 75.9628 163.879 80.4802L164.898 93.0072L161.656 93.2708L160.636 80.7263C160.514 79.3606 160.116 78.3759 159.444 77.7722C158.783 77.1675 157.805 76.9178 156.508 77.0233C155.457 77.1087 154.557 77.4641 153.808 78.0893C153.06 78.7146 152.5 79.5008 152.131 80.4479L153.229 93.9561L149.988 94.2196L148.446 75.2627L151.512 75.0133ZM182.208 91.5997L178.966 91.8632L176.778 64.9521L180.019 64.6885L182.208 91.5997ZM195.306 90.8873C192.737 91.0962 190.578 90.4253 188.829 88.8744C187.079 87.3118 186.09 85.1172 185.86 82.2906L185.811 81.6949C185.658 79.8144 185.878 78.1094 186.471 76.5797C187.075 75.0374 187.985 73.7994 189.203 72.8657C190.431 71.9193 191.798 71.3848 193.305 71.2623C195.769 71.0619 197.751 71.7179 199.25 73.2303C200.748 74.7427 201.62 77.0115 201.866 80.0367L201.976 81.3858L189.134 82.43C189.332 84.2951 189.999 85.7635 191.132 86.8353C192.276 87.8945 193.655 88.3585 195.266 88.2275C196.411 88.1344 197.362 87.822 198.118 87.2902C198.874 86.7584 199.519 86.0828 200.052 85.2635L202.157 86.6443C200.767 89.2146 198.483 90.6289 195.306 90.8873ZM193.521 73.9254C192.213 74.0317 191.154 74.5999 190.344 75.6299C189.534 76.6481 189.093 78.0243 189.022 79.7584L198.518 78.9862L198.498 78.741C198.271 77.1016 197.724 75.8646 196.856 75.0298C195.988 74.1833 194.876 73.8152 193.521 73.9254ZM218.142 88.6777C217.925 88.3191 217.719 87.6657 217.524 86.7174C216.144 88.4051 214.409 89.3339 212.319 89.5039C210.45 89.6559 208.871 89.2552 207.582 88.3018C206.305 87.3358 205.6 86.041 205.468 84.4174C205.307 82.4435 205.93 80.8526 207.337 79.6448C208.755 78.4243 210.824 77.7034 213.545 77.4821L216.699 77.2257L216.578 75.7365C216.486 74.6035 216.074 73.7317 215.342 73.121C214.61 72.4986 213.584 72.2411 212.264 72.3484C211.108 72.4424 210.162 72.8133 209.427 73.4609C208.692 74.1086 208.358 74.847 208.425 75.6763L205.166 75.9413C205.09 74.9952 205.348 74.0571 205.943 73.1269C206.548 72.1842 207.402 71.4093 208.505 70.8023C209.62 70.1943 210.866 69.8343 212.244 69.7222C214.429 69.5446 216.184 69.9544 217.512 70.9517C218.838 71.9373 219.603 73.386 219.805 75.2977L220.515 84.0228C220.656 85.7632 220.991 87.1292 221.518 88.121L221.541 88.4013L218.142 88.6777ZM212.562 86.6447C213.578 86.5621 214.521 86.2209 215.389 85.6212C216.257 85.0215 216.862 84.2846 217.202 83.4104L216.886 79.5209L214.345 79.7274C210.374 80.0504 208.483 81.374 208.672 83.6984C208.755 84.7145 209.158 85.4812 209.882 85.9985C210.606 86.5157 211.499 86.7311 212.562 86.6447ZM233.814 71.2486C233.317 71.2067 232.782 71.2091 232.21 71.2556C230.084 71.4285 228.715 72.451 228.103 74.3231L229.197 87.7787L225.956 88.0423L224.414 69.0853L227.568 68.8289L227.799 71.0147C228.724 69.2346 230.162 68.2653 232.112 68.1067C232.743 68.0554 233.229 68.0982 233.569 68.2351L233.814 71.2486ZM239.64 67.8473L239.938 70.2215C241.239 68.2816 243.057 67.2167 245.393 67.0268C249.399 66.701 251.603 68.7968 252.006 73.3142L253.025 85.8412L249.783 86.1048L248.763 73.5602C248.641 72.1946 248.243 71.2099 247.571 70.6062C246.91 70.0014 245.932 69.7518 244.635 69.8572C243.584 69.9427 242.684 70.2981 241.935 70.9233C241.187 71.5485 240.628 72.3347 240.258 73.2819L241.356 86.79L238.115 87.0536L236.573 68.0966L239.64 67.8473ZM268.32 65.5151L268.579 67.6105C269.836 65.8622 271.644 64.8922 274.003 64.7003C276.655 64.4847 278.542 65.3541 279.665 67.3086C280.222 66.3463 280.979 65.5439 281.938 64.9016C282.909 64.2583 284.083 63.8806 285.462 63.7686C289.62 63.4305 291.913 65.4603 292.341 69.858L293.374 82.5602L290.133 82.8238L289.115 70.3143C289.005 68.9594 288.614 67.9742 287.94 67.3588C287.266 66.7317 286.199 66.4775 284.739 66.5962C283.536 66.694 282.567 67.1373 281.832 67.9261C281.095 68.7031 280.712 69.7043 280.683 70.9295L281.705 83.509L278.447 83.774L277.437 71.3521C277.212 68.5956 275.751 67.327 273.053 67.5464C270.927 67.7193 269.547 68.7428 268.911 70.6168L270.037 84.4579L266.796 84.7214L265.254 65.7645L268.32 65.5151ZM296.636 72.5774C296.485 70.7203 296.711 69.0206 297.315 67.4783C297.93 65.9351 298.853 64.7078 300.084 63.7964C301.327 62.8841 302.783 62.3601 304.454 62.2242C307.035 62.0143 309.193 62.7383 310.926 64.3962C312.672 66.0532 313.665 68.3651 313.906 71.3318L313.925 71.5596C314.075 73.4051 313.854 75.0926 313.261 76.6223C312.679 78.1393 311.761 79.3602 310.508 80.2852C309.266 81.2092 307.792 81.7405 306.087 81.8792C303.518 82.0881 301.36 81.3641 299.614 79.7072C297.881 78.0493 296.894 75.7486 296.655 72.8052L296.636 72.5774ZM299.926 72.6979C300.097 74.8003 300.719 76.4487 301.792 77.643C302.877 78.8364 304.237 79.3666 305.872 79.2336C307.519 79.0997 308.775 78.3509 309.64 76.9872C310.504 75.6119 310.841 73.7621 310.652 71.4377C310.483 69.3586 309.85 67.717 308.753 66.513C307.666 65.2962 306.305 64.7544 304.67 64.8873C303.07 65.0174 301.831 65.759 300.953 67.1119C300.076 68.4648 299.733 70.3268 299.926 72.6979ZM326.601 63.7036C326.104 63.6617 325.569 63.6641 324.997 63.7106C322.871 63.8835 321.502 64.906 320.89 66.7782L321.985 80.2337L318.743 80.4973L317.202 61.5403L320.356 61.2839L320.586 63.4697C321.511 61.6896 322.949 60.7203 324.9 60.5617C325.531 60.5104 326.016 60.5532 326.356 60.6901L326.601 63.7036ZM338.447 79.2478C335.877 79.4568 333.718 78.7858 331.97 77.2349C330.22 75.6724 329.23 73.4778 329.001 70.6512L328.952 70.0555C328.799 68.175 329.019 66.4699 329.612 64.9403C330.216 63.398 331.126 62.16 332.343 61.2262C333.572 60.2798 334.939 59.7453 336.446 59.6228C338.91 59.4224 340.892 60.0784 342.39 61.5908C343.889 63.1033 344.761 65.3721 345.007 68.3972L345.117 69.7463L332.275 70.7906C332.473 72.6556 333.139 74.124 334.273 75.1958C335.417 76.255 336.795 76.7191 338.407 76.588C339.552 76.4949 340.502 76.1825 341.259 75.6507C342.015 75.1189 342.659 74.4433 343.192 73.624L345.298 75.0048C343.908 77.5751 341.624 78.9895 338.447 79.2478ZM336.662 62.2859C335.354 62.3923 334.295 62.9604 333.485 63.9904C332.674 65.0087 332.234 66.3849 332.163 68.1189L341.659 67.3468L341.639 67.1015C341.412 65.4622 340.864 64.2251 339.997 63.3903C339.129 62.5439 338.017 62.1757 336.662 62.2859ZM360.962 53.3613L361.335 57.9516L364.875 57.6638L365.078 60.1693L361.539 60.457L362.495 72.2132C362.557 72.9724 362.761 73.5319 363.108 73.8917C363.454 74.2398 364.006 74.383 364.765 74.3213C365.139 74.2909 365.647 74.179 366.29 73.9856L366.504 76.6137C365.67 76.9166 364.85 77.1009 364.044 77.1664C362.596 77.2842 361.468 76.935 360.661 76.1188C359.854 75.3026 359.385 74.0886 359.254 72.4767L358.298 60.7206L354.846 61.0013L354.643 58.4958L358.094 58.2152L357.721 53.6249L360.962 53.3613ZM372.104 59.3863C373.398 57.5058 375.195 56.4719 377.496 56.2848C381.502 55.9591 383.707 58.0549 384.109 62.5723L385.128 75.0993L381.886 75.3628L380.866 62.8183C380.744 61.4527 380.346 60.468 379.674 59.8642C379.013 59.2595 378.035 59.0099 376.738 59.1153C375.687 59.2008 374.787 59.5561 374.038 60.1814C373.29 60.8066 372.731 61.5928 372.361 62.5399L373.459 76.0481L370.218 76.3117L368.03 49.4005L371.271 49.1369L372.104 59.3863ZM401.684 73.753C401.467 73.3944 401.261 72.741 401.066 71.7927C399.687 73.4804 397.952 74.4092 395.861 74.5792C393.992 74.7312 392.414 74.3305 391.125 73.3771C389.847 72.4111 389.142 71.1163 389.01 69.4927C388.85 67.5188 389.473 65.9279 390.88 64.72C392.297 63.4996 394.367 62.7787 397.088 62.5574L400.242 62.301L400.121 60.8117C400.029 59.6788 399.617 58.8069 398.885 58.1963C398.153 57.5739 397.126 57.3164 395.806 57.4237C394.65 57.5177 393.704 57.8886 392.969 58.5362C392.234 59.1838 391.9 59.9223 391.968 60.7516L388.709 61.0166C388.632 60.0705 388.891 59.1324 389.486 58.2022C390.091 57.2594 390.945 56.4845 392.048 55.8775C393.162 55.2696 394.409 54.9096 395.787 54.7975C397.971 54.6199 399.727 55.0297 401.054 56.027C402.381 57.0126 403.145 58.4612 403.348 60.373L404.057 69.0981C404.199 70.8384 404.533 72.2045 405.061 73.1963L405.083 73.4766L401.684 73.753ZM396.105 71.72C397.121 71.6374 398.063 71.2962 398.932 70.6965C399.8 70.0968 400.404 69.3599 400.745 68.4856L400.428 64.5961L397.888 64.8027C393.917 65.1256 392.026 66.4493 392.215 68.7736C392.297 69.7898 392.701 70.5565 393.424 71.0738C394.148 71.591 395.042 71.8064 396.105 71.72ZM411.023 53.9113L411.322 56.2855C412.622 54.3456 414.44 53.2807 416.776 53.0908C420.783 52.765 422.987 54.8608 423.39 59.3782L424.408 71.9052L421.167 72.1688L420.147 59.6242C420.024 58.2586 419.627 57.2739 418.954 56.6701C418.294 56.0654 417.315 55.8158 416.019 55.9212C414.968 56.0067 414.068 56.3621 413.319 56.9873C412.57 57.6125 412.011 58.3987 411.641 59.3459L412.74 72.854L409.498 73.1176L407.957 54.1606L411.023 53.9113ZM448.516 69.9449L445.257 70.2098L443.501 48.6073L437.161 51.539L436.922 48.5956L445.924 44.354L446.432 44.3127L448.516 69.9449ZM473.124 56.9919C473.432 60.7879 473.013 63.6614 471.867 65.6123C470.72 67.5632 468.769 68.6507 466.012 68.8749C463.291 69.0962 461.203 68.3606 459.749 66.6683C458.293 64.9642 457.396 62.3212 457.058 58.7391L456.706 54.4116C456.401 50.6623 456.823 47.8238 457.971 45.8963C459.12 43.9688 461.078 42.8925 463.846 42.6674C466.591 42.4442 468.683 43.1617 470.123 44.82C471.562 46.4666 472.448 49.1223 472.782 52.787L473.124 56.9919ZM469.522 52.8228C469.299 50.078 468.751 48.112 467.878 46.9249C467.005 45.7261 465.733 45.1946 464.063 45.3305C462.404 45.4653 461.246 46.1885 460.588 47.5C459.931 48.8115 459.696 50.7648 459.883 53.3597L460.305 58.5457C460.529 61.3022 461.092 63.3081 461.994 64.5634C462.906 65.806 464.174 66.3613 465.797 66.2293C467.397 66.0992 468.533 65.3837 469.203 64.083C469.885 62.7812 470.135 60.7974 469.953 58.1315L469.522 52.8228ZM493.272 55.3535C493.581 59.1496 493.162 62.0231 492.015 63.974C490.869 65.9249 488.917 67.0124 486.161 67.2365C483.439 67.4578 481.351 66.7223 479.897 65.0299C478.441 63.3258 477.545 60.6828 477.206 57.1008L476.854 52.7733C476.55 49.0239 476.971 46.1855 478.12 44.258C479.268 42.3304 481.226 41.2541 483.994 41.029C486.739 40.8058 488.832 41.5234 490.272 43.1816C491.711 44.8282 492.597 47.4839 492.93 51.1486L493.272 55.3535ZM489.67 51.1844C489.447 48.4396 488.899 46.4736 488.027 45.2865C487.153 44.0878 485.881 43.5563 484.211 43.6921C482.552 43.827 481.394 44.5502 480.737 45.8617C480.079 47.1732 479.844 49.1264 480.032 51.7213L480.453 56.9073C480.677 59.6638 481.24 61.6697 482.142 62.925C483.054 64.1677 484.322 64.723 485.946 64.591C487.546 64.4608 488.681 63.7454 489.351 62.4446C490.033 61.1429 490.283 59.159 490.102 56.4931L489.67 51.1844ZM513.42 53.7152C513.729 57.5112 513.31 60.3847 512.164 62.3356C511.017 64.2865 509.066 65.374 506.309 65.5982C503.588 65.8195 501.5 65.0839 500.045 63.3915C498.59 61.6875 497.693 59.0445 497.355 55.4624L497.003 51.1349C496.698 47.3856 497.12 44.5471 498.268 42.6196C499.416 40.6921 501.375 39.6157 504.143 39.3907C506.888 39.1675 508.98 39.885 510.42 41.5433C511.859 43.1899 512.745 45.8456 513.078 49.5103L513.42 53.7152ZM509.818 49.5461C509.595 46.8012 509.047 44.8353 508.175 43.6482C507.301 42.4494 506.03 41.9179 504.359 42.0537C502.701 42.1886 501.543 42.9118 500.885 44.2233C500.227 45.5348 499.992 47.488 500.18 50.0829L500.602 55.2689C500.826 58.0255 501.389 60.0314 502.29 61.2867C503.203 62.5293 504.47 63.0846 506.094 62.9526C507.694 62.8225 508.829 62.107 509.5 60.8062C510.181 59.5045 510.432 57.5207 510.25 54.8547L509.818 49.5461ZM544.112 57.6743L546.578 42.8887L549.819 42.6252L545.841 62.0309L543.213 62.2446L537.437 48.2526L534.12 62.984L531.492 63.1977L524.449 44.6881L527.673 44.4259L532.559 58.3139L535.82 43.7635L538.431 43.5512L544.112 57.6743ZM553.028 51.729C552.877 49.8718 553.103 48.1721 553.707 46.6298C554.322 45.0866 555.245 43.8593 556.476 42.948C557.719 42.0357 559.175 41.5116 560.846 41.3758C563.427 41.1659 565.585 41.8899 567.318 43.5478C569.064 45.2047 570.057 47.5166 570.299 50.4834L570.317 50.7111C570.467 52.5566 570.246 54.2442 569.653 55.7738C569.071 57.2908 568.153 58.5118 566.9 59.4367C565.658 60.3607 564.184 60.892 562.479 61.0307C559.91 61.2397 557.752 60.5157 556.006 58.8587C554.273 57.2008 553.286 54.9002 553.047 51.9567L553.028 51.729ZM556.318 51.8494C556.489 53.9519 557.111 55.6002 558.184 56.7946C559.269 57.9879 560.629 58.5181 562.264 58.3851C563.911 58.2512 565.167 57.5024 566.032 56.1388C566.896 54.7635 567.233 52.9136 567.044 50.5892C566.875 48.5102 566.242 46.8686 565.145 45.6645C564.058 44.4478 562.697 43.9059 561.062 44.0389C559.462 44.169 558.223 44.9105 557.346 46.2634C556.468 47.6164 556.126 49.4784 556.318 51.8494ZM582.994 42.8552C582.496 42.8133 581.962 42.8156 581.389 42.8622C579.263 43.035 577.894 44.0575 577.282 45.9297L578.377 59.3853L575.135 59.6489L573.594 40.6919L576.748 40.4355L576.978 42.6212C577.903 40.8412 579.341 39.8718 581.292 39.7132C581.923 39.6619 582.408 39.7047 582.748 39.8417L582.994 42.8552ZM585.372 49.1166C585.136 46.2082 585.635 43.8161 586.87 41.9403C588.104 40.0529 589.836 39.0185 592.067 38.837C594.286 38.6566 596.106 39.2729 597.526 40.6859L596.722 30.8044L599.963 30.5409L602.152 57.452L599.173 57.6942L598.85 55.6747C597.683 57.3686 595.943 58.3096 593.63 58.4977C591.434 58.6762 589.568 57.9226 588.032 56.2369C586.508 54.5502 585.628 52.2586 585.392 49.3619L585.372 49.1166ZM588.643 49.2209C588.818 51.3701 589.399 53.016 590.385 54.1585C591.372 55.3011 592.647 55.8087 594.213 55.6814C596.268 55.5143 597.694 54.4695 598.49 52.5471L597.782 43.8395C596.667 42.1313 595.105 41.3588 593.096 41.5222C591.508 41.6514 590.32 42.3653 589.532 43.6639C588.744 44.9625 588.448 46.8148 588.643 49.2209ZM617.826 51.1159C617.755 50.2399 617.367 49.5895 616.663 49.1647C615.969 48.7273 614.784 48.4004 613.108 48.1839C611.445 47.9665 610.108 47.6519 609.099 47.2401C608.101 46.8275 607.341 46.3014 606.819 45.6619C606.308 45.0215 606.015 44.2341 605.939 43.2997C605.813 41.7462 606.36 40.379 607.581 39.1981C608.813 38.0162 610.451 37.3421 612.496 37.1759C614.645 37.0011 616.43 37.4144 617.852 38.4158C619.285 39.4162 620.072 40.7807 620.213 42.5094L616.954 42.7744C616.882 41.8867 616.44 41.1525 615.629 40.5718C614.829 39.9902 613.857 39.7459 612.712 39.839C611.532 39.9349 610.631 40.2669 610.007 40.835C609.383 41.403 609.104 42.1017 609.172 42.931C609.235 43.7136 609.593 44.2783 610.244 44.625C610.896 44.9718 612.042 45.2607 613.683 45.4918C615.336 45.7218 616.685 46.0471 617.731 46.4677C618.776 46.8883 619.567 47.4353 620.104 48.1089C620.651 48.7698 620.967 49.6084 621.049 50.6245C621.187 52.3182 620.62 53.734 619.349 54.872C618.076 55.9984 616.36 56.6494 614.199 56.8251C612.681 56.9486 611.316 56.7892 610.104 56.3469C608.892 55.9045 607.914 55.2316 607.171 54.3279C606.438 53.4117 606.026 52.3929 605.935 51.2716L609.176 51.008C609.323 52.0895 609.825 52.9187 610.683 53.4956C611.552 54.0598 612.652 54.2878 613.984 54.1796C615.21 54.0798 616.172 53.7548 616.868 53.2044C617.574 52.6413 617.894 51.9452 617.826 51.1159ZM625.631 53.8321C625.585 53.2715 625.711 52.791 626.007 52.3906C626.316 51.9893 626.803 51.7616 627.469 51.7074C628.134 51.6533 628.652 51.7993 629.021 52.1456C629.402 52.4908 629.615 52.9438 629.661 53.5044C629.704 54.0417 629.566 54.5057 629.245 54.8962C628.935 55.2859 628.448 55.5078 627.782 55.5619C627.116 55.616 626.599 55.4758 626.231 55.1413C625.875 54.8058 625.675 54.3694 625.631 53.8321Z" fill="black"/>
</svg>
