<svg width="765" height="60" viewBox="0 0 765 60" fill="none" xmlns="http://www.w3.org/2000/svg">
<rect width="765" height="60" rx="30" fill="#A9CDF6"/>
<path d="M32.3457 31.9805V42H28.9707V16.4062H38.4102C41.2109 16.4062 43.4023 17.1211 44.9844 18.5508C46.5781 19.9805 47.375 21.873 47.375 24.2285C47.375 26.7129 46.5957 28.6289 45.0371 29.9766C43.4902 31.3125 41.2695 31.9805 38.375 31.9805H32.3457ZM32.3457 29.2207H38.4102C40.2148 29.2207 41.5977 28.7988 42.5586 27.9551C43.5195 27.0996 44 25.8691 44 24.2637C44 22.7402 43.5195 21.5215 42.5586 20.6074C41.5977 19.6934 40.2793 19.2188 38.6035 19.1836H32.3457V29.2207ZM58.8184 42.3516C56.2402 42.3516 54.1426 41.5078 52.5254 39.8203C50.9082 38.1211 50.0996 35.8535 50.0996 33.0176V32.4199C50.0996 30.5332 50.457 28.8516 51.1719 27.375C51.8984 25.8867 52.9062 24.7266 54.1953 23.8945C55.4961 23.0508 56.9023 22.6289 58.4141 22.6289C60.8867 22.6289 62.8086 23.4434 64.1797 25.0723C65.5508 26.7012 66.2363 29.0332 66.2363 32.0684V33.4219H53.3516C53.3984 35.2969 53.9434 36.8145 54.9863 37.9746C56.041 39.123 57.377 39.6973 58.9941 39.6973C60.1426 39.6973 61.1152 39.4629 61.9121 38.9941C62.709 38.5254 63.4062 37.9043 64.0039 37.1309L65.9902 38.6777C64.3965 41.127 62.0059 42.3516 58.8184 42.3516ZM58.4141 25.3008C57.1016 25.3008 56 25.7812 55.1094 26.7422C54.2188 27.6914 53.668 29.0273 53.457 30.75H62.9844V30.5039C62.8906 28.8516 62.4453 27.5742 61.6484 26.6719C60.8516 25.7578 59.7734 25.3008 58.4141 25.3008ZM74.4277 18.375V22.9805H77.9785V25.4941H74.4277V37.2891C74.4277 38.0508 74.5859 38.625 74.9023 39.0117C75.2188 39.3867 75.7578 39.5742 76.5195 39.5742C76.8945 39.5742 77.4102 39.5039 78.0664 39.3633V42C77.2109 42.2344 76.3789 42.3516 75.5703 42.3516C74.1172 42.3516 73.0215 41.9121 72.2832 41.0332C71.5449 40.1543 71.1758 38.9062 71.1758 37.2891V25.4941H67.7129V22.9805H71.1758V18.375H74.4277ZM86.2051 18.375V22.9805H89.7559V25.4941H86.2051V37.2891C86.2051 38.0508 86.3633 38.625 86.6797 39.0117C86.9961 39.3867 87.5352 39.5742 88.2969 39.5742C88.6719 39.5742 89.1875 39.5039 89.8438 39.3633V42C88.9883 42.2344 88.1562 42.3516 87.3477 42.3516C85.8945 42.3516 84.7988 41.9121 84.0605 41.0332C83.3223 40.1543 82.9531 38.9062 82.9531 37.2891V25.4941H79.4902V22.9805H82.9531V18.375H86.2051ZM97.1035 42H93.8516V22.9805H97.1035V42ZM93.5879 17.9355C93.5879 17.4082 93.7461 16.9629 94.0625 16.5996C94.3906 16.2363 94.8711 16.0547 95.5039 16.0547C96.1367 16.0547 96.6172 16.2363 96.9453 16.5996C97.2734 16.9629 97.4375 17.4082 97.4375 17.9355C97.4375 18.4629 97.2734 18.9023 96.9453 19.2539C96.6172 19.6055 96.1367 19.7812 95.5039 19.7812C94.8711 19.7812 94.3906 19.6055 94.0625 19.2539C93.7461 18.9023 93.5879 18.4629 93.5879 17.9355ZM105.4 22.9805L105.506 25.3711C106.959 23.543 108.857 22.6289 111.201 22.6289C115.221 22.6289 117.248 24.8965 117.283 29.4316V42H114.031V29.4141C114.02 28.043 113.703 27.0293 113.082 26.373C112.473 25.7168 111.518 25.3887 110.217 25.3887C109.162 25.3887 108.236 25.6699 107.439 26.2324C106.643 26.7949 106.021 27.5332 105.576 28.4473V42H102.324V22.9805H105.4ZM121.414 32.332C121.414 29.3672 122.1 27.0117 123.471 25.2656C124.842 23.5078 126.658 22.6289 128.92 22.6289C131.24 22.6289 133.051 23.4492 134.352 25.0898L134.51 22.9805H137.48V41.543C137.48 44.0039 136.748 45.9434 135.283 47.3613C133.83 48.7793 131.873 49.4883 129.412 49.4883C128.041 49.4883 126.699 49.1953 125.387 48.6094C124.074 48.0234 123.072 47.2207 122.381 46.2012L124.068 44.25C125.463 45.9727 127.168 46.834 129.184 46.834C130.766 46.834 131.996 46.3887 132.875 45.498C133.766 44.6074 134.211 43.3535 134.211 41.7363V40.1016C132.91 41.6016 131.135 42.3516 128.885 42.3516C126.658 42.3516 124.854 41.4551 123.471 39.6621C122.1 37.8691 121.414 35.4258 121.414 32.332ZM124.684 32.7012C124.684 34.8457 125.123 36.5332 126.002 37.7637C126.881 38.9824 128.111 39.5918 129.693 39.5918C131.744 39.5918 133.25 38.6602 134.211 36.7969V28.1133C133.215 26.2969 131.721 25.3887 129.729 25.3887C128.146 25.3887 126.91 26.0039 126.02 27.2344C125.129 28.4648 124.684 30.2871 124.684 32.7012ZM163.074 42C162.887 41.625 162.734 40.957 162.617 39.9961C161.105 41.5664 159.301 42.3516 157.203 42.3516C155.328 42.3516 153.787 41.8242 152.58 40.7695C151.385 39.7031 150.787 38.3555 150.787 36.7266C150.787 34.7461 151.537 33.2109 153.037 32.1211C154.549 31.0195 156.67 30.4688 159.4 30.4688H162.564V28.9746C162.564 27.8379 162.225 26.9355 161.545 26.2676C160.865 25.5879 159.863 25.248 158.539 25.248C157.379 25.248 156.406 25.541 155.621 26.127C154.836 26.7129 154.443 27.4219 154.443 28.2539H151.174C151.174 27.3047 151.508 26.3906 152.176 25.5117C152.855 24.6211 153.77 23.918 154.918 23.4023C156.078 22.8867 157.35 22.6289 158.732 22.6289C160.924 22.6289 162.641 23.1797 163.883 24.2812C165.125 25.3711 165.77 26.877 165.816 28.7988V37.5527C165.816 39.2988 166.039 40.6875 166.484 41.7188V42H163.074ZM157.678 39.5215C158.697 39.5215 159.664 39.2578 160.578 38.7305C161.492 38.2031 162.154 37.5176 162.564 36.6738V32.7715H160.016C156.031 32.7715 154.039 33.9375 154.039 36.2695C154.039 37.2891 154.379 38.0859 155.059 38.6602C155.738 39.2344 156.611 39.5215 157.678 39.5215ZM179.053 32.332C179.053 29.4141 179.744 27.0703 181.127 25.3008C182.51 23.5195 184.32 22.6289 186.559 22.6289C188.785 22.6289 190.549 23.3906 191.85 24.9141V15H195.102V42H192.113L191.955 39.9609C190.654 41.5547 188.844 42.3516 186.523 42.3516C184.32 42.3516 182.521 41.4492 181.127 39.6445C179.744 37.8398 179.053 35.4844 179.053 32.5781V32.332ZM182.305 32.7012C182.305 34.8574 182.75 36.5449 183.641 37.7637C184.531 38.9824 185.762 39.5918 187.332 39.5918C189.395 39.5918 190.9 38.666 191.85 36.8145V28.0781C190.877 26.2852 189.383 25.3887 187.367 25.3887C185.773 25.3887 184.531 26.0039 183.641 27.2344C182.75 28.4648 182.305 30.2871 182.305 32.7012ZM199.303 32.3145C199.303 30.4512 199.666 28.7754 200.393 27.2871C201.131 25.7988 202.15 24.6504 203.451 23.8418C204.764 23.0332 206.258 22.6289 207.934 22.6289C210.523 22.6289 212.615 23.5254 214.209 25.3184C215.814 27.1113 216.617 29.4961 216.617 32.4727V32.7012C216.617 34.5527 216.26 36.2168 215.545 37.6934C214.842 39.1582 213.828 40.3008 212.504 41.1211C211.191 41.9414 209.68 42.3516 207.969 42.3516C205.391 42.3516 203.299 41.4551 201.693 39.6621C200.1 37.8691 199.303 35.4961 199.303 32.543V32.3145ZM202.572 32.7012C202.572 34.8105 203.059 36.5039 204.031 37.7812C205.016 39.0586 206.328 39.6973 207.969 39.6973C209.621 39.6973 210.934 39.0527 211.906 37.7637C212.879 36.4629 213.365 34.6465 213.365 32.3145C213.365 30.2285 212.867 28.541 211.871 27.252C210.887 25.9512 209.574 25.3008 207.934 25.3008C206.328 25.3008 205.033 25.9395 204.049 27.2168C203.064 28.4941 202.572 30.3223 202.572 32.7012ZM219.922 32.332C219.922 29.3672 220.607 27.0117 221.979 25.2656C223.35 23.5078 225.166 22.6289 227.428 22.6289C229.748 22.6289 231.559 23.4492 232.859 25.0898L233.018 22.9805H235.988V41.543C235.988 44.0039 235.256 45.9434 233.791 47.3613C232.338 48.7793 230.381 49.4883 227.92 49.4883C226.549 49.4883 225.207 49.1953 223.895 48.6094C222.582 48.0234 221.58 47.2207 220.889 46.2012L222.576 44.25C223.971 45.9727 225.676 46.834 227.691 46.834C229.273 46.834 230.504 46.3887 231.383 45.498C232.273 44.6074 232.719 43.3535 232.719 41.7363V40.1016C231.418 41.6016 229.643 42.3516 227.393 42.3516C225.166 42.3516 223.361 41.4551 221.979 39.6621C220.607 37.8691 219.922 35.4258 219.922 32.332ZM223.191 32.7012C223.191 34.8457 223.631 36.5332 224.51 37.7637C225.389 38.9824 226.619 39.5918 228.201 39.5918C230.252 39.5918 231.758 38.6602 232.719 36.7969V28.1133C231.723 26.2969 230.229 25.3887 228.236 25.3887C226.654 25.3887 225.418 26.0039 224.527 27.2344C223.637 28.4648 223.191 30.2871 223.191 32.7012ZM257.469 39.6973C258.629 39.6973 259.643 39.3457 260.51 38.6426C261.377 37.9395 261.857 37.0605 261.951 36.0059H265.027C264.969 37.0957 264.594 38.1328 263.902 39.1172C263.211 40.1016 262.285 40.8867 261.125 41.4727C259.977 42.0586 258.758 42.3516 257.469 42.3516C254.879 42.3516 252.816 41.4902 251.281 39.7676C249.758 38.0332 248.996 35.666 248.996 32.666V32.1211C248.996 30.2695 249.336 28.623 250.016 27.1816C250.695 25.7402 251.668 24.6211 252.934 23.8242C254.211 23.0273 255.717 22.6289 257.451 22.6289C259.584 22.6289 261.354 23.2676 262.76 24.5449C264.178 25.8223 264.934 27.4805 265.027 29.5195H261.951C261.857 28.2891 261.389 27.2812 260.545 26.4961C259.713 25.6992 258.682 25.3008 257.451 25.3008C255.799 25.3008 254.516 25.8984 253.602 27.0938C252.699 28.2773 252.248 29.9941 252.248 32.2441V32.8594C252.248 35.0508 252.699 36.7383 253.602 37.9219C254.504 39.1055 255.793 39.6973 257.469 39.6973ZM280.426 42C280.238 41.625 280.086 40.957 279.969 39.9961C278.457 41.5664 276.652 42.3516 274.555 42.3516C272.68 42.3516 271.139 41.8242 269.932 40.7695C268.736 39.7031 268.139 38.3555 268.139 36.7266C268.139 34.7461 268.889 33.2109 270.389 32.1211C271.9 31.0195 274.021 30.4688 276.752 30.4688H279.916V28.9746C279.916 27.8379 279.576 26.9355 278.896 26.2676C278.217 25.5879 277.215 25.248 275.891 25.248C274.73 25.248 273.758 25.541 272.973 26.127C272.188 26.7129 271.795 27.4219 271.795 28.2539H268.525C268.525 27.3047 268.859 26.3906 269.527 25.5117C270.207 24.6211 271.121 23.918 272.27 23.4023C273.43 22.8867 274.701 22.6289 276.084 22.6289C278.275 22.6289 279.992 23.1797 281.234 24.2812C282.477 25.3711 283.121 26.877 283.168 28.7988V37.5527C283.168 39.2988 283.391 40.6875 283.836 41.7188V42H280.426ZM275.029 39.5215C276.049 39.5215 277.016 39.2578 277.93 38.7305C278.844 38.2031 279.506 37.5176 279.916 36.6738V32.7715H277.367C273.383 32.7715 271.391 33.9375 271.391 36.2695C271.391 37.2891 271.73 38.0859 272.41 38.6602C273.09 39.2344 273.963 39.5215 275.029 39.5215ZM291.342 22.9805L291.447 25.3711C292.9 23.543 294.799 22.6289 297.143 22.6289C301.162 22.6289 303.189 24.8965 303.225 29.4316V42H299.973V29.4141C299.961 28.043 299.645 27.0293 299.023 26.373C298.414 25.7168 297.459 25.3887 296.158 25.3887C295.104 25.3887 294.178 25.6699 293.381 26.2324C292.584 26.7949 291.963 27.5332 291.518 28.4473V42H288.266V22.9805H291.342ZM320.592 42H317.34V15H320.592V42ZM324.951 32.3145C324.951 30.4512 325.314 28.7754 326.041 27.2871C326.779 25.7988 327.799 24.6504 329.1 23.8418C330.412 23.0332 331.906 22.6289 333.582 22.6289C336.172 22.6289 338.264 23.5254 339.857 25.3184C341.463 27.1113 342.266 29.4961 342.266 32.4727V32.7012C342.266 34.5527 341.908 36.2168 341.193 37.6934C340.49 39.1582 339.477 40.3008 338.152 41.1211C336.84 41.9414 335.328 42.3516 333.617 42.3516C331.039 42.3516 328.947 41.4551 327.342 39.6621C325.748 37.8691 324.951 35.4961 324.951 32.543V32.3145ZM328.221 32.7012C328.221 34.8105 328.707 36.5039 329.68 37.7812C330.664 39.0586 331.977 39.6973 333.617 39.6973C335.27 39.6973 336.582 39.0527 337.555 37.7637C338.527 36.4629 339.014 34.6465 339.014 32.3145C339.014 30.2285 338.516 28.541 337.52 27.252C336.535 25.9512 335.223 25.3008 333.582 25.3008C331.977 25.3008 330.682 25.9395 329.697 27.2168C328.713 28.4941 328.221 30.3223 328.221 32.7012ZM363.184 37.5176L366.84 22.9805H370.092L364.555 42H361.918L357.295 27.5859L352.795 42H350.158L344.639 22.9805H347.873L351.617 37.2188L356.047 22.9805H358.666L363.184 37.5176ZM381.307 42.3516C378.729 42.3516 376.631 41.5078 375.014 39.8203C373.396 38.1211 372.588 35.8535 372.588 33.0176V32.4199C372.588 30.5332 372.945 28.8516 373.66 27.375C374.387 25.8867 375.395 24.7266 376.684 23.8945C377.984 23.0508 379.391 22.6289 380.902 22.6289C383.375 22.6289 385.297 23.4434 386.668 25.0723C388.039 26.7012 388.725 29.0332 388.725 32.0684V33.4219H375.84C375.887 35.2969 376.432 36.8145 377.475 37.9746C378.529 39.123 379.865 39.6973 381.482 39.6973C382.631 39.6973 383.604 39.4629 384.4 38.9941C385.197 38.5254 385.895 37.9043 386.492 37.1309L388.479 38.6777C386.885 41.127 384.494 42.3516 381.307 42.3516ZM380.902 25.3008C379.59 25.3008 378.488 25.7812 377.598 26.7422C376.707 27.6914 376.156 29.0273 375.945 30.75H385.473V30.5039C385.379 28.8516 384.934 27.5742 384.137 26.6719C383.34 25.7578 382.262 25.3008 380.902 25.3008ZM401.697 25.8984C401.205 25.8164 400.672 25.7754 400.098 25.7754C397.965 25.7754 396.518 26.6836 395.756 28.5V42H392.504V22.9805H395.668L395.721 25.1777C396.787 23.4785 398.299 22.6289 400.256 22.6289C400.889 22.6289 401.369 22.7109 401.697 22.875V25.8984ZM419.855 37.2363L424.285 22.9805H427.766L420.119 44.9355C418.936 48.0996 417.055 49.6816 414.477 49.6816L413.861 49.6289L412.648 49.4004V46.7637L413.527 46.834C414.629 46.834 415.484 46.6113 416.094 46.166C416.715 45.7207 417.225 44.9062 417.623 43.7227L418.344 41.7891L411.559 22.9805H415.109L419.855 37.2363ZM429.541 32.3145C429.541 30.4512 429.904 28.7754 430.631 27.2871C431.369 25.7988 432.389 24.6504 433.689 23.8418C435.002 23.0332 436.496 22.6289 438.172 22.6289C440.762 22.6289 442.854 23.5254 444.447 25.3184C446.053 27.1113 446.855 29.4961 446.855 32.4727V32.7012C446.855 34.5527 446.498 36.2168 445.783 37.6934C445.08 39.1582 444.066 40.3008 442.742 41.1211C441.43 41.9414 439.918 42.3516 438.207 42.3516C435.629 42.3516 433.537 41.4551 431.932 39.6621C430.338 37.8691 429.541 35.4961 429.541 32.543V32.3145ZM432.811 32.7012C432.811 34.8105 433.297 36.5039 434.27 37.7812C435.254 39.0586 436.566 39.6973 438.207 39.6973C439.859 39.6973 441.172 39.0527 442.145 37.7637C443.117 36.4629 443.604 34.6465 443.604 32.3145C443.604 30.2285 443.105 28.541 442.109 27.252C441.125 25.9512 439.812 25.3008 438.172 25.3008C436.566 25.3008 435.271 25.9395 434.287 27.2168C433.303 28.4941 432.811 30.3223 432.811 32.7012ZM462.676 40.1191C461.41 41.6074 459.553 42.3516 457.104 42.3516C455.076 42.3516 453.529 41.7656 452.463 40.5938C451.408 39.4102 450.875 37.6641 450.863 35.3555V22.9805H454.115V35.2676C454.115 38.1504 455.287 39.5918 457.631 39.5918C460.115 39.5918 461.768 38.666 462.588 36.8145V22.9805H465.84V42H462.746L462.676 40.1191ZM479.99 25.8984C479.498 25.8164 478.965 25.7754 478.391 25.7754C476.258 25.7754 474.811 26.6836 474.049 28.5V42H470.797V22.9805H473.961L474.014 25.1777C475.08 23.4785 476.592 22.6289 478.549 22.6289C479.182 22.6289 479.662 22.7109 479.99 22.875V25.8984ZM508.027 32.7012C508.027 35.6074 507.359 37.9453 506.023 39.7148C504.688 41.4727 502.895 42.3516 500.645 42.3516C498.242 42.3516 496.385 41.502 495.072 39.8027L494.914 42H491.926V15H495.178V25.0723C496.49 23.4434 498.301 22.6289 500.609 22.6289C502.918 22.6289 504.729 23.502 506.041 25.248C507.365 26.9941 508.027 29.3848 508.027 32.4199V32.7012ZM504.775 32.332C504.775 30.1172 504.348 28.4062 503.492 27.1992C502.637 25.9922 501.406 25.3887 499.801 25.3887C497.656 25.3887 496.115 26.3848 495.178 28.377V36.6035C496.174 38.5957 497.727 39.5918 499.836 39.5918C501.395 39.5918 502.607 38.9883 503.475 37.7812C504.342 36.5742 504.775 34.7578 504.775 32.332ZM515.674 42H512.422V15H515.674V42ZM520.033 32.3145C520.033 30.4512 520.396 28.7754 521.123 27.2871C521.861 25.7988 522.881 24.6504 524.182 23.8418C525.494 23.0332 526.988 22.6289 528.664 22.6289C531.254 22.6289 533.346 23.5254 534.939 25.3184C536.545 27.1113 537.348 29.4961 537.348 32.4727V32.7012C537.348 34.5527 536.99 36.2168 536.275 37.6934C535.572 39.1582 534.559 40.3008 533.234 41.1211C531.922 41.9414 530.41 42.3516 528.699 42.3516C526.121 42.3516 524.029 41.4551 522.424 39.6621C520.83 37.8691 520.033 35.4961 520.033 32.543V32.3145ZM523.303 32.7012C523.303 34.8105 523.789 36.5039 524.762 37.7812C525.746 39.0586 527.059 39.6973 528.699 39.6973C530.352 39.6973 531.664 39.0527 532.637 37.7637C533.609 36.4629 534.096 34.6465 534.096 32.3145C534.096 30.2285 533.598 28.541 532.602 27.252C531.617 25.9512 530.305 25.3008 528.664 25.3008C527.059 25.3008 525.764 25.9395 524.779 27.2168C523.795 28.4941 523.303 30.3223 523.303 32.7012ZM540.564 32.3145C540.564 30.4512 540.928 28.7754 541.654 27.2871C542.393 25.7988 543.412 24.6504 544.713 23.8418C546.025 23.0332 547.52 22.6289 549.195 22.6289C551.785 22.6289 553.877 23.5254 555.471 25.3184C557.076 27.1113 557.879 29.4961 557.879 32.4727V32.7012C557.879 34.5527 557.521 36.2168 556.807 37.6934C556.104 39.1582 555.09 40.3008 553.766 41.1211C552.453 41.9414 550.941 42.3516 549.23 42.3516C546.652 42.3516 544.561 41.4551 542.955 39.6621C541.361 37.8691 540.564 35.4961 540.564 32.543V32.3145ZM543.834 32.7012C543.834 34.8105 544.32 36.5039 545.293 37.7812C546.277 39.0586 547.59 39.6973 549.23 39.6973C550.883 39.6973 552.195 39.0527 553.168 37.7637C554.141 36.4629 554.627 34.6465 554.627 32.3145C554.627 30.2285 554.129 28.541 553.133 27.252C552.148 25.9512 550.836 25.3008 549.195 25.3008C547.59 25.3008 546.295 25.9395 545.311 27.2168C544.326 28.4941 543.834 30.3223 543.834 32.7012ZM561.166 32.332C561.166 29.4141 561.857 27.0703 563.24 25.3008C564.623 23.5195 566.434 22.6289 568.672 22.6289C570.898 22.6289 572.662 23.3906 573.963 24.9141V15H577.215V42H574.227L574.068 39.9609C572.768 41.5547 570.957 42.3516 568.637 42.3516C566.434 42.3516 564.635 41.4492 563.24 39.6445C561.857 37.8398 561.166 35.4844 561.166 32.5781V32.332ZM564.418 32.7012C564.418 34.8574 564.863 36.5449 565.754 37.7637C566.645 38.9824 567.875 39.5918 569.445 39.5918C571.508 39.5918 573.014 38.666 573.963 36.8145V28.0781C572.99 26.2852 571.496 25.3887 569.48 25.3887C567.887 25.3887 566.645 26.0039 565.754 27.2344C564.863 28.4648 564.418 30.2871 564.418 32.7012ZM607.273 32.7012C607.273 35.5957 606.611 37.9277 605.287 39.6973C603.963 41.4668 602.17 42.3516 599.908 42.3516C597.6 42.3516 595.783 41.6191 594.459 40.1543V49.3125H591.207V22.9805H594.178L594.336 25.0898C595.66 23.4492 597.5 22.6289 599.855 22.6289C602.141 22.6289 603.945 23.4902 605.27 25.2129C606.605 26.9355 607.273 29.332 607.273 32.4023V32.7012ZM604.021 32.332C604.021 30.1875 603.564 28.4941 602.65 27.252C601.736 26.0098 600.482 25.3887 598.889 25.3887C596.92 25.3887 595.443 26.2617 594.459 28.0078V37.0957C595.432 38.8301 596.92 39.6973 598.924 39.6973C600.482 39.6973 601.719 39.082 602.633 37.8516C603.559 36.6094 604.021 34.7695 604.021 32.332ZM620.615 25.8984C620.123 25.8164 619.59 25.7754 619.016 25.7754C616.883 25.7754 615.436 26.6836 614.674 28.5V42H611.422V22.9805H614.586L614.639 25.1777C615.705 23.4785 617.217 22.6289 619.174 22.6289C619.807 22.6289 620.287 22.7109 620.615 22.875V25.8984ZM631.162 42.3516C628.584 42.3516 626.486 41.5078 624.869 39.8203C623.252 38.1211 622.443 35.8535 622.443 33.0176V32.4199C622.443 30.5332 622.801 28.8516 623.516 27.375C624.242 25.8867 625.25 24.7266 626.539 23.8945C627.84 23.0508 629.246 22.6289 630.758 22.6289C633.23 22.6289 635.152 23.4434 636.523 25.0723C637.895 26.7012 638.58 29.0332 638.58 32.0684V33.4219H625.695C625.742 35.2969 626.287 36.8145 627.33 37.9746C628.385 39.123 629.721 39.6973 631.338 39.6973C632.486 39.6973 633.459 39.4629 634.256 38.9941C635.053 38.5254 635.75 37.9043 636.348 37.1309L638.334 38.6777C636.74 41.127 634.35 42.3516 631.162 42.3516ZM630.758 25.3008C629.445 25.3008 628.344 25.7812 627.453 26.7422C626.562 27.6914 626.012 29.0273 625.801 30.75H635.328V30.5039C635.234 28.8516 634.789 27.5742 633.992 26.6719C633.195 25.7578 632.117 25.3008 630.758 25.3008ZM653.434 36.9551C653.434 36.0762 653.1 35.3965 652.432 34.916C651.775 34.4238 650.621 34.002 648.969 33.6504C647.328 33.2988 646.021 32.877 645.049 32.3848C644.088 31.8926 643.373 31.3066 642.904 30.627C642.447 29.9473 642.219 29.1387 642.219 28.2012C642.219 26.6426 642.875 25.3242 644.188 24.2461C645.512 23.168 647.199 22.6289 649.25 22.6289C651.406 22.6289 653.152 23.1855 654.488 24.2988C655.836 25.4121 656.51 26.8359 656.51 28.5703H653.24C653.24 27.6797 652.859 26.9121 652.098 26.2676C651.348 25.623 650.398 25.3008 649.25 25.3008C648.066 25.3008 647.141 25.5586 646.473 26.0742C645.805 26.5898 645.471 27.2637 645.471 28.0957C645.471 28.8809 645.781 29.4727 646.402 29.8711C647.023 30.2695 648.143 30.6504 649.76 31.0137C651.389 31.377 652.707 31.8105 653.715 32.3145C654.723 32.8184 655.467 33.4277 655.947 34.1426C656.439 34.8457 656.686 35.707 656.686 36.7266C656.686 38.4258 656.006 39.791 654.646 40.8223C653.287 41.8418 651.523 42.3516 649.355 42.3516C647.832 42.3516 646.484 42.082 645.312 41.543C644.141 41.0039 643.221 40.2539 642.553 39.293C641.896 38.3203 641.568 37.2715 641.568 36.1465H644.82C644.879 37.2363 645.312 38.1035 646.121 38.748C646.941 39.3809 648.02 39.6973 649.355 39.6973C650.586 39.6973 651.57 39.4512 652.309 38.959C653.059 38.4551 653.434 37.7871 653.434 36.9551ZM671.996 36.9551C671.996 36.0762 671.662 35.3965 670.994 34.916C670.338 34.4238 669.184 34.002 667.531 33.6504C665.891 33.2988 664.584 32.877 663.611 32.3848C662.65 31.8926 661.936 31.3066 661.467 30.627C661.01 29.9473 660.781 29.1387 660.781 28.2012C660.781 26.6426 661.438 25.3242 662.75 24.2461C664.074 23.168 665.762 22.6289 667.812 22.6289C669.969 22.6289 671.715 23.1855 673.051 24.2988C674.398 25.4121 675.072 26.8359 675.072 28.5703H671.803C671.803 27.6797 671.422 26.9121 670.66 26.2676C669.91 25.623 668.961 25.3008 667.812 25.3008C666.629 25.3008 665.703 25.5586 665.035 26.0742C664.367 26.5898 664.033 27.2637 664.033 28.0957C664.033 28.8809 664.344 29.4727 664.965 29.8711C665.586 30.2695 666.705 30.6504 668.322 31.0137C669.951 31.377 671.27 31.8105 672.277 32.3145C673.285 32.8184 674.029 33.4277 674.51 34.1426C675.002 34.8457 675.248 35.707 675.248 36.7266C675.248 38.4258 674.568 39.791 673.209 40.8223C671.85 41.8418 670.086 42.3516 667.918 42.3516C666.395 42.3516 665.047 42.082 663.875 41.543C662.703 41.0039 661.783 40.2539 661.115 39.293C660.459 38.3203 660.131 37.2715 660.131 36.1465H663.383C663.441 37.2363 663.875 38.1035 664.684 38.748C665.504 39.3809 666.582 39.6973 667.918 39.6973C669.148 39.6973 670.133 39.4512 670.871 38.959C671.621 38.4551 671.996 37.7871 671.996 36.9551ZM691.227 40.1191C689.961 41.6074 688.104 42.3516 685.654 42.3516C683.627 42.3516 682.08 41.7656 681.014 40.5938C679.959 39.4102 679.426 37.6641 679.414 35.3555V22.9805H682.666V35.2676C682.666 38.1504 683.838 39.5918 686.182 39.5918C688.666 39.5918 690.318 38.666 691.139 36.8145V22.9805H694.391V42H691.297L691.227 40.1191ZM708.541 25.8984C708.049 25.8164 707.516 25.7754 706.941 25.7754C704.809 25.7754 703.361 26.6836 702.6 28.5V42H699.348V22.9805H702.512L702.564 25.1777C703.631 23.4785 705.143 22.6289 707.1 22.6289C707.732 22.6289 708.213 22.7109 708.541 22.875V25.8984ZM719.088 42.3516C716.51 42.3516 714.412 41.5078 712.795 39.8203C711.178 38.1211 710.369 35.8535 710.369 33.0176V32.4199C710.369 30.5332 710.727 28.8516 711.441 27.375C712.168 25.8867 713.176 24.7266 714.465 23.8945C715.766 23.0508 717.172 22.6289 718.684 22.6289C721.156 22.6289 723.078 23.4434 724.449 25.0723C725.82 26.7012 726.506 29.0332 726.506 32.0684V33.4219H713.621C713.668 35.2969 714.213 36.8145 715.256 37.9746C716.311 39.123 717.646 39.6973 719.264 39.6973C720.412 39.6973 721.385 39.4629 722.182 38.9941C722.979 38.5254 723.676 37.9043 724.273 37.1309L726.26 38.6777C724.666 41.127 722.275 42.3516 719.088 42.3516ZM718.684 25.3008C717.371 25.3008 716.27 25.7812 715.379 26.7422C714.488 27.6914 713.938 29.0273 713.727 30.75H723.254V30.5039C723.16 28.8516 722.715 27.5742 721.918 26.6719C721.121 25.7578 720.043 25.3008 718.684 25.3008ZM730.355 40.2949C730.355 39.7324 730.52 39.2637 730.848 38.8887C731.188 38.5137 731.691 38.3262 732.359 38.3262C733.027 38.3262 733.531 38.5137 733.871 38.8887C734.223 39.2637 734.398 39.7324 734.398 40.2949C734.398 40.834 734.223 41.2852 733.871 41.6484C733.531 42.0117 733.027 42.1934 732.359 42.1934C731.691 42.1934 731.188 42.0117 730.848 41.6484C730.52 41.2852 730.355 40.834 730.355 40.2949Z" fill="black"/>
</svg>
