<svg width="448" height="68" viewBox="0 0 448 68" fill="none" xmlns="http://www.w3.org/2000/svg">
<rect x="2.47974" width="446" height="38.7885" rx="19.3942" transform="rotate(3.6654 2.47974 0)" fill="#A9CDF7"/>
<path d="M30.3788 21.3309L35.3805 13.0728L37.9297 13.2392L31.3625 23.5325L30.948 29.8823L28.7027 29.7357L29.1172 23.3859L23.9439 12.3262L26.5165 12.4942L30.3788 21.3309ZM37.7534 23.8558C37.8343 22.6162 38.1488 21.5172 38.6967 20.5586C39.2525 19.6006 39.9806 18.8809 40.8811 18.3995C41.7894 17.9185 42.8009 17.7145 43.9157 17.7872C45.6386 17.8997 46.9912 18.5869 47.9736 19.8489C48.9638 21.1114 49.3943 22.7327 49.265 24.7129L49.2551 24.8649C49.1747 26.0967 48.8646 27.1882 48.3249 28.1394C47.7936 29.0834 47.0696 29.7995 46.1531 30.2877C45.2443 30.7764 44.2208 30.9836 43.0826 30.9093C41.3675 30.7973 40.0149 30.1101 39.0247 28.8476C38.0423 27.5856 37.6152 25.9723 37.7435 24.0078L37.7534 23.8558ZM39.9117 24.255C39.8201 25.6583 40.0701 26.8059 40.6617 27.6979C41.261 28.5904 42.1064 29.0723 43.1979 29.1435C44.2971 29.2153 45.1982 28.8435 45.9013 28.0282C46.6048 27.2051 47.0072 26.0178 47.1085 24.4664C47.1991 23.0788 46.941 21.9345 46.3344 21.0337C45.736 20.1256 44.8911 19.636 43.7997 19.5647C42.7316 19.495 41.8425 19.8636 41.1321 20.6706C40.4218 21.4776 40.015 22.6724 39.9117 24.255ZM59.4574 30.4868C58.5508 31.4219 57.2829 31.8363 55.6535 31.7299C54.3048 31.6419 53.3012 31.1849 52.6427 30.359C51.9924 29.5258 51.7135 28.341 51.806 26.8047L52.3434 18.5723L54.5068 18.7135L53.9732 26.8875C53.848 28.8053 54.565 29.8151 56.1242 29.9169C57.7769 30.0247 58.9163 29.4806 59.5424 28.2845L60.1432 19.0814L62.3066 19.2226L61.4806 31.8754L59.4225 31.7411L59.4574 30.4868ZM71.5934 21.7783C71.2696 21.7024 70.9166 21.6519 70.5346 21.627C69.1158 21.5344 68.1135 22.0757 67.5279 23.251L66.9417 32.2319L64.7783 32.0907L65.6042 19.4379L67.7091 19.5753L67.6488 21.0393C68.432 19.9552 69.4746 19.4557 70.7765 19.5407C71.1975 19.5682 71.5136 19.6436 71.7247 19.767L71.5934 21.7783ZM78.7279 26.5423C78.8547 24.6011 79.4164 23.0719 80.4132 21.9548C81.4104 20.8299 82.6536 20.316 84.1426 20.4132C85.6238 20.5099 86.764 21.0932 87.5632 22.1632L87.9937 15.5678L90.1571 15.7091L88.9846 33.6708L86.9966 33.5411L86.9799 32.1777C86.0454 33.1814 84.8063 33.6329 83.2627 33.5322C81.7971 33.4365 80.6396 32.7581 79.7903 31.497C78.9487 30.2364 78.591 28.6394 78.7172 26.706L78.7279 26.5423ZM80.8753 26.929C80.7816 28.3635 81.0046 29.5054 81.5442 30.3549C82.0837 31.2043 82.8758 31.6632 83.9205 31.7314C85.2926 31.8209 86.3345 31.2704 87.0464 30.0799L87.4258 24.2681C86.8566 23.033 85.9016 22.3718 84.5607 22.2842C83.5004 22.215 82.6473 22.5704 82.0014 23.3503C81.3555 24.1302 80.9801 25.3231 80.8753 26.929ZM92.2 27.4099C92.2809 26.1704 92.5954 25.0714 93.1434 24.1128C93.6991 23.1548 94.4273 22.4351 95.3277 21.9537C96.236 21.4727 97.2475 21.2687 98.3623 21.3414C100.085 21.4539 101.438 22.1411 102.42 23.4031C103.41 24.6656 103.841 26.2869 103.712 28.2671L103.702 28.4191C103.621 29.6509 103.311 30.7424 102.772 31.6936C102.24 32.6376 101.516 33.3536 100.6 33.8419C99.6909 34.3306 98.6674 34.5378 97.5292 34.4635C95.8141 34.3515 94.4615 33.6643 93.4713 32.4018C92.4889 31.1398 92.0619 29.5265 92.1901 27.562L92.2 27.4099ZM94.3583 27.8092C94.2667 29.2125 94.5167 30.3601 95.1083 31.2521C95.7077 32.1446 96.5531 32.6265 97.6445 32.6977C98.7437 32.7695 99.6448 32.3977 100.348 31.5824C101.051 30.7593 101.454 29.572 101.555 28.0206C101.646 26.633 101.388 25.4887 100.781 24.5879C100.183 23.6798 99.3377 23.1902 98.2463 23.1189C97.1783 23.0492 96.2891 23.4178 95.5787 24.2248C94.8684 25.0318 94.4616 26.2266 94.3583 27.8092ZM105.916 28.3171C106.045 26.3447 106.603 24.8075 107.591 23.7054C108.58 22.5956 109.826 22.0898 111.331 22.188C112.874 22.2888 114.043 22.9131 114.837 24.061L115.034 22.6646L117.01 22.7936L116.204 35.1423C116.097 36.7795 115.526 38.0379 114.49 38.9176C113.462 39.7978 112.129 40.1845 110.492 40.0776C109.58 40.0181 108.7 39.7649 107.852 39.3181C107.004 38.8713 106.373 38.2938 105.957 37.5855L107.164 36.3608C108.017 37.5673 109.114 38.2144 110.455 38.3019C111.508 38.3706 112.345 38.1278 112.969 37.5735C113.6 37.0197 113.951 36.2048 114.021 35.129L114.092 34.0415C113.161 34.9829 111.948 35.4047 110.451 35.307C108.97 35.2103 107.808 34.5355 106.966 33.2827C106.132 32.0304 105.782 30.3752 105.916 28.3171ZM108.075 28.7046C107.982 30.1313 108.201 31.273 108.732 32.1297C109.264 32.9786 110.056 33.4375 111.109 33.5062C112.473 33.5952 113.515 33.0408 114.235 31.843L114.613 26.0663C114.029 24.8146 113.074 24.1456 111.749 24.0591C110.696 23.9903 109.847 24.3459 109.201 25.1258C108.555 25.9057 108.18 27.0987 108.075 28.7046ZM127.75 36.2013L125.586 36.0601L126.412 23.4074L128.576 23.5486L127.75 36.2013ZM126.456 20.0398C126.479 19.689 126.603 19.3996 126.83 19.1717C127.064 18.9442 127.391 18.8443 127.812 18.8717C128.233 18.8992 128.545 19.0409 128.748 19.2969C128.95 19.5528 129.04 19.8561 129.017 20.207C128.994 20.5578 128.866 20.843 128.632 21.0626C128.399 21.2823 128.071 21.3783 127.65 21.3508C127.229 21.3234 126.917 21.1856 126.714 20.9374C126.519 20.6898 126.433 20.3906 126.456 20.0398ZM138.809 33.5528C138.847 32.9682 138.655 32.5015 138.231 32.1528C137.816 31.7969 137.066 31.4661 135.982 31.1605C134.906 30.8554 134.055 30.518 133.43 30.1483C132.812 29.7792 132.362 29.3583 132.079 28.8858C131.805 28.4138 131.688 27.866 131.728 27.2423C131.796 26.2054 132.29 25.3569 133.21 24.6967C134.138 24.0369 135.284 23.7516 136.648 23.8407C138.082 23.9343 139.22 24.3804 140.06 25.1791C140.908 25.9782 141.295 26.9547 141.22 28.1085L139.045 27.9665C139.083 27.374 138.863 26.8468 138.384 26.385C137.913 25.9236 137.296 25.668 136.532 25.6181C135.745 25.5667 135.118 25.698 134.651 26.0121C134.184 26.3261 133.933 26.7598 133.896 27.3133C133.862 27.8357 134.043 28.2428 134.439 28.5349C134.835 28.8269 135.563 29.1289 136.623 29.4408C137.691 29.7532 138.549 30.0989 139.198 30.4779C139.846 30.8569 140.315 31.2946 140.603 31.791C140.9 32.2801 141.027 32.8638 140.982 33.542C140.909 34.6725 140.397 35.5512 139.448 36.1782C138.499 36.7974 137.304 37.0599 135.862 36.9658C134.848 36.8996 133.963 36.6618 133.207 36.2523C132.451 35.8428 131.872 35.3039 131.469 34.6356C131.075 33.9601 130.902 33.2481 130.951 32.4997L133.114 32.6409C133.106 33.3684 133.357 33.9642 133.867 34.4281C134.385 34.8847 135.088 35.142 135.977 35.2C136.796 35.2534 137.461 35.1325 137.974 34.8371C138.494 34.5344 138.773 34.1064 138.809 33.5528ZM157.324 38.1319C157.215 37.8743 157.143 37.4233 157.106 36.7789C156.033 37.7579 154.798 38.2019 153.402 38.1108C152.155 38.0294 151.153 37.6116 150.396 36.8576C149.647 36.0962 149.308 35.1738 149.379 34.0901C149.465 32.7726 150.03 31.7839 151.075 31.1241C152.129 30.4569 153.564 30.1826 155.38 30.3012L157.485 30.4386L157.55 29.4446C157.599 28.6884 157.413 28.0733 156.989 27.5995C156.567 27.1178 155.915 26.8482 155.034 26.7907C154.262 26.7403 153.602 26.893 153.055 27.2487C152.507 27.6044 152.215 28.059 152.179 28.6125L150.004 28.4705C150.045 27.839 150.307 27.2454 150.789 26.6898C151.28 26.1268 151.919 25.6987 152.705 25.4056C153.499 25.1129 154.356 24.9966 155.276 25.0567C156.734 25.1519 157.852 25.5928 158.631 26.3796C159.41 27.1585 159.773 28.1883 159.721 29.4689L159.341 35.2924C159.265 36.454 159.353 37.3875 159.604 38.0929L159.592 38.28L157.324 38.1319ZM153.841 36.2487C154.519 36.293 155.174 36.1595 155.805 35.8484C156.436 35.5373 156.906 35.11 157.216 34.5665L157.385 31.9705L155.69 31.8598C153.039 31.6868 151.663 32.3759 151.562 33.9273C151.517 34.6056 151.709 35.1504 152.136 35.562C152.563 35.9735 153.132 36.2024 153.841 36.2487ZM170.125 35.5971C170.163 35.0124 169.971 34.5458 169.547 34.1971C169.132 33.8412 168.382 33.5104 167.298 33.2048C166.222 32.8997 165.371 32.5623 164.746 32.1926C164.128 31.8234 163.678 31.4026 163.395 30.9301C163.121 30.4581 163.004 29.9102 163.045 29.2865C163.112 28.2497 163.606 27.4012 164.526 26.7409C165.454 26.0812 166.6 25.7959 167.964 25.8849C169.399 25.9786 170.536 26.4247 171.376 27.2233C172.225 28.0225 172.611 28.9989 172.536 30.1527L170.361 30.0107C170.399 29.4183 170.179 28.8911 169.701 28.4292C169.23 27.9679 168.612 27.7123 167.848 27.6624C167.061 27.611 166.434 27.7423 165.967 28.0563C165.5 28.3703 165.249 28.8041 165.213 29.3576C165.179 29.8799 165.359 30.2871 165.755 30.5791C166.151 30.8712 166.879 31.1731 167.939 31.485C169.007 31.7975 169.865 32.1432 170.514 32.5221C171.162 32.9011 171.631 33.3388 171.92 33.8353C172.216 34.3244 172.343 34.9081 172.298 35.5863C172.225 36.7167 171.713 37.5954 170.764 38.2224C169.816 38.8416 168.62 39.1042 167.178 39.01C166.164 38.9439 165.28 38.706 164.523 38.2965C163.767 37.887 163.188 37.3482 162.785 36.6799C162.391 36.0043 162.218 35.2923 162.267 34.5439L164.43 34.6852C164.422 35.4127 164.673 36.0084 165.183 36.4723C165.701 36.9289 166.404 37.1862 167.293 37.2443C168.112 37.2977 168.777 37.1767 169.29 36.8814C169.811 36.5787 170.089 36.1506 170.125 35.5971ZM188.414 36.791C188.453 36.2063 188.26 35.7396 187.836 35.391C187.421 35.0351 186.672 34.7043 185.588 34.3987C184.511 34.0935 183.661 33.7561 183.035 33.3865C182.417 33.0173 181.967 32.5965 181.685 32.124C181.41 31.652 181.293 31.1041 181.334 30.4804C181.402 29.4436 181.895 28.595 182.815 27.9348C183.743 27.2751 184.889 26.9898 186.253 27.0788C187.688 27.1725 188.825 27.6186 189.666 28.4172C190.514 29.2164 190.9 30.1928 190.825 31.3466L188.65 31.2046C188.689 30.6121 188.469 30.085 187.99 29.6231C187.519 29.1618 186.901 28.9062 186.137 28.8563C185.35 28.8049 184.723 28.9362 184.256 29.2502C183.789 29.5642 183.538 29.998 183.502 30.5515C183.468 31.0738 183.649 31.481 184.044 31.773C184.44 32.0651 185.168 32.367 186.228 32.6789C187.296 32.9913 188.154 33.337 188.803 33.716C189.452 34.095 189.92 34.5327 190.209 35.0291C190.506 35.5183 190.632 36.102 190.588 36.7802C190.514 37.9106 190.002 38.7893 189.053 39.4163C188.105 40.0355 186.909 40.2981 185.467 40.2039C184.454 40.1378 183.569 39.8999 182.813 39.4904C182.056 39.0809 181.477 38.542 181.074 37.8738C180.68 37.1982 180.507 36.4862 180.556 35.7378L182.72 35.879C182.711 36.6066 182.962 37.2023 183.472 37.6662C183.99 38.1228 184.694 38.3801 185.582 38.4381C186.401 38.4916 187.066 38.3706 187.579 38.0752C188.1 37.7726 188.378 37.3445 188.414 36.791ZM196.038 27.9524L196.004 29.3595C197.003 28.3286 198.29 27.8646 199.865 27.9674C201.635 28.0829 202.795 28.8398 203.346 30.238C203.806 29.6574 204.384 29.2019 205.079 28.8714C205.782 28.5415 206.593 28.4066 207.513 28.4666C210.288 28.6478 211.603 30.2094 211.458 33.1515L210.905 41.6296L208.741 41.4884L209.286 33.1389C209.345 32.2346 209.183 31.5468 208.799 31.0754C208.415 30.5963 207.736 30.3249 206.762 30.2613C205.959 30.2089 205.276 30.4071 204.715 30.8558C204.153 31.2968 203.803 31.9198 203.665 32.725L203.117 41.1212L200.942 40.9792L201.483 32.6883C201.603 30.8484 200.763 29.8697 198.962 29.7522C197.543 29.6595 196.533 30.2004 195.932 31.3746L195.329 40.6128L193.165 40.4716L193.991 27.8188L196.038 27.9524ZM221.991 42.3532C221.882 42.0956 221.81 41.6446 221.774 41.0003C220.7 41.9793 219.465 42.4233 218.07 42.3322C216.822 42.2507 215.82 41.833 215.063 41.0789C214.314 40.3176 213.975 39.3951 214.046 38.3115C214.132 36.994 214.697 36.0053 215.742 35.3454C216.796 34.6783 218.231 34.404 220.047 34.5225L222.152 34.6599L222.217 33.666C222.266 32.9098 222.08 32.2947 221.656 31.8208C221.234 31.3391 220.582 31.0696 219.701 31.012C218.929 30.9617 218.269 31.1143 217.722 31.47C217.174 31.8257 216.882 32.2803 216.846 32.8338L214.671 32.6919C214.712 32.0604 214.974 31.4668 215.456 30.9111C215.947 30.3481 216.586 29.9201 217.372 29.6269C218.166 29.3343 219.023 29.218 219.943 29.2781C221.401 29.3732 222.519 29.8142 223.298 30.6009C224.077 31.3799 224.44 32.4097 224.388 33.6902L224.008 39.5138C223.932 40.6754 224.02 41.6089 224.271 42.3142L224.259 42.5013L221.991 42.3532ZM218.508 40.4701C219.186 40.5143 219.841 40.3809 220.472 40.0698C221.103 39.7587 221.573 39.3314 221.883 38.7879L222.052 36.1918L220.357 36.0811C217.706 35.9081 216.33 36.5973 216.229 38.1487C216.184 38.8269 216.376 39.3718 216.803 39.7833C217.23 40.1948 217.799 40.4237 218.508 40.4701ZM234.021 32.3814C233.697 32.3054 233.344 32.255 232.962 32.23C231.543 32.1374 230.541 32.6787 229.956 33.854L229.369 42.8349L227.206 42.6937L228.032 30.0409L230.137 30.1783L230.077 31.6424C230.86 30.5583 231.902 30.0587 233.204 30.1437C233.625 30.1712 233.941 30.2466 234.152 30.37L234.021 32.3814ZM239.867 27.7367L239.667 30.8005L242.03 30.9547L241.92 32.6269L239.558 32.4727L239.046 40.3193C239.013 40.826 239.093 41.2149 239.287 41.4859C239.481 41.7491 239.832 41.8972 240.338 41.9303C240.588 41.9466 240.934 41.9222 241.377 41.8572L241.262 43.6113C240.683 43.73 240.124 43.7719 239.586 43.7367C238.62 43.6736 237.91 43.3337 237.457 42.7169C237.004 42.1002 236.812 41.2539 236.883 40.1781L237.395 32.3315L235.091 32.1811L235.2 30.5089L237.504 30.6593L237.704 27.5955L239.867 27.7367ZM257.493 44.6708C257.385 44.4132 257.312 43.9622 257.276 43.3178C256.202 44.2969 254.968 44.7408 253.572 44.6497C252.325 44.5683 251.323 44.1505 250.565 43.3965C249.816 42.6352 249.477 41.7127 249.548 40.6291C249.634 39.3115 250.2 38.3228 251.245 37.663C252.298 36.9958 253.733 36.7215 255.55 36.8401L257.655 36.9775L257.72 35.9835C257.769 35.2273 257.582 34.6123 257.159 34.1384C256.736 33.6567 256.085 33.3871 255.204 33.3296C254.432 33.2792 253.772 33.4319 253.224 33.7876C252.676 34.1433 252.385 34.5979 252.348 35.1514L250.173 35.0094C250.215 34.3779 250.476 33.7844 250.959 33.2287C251.45 32.6657 252.088 32.2376 252.875 31.9445C253.669 31.6519 254.526 31.5356 255.446 31.5956C256.904 31.6908 258.022 32.1317 258.801 32.9185C259.58 33.6975 259.943 34.7272 259.891 36.0078L259.51 41.8313C259.435 42.9929 259.522 43.9264 259.774 44.6318L259.762 44.8189L257.493 44.6708ZM254.011 42.7876C254.689 42.8319 255.344 42.6985 255.975 42.3873C256.606 42.0762 257.076 41.6489 257.385 41.1054L257.555 38.5094L255.859 38.3987C253.209 38.2257 251.833 38.9148 251.731 40.4662C251.687 41.1445 251.879 41.6894 252.306 42.1009C252.733 42.5124 253.301 42.7413 254.011 42.7876ZM270.295 42.136C270.333 41.5513 270.14 41.0847 269.717 40.736C269.302 40.3801 268.552 40.0493 267.468 39.7437C266.392 39.4386 265.541 39.1012 264.915 38.7315C264.297 38.3623 263.847 37.9415 263.565 37.469C263.29 36.997 263.174 36.4491 263.214 35.8255C263.282 34.7886 263.776 33.9401 264.696 33.2798C265.623 32.6201 266.77 32.3348 268.134 32.4239C269.568 32.5175 270.706 32.9636 271.546 33.7623C272.394 34.5614 272.781 35.5379 272.705 36.6916L270.53 36.5497C270.569 35.9572 270.349 35.43 269.87 34.9681C269.399 34.5068 268.782 34.2512 268.018 34.2013C267.23 34.1499 266.603 34.2812 266.137 34.5952C265.67 34.9093 265.418 35.343 265.382 35.8965C265.348 36.4188 265.529 36.826 265.925 37.1181C266.321 37.4101 267.049 37.7121 268.109 38.024C269.177 38.3364 270.035 38.6821 270.683 39.0611C271.332 39.4401 271.801 39.8778 272.089 40.3742C272.386 40.8633 272.512 41.447 272.468 42.1252C272.394 43.2556 271.883 44.1343 270.934 44.7614C269.985 45.3806 268.79 45.6431 267.347 45.5489C266.334 45.4828 265.449 45.245 264.693 44.8355C263.937 44.426 263.357 43.8871 262.955 43.2188C262.56 42.5432 262.388 41.8313 262.437 41.0828L264.6 41.2241C264.592 41.9516 264.842 42.5474 265.352 43.0112C265.871 43.4678 266.574 43.7252 267.463 43.7832C268.281 43.8366 268.947 43.7156 269.459 43.4203C269.98 43.1176 270.259 42.6895 270.295 42.136ZM288.809 46.7151C288.701 46.4575 288.628 46.0065 288.592 45.3621C287.518 46.3411 286.284 46.7851 284.888 46.694C283.641 46.6126 282.639 46.1948 281.881 45.4408C281.133 44.6794 280.794 43.757 280.864 42.6733C280.95 41.3558 281.516 40.3671 282.561 39.7072C283.615 39.0401 285.05 38.7658 286.866 38.8844L288.971 39.0218L289.036 38.0278C289.085 37.2716 288.898 36.6565 288.475 36.1826C288.052 35.701 287.401 35.4314 286.52 35.3739C285.748 35.3235 285.088 35.4761 284.54 35.8318C283.993 36.1875 283.701 36.6421 283.665 37.1957L281.489 37.0537C281.531 36.4222 281.793 35.8286 282.275 35.2729C282.766 34.71 283.405 34.2819 284.191 33.9888C284.985 33.6961 285.842 33.5798 286.762 33.6399C288.22 33.735 289.338 34.176 290.117 34.9628C290.896 35.7417 291.259 36.7715 291.207 38.0521L290.827 43.8756C290.751 45.0372 290.839 45.9707 291.09 46.6761L291.078 46.8632L288.809 46.7151ZM285.327 44.8319C286.005 44.8762 286.66 44.7427 287.291 44.4316C287.922 44.1205 288.392 43.6932 288.701 43.1497L288.871 40.5537L287.175 40.443C284.525 40.2699 283.149 40.9591 283.047 42.5105C283.003 43.1887 283.195 43.7336 283.622 44.1451C284.049 44.5567 284.617 44.7856 285.327 44.8319ZM303.926 31.9184L303.726 34.9822L306.089 35.1364L305.979 36.8086L303.617 36.6544L303.105 44.501C303.072 45.0077 303.152 45.3966 303.346 45.6676C303.54 45.9308 303.891 46.0789 304.397 46.112C304.647 46.1283 304.993 46.1039 305.436 46.0388L305.321 47.7929C304.742 47.9117 304.183 47.9535 303.645 47.9184C302.679 47.8553 301.969 47.5154 301.516 46.8986C301.063 46.2819 300.871 45.4356 300.942 44.3597L301.454 36.5132L299.15 36.3628L299.259 34.6905L301.563 34.8409L301.763 31.7771L303.926 31.9184ZM319.197 45.7041L322.261 36.1921L324.424 36.3333L319.915 48.7456L318.161 48.6311L315.711 38.8414L312.092 48.2349L310.338 48.1204L307.492 35.228L309.643 35.3684L311.516 45.003L315.081 35.7234L316.823 35.8371L319.197 45.7041ZM325.656 42.6496C325.737 41.4101 326.052 40.311 326.6 39.3525C327.155 38.3945 327.884 37.6747 328.784 37.1933C329.692 36.7124 330.704 36.5083 331.819 36.5811C333.541 36.6936 334.894 37.3808 335.876 38.6428C336.867 39.9053 337.297 41.5266 337.168 43.5068L337.158 43.6588C337.078 44.8905 336.767 45.982 336.228 46.9333C335.696 47.8772 334.972 48.5933 334.056 49.0815C333.147 49.5702 332.124 49.7774 330.985 49.7031C329.27 49.5912 327.918 48.9039 326.928 47.6415C325.945 46.3795 325.518 44.7662 325.646 42.8016L325.656 42.6496ZM327.815 43.0489C327.723 44.4521 327.973 45.5997 328.565 46.4917C329.164 47.3842 330.009 47.8661 331.101 47.9374C332.2 48.0091 333.101 47.6373 333.804 46.822C334.508 45.9989 334.91 44.8117 335.011 43.2603C335.102 41.8726 334.844 40.7284 334.237 39.8276C333.639 38.9195 332.794 38.4298 331.703 38.3586C330.635 38.2888 329.745 38.6575 329.035 39.4645C328.325 40.2715 327.918 41.4663 327.815 43.0489ZM344.384 43.9661L338.677 43.5935L338.792 41.8278L344.499 42.2003L344.384 43.9661ZM350.432 47.5552L353.998 38.2638L356.314 38.415L350.273 52.6885C349.349 54.742 348.029 55.7128 346.314 55.6008L345.907 55.539L345.11 55.3344L345.224 53.5803L345.806 53.6652C346.539 53.7131 347.117 53.6021 347.542 53.3323C347.975 53.063 348.349 52.5434 348.666 51.7733L349.229 50.5182L345.532 37.7112L347.894 37.8654L350.432 47.5552ZM362.5 51.7604C360.785 51.6484 359.427 50.996 358.424 49.8032C357.422 48.6025 356.982 47.0589 357.106 45.1723L357.132 44.7747C357.214 43.5196 357.524 42.4164 358.064 41.4652C358.612 40.5066 359.333 39.7786 360.226 39.2811C361.128 38.7762 362.082 38.5567 363.088 38.6223C364.733 38.7297 365.976 39.355 366.817 40.4981C367.659 41.6413 368.014 43.2225 367.882 45.2416L367.823 46.142L359.251 45.5825C359.201 46.8319 359.498 47.8651 360.141 48.6822C360.793 49.492 361.657 49.932 362.733 50.0022C363.497 50.0521 364.154 49.9384 364.704 49.6612C365.255 49.384 365.746 49.0011 366.177 48.5125L367.431 49.6278C366.264 51.1879 364.621 51.8988 362.5 51.7604ZM362.972 40.3998C362.099 40.3428 361.345 40.6146 360.711 41.2152C360.077 41.808 359.653 42.6728 359.438 43.8096L365.776 44.2233L365.786 44.0596C365.796 42.9563 365.555 42.0872 365.064 41.4524C364.574 40.8097 363.876 40.4588 362.972 40.3998ZM377.776 52.5227C377.668 52.2651 377.595 51.8141 377.559 51.1697C376.485 52.1487 375.251 52.5927 373.855 52.5016C372.608 52.4202 371.606 52.0024 370.848 51.2484C370.1 50.4871 369.76 49.5646 369.831 48.4809C369.917 47.1634 370.483 46.1747 371.528 45.5149C372.582 44.8477 374.016 44.5734 375.833 44.692L377.938 44.8294L378.003 43.8354C378.052 43.0792 377.865 42.4642 377.442 41.9903C377.019 41.5086 376.368 41.239 375.487 41.1815C374.715 41.1311 374.055 41.2838 373.507 41.6395C372.96 41.9952 372.668 42.4498 372.631 43.0033L370.456 42.8613C370.498 42.2298 370.759 41.6362 371.242 41.0806C371.733 40.5176 372.371 40.0895 373.158 39.7964C373.952 39.5037 374.809 39.3874 375.729 39.4475C377.187 39.5427 378.305 39.9836 379.084 40.7704C379.863 41.5494 380.226 42.5791 380.174 43.8597L379.794 49.6832C379.718 50.8448 379.806 51.7783 380.057 52.4837L380.045 52.6708L377.776 52.5227ZM374.294 50.6395C374.972 50.6838 375.627 50.5504 376.258 50.2392C376.889 49.9281 377.359 49.5008 377.668 48.9573L377.838 46.3613L376.142 46.2506C373.492 46.0776 372.116 46.7667 372.014 48.3181C371.97 48.9964 372.162 49.5412 372.589 49.9528C373.016 50.3643 373.584 50.5932 374.294 50.6395ZM389.807 42.5508C389.483 42.4749 389.13 42.4244 388.748 42.3995C387.329 42.3069 386.327 42.8482 385.741 44.0235L385.155 53.0044L382.992 52.8631L383.818 40.2104L385.922 40.3478L385.862 41.8118C386.645 40.7277 387.688 40.2282 388.99 40.3131C389.411 40.3406 389.727 40.4161 389.938 40.5395L389.807 42.5508ZM396.895 47.3C396.976 46.0604 397.291 44.9614 397.839 44.0029C398.394 43.0448 399.123 42.3251 400.023 41.8437C400.931 41.3628 401.943 41.1587 403.058 41.2315C404.78 41.3439 406.133 42.0312 407.115 43.2931C408.106 44.5556 408.536 46.177 408.407 48.1571L408.397 48.3091C408.317 49.5409 408.006 50.6324 407.467 51.5836C406.935 52.5276 406.211 53.2437 405.295 53.7319C404.386 54.2206 403.363 54.4278 402.224 54.3535C400.509 54.2415 399.157 53.5543 398.167 52.2918C397.184 51.0298 396.757 49.4166 396.885 47.452L396.895 47.3ZM399.054 47.6992C398.962 49.1025 399.212 50.2501 399.804 51.1421C400.403 52.0346 401.248 52.5165 402.34 52.5877C403.439 52.6595 404.34 52.2877 405.043 51.4724C405.747 50.6493 406.149 49.462 406.25 47.9107C406.341 46.523 406.083 45.3787 405.476 44.4779C404.878 43.5698 404.033 43.0802 402.942 43.0089C401.874 42.9392 400.984 43.3079 400.274 44.1149C399.564 44.9219 399.157 46.1167 399.054 47.6992ZM413.057 54.8257L410.893 54.6845L412.066 36.7227L414.229 36.864L413.057 54.8257ZM416.423 48.5865C416.55 46.6453 417.112 45.1161 418.108 43.999C419.106 42.8741 420.349 42.3602 421.838 42.4574C423.319 42.5541 424.459 43.1374 425.259 44.2074L425.689 37.6121L427.852 37.7533L426.68 55.715L424.692 55.5853L424.675 54.2219C423.741 55.2257 422.502 55.6772 420.958 55.5764C419.492 55.4807 418.335 54.8023 417.486 53.5412C416.644 52.2806 416.286 50.6836 416.413 48.7502L416.423 48.5865ZM418.571 48.9733C418.477 50.4077 418.7 51.5497 419.239 52.3991C419.779 53.2486 420.571 53.7074 421.616 53.7756C422.988 53.8651 424.03 53.3147 424.742 52.1241L425.121 46.3123C424.552 45.0773 423.597 44.416 422.256 44.3285C421.196 44.2593 420.343 44.6146 419.697 45.3945C419.051 46.1744 418.675 47.3673 418.571 48.9733ZM432.782 51.2867L430.829 51.1592L431.475 38.9292L433.744 39.0773L432.782 51.2867ZM430.353 54.8626C430.376 54.5118 430.5 54.2263 430.726 54.0062C430.96 53.7788 431.287 53.6788 431.708 53.7063C432.129 53.7338 432.441 53.8755 432.643 54.1314C432.846 54.3795 432.936 54.679 432.914 55.0298C432.891 55.3806 432.762 55.6658 432.529 55.8855C432.296 56.0973 431.969 56.1895 431.548 56.162C431.127 56.1345 430.815 56.0006 430.611 55.7603C430.416 55.5127 430.33 55.2134 430.353 54.8626Z" fill="black"/>
</svg>
