<svg width="642" height="133" viewBox="0 0 642 133" fill="none" xmlns="http://www.w3.org/2000/svg">
<rect x="0.810547" y="27.7973" width="637.319" height="104.576" rx="45" transform="rotate(-2.41921 0.810547 27.7973)" fill="#A9CDF6"/>
<path d="M36.1923 70.4469L35.2433 44.8708L42.4629 44.6029C44.6879 44.5203 46.6736 44.9392 48.4199 45.8595C50.1661 46.7797 51.5355 48.1303 52.528 49.9111C53.5322 51.6915 54.0838 53.7584 54.1829 56.1118L54.2435 57.7454C54.333 60.1578 53.943 62.289 53.0735 64.1389C52.2157 65.9884 50.9382 67.4313 49.2411 68.4676C47.5557 69.5035 45.5658 70.0757 43.2714 70.1843L36.1923 70.4469ZM38.7189 47.5211L39.4626 67.5639L43.0109 67.4323C45.6107 67.3358 47.6008 66.4528 48.9813 64.7833C50.3734 63.1133 51.0141 60.7852 50.9033 57.799L50.8479 56.3059C50.7402 53.4017 49.9714 51.1728 48.5418 49.6192C47.1234 48.0536 45.1607 47.3055 42.6537 47.3751L38.7189 47.5211ZM58.0717 59.9429C58.0026 58.0809 58.3035 56.3928 58.9744 54.8786C59.657 53.364 60.6333 52.1785 61.9032 51.3223C63.1848 50.4655 64.6629 50.0061 66.3375 49.944C68.9256 49.848 71.0492 50.6663 72.7083 52.3989C74.3792 54.1311 75.2698 56.4845 75.3801 59.459L75.3886 59.6874C75.4573 61.5376 75.1618 63.2138 74.5022 64.7159C73.8539 66.2058 72.8833 67.3852 71.5904 68.254C70.3092 69.1224 68.8137 69.5883 67.104 69.6518C64.5276 69.7474 62.404 68.9291 60.7332 67.1969C59.074 65.4642 58.1897 63.1224 58.0802 60.1713L58.0717 59.9429ZM61.3534 60.2081C61.4316 62.316 61.9803 63.9902 62.9997 65.2306C64.0308 66.4706 65.366 67.0601 67.0055 66.9993C68.6567 66.938 69.9444 66.2453 70.8686 64.921C71.7924 63.5851 72.211 61.7519 72.1246 59.4215C72.0472 57.337 71.4869 55.6691 70.4437 54.4179C69.4118 53.1545 68.0761 52.5532 66.4366 52.614C64.8322 52.6736 63.5619 53.3598 62.6255 54.6728C61.6892 55.9857 61.2651 57.8309 61.3534 60.2081ZM78.6773 59.1959C78.5674 56.2331 79.1652 53.8539 80.4706 52.0581C81.7755 50.2507 83.5581 49.305 85.8183 49.2212C88.137 49.1351 89.9767 49.8878 91.3374 51.479L91.4173 49.3652L94.386 49.2551L95.0742 67.8048C95.1655 70.2641 94.5055 72.2293 93.0942 73.7006C91.6947 75.1715 89.7653 75.9526 87.306 76.0438C85.9359 76.0947 84.5841 75.8517 83.2508 75.3148C81.9175 74.7779 80.8865 74.0129 80.1577 73.0197L81.7717 71.0073C83.2292 72.6771 84.965 73.4746 86.9792 73.3998C88.5602 73.3412 89.7733 72.8505 90.6186 71.9279C91.4756 71.0049 91.8741 69.7353 91.8141 68.1193L91.7535 66.4856C90.5092 68.0328 88.7629 68.8481 86.5144 68.9316C84.2894 69.0141 82.4527 68.1852 81.0044 66.4447C79.5677 64.7038 78.7921 62.2876 78.6773 59.1959ZM81.9583 59.4436C82.0378 61.5866 82.5396 63.2567 83.4635 64.4537C84.387 65.6391 85.6392 66.2024 87.2201 66.1437C89.2695 66.0677 90.7398 65.0808 91.631 63.1832L91.309 54.5056C90.2462 52.7274 88.7194 51.8752 86.7286 51.9491C85.1477 52.0077 83.935 52.6684 83.0906 53.931C82.2462 55.1937 81.8688 57.0312 81.9583 59.4436ZM110.889 62.627C110.857 61.7487 110.498 61.0818 109.812 60.6265C109.138 60.1589 107.969 59.7802 106.305 59.4901C104.652 59.1996 103.331 58.8265 102.341 58.3707C101.362 57.9145 100.626 57.3554 100.133 56.6936C99.6506 56.0313 99.3923 55.2318 99.3575 54.2949C99.2997 52.7374 99.9066 51.3956 101.178 50.2696C102.462 49.1431 104.128 48.5418 106.177 48.4658C108.332 48.3858 110.098 48.8773 111.474 49.9403C112.862 51.0029 113.588 52.4007 113.652 54.1339L110.385 54.2551C110.352 53.3651 109.943 52.6122 109.158 51.9964C108.385 51.3801 107.424 51.0932 106.276 51.1358C105.094 51.1797 104.178 51.4717 103.53 52.0117C102.881 52.5517 102.572 53.2375 102.603 54.0689C102.632 54.8536 102.965 55.4334 103.6 55.8086C104.236 56.1837 105.368 56.5228 106.998 56.8259C108.639 57.1285 109.972 57.5129 110.998 57.9791C112.024 58.4453 112.79 59.0267 113.297 59.7232C113.815 60.4076 114.093 61.2592 114.13 62.278C114.193 63.9761 113.565 65.3656 112.245 66.4465C110.924 67.5158 109.18 68.0906 107.014 68.171C105.492 68.2274 104.135 68.0081 102.944 67.5128C101.753 67.0176 100.806 66.3022 100.103 65.3667C99.4107 64.419 99.0439 63.3831 99.0022 62.2589L102.252 62.1383C102.351 63.2252 102.816 64.0757 103.648 64.6898C104.491 65.2918 105.581 65.568 106.916 65.5185C108.145 65.4729 109.12 65.1904 109.839 64.6712C110.57 64.1398 110.92 63.4584 110.889 62.627ZM139.217 66.6243C139.016 66.2565 138.839 65.5946 138.686 64.6387C137.234 66.264 135.459 67.1155 133.363 67.1933C131.489 67.2628 129.93 66.793 128.685 65.7838C127.45 64.7624 126.803 63.4378 126.743 61.8101C126.669 59.831 127.362 58.269 128.821 57.1243C130.29 55.9675 132.39 55.3384 135.118 55.2372L138.28 55.1199L138.225 53.6267C138.183 52.4908 137.809 51.6017 137.105 50.9594C136.401 50.3054 135.387 50.0029 134.064 50.052C132.905 50.095 131.943 50.4239 131.181 51.0385C130.418 51.6531 130.052 52.3762 130.082 53.2077L126.815 53.3289C126.78 52.3803 127.08 51.4545 127.715 50.5514C128.361 49.6362 129.248 48.8997 130.377 48.3418C131.517 47.7835 132.778 47.4788 134.16 47.4275C136.35 47.3462 138.086 47.833 139.368 48.8877C140.65 49.9308 141.35 51.4117 141.468 53.3305L141.792 62.0784C141.857 63.8233 142.131 65.2028 142.614 66.2168L142.625 66.4978L139.217 66.6243ZM133.732 64.3476C134.751 64.3098 135.708 64.0104 136.601 63.4495C137.495 62.8887 138.132 62.1791 138.51 61.3207L138.365 57.421L135.818 57.5155C131.837 57.6633 129.889 58.9023 129.976 61.2328C130.013 62.2516 130.383 63.0353 131.083 63.5839C131.784 64.1326 132.667 64.3871 133.732 64.3476ZM155.642 49.9022C155.147 49.8385 154.612 49.8173 154.038 49.8386C151.907 49.9177 150.495 50.8789 149.801 52.7223L150.301 66.213L147.052 66.3336L146.346 47.3271L149.508 47.2098L149.642 49.4036C150.645 47.666 152.124 46.7609 154.08 46.6884C154.712 46.6649 155.195 46.7291 155.529 46.8809L155.642 49.9022ZM166.791 65.953C164.215 66.0486 162.087 65.2832 160.409 63.6568C158.73 62.0187 157.838 59.7827 157.732 56.9487L157.71 56.3514C157.64 54.466 157.935 52.7723 158.595 51.2702C159.266 49.756 160.23 48.5593 161.487 47.68C162.756 46.7886 164.145 46.3149 165.656 46.2589C168.127 46.1672 170.078 46.9098 171.508 48.4868C172.939 50.0637 173.71 52.3687 173.823 55.4018L173.873 56.7544L160.997 57.2321C161.113 59.1041 161.714 60.6004 162.8 61.7211C163.896 62.8297 165.252 63.3539 166.868 63.294C168.016 63.2514 168.979 62.9811 169.758 62.4831C170.537 61.9852 171.211 61.3386 171.78 60.5436L173.822 62.0157C172.32 64.5224 169.977 65.8348 166.791 65.953ZM165.755 48.9289C164.443 48.9776 163.36 49.4986 162.506 50.4919C161.651 51.4734 161.15 52.8289 161.003 54.5582L170.524 54.2049L170.515 53.959C170.36 52.3113 169.868 51.0513 169.038 50.1791C168.208 49.2952 167.113 48.8785 165.755 48.9289ZM185.671 55.2084C185.602 53.3464 185.903 51.6583 186.574 50.1441C187.257 48.6295 188.233 47.444 189.503 46.5878C190.784 45.7311 192.263 45.2716 193.937 45.2095C196.525 45.1135 198.649 45.9318 200.308 47.6644C201.979 49.3966 202.869 51.75 202.98 54.7245L202.988 54.9529C203.057 56.8032 202.761 58.4793 202.102 59.9814C201.454 61.4713 200.483 62.6507 199.19 63.5195C197.909 64.3879 196.413 64.8539 194.704 64.9173C192.127 65.0129 190.004 64.1946 188.333 62.4624C186.674 60.7297 185.789 58.3879 185.68 55.4368L185.671 55.2084ZM188.953 55.4736C189.031 57.5816 189.58 59.2557 190.599 60.4961C191.63 61.7361 192.966 62.3257 194.605 62.2648C196.256 62.2036 197.544 61.5108 198.468 60.1866C199.392 58.8506 199.811 57.0174 199.724 54.687C199.647 52.6025 199.087 50.9346 198.043 49.6834C197.012 48.42 195.676 47.8187 194.036 47.8795C192.432 47.9391 191.162 48.6253 190.225 49.9383C189.289 51.2513 188.865 53.0964 188.953 55.4736ZM209.76 44.9742L209.926 47.0789C211.258 45.3877 213.108 44.4982 215.473 44.4104C218.132 44.3118 219.979 45.2635 221.014 47.2655C221.613 46.3286 222.405 45.5604 223.392 44.961C224.39 44.361 225.58 44.0355 226.961 43.9842C231.13 43.8295 233.332 45.9583 233.566 50.3706L234.039 63.106L230.789 63.2266L230.323 50.6844C230.273 49.326 229.925 48.3245 229.28 47.6801C228.634 47.0239 227.579 46.7229 226.115 46.7772C224.909 46.822 223.921 47.2222 223.152 47.9778C222.382 48.7217 221.955 49.705 221.872 50.9277L222.34 63.5401L219.072 63.6613L218.61 51.207C218.508 48.4433 217.104 47.1116 214.399 47.212C212.267 47.2911 210.843 48.2527 210.126 50.097L210.641 63.9742L207.391 64.0947L206.686 45.0883L209.76 44.9742ZM241.326 43.803L241.52 46.1881C242.904 44.3073 244.767 43.3235 247.11 43.2366C251.126 43.0876 253.236 45.2784 253.44 49.8091L253.906 62.3689L250.656 62.4894L250.189 49.9121C250.127 48.5424 249.773 47.5412 249.128 46.9084C248.495 46.2752 247.528 45.9827 246.228 46.031C245.174 46.0701 244.26 46.3855 243.484 46.9771C242.709 47.5688 242.115 48.3296 241.704 49.2595L242.207 62.8029L238.957 62.9235L238.252 43.9171L241.326 43.803ZM262.337 62.056L259.088 62.1766L258.382 43.1701L261.632 43.0496L262.337 62.056ZM257.932 38.1385C257.912 37.6115 258.054 37.1606 258.357 36.7858C258.671 36.4106 259.145 36.2113 259.777 36.1878C260.409 36.1644 260.896 36.3281 261.238 36.6789C261.579 37.0298 261.759 37.4687 261.779 37.9957C261.798 38.5227 261.651 38.9679 261.336 39.3314C261.021 39.6949 260.547 39.8884 259.915 39.9118C259.283 39.9353 258.796 39.7775 258.455 39.4383C258.126 39.0987 257.951 38.6654 257.932 38.1385ZM273.662 57.2207L277.828 42.4486L281.148 42.3254L275.038 61.5848L272.561 61.6767L264.97 42.9257L268.29 42.8025L273.662 57.2207ZM283.479 51.5793C283.41 49.7173 283.711 48.0292 284.382 46.515C285.064 45.0004 286.041 43.815 287.311 42.9587C288.592 42.102 290.07 41.6426 291.745 41.5804C294.333 41.4844 296.457 42.3027 298.116 44.0354C299.787 45.7676 300.677 48.1209 300.788 51.0954L300.796 51.3238C300.865 53.1741 300.569 54.8503 299.91 56.3523C299.261 57.8422 298.291 59.0216 296.998 59.8904C295.717 60.7589 294.221 61.2248 292.511 61.2882C289.935 61.3838 287.811 60.5655 286.141 58.8333C284.481 57.1007 283.597 54.7588 283.488 51.8077L283.479 51.5793ZM286.761 51.8446C286.839 53.9525 287.388 55.6267 288.407 56.8671C289.438 58.107 290.773 58.6966 292.413 58.6358C294.064 58.5745 295.352 57.8817 296.276 56.5575C297.2 55.2215 297.618 53.3884 297.532 51.0579C297.455 48.9734 296.894 47.3056 295.851 46.0543C294.819 44.7909 293.483 44.1896 291.844 44.2505C290.24 44.31 288.969 44.9963 288.033 46.3092C287.097 47.6222 286.673 49.4673 286.761 51.8446ZM313.806 44.0337C313.311 43.9699 312.777 43.9487 312.203 43.97C310.072 44.0491 308.659 45.0103 307.965 46.8537L308.466 60.3444L305.216 60.465L304.511 41.4586L307.673 41.3413L307.807 43.5351C308.81 41.7975 310.289 40.8924 312.244 40.8198C312.877 40.7964 313.36 40.8605 313.694 41.0123L313.806 44.0337ZM324.956 60.0844C322.379 60.18 320.252 59.4146 318.573 57.7882C316.894 56.1501 316.002 53.9141 315.897 51.0801L315.875 50.4829C315.805 48.5975 316.1 46.9037 316.759 45.4017C317.43 43.8875 318.394 42.6907 319.652 41.8115C320.92 40.9201 322.31 40.4464 323.821 40.3903C326.291 40.2986 328.242 41.0413 329.673 42.6182C331.103 44.1951 331.875 46.5002 331.987 49.5332L332.038 50.8858L319.162 51.3636C319.278 53.2355 319.879 54.7319 320.964 55.8525C322.061 56.9611 323.417 57.4854 325.033 57.4254C326.181 57.3828 327.144 57.1126 327.923 56.6146C328.702 56.1166 329.376 55.4701 329.944 54.675L331.987 56.1472C330.485 58.6538 328.141 59.9662 324.956 60.0844ZM323.92 43.0603C322.608 43.109 321.525 43.63 320.671 44.6233C319.816 45.6049 319.315 46.9603 319.168 48.6896L328.689 48.3363L328.68 48.0904C328.525 46.4427 328.032 45.1827 327.203 44.3106C326.372 43.4267 325.278 43.0099 323.92 43.0603ZM347.012 53.8658C346.979 52.9875 346.62 52.3207 345.935 51.8653C345.261 51.3978 344.092 51.019 342.428 50.729C340.775 50.4385 339.454 50.0653 338.463 49.6096C337.485 49.1533 336.749 48.5943 336.255 47.9325C335.773 47.2702 335.515 46.4706 335.48 45.5338C335.422 43.9763 336.029 42.6345 337.301 41.5084C338.584 40.3819 340.251 39.7807 342.3 39.7046C344.455 39.6247 346.22 40.1162 347.597 41.1792C348.985 42.2417 349.711 43.6396 349.775 45.3728L346.508 45.494C346.475 44.604 346.066 43.8511 345.281 43.2352C344.507 42.6189 343.547 42.3321 342.399 42.3747C341.216 42.4186 340.301 42.7105 339.652 43.2506C339.004 43.7906 338.695 44.4763 338.726 45.3078C338.755 46.0924 339.087 46.6723 339.723 47.0474C340.358 47.4226 341.491 47.7617 343.12 48.0647C344.762 48.3674 346.095 48.7518 347.121 49.218C348.147 49.6842 348.913 50.2655 349.42 50.9621C349.937 51.6465 350.215 52.4981 350.253 53.5169C350.316 55.2149 349.688 56.6044 348.367 57.6854C347.047 58.7546 345.303 59.3294 343.137 59.4098C341.614 59.4663 340.258 59.2469 339.066 58.7517C337.875 58.2564 336.928 57.5411 336.225 56.6056C335.533 55.6579 335.167 54.622 335.125 53.4977L338.375 53.3772C338.474 54.4641 338.939 55.3146 339.771 55.9287C340.614 56.5307 341.703 56.8069 343.038 56.7573C344.268 56.7117 345.242 56.4293 345.962 55.9101C346.693 55.3787 347.043 54.6973 347.012 53.8658ZM370.015 48.5092L361.442 48.8273L361.344 46.1748L369.916 45.8568L370.015 48.5092ZM379.957 48.1403L371.385 48.4584L371.286 45.8059L379.859 45.4879L379.957 48.1403ZM395.947 33.4573L396.118 38.0596L399.666 37.9279L399.759 40.4399L396.211 40.5715L396.648 52.3583C396.677 53.1195 396.856 53.6875 397.186 54.0622C397.517 54.4252 398.062 54.5926 398.823 54.5644C399.198 54.5504 399.711 54.4611 400.361 54.2962L400.459 56.9311C399.613 57.197 398.786 57.345 397.978 57.375C396.526 57.4289 395.414 57.0303 394.644 56.1794C393.874 55.3285 393.459 54.095 393.399 52.4789L392.961 40.6921L389.501 40.8205L389.408 38.3086L392.868 38.1802L392.697 33.5779L395.947 33.4573ZM406.813 39.9671C408.188 38.1453 410.029 37.1916 412.336 37.106C416.353 36.957 418.463 39.1478 418.666 43.6786L419.132 56.2383L415.882 56.3589L415.415 43.7816C415.353 42.4119 414.999 41.4106 414.354 40.7778C413.721 40.1446 412.754 39.8522 411.454 39.9004C410.4 39.9395 409.486 40.2549 408.71 40.8465C407.935 41.4382 407.341 42.199 406.93 43.1289L407.433 56.6724L404.183 56.7929L403.182 29.8115L406.432 29.6909L406.813 39.9671ZM431.898 56.1164C429.321 56.212 427.194 55.4466 425.515 53.8202C423.836 52.1821 422.944 49.9461 422.839 47.1121L422.817 46.5149C422.747 44.6295 423.042 42.9357 423.701 41.4337C424.372 39.9195 425.336 38.7227 426.594 37.8435C427.862 36.9521 429.252 36.4784 430.763 36.4223C433.233 36.3306 435.184 37.0733 436.615 38.6502C438.045 40.2272 438.817 42.5322 438.929 45.5652L438.98 46.9178L426.104 47.3956C426.22 49.2675 426.821 50.7639 427.906 51.8846C429.003 52.9931 430.359 53.5174 431.975 53.4574C433.123 53.4148 434.086 53.1446 434.865 52.6466C435.644 52.1486 436.318 51.5021 436.886 50.707L438.929 52.1792C437.427 54.6858 435.083 55.9982 431.898 56.1164ZM430.862 39.0923C429.55 39.141 428.467 39.662 427.613 40.6553C426.758 41.6369 426.257 42.9923 426.11 44.7216L435.631 44.3684L435.622 44.1224C435.467 42.4747 434.974 41.2147 434.145 40.3426C433.314 39.4587 432.22 39.0419 430.862 39.0923ZM448.87 50.3679L452.768 35.9576L456.246 35.8286L449.419 58.0521C448.354 61.2578 446.533 62.9085 443.956 63.0041L443.34 62.9742L442.119 62.7908L442.021 60.1559L442.902 60.1936C444.003 60.1528 444.85 59.8985 445.442 59.4309C446.046 58.9629 446.526 58.1301 446.88 56.9326L447.528 54.9736L440.05 36.4295L443.599 36.2978L448.87 50.3679ZM476.691 54.4544C474.115 54.55 471.987 53.7846 470.309 52.1582C468.63 50.5201 467.738 48.2841 467.632 45.4501L467.61 44.8529C467.54 42.9674 467.835 41.2737 468.495 39.7716C469.166 38.2574 470.13 37.0607 471.387 36.1815C472.656 35.2901 474.045 34.8163 475.556 34.7603C478.027 34.6686 479.978 35.4112 481.408 36.9882C482.839 38.5651 483.61 40.8701 483.723 43.9032L483.773 45.2558L470.897 45.7335C471.013 47.6055 471.614 49.1018 472.7 50.2225C473.796 51.3311 475.152 51.8554 476.768 51.7954C477.916 51.7528 478.879 51.4825 479.658 50.9846C480.437 50.4866 481.111 49.8401 481.68 49.045L483.722 50.5172C482.22 53.0238 479.877 54.3362 476.691 54.4544ZM475.655 37.4303C474.343 37.479 473.26 38 472.406 38.9933C471.551 39.9749 471.05 41.3303 470.903 43.0596L480.424 42.7063L480.415 42.4604C480.26 40.8127 479.768 39.5527 478.938 38.6805C478.108 37.7967 477.013 37.3799 475.655 37.4303ZM499.602 53.2525C499.401 52.8847 499.224 52.2229 499.071 51.2669C497.618 52.8922 495.844 53.7437 493.748 53.8215C491.874 53.891 490.315 53.4212 489.069 52.412C487.835 51.3906 487.188 50.0661 487.128 48.4383C487.054 46.4592 487.747 44.8973 489.205 43.7526C490.675 42.5957 492.774 41.9666 495.503 41.8654L498.665 41.7481L498.61 40.255C498.567 39.119 498.194 38.2299 497.49 37.5876C496.786 36.9336 495.772 36.6311 494.449 36.6802C493.289 36.7232 492.328 37.0521 491.565 37.6667C490.802 38.2814 490.436 39.0044 490.467 39.8359L487.2 39.9571C487.165 39.0085 487.465 38.0827 488.1 37.1797C488.746 36.2644 489.633 35.5279 490.762 34.9701C491.902 34.4118 493.163 34.107 494.545 34.0557C496.735 33.9745 498.471 34.4612 499.753 35.516C501.035 36.559 501.735 38.0399 501.853 39.9587L502.177 48.7066C502.242 50.4515 502.516 51.831 502.999 52.845L503.01 53.1261L499.602 53.2525ZM494.117 50.9758C495.136 50.938 496.092 50.6386 496.986 50.0778C497.88 49.5169 498.516 48.8073 498.895 47.9489L498.75 44.0492L496.203 44.1437C492.222 44.2915 490.274 45.5306 490.36 47.861C490.398 48.8798 490.767 49.6635 491.468 50.2122C492.168 50.7608 493.052 51.0153 494.117 50.9758ZM510.969 29.1895L511.14 33.7918L514.689 33.6601L514.782 36.172L511.233 36.3037L511.671 48.0905C511.699 48.8517 511.878 49.4197 512.209 49.7944C512.539 50.1574 513.085 50.3248 513.846 50.2965C514.221 50.2826 514.733 50.1933 515.384 50.0284L515.482 52.6633C514.635 52.9292 513.808 53.0772 513 53.1072C511.548 53.1611 510.437 52.7625 509.667 51.9116C508.896 51.0607 508.481 49.8272 508.421 48.2111L507.984 36.4243L504.523 36.5527L504.43 34.0407L507.89 33.9123L507.72 29.31L510.969 29.1895ZM530.48 33.0742L530.646 35.1788C531.979 33.4876 533.828 32.5981 536.194 32.5104C538.852 32.4117 540.699 33.3634 541.735 35.3655C542.334 34.4286 543.126 33.6604 544.112 33.0609C545.11 32.461 546.3 32.1354 547.682 32.0841C551.851 31.9294 554.053 34.0582 554.287 38.4706L554.759 51.2059L551.51 51.3265L551.044 38.7844C550.994 37.4259 550.646 36.4245 550 35.78C549.355 35.1238 548.3 34.8229 546.836 34.8772C545.63 34.9219 544.642 35.3221 543.872 36.0777C543.103 36.8216 542.676 37.8049 542.592 39.0276L543.06 51.64L539.793 51.7612L539.331 39.3069C539.228 36.5432 537.824 35.2115 535.119 35.3119C532.988 35.391 531.564 36.3527 530.846 38.1969L531.361 52.0741L528.112 52.1947L527.406 33.1882L530.48 33.0742ZM567.578 51.0821C565.002 51.1777 562.874 50.4123 561.195 48.7859C559.516 47.1479 558.624 44.9118 558.519 42.0778L558.497 41.4806C558.427 39.5952 558.722 37.9014 559.381 36.3994C560.052 34.8852 561.016 33.6884 562.274 32.8092C563.542 31.9178 564.932 31.4441 566.443 31.388C568.914 31.2963 570.864 32.039 572.295 33.6159C573.725 35.1929 574.497 37.4979 574.609 40.5309L574.66 41.8835L561.784 42.3613C561.9 44.2332 562.501 45.7296 563.586 46.8503C564.683 47.9588 566.039 48.4831 567.655 48.4231C568.803 48.3805 569.766 48.1103 570.545 47.6123C571.324 47.1143 571.998 46.4678 572.566 45.6727L574.609 47.1449C573.107 49.6515 570.763 50.9639 567.578 51.0821ZM566.542 34.058C565.23 34.1067 564.147 34.6277 563.293 35.621C562.438 36.6026 561.937 37.958 561.79 39.6873L571.311 39.3341L571.302 39.0881C571.147 37.4404 570.654 36.1804 569.825 35.3083C568.994 34.4244 567.9 34.0076 566.542 34.058ZM590.489 49.8802C590.287 49.5124 590.11 48.8506 589.958 47.8946C588.505 49.5199 586.731 50.3715 584.635 50.4492C582.761 50.5188 581.201 50.0489 579.956 49.0397C578.722 48.0184 578.075 46.6938 578.014 45.066C577.941 43.0869 578.633 41.525 580.092 40.3803C581.562 39.2234 583.661 38.5944 586.39 38.4931L589.552 38.3758L589.496 36.8827C589.454 35.7468 589.081 34.8576 588.377 34.2153C587.673 33.5613 586.659 33.2589 585.335 33.308C584.176 33.351 583.215 33.6798 582.452 34.2944C581.689 34.9091 581.323 35.6321 581.354 36.4636L578.087 36.5848C578.051 35.6363 578.351 34.7105 578.986 33.8074C579.632 32.8922 580.52 32.1556 581.648 31.5978C582.789 31.0395 584.05 30.7347 585.431 30.6834C587.621 30.6022 589.357 31.0889 590.64 32.1437C591.921 33.1867 592.621 34.6676 592.739 36.5865L593.064 45.3343C593.129 47.0792 593.403 48.4587 593.886 49.4727L593.896 49.7538L590.489 49.8802ZM585.004 47.6035C586.023 47.5657 586.979 47.2664 587.873 46.7055C588.767 46.1446 589.403 45.435 589.782 44.5766L589.637 40.677L587.09 40.7715C583.108 40.9192 581.161 42.1583 581.247 44.4887C581.285 45.5075 581.654 46.2913 582.355 46.8399C583.055 47.3885 583.938 47.6431 585.004 47.6035ZM601.856 25.8172L602.027 30.4195L605.575 30.2878L605.668 32.7998L602.12 32.9314L602.557 44.7182C602.586 45.4794 602.765 46.0474 603.096 46.4221C603.426 46.7851 603.971 46.9525 604.733 46.9243C605.107 46.9104 605.62 46.821 606.27 46.6561L606.368 49.291C605.522 49.557 604.695 49.7049 603.887 49.7349C602.435 49.7888 601.324 49.3903 600.553 48.5393C599.783 47.6884 599.368 46.4549 599.308 44.8388L598.87 33.052L595.41 33.1804L595.317 30.6685L598.777 30.5401L598.606 25.9378L601.856 25.8172ZM610.176 54.2509L608.285 53.0546C609.328 51.4796 609.844 49.8774 609.83 48.2479L609.721 45.3144L612.901 45.1964L612.995 47.7435C613.039 48.9262 612.79 50.1199 612.248 51.3244C611.719 52.5285 611.028 53.504 610.176 54.2509ZM45.0323 102.473C44.9224 99.5104 45.5201 97.1311 46.8255 95.3354C48.1305 93.528 49.9131 92.5823 52.1732 92.4984C54.4919 92.4124 56.3317 93.165 57.6924 94.7563L57.7723 92.6425L60.7409 92.5324L61.4292 111.082C61.5204 113.541 60.8604 115.507 59.4492 116.978C58.0496 118.449 56.1202 119.23 53.661 119.321C52.2908 119.372 50.9391 119.129 49.6058 118.592C48.2725 118.055 47.2414 117.29 46.5127 116.297L48.1267 114.285C49.5841 115.954 51.32 116.752 53.3342 116.677C54.9152 116.618 56.1283 116.128 56.9735 115.205C57.8305 114.282 58.229 113.013 58.1691 111.397L58.1085 109.763C56.8642 111.31 55.1178 112.125 52.8694 112.209C50.6444 112.291 48.8077 111.462 47.3593 109.722C45.9227 107.981 45.147 105.565 45.0323 102.473ZM48.3133 102.721C48.3928 104.864 48.8945 106.534 49.8184 107.731C50.7419 108.916 51.9942 109.48 53.5751 109.421C55.6245 109.345 57.0947 108.358 57.9859 106.46L57.664 97.7829C56.6012 96.0046 55.0744 95.1525 53.0836 95.2263C51.5027 95.285 50.29 95.9456 49.4456 97.2083C48.6012 98.4709 48.2238 100.308 48.3133 102.721ZM74.9546 94.9249C74.4598 94.8612 73.9254 94.84 73.3516 94.8613C71.2202 94.9404 69.8076 95.9016 69.1138 97.745L69.6144 111.236L66.3646 111.356L65.6594 92.3499L68.8213 92.2325L68.9555 94.4263C69.9581 92.6887 71.4373 91.7837 73.393 91.7111C74.0254 91.6876 74.5086 91.7518 74.8425 91.9036L74.9546 94.9249ZM89.5869 110.495C89.3857 110.127 89.2087 109.465 89.0559 108.509C87.6035 110.134 85.8291 110.986 83.7329 111.064C81.8592 111.133 80.2997 110.663 79.0544 109.654C77.8204 108.633 77.1731 107.308 77.1127 105.68C77.0393 103.701 77.7319 102.139 79.1904 100.995C80.6603 99.8379 82.7595 99.2088 85.4881 99.1076L88.65 98.9902L88.5946 97.4971C88.5524 96.3612 88.1793 95.4721 87.4754 94.8298C86.7709 94.1757 85.7571 93.8733 84.4338 93.9224C83.2744 93.9654 82.3133 94.2942 81.5504 94.9089C80.7875 95.5235 80.4215 96.2466 80.4523 97.078L77.185 97.1993C77.1498 96.2507 77.4497 95.3249 78.0846 94.4218C78.7308 93.5066 79.6182 92.7701 80.7467 92.2122C81.887 91.6539 83.148 91.3492 84.5299 91.2979C86.7198 91.2166 88.4558 91.7034 89.738 92.7581C91.0197 93.8012 91.7197 95.2821 91.8378 97.2009L92.1623 105.949C92.2271 107.694 92.5011 109.073 92.9843 110.087L92.9947 110.368L89.5869 110.495ZM84.1023 108.218C85.1211 108.18 86.0774 107.881 86.9713 107.32C87.8652 106.759 88.5014 106.049 88.88 105.191L88.7353 101.291L86.1883 101.386C82.2066 101.534 80.259 102.773 80.3455 105.103C80.3833 106.122 80.7525 106.906 81.453 107.454C82.1535 108.003 83.0366 108.257 84.1023 108.218ZM100.952 110.073L97.7024 110.194L96.9972 91.1871L100.247 91.0665L100.952 110.073ZM96.5467 86.1554C96.5271 85.6284 96.6687 85.1776 96.9714 84.8028C97.2859 84.4276 97.7593 84.2283 98.3916 84.2048C99.024 84.1813 99.5109 84.345 99.8523 84.6959C100.194 85.0468 100.374 85.4857 100.394 86.0127C100.413 86.5397 100.266 86.9849 99.9507 87.3484C99.6358 87.7119 99.1622 87.9053 98.5298 87.9288C97.8974 87.9523 97.4108 87.7944 97.0698 87.4553C96.7406 87.1157 96.5662 86.6824 96.5467 86.1554ZM108.538 90.7589L108.732 93.144C110.116 91.2632 111.98 90.2794 114.322 90.1925C118.339 90.0434 120.449 92.2343 120.652 96.765L121.118 109.325L117.868 109.445L117.402 96.868C117.339 95.4983 116.985 94.4971 116.34 93.8643C115.707 93.2311 114.74 92.9386 113.44 92.9868C112.387 93.0259 111.472 93.3413 110.696 93.933C109.921 94.5247 109.328 95.2855 108.916 96.2154L109.419 109.759L106.169 109.879L105.464 90.8729L108.538 90.7589ZM136.898 103.691C136.866 102.813 136.507 102.146 135.822 101.69C135.148 101.223 133.978 100.844 132.314 100.554C130.662 100.263 129.34 99.8903 128.35 99.4345C127.371 98.9783 126.635 98.4193 126.142 97.7575C125.66 97.0952 125.401 96.2956 125.367 95.3588C125.309 93.8012 125.916 92.4595 127.187 91.3334C128.471 90.2069 130.137 89.6057 132.187 89.5296C134.341 89.4497 136.107 89.9412 137.483 91.0042C138.871 92.0667 139.597 93.4646 139.662 95.1978L136.394 95.319C136.361 94.429 135.952 93.676 135.167 93.0602C134.394 92.4439 133.433 92.1571 132.286 92.1997C131.103 92.2435 130.187 92.5355 129.539 93.0755C128.89 93.6156 128.582 94.3013 128.613 95.1328C128.642 95.9174 128.974 96.4973 129.609 96.8724C130.245 97.2475 131.377 97.5867 133.007 97.8897C134.648 98.1924 135.982 98.5768 137.007 99.043C138.033 99.5091 138.799 100.091 139.306 100.787C139.824 101.471 140.102 102.323 140.14 103.342C140.203 105.04 139.574 106.429 138.254 107.51C136.933 108.58 135.19 109.154 133.023 109.235C131.501 109.291 130.144 109.072 128.953 108.577C127.762 108.081 126.815 107.366 126.112 106.431C125.42 105.483 125.053 104.447 125.011 103.323L128.261 103.202C128.36 104.289 128.826 105.14 129.657 105.754C130.501 106.356 131.59 106.632 132.925 106.582C134.154 106.537 135.129 106.254 135.849 105.735C136.579 105.204 136.929 104.522 136.898 103.691ZM165.226 107.688C165.025 107.32 164.848 106.658 164.695 105.703C163.243 107.328 161.468 108.179 159.372 108.257C157.499 108.327 155.939 107.857 154.694 106.848C153.46 105.826 152.812 104.502 152.752 102.874C152.679 100.895 153.371 99.3329 154.83 98.1882C156.3 97.0313 158.399 96.4023 161.127 96.301L164.289 96.1837L164.234 94.6906C164.192 93.5547 163.819 92.6655 163.115 92.0232C162.41 91.3692 161.396 91.0668 160.073 91.1159C158.914 91.1589 157.953 91.4877 157.19 92.1024C156.427 92.717 156.061 93.4401 156.092 94.2715L152.824 94.3927C152.789 93.4442 153.089 92.5184 153.724 91.6153C154.37 90.7001 155.258 89.9635 156.386 89.4057C157.526 88.8474 158.787 88.5426 160.169 88.4913C162.359 88.4101 164.095 88.8968 165.377 89.9516C166.659 90.9946 167.359 92.4755 167.477 94.3944L167.802 103.142C167.866 104.887 168.14 106.267 168.624 107.281L168.634 107.562L165.226 107.688ZM159.742 105.411C160.76 105.374 161.717 105.074 162.611 104.513C163.505 103.953 164.141 103.243 164.519 102.385L164.375 98.4849L161.828 98.5794C157.846 98.7271 155.898 99.9662 155.985 102.297C156.023 103.315 156.392 104.099 157.092 104.648C157.793 105.196 158.676 105.451 159.742 105.411ZM175.43 88.2769L175.624 90.662C177.008 88.7813 178.871 87.7974 181.213 87.7105C185.23 87.5615 187.34 89.7523 187.543 94.2831L188.009 106.843L184.76 106.963L184.293 94.3861C184.231 93.0164 183.877 92.0151 183.232 91.3823C182.598 90.7491 181.632 90.4567 180.332 90.5049C179.278 90.544 178.363 90.8594 177.588 91.451C176.812 92.0427 176.219 92.8035 175.808 93.7334L176.31 107.277L173.061 107.397L172.356 88.391L175.43 88.2769ZM191.761 97.0289C191.653 94.113 192.257 91.7452 193.574 89.9256C194.889 88.0943 196.666 87.1372 198.902 87.0542C201.127 86.9716 202.918 87.6674 204.274 89.1416L203.907 79.2343L207.157 79.1138L208.158 106.095L205.171 106.206L204.938 104.174C203.697 105.815 201.917 106.679 199.598 106.765C197.397 106.846 195.566 106.011 194.105 104.26C192.657 102.507 191.878 100.179 191.771 97.2749L191.761 97.0289ZM195.025 97.2773C195.105 99.432 195.612 101.102 196.548 102.287C197.483 103.472 198.735 104.035 200.304 103.977C202.365 103.9 203.836 102.919 204.716 101.034L204.392 92.3035C203.353 90.5478 201.827 89.7073 199.813 89.7821C198.22 89.8412 197.002 90.502 196.157 91.7647C195.313 93.0273 194.935 94.8649 195.025 97.2773ZM228.248 100.935L232.414 86.1626L235.734 86.0394L229.623 105.299L227.147 105.391L219.555 86.6397L222.875 86.5165L228.248 100.935ZM247.22 104.998C244.644 105.093 242.516 104.328 240.838 102.701C239.158 101.063 238.266 98.8273 238.161 95.9933L238.139 95.3961C238.069 93.5107 238.364 91.8169 239.023 90.3149C239.694 88.8007 240.658 87.604 241.916 86.7247C243.184 85.8333 244.574 85.3596 246.085 85.3035C248.556 85.2118 250.506 85.9545 251.937 87.5314C253.368 89.1084 254.139 91.4134 254.252 94.4464L254.302 95.799L241.426 96.2768C241.542 98.1488 242.143 99.6451 243.228 100.766C244.325 101.874 245.681 102.399 247.297 102.339C248.445 102.296 249.408 102.026 250.187 101.528C250.966 101.03 251.64 100.383 252.208 99.5882L254.251 101.06C252.749 103.567 250.405 104.879 247.22 104.998ZM246.184 87.9736C244.872 88.0222 243.789 88.5432 242.935 89.5365C242.08 90.5181 241.579 91.8735 241.432 93.6028L250.953 93.2496L250.944 93.0036C250.789 91.3559 250.297 90.096 249.467 89.2238C248.637 88.3399 247.542 87.9232 246.184 87.9736ZM257.265 94.5985C257.155 91.6357 257.753 89.2564 259.058 87.4607C260.363 85.6532 262.146 84.7076 264.406 84.6237C266.725 84.5377 268.565 85.2903 269.925 86.8816L270.005 84.7678L272.974 84.6576L273.662 103.207C273.753 105.667 273.093 107.632 271.682 109.103C270.282 110.574 268.353 111.355 265.894 111.446C264.524 111.497 263.172 111.254 261.839 110.717C260.505 110.18 259.474 109.415 258.746 108.422L260.36 106.41C261.817 108.08 263.553 108.877 265.567 108.802C267.148 108.744 268.361 108.253 269.206 107.33C270.063 106.407 270.462 105.138 270.402 103.522L270.341 101.888C269.097 103.435 267.351 104.251 265.102 104.334C262.877 104.417 261.041 103.588 259.592 101.847C258.156 100.106 257.38 97.6901 257.265 94.5985ZM260.546 94.8461C260.626 96.9892 261.127 98.6592 262.051 99.8563C262.975 101.042 264.227 101.605 265.808 101.546C267.857 101.47 269.328 100.483 270.219 98.5858L269.897 89.9081C268.834 88.1299 267.307 87.2777 265.316 87.3516C263.736 87.4103 262.523 88.0709 261.678 89.3336C260.834 90.5962 260.457 92.4337 260.546 94.8461ZM286.498 103.54C283.921 103.636 281.794 102.87 280.115 101.244C278.436 99.606 277.544 97.37 277.439 94.536L277.417 93.9387C277.347 92.0533 277.642 90.3596 278.301 88.8575C278.972 87.3433 279.936 86.1466 281.193 85.2673C282.462 84.3759 283.852 83.9022 285.362 83.8462C287.833 83.7545 289.784 84.4971 291.215 86.0741C292.645 87.651 293.417 89.956 293.529 92.9891L293.579 94.3417L280.704 94.8194C280.82 96.6914 281.421 98.1877 282.506 99.3084C283.603 100.417 284.959 100.941 286.575 100.881C287.723 100.839 288.686 100.568 289.465 100.07C290.244 99.5725 290.918 98.9259 291.486 98.1309L293.528 99.603C292.027 102.11 289.683 103.422 286.498 103.54ZM285.461 86.5162C284.15 86.5649 283.067 87.0858 282.212 88.0791C281.358 89.0607 280.857 90.4162 280.71 92.1455L290.231 91.7922L290.222 91.5463C290.067 89.8986 289.574 88.6386 288.744 87.7664C287.914 86.8825 286.82 86.4658 285.461 86.5162ZM301.207 79.0014L301.378 83.6037L304.926 83.4721L305.02 85.984L301.471 86.1157L301.909 97.9025C301.937 98.6637 302.116 99.2316 302.447 99.6063C302.777 99.9694 303.323 100.137 304.084 100.108C304.458 100.095 304.971 100.005 305.622 99.8403L305.719 102.475C304.873 102.741 304.046 102.889 303.238 102.919C301.786 102.973 300.675 102.574 299.904 101.724C299.134 100.873 298.719 99.6391 298.659 98.023L298.222 86.2362L294.761 86.3646L294.668 83.8527L298.128 83.7243L297.958 79.122L301.207 79.0014ZM321.178 101.902C320.976 101.534 320.799 100.872 320.647 99.9161C319.194 101.541 317.42 102.393 315.324 102.471C313.45 102.54 311.89 102.07 310.645 101.061C309.411 100.04 308.764 98.7153 308.703 97.0875C308.63 95.1084 309.323 93.5465 310.781 92.4017C312.251 91.2449 314.35 90.6158 317.079 90.5146L320.241 90.3973L320.185 88.9042C320.143 87.7682 319.77 86.8791 319.066 86.2368C318.362 85.5828 317.348 85.2803 316.024 85.3294C314.865 85.3724 313.904 85.7013 313.141 86.3159C312.378 86.9306 312.012 87.6536 312.043 88.4851L308.776 88.6063C308.74 87.6577 309.04 86.7319 309.675 85.8288C310.321 84.9136 311.209 84.1771 312.337 83.6192C313.478 83.061 314.739 82.7562 316.121 82.7049C318.31 82.6236 320.046 83.1104 321.329 84.1651C322.61 85.2082 323.31 86.6891 323.428 88.6079L323.753 97.3558C323.818 99.1007 324.092 100.48 324.575 101.494L324.585 101.775L321.178 101.902ZM315.693 99.625C316.712 99.5872 317.668 99.2878 318.562 98.727C319.456 98.1661 320.092 97.4565 320.471 96.5981L320.326 92.6984L317.779 92.7929C313.797 92.9407 311.85 94.1797 311.936 96.5102C311.974 97.529 312.343 98.3127 313.044 98.8613C313.744 99.41 314.627 99.6645 315.693 99.625ZM344.758 91.7215C344.865 94.6258 344.285 96.9868 343.015 98.8047C341.745 100.611 339.986 101.556 337.738 101.639C335.337 101.728 333.449 100.948 332.075 99.2986L331.998 101.5L329.012 101.611L328.011 74.6296L331.261 74.509L331.634 84.5743C332.885 82.8979 334.664 82.0168 336.971 81.9312C339.278 81.8456 341.12 82.651 342.496 84.3472C343.884 86.043 344.635 88.4074 344.747 91.4405L344.758 91.7215ZM341.494 91.4732C341.412 89.2599 340.921 87.566 340.022 86.3915C339.122 85.217 337.87 84.6596 336.266 84.7191C334.123 84.7986 332.62 85.8512 331.757 87.8767L332.062 96.0976C333.131 98.0515 334.72 98.9894 336.827 98.9112C338.385 98.8534 339.575 98.2053 340.396 96.9669C341.218 95.7286 341.584 93.8973 341.494 91.4732ZM352.744 100.73L349.494 100.851L348.493 73.8696L351.743 73.749L352.744 100.73ZM365.861 100.596C363.285 100.691 361.157 99.9258 359.479 98.2994C357.799 96.6613 356.907 94.4253 356.802 91.5913L356.78 90.994C356.71 89.1086 357.005 87.4149 357.665 85.9128C358.335 84.3986 359.299 83.2019 360.557 82.3226C361.825 81.4312 363.215 80.9575 364.726 80.9014C367.197 80.8098 369.147 81.5524 370.578 83.1293C372.009 84.7063 372.78 87.0113 372.893 90.0444L372.943 91.397L360.067 91.8747C360.183 93.7467 360.784 95.243 361.869 96.3637C362.966 97.4722 364.322 97.9965 365.938 97.9366C367.086 97.894 368.049 97.6237 368.828 97.1257C369.607 96.6278 370.281 95.9812 370.849 95.1862L372.892 96.6583C371.39 99.165 369.046 100.477 365.861 100.596ZM364.825 83.5715C363.513 83.6202 362.43 84.1411 361.576 85.1344C360.721 86.116 360.22 87.4715 360.073 89.2008L369.594 88.8475L369.585 88.6016C369.43 86.9538 368.938 85.6939 368.108 84.8217C367.278 83.9378 366.183 83.5211 364.825 83.5715ZM387.917 94.377C387.885 93.4987 387.526 92.8318 386.84 92.3765C386.166 91.909 384.997 91.5302 383.333 91.2401C381.68 90.9496 380.359 90.5765 379.369 90.1207C378.39 89.6645 377.654 89.1055 377.16 88.4436C376.678 87.7813 376.42 86.9818 376.385 86.0449C376.328 84.4874 376.935 83.1456 378.206 82.0196C379.489 80.8931 381.156 80.2918 383.205 80.2158C385.36 80.1358 387.126 80.6273 388.502 81.6903C389.89 82.7529 390.616 84.1507 390.68 85.8839L387.413 86.0051C387.38 85.1151 386.971 84.3622 386.186 83.7464C385.412 83.1301 384.452 82.8432 383.304 82.8858C382.121 82.9297 381.206 83.2217 380.558 83.7617C379.909 84.3017 379.6 84.9875 379.631 85.819C379.66 86.6036 379.993 87.1834 380.628 87.5586C381.263 87.9337 382.396 88.2728 384.026 88.5759C385.667 88.8785 387 89.2629 388.026 89.7291C389.052 90.1953 389.818 90.7767 390.325 91.4732C390.843 92.1576 391.121 93.0092 391.158 94.028C391.221 95.7261 390.593 97.1156 389.273 98.1965C387.952 99.2658 386.208 99.8406 384.042 99.921C382.519 99.9775 381.163 99.7581 379.972 99.2628C378.781 98.7676 377.834 98.0522 377.13 97.1167C376.439 96.1691 376.072 95.1331 376.03 94.0089L379.28 93.8883C379.379 94.9752 379.844 95.8257 380.676 96.4399C381.519 97.0418 382.608 97.318 383.943 97.2685C385.173 97.2229 386.148 96.9404 386.867 96.4212C387.598 95.8899 387.948 95.2084 387.917 94.377ZM395.594 97.4343C395.573 96.8722 395.72 96.3976 396.034 96.0107C396.36 95.6234 396.856 95.4173 397.524 95.3926C398.191 95.3678 398.702 95.5365 399.055 95.8986C399.421 96.2603 399.614 96.7222 399.635 97.2844C399.655 97.823 399.496 98.2804 399.158 98.6565C398.832 99.0321 398.335 99.2323 397.667 99.2571C397 99.2819 396.489 99.119 396.136 98.7686C395.795 98.4177 395.614 97.973 395.594 97.4343Z" fill="black"/>
</svg>
