<svg width="628" height="110" viewBox="0 0 628 110" fill="none" xmlns="http://www.w3.org/2000/svg">
<rect width="628" height="110" rx="40" fill="#A9CDF6"/>
<path d="M15.9707 46V20.4062H24.3379C27.1152 20.4062 29.2012 20.9805 30.5957 22.1289C32.002 23.2773 32.7051 24.9766 32.7051 27.2266C32.7051 28.4219 32.3652 29.4824 31.6855 30.4082C31.0059 31.3223 30.0801 32.0312 28.9082 32.5352C30.291 32.9219 31.3809 33.6602 32.1777 34.75C32.9863 35.8281 33.3906 37.1172 33.3906 38.6172C33.3906 40.9141 32.6465 42.7188 31.1582 44.0312C29.6699 45.3438 27.5664 46 24.8477 46H15.9707ZM19.3457 34.0293V43.2402H24.918C26.4883 43.2402 27.7246 42.8359 28.627 42.0273C29.541 41.207 29.998 40.082 29.998 38.6523C29.998 35.5703 28.3223 34.0293 24.9707 34.0293H19.3457ZM19.3457 31.3223H24.4434C25.9199 31.3223 27.0977 30.9531 27.9766 30.2148C28.8672 29.4766 29.3125 28.4746 29.3125 27.209C29.3125 25.8027 28.9023 24.7832 28.082 24.1504C27.2617 23.5059 26.0137 23.1836 24.3379 23.1836H19.3457V31.3223ZM41.4238 46H38.1719V26.9805H41.4238V46ZM37.9082 21.9355C37.9082 21.4082 38.0664 20.9629 38.3828 20.5996C38.7109 20.2363 39.1914 20.0547 39.8242 20.0547C40.457 20.0547 40.9375 20.2363 41.2656 20.5996C41.5938 20.9629 41.7578 21.4082 41.7578 21.9355C41.7578 22.4629 41.5938 22.9023 41.2656 23.2539C40.9375 23.6055 40.457 23.7812 39.8242 23.7812C39.1914 23.7812 38.7109 23.6055 38.3828 23.2539C38.0664 22.9023 37.9082 22.4629 37.9082 21.9355ZM45.8711 36.332C45.8711 33.3672 46.5566 31.0117 47.9277 29.2656C49.2988 27.5078 51.1152 26.6289 53.377 26.6289C55.6973 26.6289 57.5078 27.4492 58.8086 29.0898L58.9668 26.9805H61.9375V45.543C61.9375 48.0039 61.2051 49.9434 59.7402 51.3613C58.2871 52.7793 56.3301 53.4883 53.8691 53.4883C52.498 53.4883 51.1562 53.1953 49.8438 52.6094C48.5312 52.0234 47.5293 51.2207 46.8379 50.2012L48.5254 48.25C49.9199 49.9727 51.625 50.834 53.6406 50.834C55.2227 50.834 56.4531 50.3887 57.332 49.498C58.2227 48.6074 58.668 47.3535 58.668 45.7363V44.1016C57.3672 45.6016 55.5918 46.3516 53.3418 46.3516C51.1152 46.3516 49.3105 45.4551 47.9277 43.6621C46.5566 41.8691 45.8711 39.4258 45.8711 36.332ZM49.1406 36.7012C49.1406 38.8457 49.5801 40.5332 50.459 41.7637C51.3379 42.9824 52.5684 43.5918 54.1504 43.5918C56.2012 43.5918 57.707 42.6602 58.668 40.7969V32.1133C57.6719 30.2969 56.1777 29.3887 54.1855 29.3887C52.6035 29.3887 51.3672 30.0039 50.4766 31.2344C49.5859 32.4648 49.1406 34.2871 49.1406 36.7012ZM79.041 29.2832C80.4824 27.5137 82.3574 26.6289 84.666 26.6289C88.6855 26.6289 90.7129 28.8965 90.748 33.4316V46H87.4961V33.4141C87.4844 32.043 87.168 31.0293 86.5469 30.373C85.9375 29.7168 84.9824 29.3887 83.6816 29.3887C82.627 29.3887 81.7012 29.6699 80.9043 30.2324C80.1074 30.7949 79.4863 31.5332 79.041 32.4473V46H75.7891V19H79.041V29.2832ZM107.359 46C107.172 45.625 107.02 44.957 106.902 43.9961C105.391 45.5664 103.586 46.3516 101.488 46.3516C99.6133 46.3516 98.0723 45.8242 96.8652 44.7695C95.6699 43.7031 95.0723 42.3555 95.0723 40.7266C95.0723 38.7461 95.8223 37.2109 97.3223 36.1211C98.834 35.0195 100.955 34.4688 103.686 34.4688H106.85V32.9746C106.85 31.8379 106.51 30.9355 105.83 30.2676C105.15 29.5879 104.148 29.248 102.824 29.248C101.664 29.248 100.691 29.541 99.9062 30.127C99.1211 30.7129 98.7285 31.4219 98.7285 32.2539H95.459C95.459 31.3047 95.793 30.3906 96.4609 29.5117C97.1406 28.6211 98.0547 27.918 99.2031 27.4023C100.363 26.8867 101.635 26.6289 103.018 26.6289C105.209 26.6289 106.926 27.1797 108.168 28.2812C109.41 29.3711 110.055 30.877 110.102 32.7988V41.5527C110.102 43.2988 110.324 44.6875 110.77 45.7188V46H107.359ZM101.963 43.5215C102.982 43.5215 103.949 43.2578 104.863 42.7305C105.777 42.2031 106.439 41.5176 106.85 40.6738V36.7715H104.301C100.316 36.7715 98.3242 37.9375 98.3242 40.2695C98.3242 41.2891 98.6641 42.0859 99.3438 42.6602C100.023 43.2344 100.896 43.5215 101.963 43.5215ZM131.266 36.7012C131.266 39.5957 130.604 41.9277 129.279 43.6973C127.955 45.4668 126.162 46.3516 123.9 46.3516C121.592 46.3516 119.775 45.6191 118.451 44.1543V53.3125H115.199V26.9805H118.17L118.328 29.0898C119.652 27.4492 121.492 26.6289 123.848 26.6289C126.133 26.6289 127.938 27.4902 129.262 29.2129C130.598 30.9355 131.266 33.332 131.266 36.4023V36.7012ZM128.014 36.332C128.014 34.1875 127.557 32.4941 126.643 31.252C125.729 30.0098 124.475 29.3887 122.881 29.3887C120.912 29.3887 119.436 30.2617 118.451 32.0078V41.0957C119.424 42.8301 120.912 43.6973 122.916 43.6973C124.475 43.6973 125.711 43.082 126.625 41.8516C127.551 40.6094 128.014 38.7695 128.014 36.332ZM151.48 36.7012C151.48 39.5957 150.818 41.9277 149.494 43.6973C148.17 45.4668 146.377 46.3516 144.115 46.3516C141.807 46.3516 139.99 45.6191 138.666 44.1543V53.3125H135.414V26.9805H138.385L138.543 29.0898C139.867 27.4492 141.707 26.6289 144.062 26.6289C146.348 26.6289 148.152 27.4902 149.477 29.2129C150.812 30.9355 151.48 33.332 151.48 36.4023V36.7012ZM148.229 36.332C148.229 34.1875 147.771 32.4941 146.857 31.252C145.943 30.0098 144.689 29.3887 143.096 29.3887C141.127 29.3887 139.65 30.2617 138.666 32.0078V41.0957C139.639 42.8301 141.127 43.6973 143.131 43.6973C144.689 43.6973 145.926 43.082 146.84 41.8516C147.766 40.6094 148.229 38.7695 148.229 36.332ZM161.641 41.2363L166.07 26.9805H169.551L161.904 48.9355C160.721 52.0996 158.84 53.6816 156.262 53.6816L155.646 53.6289L154.434 53.4004V50.7637L155.312 50.834C156.414 50.834 157.27 50.6113 157.879 50.166C158.5 49.7207 159.01 48.9062 159.408 47.7227L160.129 45.7891L153.344 26.9805H156.895L161.641 41.2363ZM183.807 21.3906L183.279 27.6836H181.328L181.346 19H183.807V21.3906ZM188.553 21.3906L188.025 27.6836H186.074L186.092 19H188.553V21.3906ZM196.182 29.2832C197.623 27.5137 199.498 26.6289 201.807 26.6289C205.826 26.6289 207.854 28.8965 207.889 33.4316V46H204.637V33.4141C204.625 32.043 204.309 31.0293 203.688 30.373C203.078 29.7168 202.123 29.3887 200.822 29.3887C199.768 29.3887 198.842 29.6699 198.045 30.2324C197.248 30.7949 196.627 31.5332 196.182 32.4473V46H192.93V19H196.182V29.2832ZM220.65 46.3516C218.072 46.3516 215.975 45.5078 214.357 43.8203C212.74 42.1211 211.932 39.8535 211.932 37.0176V36.4199C211.932 34.5332 212.289 32.8516 213.004 31.375C213.73 29.8867 214.738 28.7266 216.027 27.8945C217.328 27.0508 218.734 26.6289 220.246 26.6289C222.719 26.6289 224.641 27.4434 226.012 29.0723C227.383 30.7012 228.068 33.0332 228.068 36.0684V37.4219H215.184C215.23 39.2969 215.775 40.8145 216.818 41.9746C217.873 43.123 219.209 43.6973 220.826 43.6973C221.975 43.6973 222.947 43.4629 223.744 42.9941C224.541 42.5254 225.238 41.9043 225.836 41.1309L227.822 42.6777C226.229 45.127 223.838 46.3516 220.65 46.3516ZM220.246 29.3008C218.934 29.3008 217.832 29.7812 216.941 30.7422C216.051 31.6914 215.5 33.0273 215.289 34.75H224.816V34.5039C224.723 32.8516 224.277 31.5742 223.48 30.6719C222.684 29.7578 221.605 29.3008 220.246 29.3008ZM235.381 46H232.129V19H235.381V46ZM244.135 46H240.883V26.9805H244.135V46ZM240.619 21.9355C240.619 21.4082 240.777 20.9629 241.094 20.5996C241.422 20.2363 241.902 20.0547 242.535 20.0547C243.168 20.0547 243.648 20.2363 243.977 20.5996C244.305 20.9629 244.469 21.4082 244.469 21.9355C244.469 22.4629 244.305 22.9023 243.977 23.2539C243.648 23.6055 243.168 23.7812 242.535 23.7812C241.902 23.7812 241.422 23.6055 241.094 23.2539C240.777 22.9023 240.619 22.4629 240.619 21.9355ZM256.984 43.6973C258.145 43.6973 259.158 43.3457 260.025 42.6426C260.893 41.9395 261.373 41.0605 261.467 40.0059H264.543C264.484 41.0957 264.109 42.1328 263.418 43.1172C262.727 44.1016 261.801 44.8867 260.641 45.4727C259.492 46.0586 258.273 46.3516 256.984 46.3516C254.395 46.3516 252.332 45.4902 250.797 43.7676C249.273 42.0332 248.512 39.666 248.512 36.666V36.1211C248.512 34.2695 248.852 32.623 249.531 31.1816C250.211 29.7402 251.184 28.6211 252.449 27.8242C253.727 27.0273 255.232 26.6289 256.967 26.6289C259.1 26.6289 260.869 27.2676 262.275 28.5449C263.693 29.8223 264.449 31.4805 264.543 33.5195H261.467C261.373 32.2891 260.904 31.2812 260.061 30.4961C259.229 29.6992 258.197 29.3008 256.967 29.3008C255.314 29.3008 254.031 29.8984 253.117 31.0938C252.215 32.2773 251.764 33.9941 251.764 36.2441V36.8594C251.764 39.0508 252.215 40.7383 253.117 41.9219C254.02 43.1055 255.309 43.6973 256.984 43.6973ZM267.338 36.3145C267.338 34.4512 267.701 32.7754 268.428 31.2871C269.166 29.7988 270.186 28.6504 271.486 27.8418C272.799 27.0332 274.293 26.6289 275.969 26.6289C278.559 26.6289 280.65 27.5254 282.244 29.3184C283.85 31.1113 284.652 33.4961 284.652 36.4727V36.7012C284.652 38.5527 284.295 40.2168 283.58 41.6934C282.877 43.1582 281.863 44.3008 280.539 45.1211C279.227 45.9414 277.715 46.3516 276.004 46.3516C273.426 46.3516 271.334 45.4551 269.729 43.6621C268.135 41.8691 267.338 39.4961 267.338 36.543V36.3145ZM270.607 36.7012C270.607 38.8105 271.094 40.5039 272.066 41.7812C273.051 43.0586 274.363 43.6973 276.004 43.6973C277.656 43.6973 278.969 43.0527 279.941 41.7637C280.914 40.4629 281.4 38.6465 281.4 36.3145C281.4 34.2285 280.902 32.541 279.906 31.252C278.922 29.9512 277.609 29.3008 275.969 29.3008C274.363 29.3008 273.068 29.9395 272.084 31.2168C271.1 32.4941 270.607 34.3223 270.607 36.7012ZM304.797 36.7012C304.797 39.5957 304.135 41.9277 302.811 43.6973C301.486 45.4668 299.693 46.3516 297.432 46.3516C295.123 46.3516 293.307 45.6191 291.982 44.1543V53.3125H288.73V26.9805H291.701L291.859 29.0898C293.184 27.4492 295.023 26.6289 297.379 26.6289C299.664 26.6289 301.469 27.4902 302.793 29.2129C304.129 30.9355 304.797 33.332 304.797 36.4023V36.7012ZM301.545 36.332C301.545 34.1875 301.088 32.4941 300.174 31.252C299.26 30.0098 298.006 29.3887 296.412 29.3887C294.443 29.3887 292.967 30.2617 291.982 32.0078V41.0957C292.955 42.8301 294.443 43.6973 296.447 43.6973C298.006 43.6973 299.242 43.082 300.156 41.8516C301.082 40.6094 301.545 38.7695 301.545 36.332ZM313.357 22.375V26.9805H316.908V29.4941H313.357V41.2891C313.357 42.0508 313.516 42.625 313.832 43.0117C314.148 43.3867 314.688 43.5742 315.449 43.5742C315.824 43.5742 316.34 43.5039 316.996 43.3633V46C316.141 46.2344 315.309 46.3516 314.5 46.3516C313.047 46.3516 311.951 45.9121 311.213 45.0332C310.475 44.1543 310.105 42.9062 310.105 41.2891V29.4941H306.643V26.9805H310.105V22.375H313.357ZM328.615 46.3516C326.037 46.3516 323.939 45.5078 322.322 43.8203C320.705 42.1211 319.896 39.8535 319.896 37.0176V36.4199C319.896 34.5332 320.254 32.8516 320.969 31.375C321.695 29.8867 322.703 28.7266 323.992 27.8945C325.293 27.0508 326.699 26.6289 328.211 26.6289C330.684 26.6289 332.605 27.4434 333.977 29.0723C335.348 30.7012 336.033 33.0332 336.033 36.0684V37.4219H323.148C323.195 39.2969 323.74 40.8145 324.783 41.9746C325.838 43.123 327.174 43.6973 328.791 43.6973C329.939 43.6973 330.912 43.4629 331.709 42.9941C332.506 42.5254 333.203 41.9043 333.801 41.1309L335.787 42.6777C334.193 45.127 331.803 46.3516 328.615 46.3516ZM328.211 29.3008C326.898 29.3008 325.797 29.7812 324.906 30.7422C324.016 31.6914 323.465 33.0273 323.254 34.75H332.781V34.5039C332.688 32.8516 332.242 31.5742 331.445 30.6719C330.648 29.7578 329.57 29.3008 328.211 29.3008ZM349.006 29.8984C348.514 29.8164 347.98 29.7754 347.406 29.7754C345.273 29.7754 343.826 30.6836 343.064 32.5V46H339.812V26.9805H342.977L343.029 29.1777C344.096 27.4785 345.607 26.6289 347.564 26.6289C348.197 26.6289 348.678 26.7109 349.006 26.875V29.8984ZM354.701 21.3906L354.174 27.6836H352.223L352.24 19H354.701V21.3906ZM359.447 21.3906L358.92 27.6836H356.969L356.986 19H359.447V21.3906ZM377.166 22.375V26.9805H380.717V29.4941H377.166V41.2891C377.166 42.0508 377.324 42.625 377.641 43.0117C377.957 43.3867 378.496 43.5742 379.258 43.5742C379.633 43.5742 380.148 43.5039 380.805 43.3633V46C379.949 46.2344 379.117 46.3516 378.309 46.3516C376.855 46.3516 375.76 45.9121 375.021 45.0332C374.283 44.1543 373.914 42.9062 373.914 41.2891V29.4941H370.451V26.9805H373.914V22.375H377.166ZM396.273 46C396.086 45.625 395.934 44.957 395.816 43.9961C394.305 45.5664 392.5 46.3516 390.402 46.3516C388.527 46.3516 386.986 45.8242 385.779 44.7695C384.584 43.7031 383.986 42.3555 383.986 40.7266C383.986 38.7461 384.736 37.2109 386.236 36.1211C387.748 35.0195 389.869 34.4688 392.6 34.4688H395.764V32.9746C395.764 31.8379 395.424 30.9355 394.744 30.2676C394.064 29.5879 393.062 29.248 391.738 29.248C390.578 29.248 389.605 29.541 388.82 30.127C388.035 30.7129 387.643 31.4219 387.643 32.2539H384.373C384.373 31.3047 384.707 30.3906 385.375 29.5117C386.055 28.6211 386.969 27.918 388.117 27.4023C389.277 26.8867 390.549 26.6289 391.932 26.6289C394.123 26.6289 395.84 27.1797 397.082 28.2812C398.324 29.3711 398.969 30.877 399.016 32.7988V41.5527C399.016 43.2988 399.238 44.6875 399.684 45.7188V46H396.273ZM390.877 43.5215C391.896 43.5215 392.863 43.2578 393.777 42.7305C394.691 42.2031 395.354 41.5176 395.764 40.6738V36.7715H393.215C389.23 36.7715 387.238 37.9375 387.238 40.2695C387.238 41.2891 387.578 42.0859 388.258 42.6602C388.938 43.2344 389.811 43.5215 390.877 43.5215ZM407.646 46H404.395V26.9805H407.646V46ZM404.131 21.9355C404.131 21.4082 404.289 20.9629 404.605 20.5996C404.934 20.2363 405.414 20.0547 406.047 20.0547C406.68 20.0547 407.16 20.2363 407.488 20.5996C407.816 20.9629 407.98 21.4082 407.98 21.9355C407.98 22.4629 407.816 22.9023 407.488 23.2539C407.16 23.6055 406.68 23.7812 406.047 23.7812C405.414 23.7812 404.934 23.6055 404.605 23.2539C404.289 22.9023 404.131 22.4629 404.131 21.9355ZM416.4 46H413.148V19H416.4V46ZM447.391 41.5176L451.047 26.9805H454.299L448.762 46H446.125L441.502 31.5859L437.002 46H434.365L428.846 26.9805H432.08L435.824 41.2188L440.254 26.9805H442.873L447.391 41.5176ZM469.363 46C469.176 45.625 469.023 44.957 468.906 43.9961C467.395 45.5664 465.59 46.3516 463.492 46.3516C461.617 46.3516 460.076 45.8242 458.869 44.7695C457.674 43.7031 457.076 42.3555 457.076 40.7266C457.076 38.7461 457.826 37.2109 459.326 36.1211C460.838 35.0195 462.959 34.4688 465.689 34.4688H468.854V32.9746C468.854 31.8379 468.514 30.9355 467.834 30.2676C467.154 29.5879 466.152 29.248 464.828 29.248C463.668 29.248 462.695 29.541 461.91 30.127C461.125 30.7129 460.732 31.4219 460.732 32.2539H457.463C457.463 31.3047 457.797 30.3906 458.465 29.5117C459.145 28.6211 460.059 27.918 461.207 27.4023C462.367 26.8867 463.639 26.6289 465.021 26.6289C467.213 26.6289 468.93 27.1797 470.172 28.2812C471.414 29.3711 472.059 30.877 472.105 32.7988V41.5527C472.105 43.2988 472.328 44.6875 472.773 45.7188V46H469.363ZM463.967 43.5215C464.986 43.5215 465.953 43.2578 466.867 42.7305C467.781 42.2031 468.443 41.5176 468.854 40.6738V36.7715H466.305C462.32 36.7715 460.328 37.9375 460.328 40.2695C460.328 41.2891 460.668 42.0859 461.348 42.6602C462.027 43.2344 462.9 43.5215 463.967 43.5215ZM476.43 36.332C476.43 33.3672 477.115 31.0117 478.486 29.2656C479.857 27.5078 481.674 26.6289 483.936 26.6289C486.256 26.6289 488.066 27.4492 489.367 29.0898L489.525 26.9805H492.496V45.543C492.496 48.0039 491.764 49.9434 490.299 51.3613C488.846 52.7793 486.889 53.4883 484.428 53.4883C483.057 53.4883 481.715 53.1953 480.402 52.6094C479.09 52.0234 478.088 51.2207 477.396 50.2012L479.084 48.25C480.479 49.9727 482.184 50.834 484.199 50.834C485.781 50.834 487.012 50.3887 487.891 49.498C488.781 48.6074 489.227 47.3535 489.227 45.7363V44.1016C487.926 45.6016 486.15 46.3516 483.9 46.3516C481.674 46.3516 479.869 45.4551 478.486 43.6621C477.115 41.8691 476.43 39.4258 476.43 36.332ZM479.699 36.7012C479.699 38.8457 480.139 40.5332 481.018 41.7637C481.896 42.9824 483.127 43.5918 484.709 43.5918C486.76 43.5918 488.266 42.6602 489.227 40.7969V32.1133C488.23 30.2969 486.736 29.3887 484.744 29.3887C483.162 29.3887 481.926 30.0039 481.035 31.2344C480.145 32.4648 479.699 34.2871 479.699 36.7012ZM496.645 36.332C496.645 33.3672 497.33 31.0117 498.701 29.2656C500.072 27.5078 501.889 26.6289 504.15 26.6289C506.471 26.6289 508.281 27.4492 509.582 29.0898L509.74 26.9805H512.711V45.543C512.711 48.0039 511.979 49.9434 510.514 51.3613C509.061 52.7793 507.104 53.4883 504.643 53.4883C503.271 53.4883 501.93 53.1953 500.617 52.6094C499.305 52.0234 498.303 51.2207 497.611 50.2012L499.299 48.25C500.693 49.9727 502.398 50.834 504.414 50.834C505.996 50.834 507.227 50.3887 508.105 49.498C508.996 48.6074 509.441 47.3535 509.441 45.7363V44.1016C508.141 45.6016 506.365 46.3516 504.115 46.3516C501.889 46.3516 500.084 45.4551 498.701 43.6621C497.33 41.8691 496.645 39.4258 496.645 36.332ZM499.914 36.7012C499.914 38.8457 500.354 40.5332 501.232 41.7637C502.111 42.9824 503.342 43.5918 504.924 43.5918C506.975 43.5918 508.48 42.6602 509.441 40.7969V32.1133C508.445 30.2969 506.951 29.3887 504.959 29.3887C503.377 29.3887 502.141 30.0039 501.25 31.2344C500.359 32.4648 499.914 34.2871 499.914 36.7012ZM521.166 46H517.914V26.9805H521.166V46ZM517.65 21.9355C517.65 21.4082 517.809 20.9629 518.125 20.5996C518.453 20.2363 518.934 20.0547 519.566 20.0547C520.199 20.0547 520.68 20.2363 521.008 20.5996C521.336 20.9629 521.5 21.4082 521.5 21.9355C521.5 22.4629 521.336 22.9023 521.008 23.2539C520.68 23.6055 520.199 23.7812 519.566 23.7812C518.934 23.7812 518.453 23.6055 518.125 23.2539C517.809 22.9023 517.65 22.4629 517.65 21.9355ZM529.463 26.9805L529.568 29.3711C531.021 27.543 532.92 26.6289 535.264 26.6289C539.283 26.6289 541.311 28.8965 541.346 33.4316V46H538.094V33.4141C538.082 32.043 537.766 31.0293 537.145 30.373C536.535 29.7168 535.58 29.3887 534.279 29.3887C533.225 29.3887 532.299 29.6699 531.502 30.2324C530.705 30.7949 530.084 31.5332 529.639 32.4473V46H526.387V26.9805H529.463ZM545.477 36.332C545.477 33.3672 546.162 31.0117 547.533 29.2656C548.904 27.5078 550.721 26.6289 552.982 26.6289C555.303 26.6289 557.113 27.4492 558.414 29.0898L558.572 26.9805H561.543V45.543C561.543 48.0039 560.811 49.9434 559.346 51.3613C557.893 52.7793 555.936 53.4883 553.475 53.4883C552.104 53.4883 550.762 53.1953 549.449 52.6094C548.137 52.0234 547.135 51.2207 546.443 50.2012L548.131 48.25C549.525 49.9727 551.23 50.834 553.246 50.834C554.828 50.834 556.059 50.3887 556.938 49.498C557.828 48.6074 558.273 47.3535 558.273 45.7363V44.1016C556.973 45.6016 555.197 46.3516 552.947 46.3516C550.721 46.3516 548.916 45.4551 547.533 43.6621C546.162 41.8691 545.477 39.4258 545.477 36.332ZM548.746 36.7012C548.746 38.8457 549.186 40.5332 550.064 41.7637C550.943 42.9824 552.174 43.5918 553.756 43.5918C555.807 43.5918 557.312 42.6602 558.273 40.7969V32.1133C557.277 30.2969 555.783 29.3887 553.791 29.3887C552.209 29.3887 550.973 30.0039 550.082 31.2344C549.191 32.4648 548.746 34.2871 548.746 36.7012ZM578.928 46H575.676V26.9805H578.928V46ZM575.412 21.9355C575.412 21.4082 575.57 20.9629 575.887 20.5996C576.215 20.2363 576.695 20.0547 577.328 20.0547C577.961 20.0547 578.441 20.2363 578.77 20.5996C579.098 20.9629 579.262 21.4082 579.262 21.9355C579.262 22.4629 579.098 22.9023 578.77 23.2539C578.441 23.6055 577.961 23.7812 577.328 23.7812C576.695 23.7812 576.215 23.6055 575.887 23.2539C575.57 22.9023 575.412 22.4629 575.412 21.9355ZM595.223 40.9551C595.223 40.0762 594.889 39.3965 594.221 38.916C593.564 38.4238 592.41 38.002 590.758 37.6504C589.117 37.2988 587.811 36.877 586.838 36.3848C585.877 35.8926 585.162 35.3066 584.693 34.627C584.236 33.9473 584.008 33.1387 584.008 32.2012C584.008 30.6426 584.664 29.3242 585.977 28.2461C587.301 27.168 588.988 26.6289 591.039 26.6289C593.195 26.6289 594.941 27.1855 596.277 28.2988C597.625 29.4121 598.299 30.8359 598.299 32.5703H595.029C595.029 31.6797 594.648 30.9121 593.887 30.2676C593.137 29.623 592.188 29.3008 591.039 29.3008C589.855 29.3008 588.93 29.5586 588.262 30.0742C587.594 30.5898 587.26 31.2637 587.26 32.0957C587.26 32.8809 587.57 33.4727 588.191 33.8711C588.812 34.2695 589.932 34.6504 591.549 35.0137C593.178 35.377 594.496 35.8105 595.504 36.3145C596.512 36.8184 597.256 37.4277 597.736 38.1426C598.229 38.8457 598.475 39.707 598.475 40.7266C598.475 42.4258 597.795 43.791 596.436 44.8223C595.076 45.8418 593.312 46.3516 591.145 46.3516C589.621 46.3516 588.273 46.082 587.102 45.543C585.93 45.0039 585.01 44.2539 584.342 43.293C583.686 42.3203 583.357 41.2715 583.357 40.1465H586.609C586.668 41.2363 587.102 42.1035 587.91 42.748C588.73 43.3809 589.809 43.6973 591.145 43.6973C592.375 43.6973 593.359 43.4512 594.098 42.959C594.848 42.4551 595.223 41.7871 595.223 40.9551ZM14.5996 78.3145C14.5996 76.4512 14.9629 74.7754 15.6895 73.2871C16.4277 71.7988 17.4473 70.6504 18.748 69.8418C20.0605 69.0332 21.5547 68.6289 23.2305 68.6289C25.8203 68.6289 27.9121 69.5254 29.5059 71.3184C31.1113 73.1113 31.9141 75.4961 31.9141 78.4727V78.7012C31.9141 80.5527 31.5566 82.2168 30.8418 83.6934C30.1387 85.1582 29.125 86.3008 27.8008 87.1211C26.4883 87.9414 24.9766 88.3516 23.2656 88.3516C20.6875 88.3516 18.5957 87.4551 16.9902 85.6621C15.3965 83.8691 14.5996 81.4961 14.5996 78.543V78.3145ZM17.8691 78.7012C17.8691 80.8105 18.3555 82.5039 19.3281 83.7812C20.3125 85.0586 21.625 85.6973 23.2656 85.6973C24.918 85.6973 26.2305 85.0527 27.2031 83.7637C28.1758 82.4629 28.6621 80.6465 28.6621 78.3145C28.6621 76.2285 28.1641 74.541 27.168 73.252C26.1836 71.9512 24.8711 71.3008 23.2305 71.3008C21.625 71.3008 20.3301 71.9395 19.3457 73.2168C18.3613 74.4941 17.8691 76.3223 17.8691 78.7012ZM39.0684 68.9805L39.1738 71.3711C40.627 69.543 42.5254 68.6289 44.8691 68.6289C48.8887 68.6289 50.916 70.8965 50.9512 75.4316V88H47.6992V75.4141C47.6875 74.043 47.3711 73.0293 46.75 72.373C46.1406 71.7168 45.1855 71.3887 43.8848 71.3887C42.8301 71.3887 41.9043 71.6699 41.1074 72.2324C40.3105 72.7949 39.6895 73.5332 39.2441 74.4473V88H35.9922V68.9805H39.0684ZM63.748 88.3516C61.1699 88.3516 59.0723 87.5078 57.4551 85.8203C55.8379 84.1211 55.0293 81.8535 55.0293 79.0176V78.4199C55.0293 76.5332 55.3867 74.8516 56.1016 73.375C56.8281 71.8867 57.8359 70.7266 59.125 69.8945C60.4258 69.0508 61.832 68.6289 63.3438 68.6289C65.8164 68.6289 67.7383 69.4434 69.1094 71.0723C70.4805 72.7012 71.166 75.0332 71.166 78.0684V79.4219H58.2812C58.3281 81.2969 58.873 82.8145 59.916 83.9746C60.9707 85.123 62.3066 85.6973 63.9238 85.6973C65.0723 85.6973 66.0449 85.4629 66.8418 84.9941C67.6387 84.5254 68.3359 83.9043 68.9336 83.1309L70.9199 84.6777C69.3262 87.127 66.9355 88.3516 63.748 88.3516ZM63.3438 71.3008C62.0312 71.3008 60.9297 71.7812 60.0391 72.7422C59.1484 73.6914 58.5977 75.0273 58.3867 76.75H67.9141V76.5039C67.8203 74.8516 67.375 73.5742 66.5781 72.6719C65.7812 71.7578 64.7031 71.3008 63.3438 71.3008ZM94.9492 82.9551C94.9492 82.0762 94.6152 81.3965 93.9473 80.916C93.291 80.4238 92.1367 80.002 90.4844 79.6504C88.8438 79.2988 87.5371 78.877 86.5645 78.3848C85.6035 77.8926 84.8887 77.3066 84.4199 76.627C83.9629 75.9473 83.7344 75.1387 83.7344 74.2012C83.7344 72.6426 84.3906 71.3242 85.7031 70.2461C87.0273 69.168 88.7148 68.6289 90.7656 68.6289C92.9219 68.6289 94.668 69.1855 96.0039 70.2988C97.3516 71.4121 98.0254 72.8359 98.0254 74.5703H94.7559C94.7559 73.6797 94.375 72.9121 93.6133 72.2676C92.8633 71.623 91.9141 71.3008 90.7656 71.3008C89.582 71.3008 88.6562 71.5586 87.9883 72.0742C87.3203 72.5898 86.9863 73.2637 86.9863 74.0957C86.9863 74.8809 87.2969 75.4727 87.918 75.8711C88.5391 76.2695 89.6582 76.6504 91.2754 77.0137C92.9043 77.377 94.2227 77.8105 95.2305 78.3145C96.2383 78.8184 96.9824 79.4277 97.4629 80.1426C97.9551 80.8457 98.2012 81.707 98.2012 82.7266C98.2012 84.4258 97.5215 85.791 96.1621 86.8223C94.8027 87.8418 93.0391 88.3516 90.8711 88.3516C89.3477 88.3516 88 88.082 86.8281 87.543C85.6562 87.0039 84.7363 86.2539 84.0684 85.293C83.4121 84.3203 83.084 83.2715 83.084 82.1465H86.3359C86.3945 83.2363 86.8281 84.1035 87.6367 84.748C88.457 85.3809 89.5352 85.6973 90.8711 85.6973C92.1016 85.6973 93.0859 85.4512 93.8242 84.959C94.5742 84.4551 94.9492 83.7871 94.9492 82.9551ZM105.971 88H102.719V68.9805H105.971V88ZM102.455 63.9355C102.455 63.4082 102.613 62.9629 102.93 62.5996C103.258 62.2363 103.738 62.0547 104.371 62.0547C105.004 62.0547 105.484 62.2363 105.812 62.5996C106.141 62.9629 106.305 63.4082 106.305 63.9355C106.305 64.4629 106.141 64.9023 105.812 65.2539C105.484 65.6055 105.004 65.7812 104.371 65.7812C103.738 65.7812 103.258 65.6055 102.93 65.2539C102.613 64.9023 102.455 64.4629 102.455 63.9355ZM110.418 78.332C110.418 75.3672 111.104 73.0117 112.475 71.2656C113.846 69.5078 115.662 68.6289 117.924 68.6289C120.244 68.6289 122.055 69.4492 123.355 71.0898L123.514 68.9805H126.484V87.543C126.484 90.0039 125.752 91.9434 124.287 93.3613C122.834 94.7793 120.877 95.4883 118.416 95.4883C117.045 95.4883 115.703 95.1953 114.391 94.6094C113.078 94.0234 112.076 93.2207 111.385 92.2012L113.072 90.25C114.467 91.9727 116.172 92.834 118.188 92.834C119.77 92.834 121 92.3887 121.879 91.498C122.77 90.6074 123.215 89.3535 123.215 87.7363V86.1016C121.914 87.6016 120.139 88.3516 117.889 88.3516C115.662 88.3516 113.857 87.4551 112.475 85.6621C111.104 83.8691 110.418 81.4258 110.418 78.332ZM113.688 78.7012C113.688 80.8457 114.127 82.5332 115.006 83.7637C115.885 84.9824 117.115 85.5918 118.697 85.5918C120.748 85.5918 122.254 84.6602 123.215 82.7969V74.1133C122.219 72.2969 120.725 71.3887 118.732 71.3887C117.15 71.3887 115.914 72.0039 115.023 73.2344C114.133 74.4648 113.688 76.2871 113.688 78.7012ZM134.482 68.9805L134.588 71.3711C136.041 69.543 137.939 68.6289 140.283 68.6289C144.303 68.6289 146.33 70.8965 146.365 75.4316V88H143.113V75.4141C143.102 74.043 142.785 73.0293 142.164 72.373C141.555 71.7168 140.6 71.3887 139.299 71.3887C138.244 71.3887 137.318 71.6699 136.521 72.2324C135.725 72.7949 135.104 73.5332 134.658 74.4473V88H131.406V68.9805H134.482ZM159.338 78.3145C159.338 76.4512 159.701 74.7754 160.428 73.2871C161.166 71.7988 162.186 70.6504 163.486 69.8418C164.799 69.0332 166.293 68.6289 167.969 68.6289C170.559 68.6289 172.65 69.5254 174.244 71.3184C175.85 73.1113 176.652 75.4961 176.652 78.4727V78.7012C176.652 80.5527 176.295 82.2168 175.58 83.6934C174.877 85.1582 173.863 86.3008 172.539 87.1211C171.227 87.9414 169.715 88.3516 168.004 88.3516C165.426 88.3516 163.334 87.4551 161.729 85.6621C160.135 83.8691 159.338 81.4961 159.338 78.543V78.3145ZM162.607 78.7012C162.607 80.8105 163.094 82.5039 164.066 83.7812C165.051 85.0586 166.363 85.6973 168.004 85.6973C169.656 85.6973 170.969 85.0527 171.941 83.7637C172.914 82.4629 173.4 80.6465 173.4 78.3145C173.4 76.2285 172.902 74.541 171.906 73.252C170.922 71.9512 169.609 71.3008 167.969 71.3008C166.363 71.3008 165.068 71.9395 164.084 73.2168C163.1 74.4941 162.607 76.3223 162.607 78.7012ZM182.33 88V71.4941H179.324V68.9805H182.33V67.0293C182.33 64.9902 182.875 63.4141 183.965 62.3008C185.055 61.1875 186.596 60.6309 188.588 60.6309C189.338 60.6309 190.082 60.7305 190.82 60.9297L190.645 63.5664C190.094 63.4609 189.508 63.4082 188.887 63.4082C187.832 63.4082 187.018 63.7188 186.443 64.3398C185.869 64.9492 185.582 65.8281 185.582 66.9766V68.9805H189.643V71.4941H185.582V88H182.33ZM213.918 88C213.73 87.625 213.578 86.957 213.461 85.9961C211.949 87.5664 210.145 88.3516 208.047 88.3516C206.172 88.3516 204.631 87.8242 203.424 86.7695C202.229 85.7031 201.631 84.3555 201.631 82.7266C201.631 80.7461 202.381 79.2109 203.881 78.1211C205.393 77.0195 207.514 76.4688 210.244 76.4688H213.408V74.9746C213.408 73.8379 213.068 72.9355 212.389 72.2676C211.709 71.5879 210.707 71.248 209.383 71.248C208.223 71.248 207.25 71.541 206.465 72.127C205.68 72.7129 205.287 73.4219 205.287 74.2539H202.018C202.018 73.3047 202.352 72.3906 203.02 71.5117C203.699 70.6211 204.613 69.918 205.762 69.4023C206.922 68.8867 208.193 68.6289 209.576 68.6289C211.768 68.6289 213.484 69.1797 214.727 70.2812C215.969 71.3711 216.613 72.877 216.66 74.7988V83.5527C216.66 85.2988 216.883 86.6875 217.328 87.7188V88H213.918ZM208.521 85.5215C209.541 85.5215 210.508 85.2578 211.422 84.7305C212.336 84.2031 212.998 83.5176 213.408 82.6738V78.7715H210.859C206.875 78.7715 204.883 79.9375 204.883 82.2695C204.883 83.2891 205.223 84.0859 205.902 84.6602C206.582 85.2344 207.455 85.5215 208.521 85.5215ZM239.881 71.8984C239.389 71.8164 238.855 71.7754 238.281 71.7754C236.148 71.7754 234.701 72.6836 233.939 74.5V88H230.688V68.9805H233.852L233.904 71.1777C234.971 69.4785 236.482 68.6289 238.439 68.6289C239.072 68.6289 239.553 68.7109 239.881 68.875V71.8984ZM250.428 88.3516C247.85 88.3516 245.752 87.5078 244.135 85.8203C242.518 84.1211 241.709 81.8535 241.709 79.0176V78.4199C241.709 76.5332 242.066 74.8516 242.781 73.375C243.508 71.8867 244.516 70.7266 245.805 69.8945C247.105 69.0508 248.512 68.6289 250.023 68.6289C252.496 68.6289 254.418 69.4434 255.789 71.0723C257.16 72.7012 257.846 75.0332 257.846 78.0684V79.4219H244.961C245.008 81.2969 245.553 82.8145 246.596 83.9746C247.65 85.123 248.986 85.6973 250.604 85.6973C251.752 85.6973 252.725 85.4629 253.521 84.9941C254.318 84.5254 255.016 83.9043 255.613 83.1309L257.6 84.6777C256.006 87.127 253.615 88.3516 250.428 88.3516ZM250.023 71.3008C248.711 71.3008 247.609 71.7812 246.719 72.7422C245.828 73.6914 245.277 75.0273 245.066 76.75H254.594V76.5039C254.5 74.8516 254.055 73.5742 253.258 72.6719C252.461 71.7578 251.383 71.3008 250.023 71.3008ZM273.367 88C273.18 87.625 273.027 86.957 272.91 85.9961C271.398 87.5664 269.594 88.3516 267.496 88.3516C265.621 88.3516 264.08 87.8242 262.873 86.7695C261.678 85.7031 261.08 84.3555 261.08 82.7266C261.08 80.7461 261.83 79.2109 263.33 78.1211C264.842 77.0195 266.963 76.4688 269.693 76.4688H272.857V74.9746C272.857 73.8379 272.518 72.9355 271.838 72.2676C271.158 71.5879 270.156 71.248 268.832 71.248C267.672 71.248 266.699 71.541 265.914 72.127C265.129 72.7129 264.736 73.4219 264.736 74.2539H261.467C261.467 73.3047 261.801 72.3906 262.469 71.5117C263.148 70.6211 264.062 69.918 265.211 69.4023C266.371 68.8867 267.643 68.6289 269.025 68.6289C271.217 68.6289 272.934 69.1797 274.176 70.2812C275.418 71.3711 276.062 72.877 276.109 74.7988V83.5527C276.109 85.2988 276.332 86.6875 276.777 87.7188V88H273.367ZM267.971 85.5215C268.99 85.5215 269.957 85.2578 270.871 84.7305C271.785 84.2031 272.447 83.5176 272.857 82.6738V78.7715H270.309C266.324 78.7715 264.332 79.9375 264.332 82.2695C264.332 83.2891 264.672 84.0859 265.352 84.6602C266.031 85.2344 266.904 85.5215 267.971 85.5215ZM284.74 88H281.488V61H284.74V88ZM293.494 88H290.242V61H293.494V88ZM304.938 83.2363L309.367 68.9805H312.848L305.201 90.9355C304.018 94.0996 302.137 95.6816 299.559 95.6816L298.943 95.6289L297.73 95.4004V92.7637L298.609 92.834C299.711 92.834 300.566 92.6113 301.176 92.166C301.797 91.7207 302.307 90.9062 302.705 89.7227L303.426 87.7891L296.641 68.9805H300.191L304.938 83.2363ZM327.771 68.9805L327.877 71.3711C329.33 69.543 331.229 68.6289 333.572 68.6289C337.592 68.6289 339.619 70.8965 339.654 75.4316V88H336.402V75.4141C336.391 74.043 336.074 73.0293 335.453 72.373C334.844 71.7168 333.889 71.3887 332.588 71.3887C331.533 71.3887 330.607 71.6699 329.811 72.2324C329.014 72.7949 328.393 73.5332 327.947 74.4473V88H324.695V68.9805H327.771ZM348.092 88H344.84V68.9805H348.092V88ZM344.576 63.9355C344.576 63.4082 344.734 62.9629 345.051 62.5996C345.379 62.2363 345.859 62.0547 346.492 62.0547C347.125 62.0547 347.605 62.2363 347.934 62.5996C348.262 62.9629 348.426 63.4082 348.426 63.9355C348.426 64.4629 348.262 64.9023 347.934 65.2539C347.605 65.6055 347.125 65.7812 346.492 65.7812C345.859 65.7812 345.379 65.6055 345.051 65.2539C344.734 64.9023 344.576 64.4629 344.576 63.9355ZM360.941 85.6973C362.102 85.6973 363.115 85.3457 363.982 84.6426C364.85 83.9395 365.33 83.0605 365.424 82.0059H368.5C368.441 83.0957 368.066 84.1328 367.375 85.1172C366.684 86.1016 365.758 86.8867 364.598 87.4727C363.449 88.0586 362.23 88.3516 360.941 88.3516C358.352 88.3516 356.289 87.4902 354.754 85.7676C353.23 84.0332 352.469 81.666 352.469 78.666V78.1211C352.469 76.2695 352.809 74.623 353.488 73.1816C354.168 71.7402 355.141 70.6211 356.406 69.8242C357.684 69.0273 359.189 68.6289 360.924 68.6289C363.057 68.6289 364.826 69.2676 366.232 70.5449C367.65 71.8223 368.406 73.4805 368.5 75.5195H365.424C365.33 74.2891 364.861 73.2812 364.018 72.4961C363.186 71.6992 362.154 71.3008 360.924 71.3008C359.271 71.3008 357.988 71.8984 357.074 73.0938C356.172 74.2773 355.721 75.9941 355.721 78.2441V78.8594C355.721 81.0508 356.172 82.7383 357.074 83.9219C357.977 85.1055 359.266 85.6973 360.941 85.6973ZM380.049 88.3516C377.471 88.3516 375.373 87.5078 373.756 85.8203C372.139 84.1211 371.33 81.8535 371.33 79.0176V78.4199C371.33 76.5332 371.688 74.8516 372.402 73.375C373.129 71.8867 374.137 70.7266 375.426 69.8945C376.727 69.0508 378.133 68.6289 379.645 68.6289C382.117 68.6289 384.039 69.4434 385.41 71.0723C386.781 72.7012 387.467 75.0332 387.467 78.0684V79.4219H374.582C374.629 81.2969 375.174 82.8145 376.217 83.9746C377.271 85.123 378.607 85.6973 380.225 85.6973C381.373 85.6973 382.346 85.4629 383.143 84.9941C383.939 84.5254 384.637 83.9043 385.234 83.1309L387.221 84.6777C385.627 87.127 383.236 88.3516 380.049 88.3516ZM379.645 71.3008C378.332 71.3008 377.23 71.7812 376.34 72.7422C375.449 73.6914 374.898 75.0273 374.688 76.75H384.215V76.5039C384.121 74.8516 383.676 73.5742 382.879 72.6719C382.082 71.7578 381.004 71.3008 379.645 71.3008ZM399.385 78.332C399.385 75.4141 400.076 73.0703 401.459 71.3008C402.842 69.5195 404.652 68.6289 406.891 68.6289C409.117 68.6289 410.881 69.3906 412.182 70.9141V61H415.434V88H412.445L412.287 85.9609C410.986 87.5547 409.176 88.3516 406.855 88.3516C404.652 88.3516 402.854 87.4492 401.459 85.6445C400.076 83.8398 399.385 81.4844 399.385 78.5781V78.332ZM402.637 78.7012C402.637 80.8574 403.082 82.5449 403.973 83.7637C404.863 84.9824 406.094 85.5918 407.664 85.5918C409.727 85.5918 411.232 84.666 412.182 82.8145V74.0781C411.209 72.2852 409.715 71.3887 407.699 71.3887C406.105 71.3887 404.863 72.0039 403.973 73.2344C403.082 74.4648 402.637 76.2871 402.637 78.7012ZM419.635 78.3145C419.635 76.4512 419.998 74.7754 420.725 73.2871C421.463 71.7988 422.482 70.6504 423.783 69.8418C425.096 69.0332 426.59 68.6289 428.266 68.6289C430.855 68.6289 432.947 69.5254 434.541 71.3184C436.146 73.1113 436.949 75.4961 436.949 78.4727V78.7012C436.949 80.5527 436.592 82.2168 435.877 83.6934C435.174 85.1582 434.16 86.3008 432.836 87.1211C431.523 87.9414 430.012 88.3516 428.301 88.3516C425.723 88.3516 423.631 87.4551 422.025 85.6621C420.432 83.8691 419.635 81.4961 419.635 78.543V78.3145ZM422.904 78.7012C422.904 80.8105 423.391 82.5039 424.363 83.7812C425.348 85.0586 426.66 85.6973 428.301 85.6973C429.953 85.6973 431.266 85.0527 432.238 83.7637C433.211 82.4629 433.697 80.6465 433.697 78.3145C433.697 76.2285 433.199 74.541 432.203 73.252C431.219 71.9512 429.906 71.3008 428.266 71.3008C426.66 71.3008 425.365 71.9395 424.381 73.2168C423.396 74.4941 422.904 76.3223 422.904 78.7012ZM440.254 78.332C440.254 75.3672 440.939 73.0117 442.311 71.2656C443.682 69.5078 445.498 68.6289 447.76 68.6289C450.08 68.6289 451.891 69.4492 453.191 71.0898L453.35 68.9805H456.32V87.543C456.32 90.0039 455.588 91.9434 454.123 93.3613C452.67 94.7793 450.713 95.4883 448.252 95.4883C446.881 95.4883 445.539 95.1953 444.227 94.6094C442.914 94.0234 441.912 93.2207 441.221 92.2012L442.908 90.25C444.303 91.9727 446.008 92.834 448.023 92.834C449.605 92.834 450.836 92.3887 451.715 91.498C452.605 90.6074 453.051 89.3535 453.051 87.7363V86.1016C451.75 87.6016 449.975 88.3516 447.725 88.3516C445.498 88.3516 443.693 87.4551 442.311 85.6621C440.939 83.8691 440.254 81.4258 440.254 78.332ZM443.523 78.7012C443.523 80.8457 443.963 82.5332 444.842 83.7637C445.721 84.9824 446.951 85.5918 448.533 85.5918C450.584 85.5918 452.09 84.6602 453.051 82.7969V74.1133C452.055 72.2969 450.561 71.3887 448.568 71.3887C446.986 71.3887 445.75 72.0039 444.859 73.2344C443.969 74.4648 443.523 76.2871 443.523 78.7012Z" fill="black"/>
</svg>
