<svg width="342" height="102" viewBox="0 0 342 102" fill="none" xmlns="http://www.w3.org/2000/svg">
<rect y="66.1849" width="340.559" height="36.1116" rx="18.0558" transform="rotate(-11.056 0 66.1849)" fill="#A9CDF7"/>
<path d="M32.1812 83.9949L28.8945 67.252L33.6207 66.3242C35.0773 66.0383 36.4284 66.1074 37.6741 66.5316C38.9197 66.9559 39.962 67.7027 40.8009 68.7721C41.6475 69.8399 42.2258 71.1436 42.536 72.683L42.7459 73.7524C43.0559 75.3316 43.0209 76.7756 42.6409 78.0842C42.2685 79.3914 41.5775 80.4745 40.5678 81.3335C39.5658 82.191 38.315 82.7749 36.8154 83.0852L32.1812 83.9949ZM31.459 68.6354L34.0347 81.7561L36.3575 81.3001C38.0594 80.966 39.278 80.1775 40.0132 78.9344C40.7562 77.6899 40.9358 76.0902 40.552 74.1353L40.3601 73.1579C39.9869 71.2567 39.2488 69.8689 38.1456 68.9948C37.0487 68.1114 35.6784 67.8231 34.0348 68.1298L31.459 68.6354ZM45.4955 74.801C45.2562 73.5821 45.2786 72.4391 45.5628 71.3722C45.8547 70.3038 46.3742 69.4216 47.1213 68.7256C47.876 68.0281 48.8016 67.5717 49.8978 67.3565C51.592 67.0239 53.0756 67.3418 54.3484 68.31C55.629 69.2768 56.4603 70.7338 56.8426 72.681L56.8719 72.8305C57.1097 74.0417 57.0896 75.1762 56.8116 76.234C56.5397 77.2825 56.0233 78.1602 55.2624 78.8669C54.5091 79.572 53.5728 80.0345 52.4536 80.2542C50.767 80.5853 49.2835 80.2674 48.003 79.3007C46.7301 78.3324 45.9041 76.8824 45.5248 74.9505L45.4955 74.801ZM47.684 74.6341C47.9549 76.014 48.4905 77.0593 49.2908 77.77C50.0988 78.4792 51.0394 78.7285 52.1127 78.5178C53.1936 78.3056 53.9695 77.7154 54.4402 76.7472C54.9095 75.7714 54.9944 74.5207 54.6949 72.9951C54.427 71.6305 53.8845 70.5905 53.0673 69.8752C52.2563 69.1506 51.3142 68.8937 50.2409 69.1044C49.1907 69.3106 48.4256 69.8947 47.9456 70.8567C47.4657 71.8187 47.3785 73.0779 47.684 74.6341ZM58.9864 72.1646C58.6056 70.2251 58.7516 68.5961 59.4243 67.2778C60.0956 65.9518 61.1709 65.1436 62.6505 64.8531C64.1684 64.5551 65.4582 64.8593 66.5198 65.7655L66.3524 64.3653L68.2958 63.9838L70.6796 76.127C70.9956 77.7369 70.7655 79.0997 69.9894 80.2154C69.2209 81.3296 68.0316 82.0448 66.4217 82.3608C65.5248 82.5369 64.6094 82.5175 63.6755 82.3028C62.7417 82.088 61.9831 81.6916 61.3999 81.1134L62.2533 79.6203C63.3868 80.5681 64.6128 80.9126 65.9314 80.6538C66.9663 80.4506 67.7141 80.0013 68.1747 79.3058C68.6429 78.6088 68.7732 77.7313 68.5656 76.6734L68.3556 75.6039C67.6973 76.7522 66.6322 77.4709 65.1603 77.7598C63.7037 78.0457 62.408 77.691 61.2731 76.6957C60.1459 75.6988 59.3837 74.1885 58.9864 72.1646ZM61.1727 71.9862C61.4481 73.3891 61.9522 74.4366 62.6852 75.1287C63.4167 75.8131 64.2999 76.0538 65.3348 75.8506C66.6764 75.5872 67.5419 74.7844 67.9312 73.4421L66.8161 67.7614C65.9312 66.7011 64.8371 66.2988 63.5339 66.5547C62.499 66.7578 61.7692 67.3191 61.3446 68.2384C60.92 69.1577 60.8626 70.407 61.1727 71.9862ZM80.5548 71.0715C80.4419 70.4965 80.1361 70.0948 79.6374 69.8662C79.1449 69.6285 78.3356 69.5008 77.2096 69.483C76.0911 69.4637 75.1822 69.3555 74.4827 69.1584C73.7909 68.9599 73.248 68.6684 72.854 68.2839C72.4678 67.898 72.2144 67.3983 72.0941 66.785C71.8939 65.7654 72.1539 64.8187 72.8741 63.9449C73.6019 63.0695 74.6366 62.5002 75.9782 62.2368C77.3888 61.9599 78.6025 62.0998 79.6194 62.6566C80.644 63.2118 81.2676 64.0567 81.4904 65.1913L79.3515 65.6112C79.2371 65.0285 78.8894 64.5753 78.3083 64.2515C77.7349 63.9262 77.0726 63.8372 76.3213 63.9847C75.547 64.1367 74.9745 64.4243 74.6037 64.8474C74.233 65.2704 74.101 65.7541 74.2079 66.2984C74.3087 66.8121 74.5879 67.1593 75.0453 67.3402C75.5028 67.5211 76.2838 67.6265 77.3884 67.6565C78.5007 67.685 79.4188 67.7993 80.1428 67.9996C80.8668 68.1998 81.4319 68.5029 81.838 68.9088C82.2503 69.3056 82.5219 69.8374 82.6528 70.5044C82.871 71.616 82.6017 72.5964 81.8448 73.4456C81.0865 74.2871 79.9982 74.8471 78.5799 75.1255C77.5833 75.3211 76.6671 75.3179 75.8313 75.1157C74.9954 74.9135 74.2973 74.541 73.7369 73.9982C73.1827 73.4462 72.8334 72.8022 72.6889 72.0662L74.8163 71.6486C74.9946 72.3541 75.3896 72.8657 76.0013 73.1835C76.6192 73.4921 77.3651 73.5606 78.2391 73.3891C79.044 73.2311 79.6564 72.9437 80.0761 72.5269C80.5021 72.1009 80.6616 71.6158 80.5548 71.0715ZM91.9236 60.91C92.6393 59.5673 93.7522 58.7477 95.2625 58.4512C97.892 57.9351 99.5094 59.1581 100.115 62.1204L101.729 70.3424L99.6015 70.76L97.9852 62.5265C97.8015 61.6311 97.4643 61.0086 96.9737 60.659C96.4908 60.308 95.8239 60.216 94.9729 60.383C94.283 60.5185 93.7135 60.8214 93.2644 61.2917C92.8153 61.762 92.5038 62.3247 92.3299 62.9799L94.0703 71.8458L91.943 72.2634L88.4756 54.6005L90.603 54.1829L91.9236 60.91ZM112.596 68.2092C112.425 67.988 112.239 67.5705 112.039 66.957C111.252 68.1784 110.172 68.9238 108.8 69.1931C107.573 69.4339 106.498 69.2868 105.573 68.7519C104.654 68.2078 104.09 67.4029 103.88 66.3373C103.626 65.0417 103.92 63.9411 104.761 63.0355C105.608 62.1208 106.925 61.4881 108.711 61.1375L110.781 60.7311L110.589 59.7537C110.443 59.0101 110.105 58.4634 109.575 58.1137C109.043 57.7564 108.344 57.6627 107.478 57.8328C106.719 57.9818 106.12 58.2983 105.682 58.7825C105.243 59.2666 105.077 59.7808 105.184 60.3251L103.045 60.745C102.923 60.124 103.025 59.4832 103.349 58.8224C103.679 58.1525 104.187 57.5752 104.872 57.0904C105.564 56.6041 106.363 56.2721 107.268 56.0946C108.701 55.8131 109.895 55.953 110.849 56.5141C111.802 57.0675 112.417 57.9699 112.694 59.2211L113.818 64.9477C114.043 66.09 114.367 66.9698 114.79 67.5873L114.827 67.7713L112.596 68.2092ZM108.747 67.2808C109.414 67.1499 110.013 66.8532 110.543 66.3909C111.073 65.9285 111.418 65.395 111.578 64.7904L111.077 62.2375L109.41 62.5649C106.803 63.0765 105.65 64.0951 105.949 65.6207C106.08 66.2877 106.405 66.7653 106.923 67.0537C107.441 67.342 108.049 67.4178 108.747 67.2808ZM121.079 63.5463L122.285 53.3855L124.458 52.9588L122.439 66.2769L120.818 66.5952L113.867 55.0378L116.041 54.6112L121.079 63.5463ZM133.995 64.2473C132.308 64.5783 130.828 64.2958 129.553 63.3995C128.277 62.4956 127.457 61.116 127.093 59.2608L127.016 58.8698C126.774 57.6356 126.791 56.4896 127.07 55.4318C127.354 54.3649 127.864 53.4765 128.6 52.7667C129.343 52.0477 130.209 51.5911 131.198 51.397C132.815 51.0795 134.177 51.3654 135.283 52.255C136.389 53.1445 137.137 54.582 137.527 56.5676L137.701 57.453L129.272 59.1077C129.543 60.3282 130.095 61.251 130.926 61.876C131.763 62.4919 132.711 62.696 133.769 62.4883C134.52 62.3408 135.127 62.0626 135.588 61.6536C136.049 61.2446 136.425 60.7488 136.717 60.1661L138.215 60.9229C137.487 62.7298 136.08 63.8379 133.995 64.2473ZM131.541 53.1449C130.682 53.3134 130.023 53.7692 129.564 54.5122C129.103 55.2475 128.915 56.1922 128.998 57.3462L135.23 56.1227L135.199 55.9618C134.925 54.8929 134.47 54.1144 133.833 53.6265C133.194 53.1308 132.43 52.9703 131.541 53.1449ZM154.798 59.9247C154.627 59.7034 154.442 59.286 154.242 58.6725C153.454 59.8939 152.375 60.6392 151.002 60.9086C149.776 61.1494 148.7 61.0023 147.775 60.4674C146.856 59.9233 146.292 59.1184 146.083 58.0528C145.828 56.7572 146.122 55.6566 146.963 54.751C147.811 53.8363 149.128 53.2036 150.914 52.8529L152.984 52.4466L152.792 51.4692C152.646 50.7256 152.308 50.1789 151.777 49.8292C151.245 49.4719 150.546 49.3782 149.68 49.5483C148.921 49.6973 148.322 50.0138 147.884 50.498C147.446 50.9821 147.28 51.4963 147.387 52.0406L145.248 52.4605C145.126 51.8395 145.227 51.1987 145.551 50.5379C145.881 49.868 146.389 49.2907 147.074 48.8059C147.767 48.3196 148.565 47.9876 149.47 47.81C150.904 47.5286 152.097 47.6685 153.052 48.2296C154.004 48.783 154.619 49.6853 154.897 50.9366L156.021 56.6632C156.245 57.8055 156.569 58.6853 156.993 59.3028L157.029 59.4868L154.798 59.9247ZM150.949 58.9963C151.616 58.8654 152.215 58.5687 152.745 58.1064C153.275 57.644 153.621 57.1105 153.781 56.5059L153.279 53.953L151.612 54.2803C149.006 54.792 147.852 55.8106 148.151 57.3362C148.282 58.0032 148.607 58.4808 149.125 58.7692C149.644 59.0575 150.252 59.1332 150.949 58.9963ZM172.365 53.0487C172.252 52.4738 171.946 52.072 171.448 51.8435C170.955 51.6058 170.146 51.478 169.02 51.4602C167.901 51.4409 166.992 51.3328 166.293 51.1357C165.601 50.9371 165.058 50.6456 164.664 50.2611C164.278 49.8752 164.025 49.3756 163.904 48.7623C163.704 47.7427 163.964 46.796 164.684 45.9221C165.412 45.0468 166.447 44.4774 167.788 44.2141C169.199 43.9372 170.413 44.0771 171.43 44.6338C172.454 45.189 173.078 46.0339 173.301 47.1685L171.162 47.5884C171.047 47.0058 170.7 46.5526 170.119 46.2287C169.545 45.9034 168.883 45.8145 168.132 45.962C167.357 46.114 166.785 46.4015 166.414 46.8246C166.043 47.2477 165.911 47.7314 166.018 48.2757C166.119 48.7893 166.398 49.1366 166.856 49.3175C167.313 49.4984 168.094 49.6038 169.199 49.6338C170.311 49.6622 171.229 49.7766 171.953 49.9768C172.677 50.177 173.242 50.4801 173.648 50.886C174.061 51.2828 174.332 51.8147 174.463 52.4816C174.681 53.5932 174.412 54.5736 173.655 55.4228C172.897 56.2643 171.808 56.8243 170.39 57.1027C169.394 57.2984 168.477 57.2951 167.642 57.0929C166.806 56.8908 166.108 56.5183 165.547 55.9754C164.993 55.4234 164.644 54.7794 164.499 54.0435L166.627 53.6259C166.805 54.3313 167.2 54.8429 167.812 55.1607C168.429 55.4694 169.175 55.5379 170.049 55.3663C170.854 55.2083 171.467 54.9209 171.886 54.5041C172.312 54.0782 172.472 53.593 172.365 53.0487ZM183.12 54.6038C181.433 54.9349 179.953 54.6523 178.678 53.7561C177.402 52.8521 176.582 51.4726 176.218 49.6174L176.141 49.2264C175.899 47.9921 175.916 46.8461 176.194 45.7884C176.479 44.7215 176.989 43.8331 177.725 43.1233C178.468 42.4043 179.334 41.9477 180.323 41.7535C181.94 41.436 183.302 41.722 184.408 42.6115C185.514 43.5011 186.262 44.9386 186.652 46.9241L186.826 47.8096L178.397 49.4642C178.668 50.6848 179.22 51.6076 180.051 52.2326C180.888 52.8484 181.836 53.0525 182.894 52.8449C183.645 52.6974 184.252 52.4191 184.713 52.0102C185.174 51.6012 185.55 51.1053 185.842 50.5226L187.34 51.2795C186.612 53.0864 185.205 54.1945 183.12 54.6038ZM180.666 43.5014C179.807 43.67 179.148 44.1258 178.689 44.8688C178.228 45.6041 178.04 46.5488 178.123 47.7028L184.355 46.4793L184.324 46.3183C184.05 45.2494 183.595 44.471 182.958 43.983C182.319 43.4874 181.555 43.3269 180.666 43.5014ZM189.97 40.0986L190.346 41.649C191.062 40.2665 192.186 39.4247 193.719 39.1237C196.349 38.6075 197.966 39.8306 198.572 42.7929L200.186 51.0149L198.058 51.4325L196.442 43.199C196.258 42.3036 195.921 41.6811 195.431 41.3315C194.948 40.9805 194.281 40.8885 193.43 41.0555C192.74 41.191 192.17 41.4938 191.721 41.9642C191.272 42.4345 190.961 42.9972 190.787 43.6523L192.527 52.5183L190.4 52.9359L187.957 40.4937L189.97 40.0986ZM209.991 45.6627C209.878 45.0877 209.572 44.6859 209.073 44.4574C208.581 44.2197 207.772 44.0919 206.645 44.0742C205.527 44.0549 204.618 43.9467 203.919 43.7496C203.227 43.551 202.684 43.2595 202.29 42.8751C201.904 42.4891 201.65 41.9895 201.53 41.3762C201.33 40.3566 201.59 39.4099 202.31 38.536C203.038 37.6607 204.072 37.0913 205.414 36.828C206.825 36.5511 208.038 36.691 209.055 37.2477C210.08 37.803 210.704 38.6479 210.926 39.7825L208.787 40.2023C208.673 39.6197 208.325 39.1665 207.744 38.8426C207.171 38.5173 206.508 38.4284 205.757 38.5759C204.983 38.7279 204.41 39.0154 204.04 39.4385C203.669 39.8616 203.537 40.3453 203.644 40.8896C203.745 41.4032 204.024 41.7505 204.481 41.9314C204.939 42.1123 205.72 42.2177 206.824 42.2477C207.937 42.2762 208.855 42.3905 209.579 42.5907C210.303 42.7909 210.868 43.094 211.274 43.5C211.686 43.8967 211.958 44.4286 212.089 45.0955C212.307 46.2071 212.038 47.1875 211.281 48.0367C210.522 48.8783 209.434 49.4382 208.016 49.7166C207.019 49.9123 206.103 49.909 205.267 49.7069C204.431 49.5047 203.733 49.1322 203.173 48.5894C202.619 48.0373 202.269 47.3934 202.125 46.6574L204.252 46.2398C204.43 46.9452 204.825 47.4568 205.437 47.7746C206.055 48.0833 206.801 48.1518 207.675 47.9802C208.48 47.8222 209.092 47.5348 209.512 47.118C209.938 46.6921 210.098 46.2069 209.991 45.6627ZM220.746 47.2177C219.059 47.5488 217.578 47.2662 216.304 46.37C215.028 45.4661 214.207 44.0865 213.843 42.2313L213.766 41.8403C213.524 40.606 213.542 39.46 213.82 38.4023C214.104 37.3354 214.615 36.447 215.351 35.7372C216.094 35.0182 216.959 34.5616 217.948 34.3675C219.566 34.0499 220.928 34.3359 222.034 35.2255C223.14 36.115 223.888 37.5525 224.278 39.5381L224.451 40.4235L216.023 42.0781C216.294 43.2987 216.845 44.2215 217.677 44.8465C218.514 45.4624 219.462 45.6665 220.52 45.4588C221.271 45.3113 221.877 45.0331 222.338 44.6241C222.799 44.2151 223.176 43.7193 223.467 43.1365L224.965 43.8934C224.237 45.7003 222.831 46.8084 220.746 47.2177ZM218.291 36.1154C217.433 36.2839 216.774 36.7397 216.315 37.4827C215.854 38.218 215.665 39.1627 215.748 40.3167L221.981 39.0932L221.949 38.9322C221.676 37.8633 221.221 37.0849 220.583 36.5969C219.945 36.1013 219.181 35.9408 218.291 36.1154ZM232.06 38.1776C231.821 36.9587 231.843 35.8157 232.127 34.7488C232.419 33.6804 232.938 32.7982 233.686 32.1022C234.44 31.4047 235.366 30.9483 236.462 30.7331C238.156 30.4005 239.64 30.7184 240.913 31.6866C242.193 32.6534 243.025 34.1104 243.407 36.0576L243.436 36.2071C243.674 37.4183 243.654 38.5528 243.376 39.6106C243.104 40.6591 242.588 41.5368 241.827 42.2434C241.073 42.9486 240.137 43.4111 239.018 43.6308C237.331 43.9619 235.848 43.644 234.567 42.6773C233.294 41.709 232.468 40.259 232.089 38.3271L232.06 38.1776ZM234.248 38.0107C234.519 39.3906 235.055 40.4359 235.855 41.1466C236.663 41.8558 237.604 42.1051 238.677 41.8944C239.758 41.6822 240.534 41.092 241.005 40.1238C241.474 39.148 241.559 37.8973 241.259 36.3717C240.991 35.0071 240.449 33.9671 239.632 33.2518C238.821 32.5272 237.879 32.2703 236.805 32.481C235.755 32.6872 234.99 33.2713 234.51 34.2333C234.03 35.1953 233.943 36.4545 234.248 38.0107ZM248.345 41.5611L246.225 30.7632L244.259 31.1492L243.936 29.5048L245.902 29.1188L245.652 27.8424C245.39 26.5085 245.544 25.4074 246.114 24.5392C246.684 23.6709 247.62 23.1089 248.924 22.8531C249.414 22.7567 249.914 22.7264 250.422 22.7619L250.646 24.5093C250.272 24.5111 249.882 24.5518 249.476 24.6316C248.786 24.767 248.293 25.0748 247.997 25.5548C247.7 26.0272 247.625 26.639 247.772 27.3903L248.03 28.7012L250.686 28.1798L251.009 29.8242L248.352 30.3456L250.472 41.1435L248.345 41.5611ZM261.18 22.9909L261.771 26.0037L264.094 25.5477L264.417 27.1921L262.094 27.6481L263.609 35.3641C263.707 35.8624 263.884 36.2177 264.14 36.4301C264.396 36.6348 264.772 36.6882 265.271 36.5904C265.516 36.5422 265.844 36.43 266.255 36.2537L266.594 37.9786C266.064 38.2418 265.535 38.4253 265.006 38.5292C264.056 38.7158 263.282 38.569 262.687 38.0888C262.091 37.6087 261.689 36.8396 261.481 35.7817L259.967 28.0657L257.701 28.5104L257.378 26.866L259.644 26.4213L259.052 23.4085L261.18 22.9909ZM271.343 37.0463L269.216 37.464L266.773 25.0217L268.901 24.6041L271.343 37.0463ZM265.953 21.7553C265.885 21.4103 265.932 21.0987 266.092 20.8204C266.26 20.5406 266.551 20.3601 266.965 20.2788C267.379 20.1976 267.717 20.2547 267.978 20.4502C268.239 20.6457 268.404 20.916 268.471 21.2609C268.539 21.6059 268.488 21.9145 268.319 22.1866C268.149 22.4587 267.857 22.6354 267.443 22.7167C267.03 22.7979 266.693 22.7446 266.433 22.5568C266.181 22.3674 266.021 22.1003 265.953 21.7553ZM274.317 23.5409L274.645 24.9095C275.347 23.6572 276.472 22.879 278.021 22.575C279.761 22.2334 281.076 22.6679 281.967 23.8784C282.263 23.1991 282.705 22.6108 283.292 22.1134C283.887 21.6145 284.636 21.2763 285.541 21.0987C288.27 20.563 289.941 21.7356 290.555 24.6168L292.191 32.9537L290.064 33.3714L288.452 25.1609C288.278 24.2716 287.944 23.6484 287.452 23.2911C286.959 22.9263 286.233 22.8379 285.275 23.026C284.485 23.181 283.876 23.5473 283.448 24.125C283.019 24.6949 282.84 25.3868 282.912 26.2007L284.533 34.4572L282.394 34.877L280.794 26.724C280.438 24.9148 279.375 24.184 277.604 24.5317C276.209 24.8055 275.371 25.587 275.091 26.8761L276.874 35.9606L274.747 36.3782L272.305 23.9359L274.317 23.5409ZM300.62 31.5381C298.933 31.8692 297.452 31.5866 296.178 30.6904C294.902 29.7864 294.081 28.4069 293.717 26.5517L293.64 26.1607C293.398 24.9264 293.416 23.7804 293.694 22.7227C293.978 21.6558 294.489 20.7674 295.225 20.0576C295.968 19.3386 296.833 18.882 297.822 18.6878C299.44 18.3703 300.802 18.6563 301.908 19.5458C303.014 20.4354 303.762 21.8729 304.152 23.8584L304.325 24.7439L295.897 26.3985C296.168 27.6191 296.719 28.5419 297.551 29.1669C298.388 29.7827 299.336 29.9868 300.394 29.7792C301.145 29.6317 301.751 29.3534 302.212 28.9445C302.673 28.5355 303.05 28.0396 303.341 27.4569L304.839 28.2138C304.111 30.0207 302.705 31.1288 300.62 31.5381ZM298.165 20.4357C297.307 20.6043 296.648 21.0601 296.189 21.8031C295.728 22.5384 295.539 23.4831 295.622 24.6371L301.855 23.4136L301.823 23.2526C301.55 22.1837 301.095 21.4053 300.457 20.9173C299.819 20.4217 299.055 20.2612 298.165 20.4357ZM307.726 28.7457C307.654 28.3778 307.701 28.05 307.868 27.7626C308.042 27.4736 308.348 27.2863 308.785 27.2005C309.222 27.1147 309.575 27.1726 309.846 27.3743C310.124 27.5745 310.299 27.8586 310.371 28.2265C310.441 28.5792 310.383 28.8969 310.2 29.1797C310.024 29.461 309.718 29.6445 309.281 29.7303C308.844 29.8161 308.491 29.762 308.222 29.568C307.961 29.3725 307.796 29.0984 307.726 28.7457Z" fill="black"/>
</svg>
