<svg width="502" height="134" viewBox="0 0 502 134" fill="none" xmlns="http://www.w3.org/2000/svg">
<rect x="7.28885" y="0.327454" width="495.941" height="96.3537" rx="25" transform="rotate(4.24235 7.28885 0.327454)" fill="#A9CDF7"/>
<path d="M45.255 15.8699L39.788 15.4329L38.5759 30.5955L36.3448 30.4171L37.5569 15.2546L32.1016 14.8185L32.2491 12.9728L45.4025 14.0243L45.255 15.8699ZM49.2764 20.2708C50.3283 19.1714 51.6213 18.6831 53.1555 18.8057C55.8267 19.0192 57.0535 20.6339 56.8359 23.6495L56.1683 32.0018L54.0072 31.8291L54.6758 23.4651C54.7408 22.5533 54.5844 21.8629 54.2065 21.3938C53.8364 20.9253 53.2192 20.6565 52.3547 20.5874C51.6539 20.5314 51.0237 20.6691 50.4642 21.0006C49.9048 21.3321 49.4528 21.7897 49.1083 22.3735L48.3884 31.3799L46.2273 31.2071L47.6616 13.2644L49.8227 13.4371L49.2764 20.2708ZM64.6303 32.9134C62.917 32.7764 61.5679 32.1043 60.5828 30.8969C59.5984 29.6818 59.1815 28.132 59.3322 26.2473L59.3639 25.8502C59.4641 24.5964 59.791 23.4978 60.3445 22.5545C60.9064 21.6041 61.6378 20.8867 62.5386 20.4022C63.4479 19.9106 64.4048 19.705 65.4094 19.7853C67.0526 19.9166 68.2865 20.56 69.1111 21.7153C69.9357 22.8706 70.2674 24.4568 70.1062 26.4738L70.0343 27.3733L61.4718 26.6888C61.4033 27.9373 61.6848 28.9747 62.3163 29.8011C62.9562 30.6203 63.8135 31.0729 64.8882 31.1588C65.6513 31.2198 66.3102 31.1157 66.8646 30.8466C67.4191 30.5774 67.9155 30.2017 68.3537 29.7195L69.5915 30.8529C68.4023 32.3959 66.7486 33.0827 64.6303 32.9134ZM65.2675 21.5609C64.3952 21.4911 63.6377 21.7519 62.9948 22.3432C62.3525 22.9267 61.9155 23.7852 61.6838 24.9188L68.0152 25.4249L68.0282 25.2614C68.0537 24.1583 67.8256 23.2858 67.344 22.6438C66.863 21.9941 66.1708 21.6331 65.2675 21.5609ZM83.9805 26.5954C82.1011 25.8887 80.7535 25.0991 79.9376 24.2266C79.1301 23.347 78.7737 22.3153 78.8683 21.1316C78.9754 19.7921 79.5973 18.7289 80.7339 17.942C81.879 17.1479 83.3081 16.8193 85.0214 16.9562C86.1896 17.0496 87.2112 17.3586 88.0862 17.8831C88.969 18.4082 89.6279 19.0879 90.0628 19.9221C90.5055 20.7569 90.6892 21.6455 90.6139 22.5878L88.3594 22.4075C88.4415 21.3796 88.1789 20.5474 87.5714 19.911C86.9646 19.2669 86.0654 18.8972 84.8739 18.8019C83.768 18.7135 82.884 18.8897 82.2217 19.3306C81.5679 19.7642 81.2065 20.4132 81.1374 21.2777C81.082 21.9708 81.327 22.5821 81.8725 23.1116C82.4264 23.634 83.3922 24.1501 84.77 24.6599C86.1556 25.1704 87.2263 25.6988 87.982 26.2451C88.7462 26.7843 89.2935 27.3884 89.6241 28.0575C89.9624 28.7272 90.097 29.4943 90.0279 30.3587C89.9178 31.7372 89.292 32.8001 88.1507 33.5474C87.01 34.287 85.5402 34.5849 83.7412 34.4411C82.5731 34.3477 81.5006 34.0386 80.5237 33.5138C79.5474 32.9812 78.8139 32.3034 78.3232 31.4804C77.8403 30.6581 77.6384 29.7524 77.7175 28.7633L79.972 28.9436C79.8898 29.9715 80.2025 30.8155 80.91 31.4756C81.6258 32.1284 82.6185 32.5056 83.8879 32.6071C85.0716 32.7017 85.9981 32.5328 86.6675 32.1004C87.3369 31.668 87.7049 31.0352 87.7715 30.2019C87.8382 29.3686 87.5975 28.7028 87.0495 28.2044C86.5022 27.6982 85.4792 27.1619 83.9805 26.5954ZM100.032 35.5083C99.9275 35.2491 99.8618 34.7971 99.835 34.1523C98.7469 35.1155 97.5059 35.5414 96.1119 35.43C94.8659 35.3304 93.8698 34.8981 93.1237 34.1331C92.3861 33.3609 92.0605 32.4336 92.147 31.3511C92.2522 30.035 92.8322 29.0546 93.8869 28.4101C94.95 27.7583 96.3889 27.505 98.2034 27.65L100.306 27.8181L100.385 26.8252C100.446 26.0698 100.268 25.4521 99.8517 24.9721C99.4361 24.4843 98.7883 24.2052 97.9083 24.1349C97.1373 24.0732 96.4754 24.2163 95.9225 24.5639C95.3696 24.9116 95.0711 25.3619 95.0269 25.9148L92.8541 25.7411C92.9045 25.1103 93.175 24.5206 93.6656 23.9721C94.1646 23.4163 94.8094 22.9976 95.6 22.716C96.3984 22.4349 97.257 22.3311 98.176 22.4046C99.6322 22.521 100.744 22.9782 101.511 23.7763C102.278 24.5665 102.627 25.6015 102.556 26.8811L102.091 32.6985C101.998 33.8589 102.072 34.7935 102.313 35.5025L102.298 35.6894L100.032 35.5083ZM96.5777 33.5745C97.2552 33.6286 97.9117 33.5048 98.5471 33.2029C99.1826 32.901 99.659 32.4806 99.9764 31.9417L100.184 29.3484L98.4899 29.213C95.8421 29.0013 94.4563 29.6704 94.3324 31.2201C94.2782 31.8976 94.4617 32.4453 94.8829 32.863C95.3041 33.2807 95.869 33.5178 96.5777 33.5745ZM107.59 36.1124L105.429 35.9397L106.863 17.9969L109.024 18.1697L107.59 36.1124ZM118.963 35.7636C118.043 36.6854 116.769 37.0813 115.141 36.9512C113.794 36.8435 112.797 36.3719 112.151 35.5365C111.513 34.6939 111.251 33.5052 111.366 31.9704L112.023 23.7467L114.184 23.9194L113.532 32.0848C113.378 34.0005 114.081 35.0207 115.638 35.1452C117.289 35.2772 118.436 34.7497 119.08 33.5628L119.815 24.3695L121.976 24.5423L120.965 37.1816L118.91 37.0173L118.963 35.7636ZM128.255 31.8746L126.787 33.1797L126.432 37.6187L124.271 37.4459L125.706 19.5031L127.867 19.6759L126.999 30.528L128.267 29.2303L132.536 25.3864L135.164 25.5965L129.824 30.4834L134.726 38.2817L132.191 38.079L128.255 31.8746ZM138.733 38.602L136.572 38.4292L137.582 25.7898L139.743 25.9626L138.733 38.602ZM137.675 22.4232C137.703 22.0728 137.832 21.7853 138.061 21.5607C138.299 21.3367 138.628 21.2415 139.048 21.2751C139.469 21.3087 139.778 21.455 139.977 21.7138C140.176 21.9727 140.261 22.2773 140.233 22.6277C140.205 22.9782 140.073 23.2615 139.836 23.4777C139.599 23.6939 139.271 23.7852 138.85 23.7516C138.43 23.718 138.12 23.5756 137.92 23.3246C137.729 23.0741 137.647 22.7737 137.675 22.4232ZM150.485 39.5414L148.323 39.3686L149.334 26.7292L151.495 26.902L150.485 39.5414ZM149.427 23.3626C149.455 23.0122 149.583 22.7247 149.813 22.5001C150.05 22.2761 150.379 22.1809 150.8 22.2145C151.22 22.2481 151.53 22.3944 151.729 22.6532C151.928 22.9121 152.013 23.2167 151.985 23.5672C151.957 23.9176 151.825 24.2009 151.588 24.4171C151.351 24.6333 151.022 24.7246 150.602 24.691C150.181 24.6574 149.871 24.515 149.672 24.264C149.48 24.0135 149.399 23.7131 149.427 23.3626ZM161.581 37.0544C161.628 36.4703 161.442 36.0009 161.024 35.6461C160.614 35.2842 159.869 34.9425 158.79 34.6211C157.718 34.3003 156.872 33.9506 156.252 33.5718C155.64 33.1937 155.196 32.7663 154.92 32.2897C154.653 31.8138 154.544 31.2643 154.594 30.6413C154.676 29.6055 155.182 28.7643 156.112 28.1175C157.049 27.4714 158.199 27.2028 159.562 27.3118C160.995 27.4263 162.126 27.889 162.955 28.6998C163.791 29.5112 164.163 30.4932 164.071 31.6458L161.898 31.4721C161.946 30.8802 161.733 30.3499 161.261 29.8811C160.797 29.4129 160.183 29.1484 159.42 29.0873C158.634 29.0245 158.005 29.1466 157.533 29.4538C157.062 29.761 156.804 30.191 156.76 30.7439C156.719 31.2657 156.893 31.6755 157.285 31.9733C157.677 32.271 158.4 32.5836 159.456 32.9109C160.519 33.2389 161.372 33.597 162.015 33.9854C162.658 34.3739 163.12 34.8183 163.401 35.3189C163.691 35.8123 163.809 36.3978 163.755 37.0753C163.664 38.2045 163.14 39.0757 162.182 39.6888C161.224 40.2941 160.025 40.5392 158.585 40.424C157.572 40.3431 156.691 40.0924 155.941 39.6719C155.191 39.2514 154.619 38.7041 154.226 38.03C153.842 37.3488 153.679 36.6344 153.739 35.8867L155.9 36.0595C155.881 36.7869 156.123 37.3862 156.627 37.8575C157.138 38.3216 157.838 38.5891 158.726 38.6601C159.543 38.7255 160.21 38.6142 160.727 38.3263C161.252 38.0313 161.537 37.6073 161.581 37.0544ZM176.411 25.8136L176.166 28.8742L178.526 29.0628L178.392 30.7333L176.033 30.5446L175.406 38.3829C175.366 38.8891 175.44 39.2791 175.63 39.5529C175.82 39.8189 176.169 39.9722 176.675 40.0126C176.924 40.0326 177.27 40.0132 177.714 39.9546L177.574 41.7069C176.993 41.8172 176.434 41.8508 175.896 41.8079C174.931 41.7307 174.226 41.3805 173.782 40.7572C173.338 40.1339 173.159 39.2849 173.245 38.2102L173.872 30.3719L171.57 30.1879L171.704 28.5175L174.005 28.7014L174.25 25.6409L176.411 25.8136ZM183.1 30.9685C184.151 29.8691 185.444 29.3808 186.979 29.5034C189.65 29.7169 190.877 31.3315 190.659 34.3472L189.991 42.6995L187.83 42.5267L188.499 34.1628C188.564 33.251 188.408 32.5606 188.03 32.0915C187.66 31.623 187.042 31.3542 186.178 31.2851C185.477 31.2291 184.847 31.3668 184.287 31.6983C183.728 32.0297 183.276 32.4874 182.931 33.0712L182.211 42.0776L180.05 41.9048L181.485 23.9621L183.646 24.1348L183.1 30.9685ZM198.453 43.6111C196.74 43.4741 195.391 42.802 194.406 41.5946C193.421 40.3795 193.005 38.8296 193.155 36.945L193.187 36.5479C193.287 35.2941 193.614 34.1955 194.168 33.2522C194.729 32.3018 195.461 31.5844 196.362 31.0999C197.271 30.6083 198.228 30.4027 199.232 30.483C200.876 30.6143 202.11 31.2577 202.934 32.413C203.759 33.5683 204.091 35.1545 203.929 37.1715L203.857 38.0709L195.295 37.3865C195.226 38.635 195.508 39.6724 196.139 40.4988C196.779 41.318 197.637 41.7706 198.711 41.8565C199.474 41.9175 200.133 41.8134 200.688 41.5443C201.242 41.2751 201.739 40.8994 202.177 40.4171L203.415 41.5506C202.225 43.0936 200.572 43.7804 198.453 43.6111ZM199.091 32.2586C198.218 32.1888 197.461 32.4496 196.818 33.0409C196.176 33.6244 195.739 34.4829 195.507 35.6165L201.838 36.1226L201.851 35.9591C201.877 34.856 201.649 33.9835 201.167 33.3415C200.686 32.6918 199.994 32.3308 199.091 32.2586ZM223.276 42.3625L226.478 32.8961L228.639 33.0689L223.949 45.4141L222.197 45.274L219.891 35.4496L216.135 44.7894L214.382 44.6493L211.725 31.7167L213.874 31.8885L215.606 41.5494L219.306 32.3227L221.047 32.4619L223.276 42.3625ZM229.779 39.4025C229.878 38.1642 230.208 37.0699 230.77 36.1195C231.34 35.1696 232.079 34.4606 232.986 33.9924C233.901 33.5247 234.916 33.3354 236.029 33.4245C237.75 33.562 239.093 34.2689 240.057 35.5451C241.028 36.8219 241.435 38.4493 241.277 40.4274L241.265 40.5793C241.166 41.8097 240.84 42.8966 240.287 43.8398C239.742 44.7759 239.008 45.4814 238.084 45.9562C237.168 46.4316 236.142 46.6238 235.005 46.533C233.292 46.396 231.949 45.6891 230.977 44.4123C230.014 43.1361 229.61 41.5168 229.767 39.5543L229.779 39.4025ZM231.931 39.8331C231.819 41.2349 232.052 42.3861 232.631 43.2866C233.217 44.1877 234.056 44.6819 235.146 44.769C236.244 44.8568 237.15 44.4982 237.865 43.6933C238.581 42.8805 239 41.6992 239.124 40.1495C239.235 38.7633 238.994 37.6154 238.4 36.7059C237.815 35.7891 236.978 35.2872 235.887 35.2C234.82 35.1148 233.926 35.4704 233.204 36.267C232.482 37.0635 232.058 38.2522 231.931 39.8331ZM250.446 36.7635C250.123 36.6829 249.771 36.6273 249.389 36.5968C247.972 36.4835 246.962 37.0102 246.359 38.1768L245.642 47.1482L243.481 46.9754L244.491 34.336L246.594 34.5041L246.512 35.9671C247.311 34.8945 248.361 34.4102 249.661 34.5142C250.082 34.5478 250.397 34.6279 250.606 34.7543L250.446 36.7635ZM253.936 47.8112L251.775 47.6384L253.209 29.6956L255.37 29.8684L253.936 47.8112ZM257.393 41.6217C257.548 39.6825 258.132 38.1617 259.145 37.0593C260.159 35.949 261.409 35.4533 262.897 35.5722C264.376 35.6905 265.508 36.2904 266.291 37.3719L266.818 30.7835L268.979 30.9563L267.545 48.899L265.559 48.7403L265.562 47.3768C264.613 48.3669 263.367 48.8002 261.825 48.677C260.361 48.5599 259.214 47.8647 258.383 46.5913C257.56 45.3186 257.226 43.7165 257.38 41.7852L257.393 41.6217ZM259.535 42.0397C259.42 43.4727 259.626 44.6177 260.153 45.475C260.681 46.3322 261.466 46.8025 262.509 46.8859C263.88 46.9955 264.93 46.4603 265.659 45.2803L266.123 39.4746C265.572 38.2314 264.627 37.5562 263.287 37.4492C262.228 37.3645 261.37 37.7074 260.713 38.4778C260.056 39.2481 259.663 40.4355 259.535 42.0397ZM272.038 36.9613L270.878 36.0222C271.683 35.0677 272.143 34.0306 272.256 32.9111L272.39 31.229L274.528 31.3998L274.406 32.9184C274.336 33.6966 274.079 34.4598 273.636 35.208C273.2 35.9491 272.667 36.5336 272.038 36.9613ZM282.017 46.682C282.064 46.0979 281.878 45.6285 281.46 45.2737C281.05 44.9117 280.305 44.5701 279.226 44.2487C278.154 43.9279 277.308 43.5781 276.688 43.1994C276.076 42.8212 275.632 42.3939 275.356 41.9173C275.089 41.4413 274.98 40.8918 275.03 40.2688C275.112 39.2331 275.619 38.3918 276.548 37.7451C277.485 37.099 278.635 36.8304 279.998 36.9393C281.431 37.0539 282.562 37.5165 283.391 38.3273C284.227 39.1387 284.599 40.1207 284.507 41.2733L282.334 41.0996C282.382 40.5078 282.169 39.9774 281.697 39.5087C281.233 39.0405 280.62 38.7759 279.856 38.7149C279.07 38.652 278.441 38.7742 277.97 39.0813C277.498 39.3885 277.241 39.8186 277.196 40.3715C277.155 40.8933 277.33 41.303 277.721 41.6008C278.113 41.8986 278.836 42.2111 279.892 42.5385C280.955 42.8664 281.808 43.2246 282.451 43.613C283.094 44.0014 283.556 44.4459 283.837 44.9465C284.127 45.4399 284.245 46.0253 284.191 46.7029C284.1 47.8321 283.576 48.7032 282.618 49.3163C281.66 49.9216 280.461 50.1667 279.021 50.0515C278.008 49.9706 277.127 49.7199 276.377 49.2994C275.627 48.8789 275.055 48.3316 274.662 47.6576C274.278 46.9763 274.116 46.2619 274.175 45.5143L276.336 45.6871C276.317 46.4144 276.56 47.0137 277.063 47.485C277.574 47.9491 278.274 48.2167 279.162 48.2876C279.979 48.353 280.647 48.2418 281.163 47.9539C281.689 47.6589 281.973 47.2349 282.017 46.682ZM292.602 44.4245C292.701 43.1862 293.031 42.0919 293.593 41.1415C294.163 40.1917 294.902 39.4826 295.809 39.0144C296.724 38.5468 297.739 38.3575 298.852 38.4465C300.573 38.5841 301.916 39.2909 302.88 40.5671C303.851 41.8439 304.258 43.4713 304.1 45.4494L304.088 45.6013C303.989 46.8317 303.663 47.9186 303.11 48.8618C302.565 49.7979 301.831 50.5034 300.907 50.9782C299.991 51.4536 298.965 51.6459 297.828 51.555C296.115 51.418 294.772 50.7111 293.8 49.4343C292.837 48.1582 292.433 46.5388 292.59 44.5763L292.602 44.4245ZM294.754 44.8552C294.642 46.2569 294.875 47.4081 295.454 48.3086C296.04 49.2098 296.879 49.7039 297.969 49.7911C299.067 49.8788 299.973 49.5202 300.688 48.7153C301.404 47.9025 301.823 46.7213 301.947 45.1715C302.058 43.7853 301.817 42.6374 301.223 41.7279C300.638 40.8112 299.801 40.3092 298.71 40.2221C297.643 40.1368 296.749 40.4924 296.027 41.289C295.305 42.0855 294.881 43.2743 294.754 44.8552ZM308.652 52.1851L306.491 52.0124L307.925 34.0696L310.086 34.2423L308.652 52.1851ZM312.109 45.9956C312.264 44.0565 312.848 42.5357 313.861 41.4332C314.875 40.3229 316.125 39.8273 317.613 39.9462C319.092 40.0644 320.224 40.6643 321.007 41.7458L321.534 35.1575L323.695 35.3302L322.261 53.273L320.275 53.1142L320.278 51.7508C319.329 52.7408 318.084 53.1742 316.542 53.0509C315.077 52.9339 313.93 52.2387 313.099 50.9653C312.276 49.6925 311.942 48.0905 312.096 46.1592L312.109 45.9956ZM314.251 46.4137C314.136 47.8466 314.342 48.9917 314.87 49.8489C315.397 50.7061 316.182 51.1765 317.226 51.2599C318.596 51.3695 319.646 50.8342 320.375 49.6542L320.839 43.8485C320.288 42.6053 319.343 41.9302 318.003 41.8231C316.944 41.7385 316.086 42.0813 315.429 42.8517C314.772 43.6221 314.379 44.8094 314.251 46.4137ZM330.851 54.1948C329.138 54.0579 327.789 53.3857 326.804 52.1784C325.819 50.9633 325.403 49.4134 325.553 47.5288L325.585 47.1316C325.685 45.8778 326.012 44.7793 326.566 43.836C327.127 42.8856 327.859 42.1681 328.76 41.6837C329.669 41.1921 330.626 40.9864 331.63 41.0667C333.274 41.1981 334.508 41.8414 335.332 42.9968C336.157 44.1521 336.488 45.7382 336.327 47.7552L336.255 48.6547L327.693 47.9702C327.624 49.2187 327.906 50.2562 328.537 51.0826C329.177 51.9018 330.035 52.3544 331.109 52.4403C331.872 52.5013 332.531 52.3972 333.086 52.128C333.64 51.8589 334.137 51.4831 334.575 51.0009L335.813 52.1344C334.623 53.6774 332.97 54.3642 330.851 54.1948ZM331.489 42.8423C330.616 42.7726 329.859 43.0334 329.216 43.6246C328.574 44.2081 328.137 45.0667 327.905 46.2002L334.236 46.7064L334.249 46.5428C334.275 45.4398 334.047 44.5673 333.565 43.9253C333.084 43.2755 332.392 42.9145 331.489 42.8423ZM345.939 51.7918C345.985 51.2077 345.799 50.7383 345.381 50.3835C344.971 50.0215 344.226 49.6799 343.147 49.3585C342.075 49.0377 341.229 48.6879 340.609 48.3091C339.997 47.931 339.553 47.5037 339.277 47.0271C339.01 46.5511 338.901 46.0016 338.951 45.3786C339.034 44.3429 339.54 43.5016 340.469 42.8549C341.406 42.2087 342.557 41.9402 343.919 42.0491C345.352 42.1636 346.483 42.6263 347.312 43.4371C348.148 44.2485 348.52 45.2305 348.428 46.3831L346.255 46.2094C346.303 45.6176 346.09 45.0872 345.618 44.6184C345.154 44.1503 344.541 43.8857 343.777 43.8247C342.991 43.7618 342.362 43.884 341.891 44.1911C341.419 44.4983 341.162 44.9284 341.117 45.4813C341.076 46.003 341.251 46.4128 341.642 46.7106C342.034 47.0084 342.757 47.3209 343.813 47.6482C344.876 47.9762 345.729 48.3344 346.372 48.7228C347.015 49.1112 347.477 49.5557 347.758 50.0563C348.048 50.5497 348.166 51.1351 348.112 51.8127C348.021 52.9419 347.497 53.813 346.539 54.4261C345.582 55.0314 344.382 55.2765 342.942 55.1613C341.929 55.0804 341.048 54.8297 340.298 54.4092C339.548 53.9887 338.976 53.4414 338.583 52.7674C338.199 52.0861 338.037 51.3717 338.096 50.6241L340.258 50.7968C340.239 51.5242 340.481 52.1235 340.984 52.5948C341.495 53.0589 342.195 53.3265 343.083 53.3974C343.9 53.4628 344.568 53.3515 345.084 53.0637C345.61 52.7687 345.894 52.3447 345.939 51.7918ZM354.834 40.0766L354.589 43.1372L356.949 43.3258L356.815 44.9962L354.456 44.8076L353.829 52.6459C353.789 53.1521 353.863 53.5421 354.053 53.8159C354.243 54.0819 354.592 54.2351 355.098 54.2756C355.347 54.2955 355.693 54.2762 356.137 54.2176L355.997 55.9698C355.416 56.0801 354.857 56.1138 354.319 56.0709C353.354 55.9937 352.649 55.6434 352.205 55.0201C351.761 54.3968 351.582 53.5478 351.668 52.4731L352.295 44.6349L349.993 44.4509L350.127 42.7804L352.428 42.9644L352.673 39.9039L354.834 40.0766ZM364.396 50.1753C364.551 48.2362 365.135 46.7154 366.147 45.6129C367.161 44.5027 368.412 44.007 369.899 44.1259C371.379 44.2442 372.51 44.8441 373.294 45.9256L373.82 39.3372L375.981 39.51L374.547 57.4527L372.561 57.294L372.564 55.9305C371.615 56.9205 370.37 57.3539 368.828 57.2306C367.364 57.1136 366.216 56.4184 365.385 55.145C364.562 53.8723 364.228 52.2702 364.382 50.3389L364.396 50.1753ZM366.537 50.5934C366.422 52.0263 366.629 53.1714 367.156 54.0286C367.683 54.8859 368.468 55.3562 369.512 55.4396C370.882 55.5492 371.932 55.0139 372.662 53.8339L373.126 48.0282C372.575 46.785 371.629 46.1099 370.29 46.0028C369.231 45.9182 368.372 46.261 367.715 47.0314C367.058 47.8018 366.665 48.9891 366.537 50.5934ZM377.854 51.2394C377.953 50.0012 378.283 48.9068 378.845 47.9564C379.415 47.0066 380.153 46.2975 381.06 45.8293C381.976 45.3617 382.99 45.1724 384.104 45.2614C385.825 45.399 387.167 46.1059 388.131 47.382C389.103 48.6588 389.51 50.2863 389.351 52.2643L389.339 52.4162C389.241 53.6466 388.915 54.7335 388.361 55.6768C387.816 56.6129 387.082 57.3183 386.158 57.7931C385.243 58.2685 384.216 58.4608 383.079 58.3699C381.366 58.2329 380.024 57.5261 379.052 56.2493C378.088 54.9731 377.685 53.3537 377.841 51.3913L377.854 51.2394ZM380.006 51.6701C379.894 53.0719 380.127 54.223 380.705 55.1235C381.292 56.0247 382.13 56.5188 383.22 56.606C384.318 56.6938 385.225 56.3352 385.94 55.5302C386.655 54.7174 387.075 53.5362 387.199 51.9864C387.31 50.6002 387.068 49.4524 386.475 48.5428C385.89 47.6261 385.052 47.1241 383.962 47.037C382.895 46.9517 382 47.3073 381.278 48.1039C380.556 48.9005 380.132 50.0892 380.006 51.6701ZM391.555 52.3464C391.712 50.3762 392.293 48.8473 393.297 47.7597C394.302 46.6644 395.555 46.1768 397.058 46.297C398.6 46.4203 399.76 47.0616 400.537 48.2209L400.754 46.8276L402.729 46.9854L401.743 59.321C401.612 60.9564 401.022 62.2064 399.973 63.0709C398.932 63.936 397.594 64.3032 395.959 64.1724C395.048 64.0996 394.171 63.8336 393.33 63.3745C392.489 62.9154 391.866 62.3287 391.461 61.6145L392.686 60.4075C393.521 61.6264 394.608 62.2893 395.948 62.3964C396.999 62.4804 397.841 62.2499 398.472 61.7047C399.111 61.1602 399.474 60.3505 399.56 59.2758L399.646 58.1895C398.702 59.1172 397.483 59.5213 395.987 59.4017C394.508 59.2835 393.356 58.5918 392.532 57.3269C391.716 56.0625 391.391 54.4024 391.555 52.3464ZM393.708 52.7654C393.594 54.1906 393.797 55.3353 394.315 56.1997C394.835 57.0563 395.62 57.5267 396.671 57.6107C398.034 57.7197 399.084 57.1805 399.822 55.9933L400.283 50.2227C399.718 48.9627 398.773 48.2798 397.449 48.1739C396.398 48.0899 395.544 48.4331 394.886 49.2035C394.229 49.9739 393.836 51.1612 393.708 52.7654ZM422.118 55.0365C421.963 56.9678 421.395 58.4859 420.413 59.5909C419.432 60.6881 418.194 61.1769 416.699 61.0574C415.102 60.9298 413.913 60.2665 413.131 59.0676L412.909 60.5193L410.923 60.3606L412.358 42.4178L414.519 42.5906L413.984 49.2841C414.942 48.2713 416.189 47.8263 417.723 47.9489C419.257 48.0715 420.414 48.7479 421.193 49.978C421.981 51.2087 422.294 52.8325 422.132 54.8495L422.118 55.0365ZM419.976 54.6184C420.094 53.1465 419.9 51.9868 419.396 51.1392C418.892 50.2916 418.106 49.8252 417.039 49.7399C415.614 49.626 414.537 50.2061 413.808 51.4802L413.371 56.9471C413.927 58.3239 414.906 59.0684 416.308 59.1804C417.344 59.2632 418.182 58.9266 418.822 58.1705C419.463 57.4145 419.847 56.2304 419.976 54.6184ZM431.322 51.2226C430.999 51.1419 430.647 51.0864 430.265 51.0559C428.848 50.9426 427.838 51.4692 427.235 52.6358L426.518 61.6072L424.357 61.4345L425.367 48.7951L427.47 48.9632L427.388 50.4262C428.187 49.3536 429.237 48.8693 430.538 48.9733C430.958 49.0069 431.273 49.0869 431.482 49.2134L431.322 51.2226ZM437.457 62.7168C435.743 62.5798 434.394 61.9077 433.409 60.7003C432.425 59.4852 432.008 57.9353 432.158 56.0507L432.19 55.6536C432.29 54.3997 432.617 53.3012 433.171 52.3579C433.733 51.4075 434.464 50.6901 435.365 50.2056C436.274 49.714 437.231 49.5084 438.236 49.5887C439.879 49.72 441.113 50.3634 441.937 51.5187C442.762 52.674 443.094 54.2602 442.932 56.2772L442.861 57.1766L434.298 56.4922C434.23 57.7407 434.511 58.7781 435.143 59.6045C435.782 60.4237 436.64 60.8763 437.714 60.9622C438.478 61.0232 439.136 60.9191 439.691 60.6499C440.245 60.3808 440.742 60.0051 441.18 59.5228L442.418 60.6563C441.229 62.1993 439.575 62.8861 437.457 62.7168ZM438.094 51.3642C437.222 51.2945 436.464 51.5553 435.821 52.1466C435.179 52.7301 434.742 53.5886 434.51 54.7222L440.841 55.2283L440.855 55.0648C440.88 53.9617 440.652 53.0892 440.17 52.4472C439.689 51.7975 438.997 51.4365 438.094 51.3642ZM450.143 63.7309C448.429 63.5939 447.08 62.9218 446.095 61.7144C445.111 60.4993 444.694 58.9495 444.845 57.0648L444.876 56.6677C444.977 55.4139 445.303 54.3153 445.857 53.372C446.419 52.4216 447.15 51.7042 448.051 51.2197C448.96 50.7281 449.917 50.5225 450.922 50.6028C452.565 50.7341 453.799 51.3775 454.624 52.5328C455.448 53.6881 455.78 55.2743 455.619 57.2913L455.547 58.1907L446.984 57.5063C446.916 58.7548 447.197 59.7922 447.829 60.6186C448.469 61.4378 449.326 61.8904 450.401 61.9763C451.164 62.0373 451.823 61.9332 452.377 61.6641C452.931 61.3949 453.428 61.0192 453.866 60.5369L455.104 61.6704C453.915 63.2134 452.261 63.9002 450.143 63.7309ZM450.78 52.3784C449.908 52.3086 449.15 52.5694 448.507 53.1607C447.865 53.7442 447.428 54.6027 447.196 55.7363L453.528 56.2424L453.541 56.0789C453.566 54.9758 453.338 54.1033 452.856 53.4613C452.375 52.8116 451.683 52.4506 450.78 52.3784ZM457.59 57.6252C457.745 55.6861 458.329 54.1653 459.342 53.0628C460.356 51.9526 461.606 51.4569 463.094 51.5758C464.574 51.6941 465.705 52.294 466.489 53.3755L467.015 46.7871L469.176 46.9599L467.742 64.9026L465.756 64.7439L465.759 63.3804C464.81 64.3704 463.565 64.8038 462.023 64.6806C460.559 64.5635 459.411 63.8683 458.58 62.5949C457.757 61.3222 457.423 59.7201 457.577 57.7888L457.59 57.6252ZM459.732 58.0433C459.617 59.4762 459.824 60.6213 460.351 61.4785C460.878 62.3358 461.663 62.8061 462.707 62.8895C464.077 62.9991 465.127 62.4639 465.856 61.2838L466.321 55.4781C465.769 54.235 464.824 53.5598 463.485 53.4527C462.426 53.3681 461.567 53.7109 460.91 54.4813C460.253 55.2517 459.86 56.4391 459.732 58.0433ZM471.244 64.0422C471.273 63.6684 471.407 63.3656 471.645 63.1338C471.891 62.9027 472.236 62.8048 472.68 62.8403C473.124 62.8758 473.449 63.0272 473.655 63.2944C473.868 63.5623 473.96 63.8832 473.93 64.257C473.902 64.6152 473.761 64.9057 473.508 65.1284C473.263 65.3518 472.918 65.4457 472.474 65.4102C472.031 65.3748 471.705 65.2273 471.499 64.9678C471.3 64.709 471.215 64.4004 471.244 64.0422ZM48.4907 44.2179L43.0238 43.7809L41.8117 58.9435L39.5805 58.7651L40.7926 43.6026L35.3374 43.1665L35.4849 41.3208L48.6383 42.3723L48.4907 44.2179ZM52.5122 48.6188C53.5641 47.5194 54.8571 47.0311 56.3913 47.1537C59.0624 47.3672 60.2892 48.9818 60.0717 51.9975L59.404 60.3498L57.2429 60.177L57.9115 51.8131C57.9766 50.9013 57.8202 50.2109 57.4423 49.7418C57.0722 49.2733 56.4549 49.0045 55.5905 48.9354C54.8896 48.8794 54.2594 49.0171 53.7 49.3486C53.1406 49.68 52.6886 50.1377 52.3441 50.7214L51.6241 59.7279L49.4631 59.5551L50.8974 41.6124L53.0585 41.7851L52.5122 48.6188ZM67.8661 61.2614C66.1528 61.1244 64.8036 60.4523 63.8186 59.2449C62.8342 58.0298 62.4173 56.4799 62.5679 54.5953L62.5997 54.1982C62.6999 52.9443 63.0268 51.8458 63.5802 50.9025C64.1421 49.9521 64.8735 49.2347 65.7744 48.7502C66.6836 48.2586 67.6405 48.053 68.6451 48.1333C70.2883 48.2646 71.5223 48.908 72.3469 50.0633C73.1715 51.2186 73.5032 52.8048 73.342 54.8218L73.2701 55.7212L64.7075 55.0368C64.6391 56.2853 64.9206 57.3227 65.552 58.1491C66.1919 58.9683 67.0492 59.4209 68.1239 59.5068C68.8871 59.5678 69.5459 59.4637 70.1004 59.1945C70.6549 58.9254 71.1512 58.5497 71.5895 58.0674L72.8273 59.2009C71.6381 60.7439 69.9843 61.4307 67.8661 61.2614ZM68.5032 49.9088C67.631 49.8391 66.8734 50.0999 66.2305 50.6912C65.5882 51.2747 65.1512 52.1332 64.9196 53.2668L71.2509 53.7729L71.264 53.6094C71.2895 52.5063 71.0614 51.6338 70.5798 50.9918C70.0988 50.3421 69.4066 49.9811 68.5032 49.9088ZM79.5506 58.7744L83.2517 49.536L85.5646 49.7209L79.3169 63.9049C78.3622 65.9447 77.0283 66.8961 75.315 66.7591L74.9089 66.6914L74.115 66.4751L74.2551 64.7229L74.8354 64.8163C75.5675 64.8748 76.1478 64.7723 76.5764 64.5087C77.0128 64.2458 77.3949 63.7316 77.7225 62.9663L78.3042 61.7196L74.7943 48.8599L77.154 49.0486L79.5506 58.7744ZM100.231 63.6134C100.126 63.3543 100.06 62.9023 100.034 62.2575C98.9455 63.2207 97.7045 63.6466 96.3105 63.5352C95.0645 63.4356 94.0684 63.0033 93.3223 62.2383C92.5846 61.4661 92.2591 60.5388 92.3456 59.4563C92.4508 58.1402 93.0308 57.1598 94.0855 56.5152C95.1486 55.8635 96.5874 55.6102 98.4019 55.7552L100.505 55.9233L100.584 54.9304C100.644 54.175 100.466 53.5573 100.05 53.0773C99.6347 52.5895 98.9869 52.3104 98.1069 52.2401C97.3359 52.1784 96.674 52.3215 96.1211 52.6691C95.5682 53.0168 95.2696 53.4671 95.2254 54.02L93.0527 53.8463C93.1031 53.2155 93.3736 52.6258 93.8642 52.0773C94.3632 51.5215 95.008 51.1028 95.7986 50.8211C96.5969 50.5401 97.4556 50.4363 98.3745 50.5098C99.8308 50.6262 100.942 51.0834 101.709 51.8815C102.477 52.6717 102.825 53.7067 102.754 54.9863L102.289 60.8037C102.197 61.9641 102.271 62.8987 102.512 63.6077L102.497 63.7946L100.231 63.6134ZM96.7763 61.6797C97.4538 61.7338 98.1103 61.61 98.7457 61.3081C99.3812 61.0062 99.8576 60.5858 100.175 60.0469L100.382 57.4536L98.6885 57.3182C96.0407 57.1065 94.6548 57.7756 94.5309 59.3253C94.4768 60.0028 94.6603 60.5504 95.0815 60.9681C95.5026 61.3858 96.0676 61.623 96.7763 61.6797ZM116.612 58.7039C116.458 60.6275 115.894 62.142 114.92 63.2476C113.946 64.3532 112.707 64.8459 111.204 64.7258C109.67 64.6031 108.502 64.0199 107.7 62.9761L107.213 69.0622L105.052 68.8894L106.451 51.3906L108.425 51.5484L108.418 52.9586C109.386 51.9386 110.652 51.4912 112.217 51.6164C113.736 51.7378 114.889 52.406 115.678 53.6212C116.474 54.8369 116.791 56.465 116.627 58.5053L116.612 58.7039ZM114.47 58.2859C114.584 56.8607 114.37 55.7111 113.829 54.8371C113.287 53.963 112.487 53.4837 111.428 53.399C110.12 53.2944 109.092 53.7961 108.345 54.9042L107.862 60.9435C108.417 62.1478 109.36 62.8031 110.691 62.9096C111.727 62.9924 112.581 62.6492 113.254 61.8801C113.935 61.1038 114.341 59.9057 114.47 58.2859ZM130.045 59.7778C129.892 61.7013 129.328 63.2159 128.354 64.3215C127.38 65.4271 126.141 65.9198 124.638 65.7997C123.104 65.677 121.936 65.0938 121.134 64.05L120.647 70.1361L118.486 69.9633L119.885 52.4644L121.859 52.6222L121.852 54.0324C122.819 53.0125 124.085 52.5651 125.651 52.6902C127.169 52.8116 128.323 53.4799 129.111 54.695C129.908 55.9108 130.224 57.5388 130.061 59.5792L130.045 59.7778ZM127.904 59.3597C128.018 57.9346 127.804 56.785 127.263 55.9109C126.721 55.0369 125.921 54.5575 124.862 54.4729C123.553 54.3683 122.526 54.87 121.779 55.9781L121.296 62.0174C121.85 63.2217 122.793 63.877 124.125 63.9835C125.161 64.0663 126.015 63.7231 126.688 62.9539C127.369 62.1776 127.774 60.9796 127.904 59.3597ZM137.534 66.8306C135.821 66.6936 134.472 66.0215 133.487 64.8142C132.503 63.599 132.086 62.0492 132.236 60.1646L132.268 59.7674C132.368 58.5136 132.695 57.415 133.249 56.4718C133.811 55.5213 134.542 54.8039 135.443 54.3194C136.352 53.8278 137.309 53.6222 138.314 53.7025C139.957 53.8338 141.191 54.4772 142.015 55.6325C142.84 56.7878 143.172 58.374 143.01 60.391L142.938 61.2905L134.376 60.606C134.307 61.8545 134.589 62.8919 135.22 63.7183C135.86 64.5375 136.718 64.9901 137.792 65.076C138.555 65.137 139.214 65.0329 139.769 64.7638C140.323 64.4946 140.82 64.1189 141.258 63.6367L142.496 64.7702C141.306 66.3131 139.653 66.9999 137.534 66.8306ZM138.172 55.4781C137.299 55.4083 136.542 55.6691 135.899 56.2604C135.257 56.8439 134.82 57.7024 134.588 58.836L140.919 59.3421L140.932 59.1786C140.958 58.0755 140.73 57.203 140.248 56.561C139.767 55.9113 139.075 55.5503 138.172 55.4781ZM152.797 67.8156C152.693 67.5564 152.627 67.1044 152.6 66.4596C151.512 67.4228 150.271 67.8487 148.877 67.7373C147.631 67.6377 146.635 67.2054 145.889 66.4404C145.151 65.6682 144.826 64.7409 144.912 63.6584C145.017 62.3423 145.597 61.3619 146.652 60.7174C147.715 60.0656 149.154 59.8123 150.969 59.9574L153.071 60.1254L153.151 59.1325C153.211 58.3771 153.033 57.7594 152.617 57.2794C152.201 56.7916 151.554 56.5125 150.674 56.4422C149.903 56.3806 149.241 56.5236 148.688 56.8713C148.135 57.2189 147.836 57.6692 147.792 58.2222L145.619 58.0485C145.67 57.4177 145.94 56.828 146.431 56.2794C146.93 55.7236 147.575 55.3049 148.365 55.0233C149.164 54.7423 150.022 54.6385 150.941 54.7119C152.398 54.8283 153.509 55.2856 154.276 56.0836C155.044 56.8738 155.392 57.9088 155.321 59.1885L154.856 65.0058C154.763 66.1662 154.837 67.1009 155.079 67.8098L155.064 67.9967L152.797 67.8156ZM149.343 65.8818C150.02 65.936 150.677 65.8121 151.312 65.5102C151.948 65.2083 152.424 64.7879 152.742 64.249L152.949 61.6557L151.255 61.5203C148.607 61.3087 147.222 61.9777 147.098 63.5274C147.043 64.205 147.227 64.7526 147.648 65.1703C148.069 65.588 148.634 65.8252 149.343 65.8818ZM164.972 58.0202C164.649 57.9395 164.297 57.884 163.916 57.8534C162.498 57.7401 161.488 58.2668 160.886 59.4334L160.169 68.4048L158.007 68.2321L159.018 55.5927L161.12 55.7608L161.039 57.2238C161.838 56.1512 162.887 55.6669 164.188 55.7709C164.609 55.8045 164.923 55.8845 165.133 56.011L164.972 58.0202ZM174.397 69.5422L172.235 69.3694L173.246 56.7301L175.407 56.9028L174.397 69.5422ZM173.339 53.3635C173.367 53.013 173.495 52.7255 173.725 52.5009C173.962 52.2769 174.291 52.1817 174.712 52.2153C175.132 52.249 175.442 52.3952 175.641 52.654C175.84 52.9129 175.925 53.2175 175.897 53.568C175.869 53.9184 175.736 54.2017 175.5 54.4179C175.263 54.6341 174.934 54.7254 174.514 54.6918C174.093 54.6582 173.783 54.5159 173.584 54.2648C173.392 54.0144 173.311 53.7139 173.339 53.3635ZM180.921 57.3436L180.864 58.9379C181.926 57.8002 183.237 57.2936 184.794 57.4181C187.465 57.6316 188.692 59.2462 188.475 62.2619L187.807 70.6142L185.646 70.4414L186.314 62.0775C186.379 61.1657 186.223 60.4753 185.845 60.0062C185.475 59.5377 184.858 59.2689 183.993 59.1998C183.292 59.1438 182.662 59.2815 182.103 59.613C181.543 59.9444 181.091 60.4021 180.747 60.9859L180.027 69.9923L177.866 69.8195L178.876 57.1802L180.921 57.3436ZM204.803 71.9729C204.699 71.7137 204.633 71.2617 204.606 70.6169C203.518 71.5802 202.277 72.0061 200.883 71.8946C199.637 71.795 198.641 71.3627 197.895 70.5977C197.157 69.8255 196.832 68.8982 196.918 67.8157C197.023 66.4996 197.603 65.5193 198.658 64.8747C199.721 64.223 201.16 63.9696 202.975 64.1147L205.077 64.2828L205.157 63.2898C205.217 62.5344 205.039 61.9167 204.623 61.4367C204.207 60.9489 203.56 60.6699 202.68 60.5995C201.909 60.5379 201.247 60.6809 200.694 61.0286C200.141 61.3762 199.842 61.8265 199.798 62.3795L197.625 62.2058C197.676 61.575 197.946 60.9853 198.437 60.4367C198.936 59.8809 199.581 59.4622 200.371 59.1806C201.17 58.8996 202.028 58.7958 202.947 58.8692C204.403 58.9857 205.515 59.4429 206.282 60.2409C207.05 61.0311 207.398 62.0661 207.327 63.3458L206.862 69.1631C206.769 70.3235 206.843 71.2582 207.085 71.9671L207.07 72.154L204.803 71.9729ZM201.349 70.0391C202.026 70.0933 202.683 69.9694 203.318 69.6675C203.954 69.3656 204.43 68.9452 204.748 68.4063L204.955 65.813L203.261 65.6776C200.613 65.466 199.227 66.135 199.104 67.6847C199.049 68.3623 199.233 68.9099 199.654 69.3276C200.075 69.7453 200.64 69.9825 201.349 70.0391ZM213.068 59.9134L213.011 61.5077C214.074 60.37 215.384 59.8634 216.942 59.9879C219.613 60.2015 220.84 61.8161 220.622 64.8318L219.954 73.184L217.793 73.0113L218.462 64.6473C218.527 63.7356 218.371 63.0451 217.993 62.576C217.623 62.1075 217.005 61.8387 216.141 61.7696C215.44 61.7136 214.81 61.8513 214.25 62.1828C213.691 62.5143 213.239 62.9719 212.894 63.5557L212.174 72.5621L210.013 72.3894L211.024 59.75L213.068 59.9134ZM228.406 72.3196C229.177 72.3812 229.869 72.2014 230.482 71.7802C231.096 71.359 231.462 70.8005 231.58 70.1046L233.625 70.268C233.528 70.9891 233.224 71.6584 232.712 72.2758C232.2 72.8933 231.543 73.3659 230.741 73.6936C229.947 74.022 229.121 74.1519 228.265 74.0835C226.543 73.9459 225.219 73.2639 224.29 72.0376C223.37 70.8041 222.989 69.1905 223.149 67.1969L223.178 66.8347C223.276 65.6043 223.589 64.5282 224.117 63.6064C224.646 62.6846 225.352 61.9926 226.235 61.5303C227.126 61.0686 228.148 60.8838 229.301 60.9759C230.718 61.0892 231.86 61.6076 232.727 62.5312C233.601 63.4554 234.015 64.5975 233.969 65.9575L231.925 65.7941C231.928 64.9714 231.67 64.2768 231.151 63.7102C230.641 63.1364 229.976 62.8169 229.159 62.7515C228.061 62.6637 227.176 62.9927 226.505 63.7385C225.843 64.4771 225.452 65.594 225.332 67.0893L225.299 67.4981C225.183 68.9544 225.393 70.0998 225.93 70.9343C226.467 71.7688 227.292 72.2305 228.406 72.3196ZM238.084 74.6333L235.923 74.4605L236.933 61.8212L239.094 61.9939L238.084 74.6333ZM237.026 58.4546C237.054 58.1041 237.183 57.8166 237.412 57.592C237.65 57.368 237.979 57.2728 238.399 57.3065C238.82 57.3401 239.129 57.4863 239.328 57.7452C239.527 58.004 239.612 58.3086 239.584 58.6591C239.556 59.0095 239.424 59.2929 239.187 59.5091C238.95 59.7253 238.622 59.8165 238.201 59.7829C237.781 59.7493 237.471 59.607 237.271 59.3559C237.08 59.1055 236.998 58.805 237.026 58.4546ZM246.78 75.5636C245.066 75.4266 243.717 74.7544 242.732 73.5471C241.748 72.332 241.331 70.7821 241.482 68.8975L241.513 68.5003C241.614 67.2465 241.94 66.148 242.494 65.2047C243.056 64.2543 243.787 63.5368 244.688 63.0524C245.597 62.5608 246.554 62.3551 247.559 62.4354C249.202 62.5668 250.436 63.2101 251.261 64.3655C252.085 65.5208 252.417 67.1069 252.256 69.1239L252.184 70.0234L243.621 69.3389C243.553 70.5875 243.834 71.6249 244.466 72.4513C245.106 73.2705 245.963 73.7231 247.038 73.809C247.801 73.87 248.46 73.7659 249.014 73.4967C249.568 73.2276 250.065 72.8519 250.503 72.3696L251.741 73.5031C250.552 75.0461 248.898 75.7329 246.78 75.5636ZM247.417 64.211C246.545 64.1413 245.787 64.4021 245.144 64.9934C244.502 65.5768 244.065 66.4354 243.833 67.569L250.165 68.0751L250.178 67.9115C250.203 66.8085 249.975 65.936 249.493 65.294C249.012 64.6442 248.32 64.2832 247.417 64.211ZM257.294 63.4488L257.237 65.0431C258.3 63.9054 259.61 63.3988 261.168 63.5233C263.839 63.7369 265.066 65.3515 264.848 68.3672L264.18 76.7194L262.019 76.5467L262.688 68.1827C262.753 67.2709 262.597 66.5805 262.219 66.1114C261.849 65.6429 261.231 65.3741 260.367 65.305C259.666 65.249 259.036 65.3867 258.476 65.7182C257.917 66.0497 257.465 66.5073 257.121 67.0911L256.401 76.0975L254.24 75.9248L255.25 63.2854L257.294 63.4488ZM271.627 61.5144L271.382 64.575L273.742 64.7636L273.608 66.4341L271.248 66.2454L270.622 74.0837C270.581 74.5899 270.656 74.9799 270.846 75.2537C271.036 75.5197 271.384 75.673 271.891 75.7134C272.14 75.7333 272.486 75.714 272.93 75.6554L272.79 77.4076C272.209 77.5179 271.65 77.5516 271.112 77.5087C270.147 77.4315 269.442 77.0812 268.998 76.4579C268.554 75.8346 268.375 74.9856 268.461 73.911L269.087 66.0727L266.786 65.8887L266.92 64.2183L269.221 64.4022L269.466 61.3417L271.627 61.5144ZM291.781 71.0139L284.41 70.4247L283.929 76.4524L292.491 77.1368L292.345 78.9708L281.539 78.1071L282.899 61.0988L293.587 61.9533L293.44 63.7989L284.994 63.1238L284.557 68.5907L291.928 69.18L291.781 71.0139ZM294.564 72.6824C294.721 70.7121 295.302 69.1832 296.306 68.0957C297.31 67.0003 298.564 66.5128 300.067 66.6329C301.609 66.7562 302.769 67.3975 303.546 68.5569L303.763 67.1635L305.737 67.3213L304.751 79.657C304.62 81.2924 304.031 82.5423 302.982 83.4068C301.941 84.2719 300.603 84.6391 298.967 84.5084C298.056 84.4355 297.18 84.1696 296.339 83.7104C295.498 83.2513 294.875 82.6647 294.469 81.9504L295.694 80.7434C296.53 81.9623 297.617 82.6252 298.956 82.7323C300.008 82.8164 300.849 82.5858 301.481 82.0406C302.12 81.4961 302.482 80.6865 302.568 79.6118L302.655 78.5254C301.711 79.4531 300.491 79.8572 298.996 79.7377C297.516 79.6194 296.365 78.9278 295.541 77.6628C294.725 76.3984 294.399 74.7383 294.564 72.6824ZM296.717 73.1014C296.603 74.5265 296.805 75.6713 297.324 76.5357C297.843 77.3923 298.629 77.8626 299.68 77.9466C301.043 78.0556 302.093 77.5165 302.831 76.3293L303.292 70.5586C302.726 69.2986 301.782 68.6157 300.458 68.5099C299.406 68.4258 298.552 68.769 297.895 69.5394C297.238 70.3098 296.845 71.4971 296.717 73.1014ZM312.386 77.387L316.087 68.1487L318.4 68.3335L312.152 82.5175C311.198 84.5573 309.864 85.5087 308.15 85.3718L307.744 85.304L306.95 85.0877L307.09 83.3355L307.671 83.4289C308.403 83.4875 308.983 83.3849 309.412 83.1214C309.848 82.8584 310.23 82.3443 310.558 81.5789L311.14 80.3322L307.63 67.4726L309.989 67.6612L312.386 77.387ZM330.5 75.8019C330.346 77.7255 329.782 79.24 328.808 80.3456C327.834 81.4512 326.595 81.9439 325.092 81.8238C323.558 81.7012 322.39 81.1179 321.588 80.0741L321.101 86.1602L318.94 85.9874L320.339 68.4886L322.313 68.6464L322.306 70.0566C323.274 69.0366 324.54 68.5892 326.105 68.7144C327.624 68.8358 328.777 69.504 329.566 70.7192C330.362 71.9349 330.679 73.563 330.515 75.6033L330.5 75.8019ZM328.358 75.3839C328.472 73.9587 328.258 72.8091 327.717 71.9351C327.175 71.061 326.375 70.5817 325.316 70.497C324.008 70.3924 322.98 70.8942 322.233 72.0022L321.75 78.0415C322.305 79.2458 323.248 79.9011 324.579 80.0076C325.615 80.0904 326.469 79.7472 327.142 78.9781C327.823 78.2018 328.229 77.0037 328.358 75.3839ZM336.95 66.7363L336.705 69.7968L339.065 69.9855L338.931 71.6559L336.571 71.4673L335.945 79.3056C335.904 79.8118 335.979 80.2018 336.169 80.4756C336.359 80.7416 336.707 80.8948 337.213 80.9353C337.463 80.9552 337.809 80.9359 338.253 80.8773L338.113 82.6295C337.532 82.7398 336.972 82.7735 336.435 82.7305C335.469 82.6533 334.765 82.3031 334.321 81.6798C333.877 81.0565 333.698 80.2075 333.784 79.1328L334.41 71.2945L332.109 71.1106L332.243 69.4401L334.544 69.6241L334.788 66.5635L336.95 66.7363ZM342.937 83.0152L340.776 82.8424L341.786 70.203L343.947 70.3758L342.937 83.0152ZM341.879 66.8364C341.907 66.486 342.036 66.1985 342.265 65.9739C342.503 65.7499 342.832 65.6547 343.252 65.6883C343.673 65.7219 343.982 65.8682 344.181 66.127C344.38 66.3859 344.465 66.6905 344.437 67.0409C344.409 67.3914 344.277 67.6747 344.04 67.8909C343.804 68.1071 343.475 68.1984 343.054 68.1648C342.634 68.1312 342.324 67.9888 342.124 67.7378C341.933 67.4873 341.851 67.1869 341.879 66.8364ZM354.21 83.9163C354.105 83.6571 354.039 83.2051 354.012 82.5603C352.924 83.5235 351.683 83.9494 350.289 83.838C349.043 83.7384 348.047 83.3061 347.301 82.5411C346.563 81.7689 346.238 80.8416 346.324 79.7591C346.43 78.443 347.01 77.4626 348.064 76.8181C349.127 76.1663 350.566 75.913 352.381 76.0581L354.483 76.2261L354.563 75.2332C354.623 74.4778 354.445 73.8601 354.029 73.3801C353.614 72.8923 352.966 72.6132 352.086 72.5429C351.315 72.4813 350.653 72.6243 350.1 72.972C349.547 73.3196 349.248 73.7699 349.204 74.3229L347.032 74.1492C347.082 73.5184 347.352 72.9287 347.843 72.3801C348.342 71.8243 348.987 71.4056 349.777 71.124C350.576 70.843 351.434 70.7392 352.353 70.8126C353.81 70.929 354.921 71.3863 355.688 72.1843C356.456 72.9745 356.804 74.0095 356.733 75.2892L356.268 81.1065C356.175 82.2669 356.25 83.2016 356.491 83.9105L356.476 84.0974L354.21 83.9163ZM350.755 81.9825C351.433 82.0367 352.089 81.9128 352.725 81.6109C353.36 81.309 353.836 80.8886 354.154 80.3497L354.361 77.7564L352.667 77.621C350.02 77.4094 348.634 78.0784 348.51 79.6281C348.456 80.3057 348.639 80.8533 349.06 81.271C349.482 81.6887 350.046 81.9259 350.755 81.9825ZM362.474 71.8568L362.417 73.4511C363.48 72.3134 364.79 71.8068 366.348 71.9313C369.019 72.1449 370.246 73.7595 370.028 76.7752L369.361 85.1274L367.199 84.9547L367.868 76.5907C367.933 75.6789 367.777 74.9885 367.399 74.5194C367.029 74.0509 366.411 73.7821 365.547 73.713C364.846 73.657 364.216 73.7947 363.657 74.1262C363.097 74.4577 362.645 74.9153 362.301 75.4991L361.581 84.5055L359.42 84.3328L360.43 71.6934L362.474 71.8568ZM382.741 70.3968L382.496 73.4573L384.856 73.646L384.722 75.3164L382.363 75.1278L381.736 82.9661C381.696 83.4723 381.77 83.8623 381.96 84.1361C382.15 84.4021 382.499 84.5553 383.005 84.5958C383.254 84.6157 383.6 84.5964 384.044 84.5378L383.904 86.29C383.323 86.4003 382.764 86.434 382.227 86.391C381.261 86.3138 380.556 85.9636 380.112 85.3403C379.668 84.717 379.489 83.868 379.575 82.7933L380.202 74.955L377.9 74.7711L378.034 73.1006L380.335 73.2846L380.58 70.224L382.741 70.3968ZM386.089 79.987C386.188 78.7488 386.518 77.6545 387.08 76.704C387.65 75.7542 388.389 75.0452 389.296 74.577C390.211 74.1093 391.225 73.92 392.339 74.0091C394.06 74.1466 395.403 74.8535 396.367 76.1297C397.338 77.4065 397.745 79.0339 397.587 81.012L397.575 81.1638C397.476 82.3943 397.15 83.4812 396.597 84.4244C396.052 85.3605 395.318 86.066 394.394 86.5408C393.478 87.0162 392.452 87.2084 391.315 87.1175C389.601 86.9806 388.259 86.2737 387.287 84.9969C386.323 83.7207 385.92 82.1014 386.077 80.1389L386.089 79.987ZM388.241 80.4177C388.129 81.8195 388.362 82.9707 388.941 83.8712C389.527 84.7723 390.365 85.2665 391.456 85.3536C392.554 85.4414 393.46 85.0828 394.175 84.2778C394.891 83.4651 395.31 82.2838 395.434 80.7341C395.545 79.3479 395.304 78.2 394.71 77.2905C394.125 76.3737 393.287 75.8718 392.197 75.7846C391.13 75.6993 390.236 76.055 389.514 76.8515C388.792 77.6481 388.368 78.8368 388.241 80.4177ZM402.834 75.0831L402.78 76.4896C403.794 75.4734 405.088 75.0281 406.661 75.1539C408.428 75.2952 409.577 76.0689 410.108 77.475C410.577 76.9012 411.161 76.4542 411.861 76.1339C412.568 75.8142 413.381 75.6911 414.3 75.7646C417.073 75.9862 418.365 77.5669 418.177 80.5066L417.5 88.9756L415.339 88.8029L416.006 80.4623C416.078 79.5589 415.925 78.8688 415.548 78.3919C415.171 77.9072 414.496 77.626 413.523 77.5482C412.721 77.4841 412.036 77.6722 411.467 78.1127C410.9 78.5455 410.541 79.1634 410.391 79.9664L409.72 88.3537L407.547 88.18L408.209 79.8979C408.356 78.06 407.53 77.0691 405.731 76.9253C404.314 76.812 403.296 77.3381 402.678 78.5034L401.94 87.7318L399.779 87.5591L400.79 74.9197L402.834 75.0831ZM431.965 83.913C431.811 85.8443 431.243 87.3625 430.261 88.4674C429.28 89.5646 428.041 90.0534 426.546 89.9339C424.95 89.8063 423.76 89.143 422.978 87.9441L422.757 89.3959L420.771 89.2371L422.205 71.2943L424.366 71.4671L423.831 78.1606C424.79 77.1478 426.036 76.7028 427.57 76.8254C429.105 76.9481 430.261 77.6244 431.041 78.8545C431.828 80.0852 432.141 81.7091 431.98 83.7261L431.965 83.913ZM429.824 83.4949C429.941 82.023 429.748 80.8633 429.243 80.0157C428.739 79.1682 427.953 78.7017 426.887 78.6165C425.461 78.5025 424.384 79.0826 423.656 80.3567L423.219 85.8236C423.775 87.2005 424.754 87.9449 426.155 88.057C427.191 88.1398 428.029 87.8031 428.67 87.0471C429.31 86.291 429.695 85.1069 429.824 83.4949ZM441.832 87.5467C441.878 86.9626 441.693 86.4932 441.274 86.1384C440.864 85.7765 440.12 85.4348 439.04 85.1134C437.969 84.7926 437.123 84.4428 436.503 84.0641C435.89 83.686 435.446 83.2586 435.171 82.782C434.903 82.3061 434.794 81.7566 434.844 81.1336C434.927 80.0978 435.433 79.2565 436.362 78.6098C437.3 77.9637 438.45 77.6951 439.813 77.804C441.246 77.9186 442.376 78.3813 443.205 79.1921C444.041 80.0035 444.414 80.9855 444.321 82.138L442.149 81.9644C442.196 81.3725 441.984 80.8422 441.512 80.3734C441.048 79.9052 440.434 79.6406 439.671 79.5796C438.884 79.5168 438.255 79.6389 437.784 79.9461C437.313 80.2532 437.055 80.6833 437.011 81.2362C436.969 81.758 437.144 82.1678 437.536 82.4655C437.927 82.7633 438.651 83.0759 439.706 83.4032C440.769 83.7311 441.622 84.0893 442.265 84.4777C442.908 84.8661 443.37 85.3106 443.652 85.8112C443.941 86.3046 444.059 86.8901 444.005 87.5676C443.915 88.6968 443.391 89.568 442.432 90.1811C441.475 90.7864 440.276 91.0314 438.835 90.9163C437.823 90.8353 436.941 90.5846 436.191 90.1641C435.441 89.7437 434.87 89.1964 434.477 88.5223C434.092 87.8411 433.93 87.1266 433.99 86.379L436.151 86.5518C436.132 87.2791 436.374 87.8785 436.877 88.3497C437.389 88.8139 438.088 89.0814 438.976 89.1524C439.794 89.2177 440.461 89.1065 440.978 88.8186C441.503 88.5236 441.788 88.0996 441.832 87.5467ZM33.4123 79.8955C33.5673 77.9564 34.1513 76.4356 35.1642 75.3331C36.1778 74.2228 37.4283 73.7271 38.9158 73.846C40.3954 73.9643 41.527 74.5642 42.3105 75.6457L42.8372 69.0574L44.9982 69.2301L43.5639 87.1729L41.5781 87.0141L41.5812 85.6507C40.6321 86.6407 39.3866 87.0741 37.8447 86.9508C36.3806 86.8338 35.2331 86.1386 34.4023 84.8652C33.5792 83.5924 33.2448 81.9904 33.3992 80.059L33.4123 79.8955ZM35.5538 80.3136C35.4392 81.7465 35.6455 82.8916 36.1726 83.7488C36.6997 84.606 37.4851 85.0763 38.5286 85.1598C39.8992 85.2693 40.9491 84.7341 41.6783 83.5541L42.1424 77.7484C41.5913 76.5052 40.646 75.8301 39.3065 75.723C38.2474 75.6383 37.3892 75.9812 36.732 76.7516C36.0747 77.522 35.682 78.7093 35.5538 80.3136ZM54.7314 88.0656C54.6267 87.8064 54.561 87.3544 54.5341 86.7096C53.4461 87.6729 52.2051 88.0988 50.8111 87.9873C49.5651 87.8877 48.569 87.4554 47.8229 86.6904C47.0852 85.9182 46.7597 84.9909 46.8462 83.9084C46.9514 82.5923 47.5314 81.612 48.5861 80.9674C49.6492 80.3157 51.088 80.0623 52.9026 80.2074L55.0052 80.3755L55.0846 79.3825C55.145 78.6271 54.9671 78.0094 54.5509 77.5294C54.1353 77.0416 53.4875 76.7626 52.6075 76.6922C51.8365 76.6306 51.1746 76.7736 50.6217 77.1213C50.0688 77.4689 49.7702 77.9192 49.726 78.4722L47.5533 78.2985C47.6037 77.6677 47.8742 77.078 48.3648 76.5294C48.8638 75.9736 49.5086 75.5549 50.2992 75.2733C51.0975 74.9923 51.9562 74.8885 52.8751 74.9619C54.3314 75.0784 55.4431 75.5356 56.21 76.3336C56.9776 77.1238 57.3259 78.1588 57.255 79.4385L56.79 85.2558C56.6972 86.4162 56.7714 87.3509 57.0126 88.0598L56.9976 88.2467L54.7314 88.0656ZM51.2769 86.1318C51.9544 86.186 52.6109 86.0621 53.2463 85.7602C53.8818 85.4583 54.3582 85.0379 54.6756 84.499L54.8829 81.9057L53.1891 81.7703C50.5413 81.5587 49.1554 82.2277 49.0315 83.7774C48.9774 84.455 49.1609 85.0026 49.5821 85.4203C50.0032 85.838 50.5682 86.0752 51.2769 86.1318ZM64.1284 73.0165L63.8838 76.0771L66.2434 76.2657L66.1099 77.9362L63.7502 77.7475L63.1237 85.5858C63.0832 86.092 63.1578 86.482 63.3475 86.7558C63.5379 87.0218 63.8862 87.1751 64.3924 87.2155C64.6416 87.2354 64.988 87.2161 65.4315 87.1575L65.2915 88.9097C64.7105 89.0201 64.1514 89.0537 63.614 89.0108C62.6483 88.9336 61.9435 88.5833 61.4996 87.96C61.0557 87.3368 60.8767 86.4878 60.9626 85.4131L61.5892 77.5748L59.2879 77.3908L59.4215 75.7204L61.7227 75.9043L61.9674 72.8438L64.1284 73.0165ZM70.1159 89.2954L67.9548 89.1227L68.9652 76.4833L71.1263 76.656L70.1159 89.2954ZM69.058 73.1167C69.086 72.7663 69.2148 72.4787 69.4444 72.2541C69.6817 72.0301 70.0107 71.9349 70.4312 71.9686C70.8517 72.0022 71.1614 72.1484 71.3601 72.4073C71.5589 72.6661 71.6443 72.9708 71.6162 73.3212C71.5882 73.6716 71.4559 73.955 71.2191 74.1712C70.9824 74.3874 70.6538 74.4787 70.2332 74.445C69.8127 74.4114 69.5027 74.2691 69.3034 74.018C69.1118 73.7676 69.03 73.4671 69.058 73.1167ZM76.64 77.0968L76.5831 78.6911C77.6458 77.5534 78.956 77.0468 80.5135 77.1713C83.1847 77.3849 84.4115 78.9995 84.1939 82.0152L83.5263 90.3674L81.3652 90.1947L82.0338 81.8307C82.0988 80.9189 81.9424 80.2285 81.5645 79.7594C81.1944 79.2909 80.5772 79.0221 79.7128 78.953C79.0119 78.897 78.3817 79.0347 77.8223 79.3662C77.2628 79.6977 76.8108 80.1553 76.4664 80.7391L75.7464 89.7455L73.5853 89.5728L74.5957 76.9334L76.64 77.0968ZM86.785 84.162C86.9425 82.1918 87.5232 80.6629 88.5271 79.5753C89.5317 78.48 90.7854 77.9925 92.2885 78.1126C93.8304 78.2359 94.99 78.8772 95.7673 80.0366L95.9845 78.6432L97.9587 78.801L96.9726 91.1366C96.8418 92.7721 96.2521 94.022 95.2033 94.8865C94.1623 95.7516 92.8241 96.1188 91.1887 95.9881C90.2775 95.9152 89.4014 95.6493 88.5603 95.1901C87.7192 94.731 87.096 94.1444 86.6907 93.4301L87.9158 92.2231C88.751 93.442 89.8384 94.1049 91.1778 94.212C92.2292 94.2961 93.0705 94.0655 93.7019 93.5203C94.3411 92.9758 94.7036 92.1662 94.7895 91.0915L94.8764 90.0051C93.9323 90.9328 92.7126 91.3369 91.2174 91.2174C89.7377 91.0991 88.586 90.4075 87.7623 89.1425C86.9464 87.8781 86.6207 86.218 86.785 84.162ZM88.9382 84.581C88.8242 86.0062 89.0266 87.151 89.5453 88.0154C90.0647 88.872 90.85 89.3423 91.9013 89.4263C93.2642 89.5353 94.3144 88.9961 95.0519 87.809L95.5132 82.0383C94.9478 80.7783 94.0031 80.0954 92.6792 79.9896C91.6279 79.9055 90.7736 80.2487 90.1164 81.0191C89.4591 81.7895 89.0664 82.9768 88.9382 84.581ZM117.348 86.8521C117.193 88.7834 116.625 90.3016 115.643 91.4065C114.662 92.5037 113.424 92.9925 111.929 92.873C110.332 92.7454 109.143 92.0821 108.361 90.8832L108.139 92.335L106.153 92.1762L107.588 74.2334L109.749 74.4062L109.214 81.0997C110.172 80.0869 111.419 79.6419 112.953 79.7645C114.487 79.8871 115.644 80.5635 116.423 81.7936C117.211 83.0243 117.524 84.6482 117.362 86.6652L117.348 86.8521ZM115.206 86.434C115.324 84.9621 115.13 83.8024 114.626 82.9548C114.122 82.1073 113.336 81.6408 112.269 81.5555C110.844 81.4416 109.767 82.0217 109.038 83.2958L108.601 88.7627C109.157 90.1396 110.136 90.884 111.538 90.9961C112.574 91.0789 113.412 90.7422 114.052 89.9862C114.693 89.2301 115.077 88.046 115.206 86.434ZM127.39 93.8739C127.286 93.6147 127.22 93.1627 127.193 92.5179C126.105 93.4811 124.864 93.907 123.47 93.7956C122.224 93.696 121.228 93.2637 120.482 92.4987C119.744 91.7265 119.418 90.7992 119.505 89.7167C119.61 88.4006 120.19 87.4202 121.245 86.7757C122.308 86.1239 123.747 85.8706 125.561 86.0156L127.664 86.1837L127.743 85.1908C127.804 84.4354 127.626 83.8177 127.21 83.3377C126.794 82.8499 126.146 82.5708 125.266 82.5005C124.495 82.4389 123.833 82.5819 123.281 82.9296C122.728 83.2772 122.429 83.7275 122.385 84.2804L120.212 84.1068C120.263 83.476 120.533 82.8863 121.024 82.3377C121.523 81.7819 122.167 81.3632 122.958 81.0816C123.756 80.8005 124.615 80.6968 125.534 80.7702C126.99 80.8866 128.102 81.3439 128.869 82.1419C129.636 82.9321 129.985 83.9671 129.914 85.2467L129.449 91.0641C129.356 92.2245 129.43 93.1592 129.671 93.8681L129.656 94.055L127.39 93.8739ZM123.936 91.9401C124.613 91.9943 125.27 91.8704 125.905 91.5685C126.541 91.2666 127.017 90.8462 127.334 90.3073L127.542 87.714L125.848 87.5786C123.2 87.3669 121.814 88.036 121.69 89.5857C121.636 90.2633 121.82 90.8109 122.241 91.2286C122.662 91.6463 123.227 91.8834 123.936 91.9401ZM137.792 93.1653C138.563 93.227 139.256 93.0472 139.869 92.626C140.483 92.2048 140.849 91.6463 140.967 90.9504L143.011 91.1138C142.915 91.8349 142.61 92.5042 142.099 93.1216C141.587 93.7391 140.93 94.2117 140.128 94.5394C139.333 94.8678 138.508 94.9977 137.651 94.9292C135.93 94.7917 134.605 94.1097 133.677 92.8834C132.756 91.6499 132.376 90.0363 132.535 88.0427L132.564 87.6805C132.663 86.4501 132.976 85.374 133.504 84.4522C134.032 83.5304 134.738 82.8384 135.622 82.376C136.513 81.9143 137.535 81.7296 138.687 81.8217C140.105 81.935 141.247 82.4534 142.113 83.377C142.988 84.3012 143.402 85.4433 143.356 86.8033L141.312 86.6399C141.315 85.8172 141.057 85.1226 140.538 84.556C140.027 83.9822 139.363 83.6626 138.545 83.5973C137.447 83.5095 136.563 83.8385 135.892 84.5843C135.229 85.3229 134.838 86.4398 134.719 87.9351L134.686 88.3439C134.57 89.8002 134.78 90.9456 135.317 91.7801C135.853 92.6146 136.679 93.0763 137.792 93.1653ZM149.118 89.721L147.65 91.0261L147.295 95.4651L145.134 95.2923L146.569 77.3496L148.73 77.5223L147.862 88.3744L149.13 87.0768L153.399 83.2328L156.027 83.443L150.687 88.3299L155.589 96.1281L153.054 95.9254L149.118 89.721ZM167.369 81.2695L167.125 84.3301L169.484 84.5187L169.351 86.1892L166.991 86.0005L166.365 93.8388C166.324 94.345 166.399 94.735 166.589 95.0088C166.779 95.2748 167.127 95.428 167.633 95.4685C167.883 95.4884 168.229 95.4691 168.673 95.4105L168.532 97.1627C167.951 97.273 167.392 97.3067 166.855 97.2638C165.889 97.1866 165.185 96.8363 164.741 96.213C164.297 95.5897 164.118 94.7407 164.204 93.666L164.83 85.8278L162.529 85.6438L162.662 83.9734L164.964 84.1573L165.208 81.0968L167.369 81.2695ZM170.717 90.8598C170.816 89.6215 171.147 88.5272 171.709 87.5768C172.278 86.6269 173.017 85.9179 173.924 85.4497C174.84 84.982 175.854 84.7927 176.968 84.8818C178.689 85.0194 180.031 85.7262 180.995 87.0024C181.967 88.2792 182.373 89.9066 182.215 91.8847L182.203 92.0366C182.105 93.267 181.779 94.3539 181.225 95.2971C180.68 96.2332 179.946 96.9387 179.022 97.4135C178.107 97.8889 177.08 98.0812 175.943 97.9903C174.23 97.8533 172.887 97.1464 171.916 95.8696C170.952 94.5935 170.548 92.9741 170.705 91.0116L170.717 90.8598ZM172.87 91.2905C172.758 92.6922 172.991 93.8434 173.569 94.7439C174.156 95.6451 174.994 96.1392 176.084 96.2264C177.182 96.3141 178.089 95.9555 178.804 95.1506C179.519 94.3378 179.939 93.1566 180.063 91.6068C180.173 90.2206 179.932 89.0727 179.339 88.1632C178.754 87.2465 177.916 86.7445 176.826 86.6574C175.759 86.5721 174.864 86.9277 174.142 87.7243C173.42 88.5208 172.996 89.7096 172.87 91.2905ZM201.276 99.7802L190.132 98.8893L190.256 97.3357L196.666 91.2647C197.617 90.3454 198.281 89.5912 198.657 89.0021C199.042 88.4059 199.261 87.7768 199.314 87.1148C199.385 86.227 199.174 85.4774 198.682 84.866C198.19 84.2545 197.497 83.913 196.601 83.8414C195.526 83.7555 194.665 83.9962 194.016 84.5635C193.375 85.1236 193.012 85.9488 192.925 87.0391L190.763 86.8663C190.889 85.301 191.492 84.0757 192.574 83.1903C193.663 82.3056 195.053 81.9307 196.743 82.0658C198.324 82.1922 199.541 82.7087 200.393 83.6155C201.246 84.5144 201.617 85.6531 201.507 87.0315C201.373 88.7059 200.147 90.6142 197.828 92.7566L192.877 97.3337L201.417 98.0163L201.276 99.7802ZM210.668 100.531L208.495 100.357L209.646 85.954L205.161 87.2061L205.318 85.2436L211.695 83.4139L212.034 83.441L210.668 100.531ZM228.244 94.6355C228.042 97.1665 227.459 99.0126 226.496 100.174C225.534 101.335 224.133 101.843 222.295 101.696C220.481 101.551 219.185 100.844 218.409 99.5745C217.633 98.2977 217.325 96.4626 217.485 94.0693L217.716 91.184C217.916 88.6842 218.497 86.8614 219.458 85.7156C220.42 84.5698 221.823 84.0707 223.669 84.2182C225.499 84.3645 226.799 85.0602 227.57 86.3052C228.341 87.5425 228.64 89.3847 228.468 91.8319L228.244 94.6355ZM226.319 91.5073C226.465 89.6772 226.315 88.325 225.868 87.4506C225.421 86.5684 224.641 86.0829 223.527 85.9938C222.421 85.9054 221.582 86.2576 221.009 87.0504C220.436 87.8433 220.073 89.1035 219.919 90.8311L219.643 94.2888C219.496 96.1267 219.652 97.5068 220.111 98.4291C220.579 99.3443 221.354 99.8452 222.436 99.9317C223.503 100.017 224.327 99.6674 224.907 98.883C225.494 98.0993 225.871 96.8205 226.036 95.0468L226.319 91.5073ZM241.678 95.7093C241.475 98.2403 240.893 100.086 239.93 101.248C238.967 102.409 237.567 102.916 235.729 102.769C233.915 102.624 232.619 101.917 231.843 100.648C231.067 99.3716 230.759 97.5365 230.919 95.1432L231.15 92.2579C231.35 89.758 231.93 87.9352 232.892 86.7895C233.853 85.6437 235.257 85.1446 237.103 85.2921C238.933 85.4384 240.233 86.1341 241.003 87.3791C241.774 88.6164 242.074 90.4586 241.902 92.9058L241.678 95.7093ZM239.753 92.5812C239.899 90.7511 239.749 89.3988 239.301 88.5245C238.855 87.6423 238.074 87.1567 236.961 87.0677C235.855 86.9793 235.016 87.3315 234.443 88.1243C233.87 88.9171 233.507 90.1774 233.353 91.905L233.076 95.3627C232.93 97.2006 233.086 98.5807 233.545 99.503C234.012 100.418 234.788 100.919 235.87 101.006C236.937 101.091 237.76 100.741 238.34 99.9569C238.928 99.1731 239.305 97.8944 239.47 96.1207L239.753 92.5812ZM250.361 103.704L251.721 86.6958L257.281 87.1403C259.127 87.2878 260.483 87.7803 261.348 88.6175C262.222 89.4554 262.599 90.622 262.479 92.1172C262.416 92.9116 262.134 93.5983 261.633 94.1774C261.133 94.7487 260.48 95.1707 259.674 95.4433C260.573 95.7738 261.258 96.3223 261.729 97.0889C262.209 97.8483 262.409 98.7264 262.33 99.7232C262.208 101.25 261.617 102.409 260.559 103.203C259.5 103.996 258.067 104.32 256.26 104.176L250.361 103.704ZM253.24 95.9283L252.751 102.049L256.454 102.345C257.497 102.429 258.34 102.226 258.983 101.736C259.634 101.24 259.997 100.516 260.073 99.5664C260.237 97.5182 259.205 96.4051 256.978 96.2271L253.24 95.9283ZM253.384 94.1293L256.771 94.4001C257.753 94.4785 258.555 94.2958 259.178 93.8519C259.809 93.4086 260.158 92.7664 260.226 91.9253C260.3 90.9908 260.082 90.2915 259.571 89.8274C259.06 89.3555 258.247 89.075 257.134 88.986L253.816 88.7208L253.384 94.1293ZM265.065 103.739C265.095 103.365 265.229 103.063 265.467 102.831C265.713 102.6 266.058 102.502 266.502 102.537C266.946 102.573 267.27 102.724 267.476 102.991C267.69 103.259 267.782 103.58 267.752 103.954C267.723 104.312 267.583 104.603 267.33 104.825C267.085 105.049 266.74 105.143 266.296 105.107C265.852 105.072 265.527 104.924 265.321 104.665C265.122 104.406 265.037 104.097 265.065 103.739ZM284.517 101.003C284.163 102.785 283.386 104.122 282.186 105.014C280.995 105.898 279.472 106.266 277.619 106.118C275.61 105.958 274.055 105.108 272.955 103.57C271.864 102.033 271.414 100.058 271.607 97.6434L271.738 96.008C271.864 94.4271 272.256 93.0594 272.912 91.9049C273.577 90.7511 274.452 89.8962 275.539 89.3404C276.626 88.7769 277.852 88.5495 279.214 88.6585C281.021 88.8029 282.429 89.4249 283.439 90.5245C284.448 91.6162 284.972 93.061 285.008 94.8586L282.754 94.6784C282.667 93.3078 282.321 92.2926 281.716 91.6329C281.118 90.9738 280.235 90.5975 279.067 90.5042C277.634 90.3896 276.466 90.8292 275.564 91.823C274.669 92.8174 274.144 94.2919 273.988 96.2466L273.856 97.8937C273.708 99.7394 273.977 101.238 274.66 102.39C275.344 103.542 276.379 104.173 277.765 104.284C279.011 104.384 279.988 104.18 280.695 103.672C281.41 103.157 281.932 102.207 282.263 100.823L284.517 101.003ZM286.956 105.489C286.986 105.115 287.12 104.812 287.358 104.581C287.604 104.35 287.949 104.252 288.393 104.287C288.837 104.323 289.162 104.474 289.367 104.741C289.581 105.009 289.673 105.33 289.643 105.704C289.615 106.062 289.474 106.353 289.221 106.575C288.976 106.799 288.631 106.893 288.187 106.857C287.743 106.822 287.418 106.674 287.212 106.415C287.013 106.156 286.928 105.847 286.956 105.489Z" fill="black"/>
</svg>
