<svg width="439" height="306" viewBox="0 0 439 306" fill="none" xmlns="http://www.w3.org/2000/svg">
<g clip-path="url(#clip0)">
<path d="M271.604 116.629H254.498L252.585 112.086C251.874 110.398 250.782 108.979 249.431 107.987C248.08 106.995 246.523 106.47 244.935 106.47H230.604L223.312 97.8088C220.616 94.6086 216.01 96.8754 216.01 101.4V148.971L250.222 163.483V152.187H258.775C268.223 152.187 275.88 143.091 275.88 131.868V121.709C275.88 118.902 273.967 116.629 271.604 116.629ZM241.669 131.868C239.306 131.868 237.393 129.595 237.393 126.788C237.393 123.982 239.306 121.709 241.669 121.709C244.032 121.709 245.945 123.982 245.945 126.788C245.945 129.595 244.032 131.868 241.669 131.868ZM164.693 157.267C159.979 157.267 156.141 152.708 156.141 147.107C156.141 141.497 152.311 136.948 147.588 136.948C142.865 136.948 139.035 141.497 139.035 147.107C139.035 160.334 146.206 171.506 156.141 175.712V243.622C156.141 246.428 158.054 248.701 160.417 248.701H177.523C179.885 248.701 181.799 246.428 181.799 243.622V208.064H224.563V243.622C224.563 246.428 226.477 248.701 228.84 248.701H245.945C248.308 248.701 250.222 246.428 250.222 243.622V174.268L210.144 157.267H164.693Z" fill="#1425B6"/>
</g>
<defs>
<clipPath id="clip0">
<rect width="439" height="306" fill="white"/>
</clipPath>
</defs>
</svg>
