<svg width="394" height="81" viewBox="0 0 394 81" fill="none" xmlns="http://www.w3.org/2000/svg">
<rect width="394" height="81" rx="25" fill="#A9CDF7"/>
<path d="M26.9805 36V18.9375H31.7969C33.2812 18.9375 34.5938 19.2656 35.7344 19.9219C36.875 20.5781 37.7539 21.5117 38.3711 22.7227C38.9961 23.9336 39.3125 25.3242 39.3203 26.8945V27.9844C39.3203 29.5938 39.0078 31.0039 38.3828 32.2148C37.7656 33.4258 36.8789 34.3555 35.7227 35.0039C34.5742 35.6523 33.2344 35.9844 31.7031 36H26.9805ZM29.2305 20.7891V34.1602H31.5977C33.332 34.1602 34.6797 33.6211 35.6406 32.543C36.6094 31.4648 37.0938 29.9297 37.0938 27.9375V26.9414C37.0938 25.0039 36.6367 23.5 35.7227 22.4297C34.8164 21.3516 33.5273 20.8047 31.8555 20.7891H29.2305ZM50.2188 36C50.0938 35.75 49.9922 35.3047 49.9141 34.6641C48.9062 35.7109 47.7031 36.2344 46.3047 36.2344C45.0547 36.2344 44.0273 35.8828 43.2227 35.1797C42.4258 34.4688 42.0273 33.5703 42.0273 32.4844C42.0273 31.1641 42.5273 30.1406 43.5273 29.4141C44.5352 28.6797 45.9492 28.3125 47.7695 28.3125H49.8789V27.3164C49.8789 26.5586 49.6523 25.957 49.1992 25.5117C48.7461 25.0586 48.0781 24.832 47.1953 24.832C46.4219 24.832 45.7734 25.0273 45.25 25.418C44.7266 25.8086 44.4648 26.2812 44.4648 26.8359H42.2852C42.2852 26.2031 42.5078 25.5938 42.9531 25.0078C43.4062 24.4141 44.0156 23.9453 44.7812 23.6016C45.5547 23.2578 46.4023 23.0859 47.3242 23.0859C48.7852 23.0859 49.9297 23.4531 50.7578 24.1875C51.5859 24.9141 52.0156 25.918 52.0469 27.1992V33.0352C52.0469 34.1992 52.1953 35.125 52.4922 35.8125V36H50.2188ZM46.6211 34.3477C47.3008 34.3477 47.9453 34.1719 48.5547 33.8203C49.1641 33.4688 49.6055 33.0117 49.8789 32.4492V29.8477H48.1797C45.5234 29.8477 44.1953 30.625 44.1953 32.1797C44.1953 32.8594 44.4219 33.3906 44.875 33.7734C45.3281 34.1562 45.9102 34.3477 46.6211 34.3477ZM60.5312 34.4648C61.3047 34.4648 61.9805 34.2305 62.5586 33.7617C63.1367 33.293 63.457 32.707 63.5195 32.0039H65.5703C65.5312 32.7305 65.2812 33.4219 64.8203 34.0781C64.3594 34.7344 63.7422 35.2578 62.9688 35.6484C62.2031 36.0391 61.3906 36.2344 60.5312 36.2344C58.8047 36.2344 57.4297 35.6602 56.4062 34.5117C55.3906 33.3555 54.8828 31.7773 54.8828 29.7773V29.4141C54.8828 28.1797 55.1094 27.082 55.5625 26.1211C56.0156 25.1602 56.6641 24.4141 57.5078 23.8828C58.3594 23.3516 59.3633 23.0859 60.5195 23.0859C61.9414 23.0859 63.1211 23.5117 64.0586 24.3633C65.0039 25.2148 65.5078 26.3203 65.5703 27.6797H63.5195C63.457 26.8594 63.1445 26.1875 62.582 25.6641C62.0273 25.1328 61.3398 24.8672 60.5195 24.8672C59.418 24.8672 58.5625 25.2656 57.9531 26.0625C57.3516 26.8516 57.0508 27.9961 57.0508 29.4961V29.9062C57.0508 31.3672 57.3516 32.4922 57.9531 33.2812C58.5547 34.0703 59.4141 34.4648 60.5312 34.4648ZM70.1758 24.8555C71.1367 23.6758 72.3867 23.0859 73.9258 23.0859C76.6055 23.0859 77.957 24.5977 77.9805 27.6211V36H75.8125V27.6094C75.8047 26.6953 75.5938 26.0195 75.1797 25.582C74.7734 25.1445 74.1367 24.9258 73.2695 24.9258C72.5664 24.9258 71.9492 25.1133 71.418 25.4883C70.8867 25.8633 70.4727 26.3555 70.1758 26.9648V36H68.0078V18H70.1758V24.8555ZM88.6094 32.6367C88.6094 32.0508 88.3867 31.5977 87.9414 31.2773C87.5039 30.9492 86.7344 30.668 85.6328 30.4336C84.5391 30.1992 83.668 29.918 83.0195 29.5898C82.3789 29.2617 81.9023 28.8711 81.5898 28.418C81.2852 27.9648 81.1328 27.4258 81.1328 26.8008C81.1328 25.7617 81.5703 24.8828 82.4453 24.1641C83.3281 23.4453 84.4531 23.0859 85.8203 23.0859C87.2578 23.0859 88.4219 23.457 89.3125 24.1992C90.2109 24.9414 90.6602 25.8906 90.6602 27.0469H88.4805C88.4805 26.4531 88.2266 25.9414 87.7188 25.5117C87.2188 25.082 86.5859 24.8672 85.8203 24.8672C85.0312 24.8672 84.4141 25.0391 83.9688 25.3828C83.5234 25.7266 83.3008 26.1758 83.3008 26.7305C83.3008 27.2539 83.5078 27.6484 83.9219 27.9141C84.3359 28.1797 85.082 28.4336 86.1602 28.6758C87.2461 28.918 88.125 29.207 88.7969 29.543C89.4688 29.8789 89.9648 30.2852 90.2852 30.7617C90.6133 31.2305 90.7773 31.8047 90.7773 32.4844C90.7773 33.6172 90.3242 34.5273 89.418 35.2148C88.5117 35.8945 87.3359 36.2344 85.8906 36.2344C84.875 36.2344 83.9766 36.0547 83.1953 35.6953C82.4141 35.3359 81.8008 34.8359 81.3555 34.1953C80.918 33.5469 80.6992 32.8477 80.6992 32.0977H82.8672C82.9062 32.8242 83.1953 33.4023 83.7344 33.832C84.2812 34.2539 85 34.4648 85.8906 34.4648C86.7109 34.4648 87.3672 34.3008 87.8594 33.9727C88.3594 33.6367 88.6094 33.1914 88.6094 32.6367ZM95.7695 24.8555C96.7305 23.6758 97.9805 23.0859 99.5195 23.0859C102.199 23.0859 103.551 24.5977 103.574 27.6211V36H101.406V27.6094C101.398 26.6953 101.188 26.0195 100.773 25.582C100.367 25.1445 99.7305 24.9258 98.8633 24.9258C98.1602 24.9258 97.543 25.1133 97.0117 25.4883C96.4805 25.8633 96.0664 26.3555 95.7695 26.9648V36H93.6016V18H95.7695V24.8555ZM114.648 34.7461C113.805 35.7383 112.566 36.2344 110.934 36.2344C109.582 36.2344 108.551 35.8438 107.84 35.0625C107.137 34.2734 106.781 33.1094 106.773 31.5703V23.3203H108.941V31.5117C108.941 33.4336 109.723 34.3945 111.285 34.3945C112.941 34.3945 114.043 33.7773 114.59 32.543V23.3203H116.758V36H114.695L114.648 34.7461ZM122.113 23.3203L122.184 24.9141C123.152 23.6953 124.418 23.0859 125.98 23.0859C128.66 23.0859 130.012 24.5977 130.035 27.6211V36H127.867V27.6094C127.859 26.6953 127.648 26.0195 127.234 25.582C126.828 25.1445 126.191 24.9258 125.324 24.9258C124.621 24.9258 124.004 25.1133 123.473 25.4883C122.941 25.8633 122.527 26.3555 122.23 26.9648V36H120.062V23.3203H122.113ZM132.777 29.5547C132.777 27.6094 133.238 26.0469 134.16 24.8672C135.082 23.6797 136.289 23.0859 137.781 23.0859C139.266 23.0859 140.441 23.5938 141.309 24.6094V18H143.477V36H141.484L141.379 34.6406C140.512 35.7031 139.305 36.2344 137.758 36.2344C136.289 36.2344 135.09 35.6328 134.16 34.4297C133.238 33.2266 132.777 31.6562 132.777 29.7188V29.5547ZM134.945 29.8008C134.945 31.2383 135.242 32.3633 135.836 33.1758C136.43 33.9883 137.25 34.3945 138.297 34.3945C139.672 34.3945 140.676 33.7773 141.309 32.543V26.7188C140.66 25.5234 139.664 24.9258 138.32 24.9258C137.258 24.9258 136.43 25.3359 135.836 26.1562C135.242 26.9766 134.945 28.1914 134.945 29.8008ZM154.234 32.6367C154.234 32.0508 154.012 31.5977 153.566 31.2773C153.129 30.9492 152.359 30.668 151.258 30.4336C150.164 30.1992 149.293 29.918 148.645 29.5898C148.004 29.2617 147.527 28.8711 147.215 28.418C146.91 27.9648 146.758 27.4258 146.758 26.8008C146.758 25.7617 147.195 24.8828 148.07 24.1641C148.953 23.4453 150.078 23.0859 151.445 23.0859C152.883 23.0859 154.047 23.457 154.938 24.1992C155.836 24.9414 156.285 25.8906 156.285 27.0469H154.105C154.105 26.4531 153.852 25.9414 153.344 25.5117C152.844 25.082 152.211 24.8672 151.445 24.8672C150.656 24.8672 150.039 25.0391 149.594 25.3828C149.148 25.7266 148.926 26.1758 148.926 26.7305C148.926 27.2539 149.133 27.6484 149.547 27.9141C149.961 28.1797 150.707 28.4336 151.785 28.6758C152.871 28.918 153.75 29.207 154.422 29.543C155.094 29.8789 155.59 30.2852 155.91 30.7617C156.238 31.2305 156.402 31.8047 156.402 32.4844C156.402 33.6172 155.949 34.5273 155.043 35.2148C154.137 35.8945 152.961 36.2344 151.516 36.2344C150.5 36.2344 149.602 36.0547 148.82 35.6953C148.039 35.3359 147.426 34.8359 146.98 34.1953C146.543 33.5469 146.324 32.8477 146.324 32.0977H148.492C148.531 32.8242 148.82 33.4023 149.359 33.832C149.906 34.2539 150.625 34.4648 151.516 34.4648C152.336 34.4648 152.992 34.3008 153.484 33.9727C153.984 33.6367 154.234 33.1914 154.234 32.6367ZM176.406 33.0117L178.844 23.3203H181.012L177.32 36H175.562L172.48 26.3906L169.48 36H167.723L164.043 23.3203H166.199L168.695 32.8125L171.648 23.3203H173.395L176.406 33.0117ZM188.488 36.2344C186.77 36.2344 185.371 35.6719 184.293 34.5469C183.215 33.4141 182.676 31.9023 182.676 30.0117V29.6133C182.676 28.3555 182.914 27.2344 183.391 26.25C183.875 25.2578 184.547 24.4844 185.406 23.9297C186.273 23.3672 187.211 23.0859 188.219 23.0859C189.867 23.0859 191.148 23.6289 192.062 24.7148C192.977 25.8008 193.434 27.3555 193.434 29.3789V30.2812H184.844C184.875 31.5312 185.238 32.543 185.934 33.3164C186.637 34.082 187.527 34.4648 188.605 34.4648C189.371 34.4648 190.02 34.3086 190.551 33.9961C191.082 33.6836 191.547 33.2695 191.945 32.7539L193.27 33.7852C192.207 35.418 190.613 36.2344 188.488 36.2344ZM188.219 24.8672C187.344 24.8672 186.609 25.1875 186.016 25.8281C185.422 26.4609 185.055 27.3516 184.914 28.5H191.266V28.3359C191.203 27.2344 190.906 26.3828 190.375 25.7812C189.844 25.1719 189.125 24.8672 188.219 24.8672ZM202.082 25.2656C201.754 25.2109 201.398 25.1836 201.016 25.1836C199.594 25.1836 198.629 25.7891 198.121 27V36H195.953V23.3203H198.062L198.098 24.7852C198.809 23.6523 199.816 23.0859 201.121 23.0859C201.543 23.0859 201.863 23.1406 202.082 23.25V25.2656ZM209.113 36.2344C207.395 36.2344 205.996 35.6719 204.918 34.5469C203.84 33.4141 203.301 31.9023 203.301 30.0117V29.6133C203.301 28.3555 203.539 27.2344 204.016 26.25C204.5 25.2578 205.172 24.4844 206.031 23.9297C206.898 23.3672 207.836 23.0859 208.844 23.0859C210.492 23.0859 211.773 23.6289 212.688 24.7148C213.602 25.8008 214.059 27.3555 214.059 29.3789V30.2812H205.469C205.5 31.5312 205.863 32.543 206.559 33.3164C207.262 34.082 208.152 34.4648 209.23 34.4648C209.996 34.4648 210.645 34.3086 211.176 33.9961C211.707 33.6836 212.172 33.2695 212.57 32.7539L213.895 33.7852C212.832 35.418 211.238 36.2344 209.113 36.2344ZM208.844 24.8672C207.969 24.8672 207.234 25.1875 206.641 25.8281C206.047 26.4609 205.68 27.3516 205.539 28.5H211.891V28.3359C211.828 27.2344 211.531 26.3828 211 25.7812C210.469 25.1719 209.75 24.8672 208.844 24.8672ZM221.957 29.543C221.957 28.3008 222.199 27.1836 222.684 26.1914C223.176 25.1992 223.855 24.4336 224.723 23.8945C225.598 23.3555 226.594 23.0859 227.711 23.0859C229.438 23.0859 230.832 23.6836 231.895 24.8789C232.965 26.0742 233.5 27.6641 233.5 29.6484V29.8008C233.5 31.0352 233.262 32.1445 232.785 33.1289C232.316 34.1055 231.641 34.8672 230.758 35.4141C229.883 35.9609 228.875 36.2344 227.734 36.2344C226.016 36.2344 224.621 35.6367 223.551 34.4414C222.488 33.2461 221.957 31.6641 221.957 29.6953V29.543ZM224.137 29.8008C224.137 31.207 224.461 32.3359 225.109 33.1875C225.766 34.0391 226.641 34.4648 227.734 34.4648C228.836 34.4648 229.711 34.0352 230.359 33.1758C231.008 32.3086 231.332 31.0977 231.332 29.543C231.332 28.1523 231 27.0273 230.336 26.168C229.68 25.3008 228.805 24.8672 227.711 24.8672C226.641 24.8672 225.777 25.293 225.121 26.1445C224.465 26.9961 224.137 28.2148 224.137 29.8008ZM242.348 25.2656C242.02 25.2109 241.664 25.1836 241.281 25.1836C239.859 25.1836 238.895 25.7891 238.387 27V36H236.219V23.3203H238.328L238.363 24.7852C239.074 23.6523 240.082 23.0859 241.387 23.0859C241.809 23.0859 242.129 23.1406 242.348 23.25V25.2656ZM246.707 36H244.539V23.3203H246.707V36ZM244.363 19.957C244.363 19.6055 244.469 19.3086 244.68 19.0664C244.898 18.8242 245.219 18.7031 245.641 18.7031C246.062 18.7031 246.383 18.8242 246.602 19.0664C246.82 19.3086 246.93 19.6055 246.93 19.957C246.93 20.3086 246.82 20.6016 246.602 20.8359C246.383 21.0703 246.062 21.1875 245.641 21.1875C245.219 21.1875 244.898 21.0703 244.68 20.8359C244.469 20.6016 244.363 20.3086 244.363 19.957ZM249.672 29.5547C249.672 27.5781 250.129 26.0078 251.043 24.8438C251.957 23.6719 253.168 23.0859 254.676 23.0859C256.223 23.0859 257.43 23.6328 258.297 24.7266L258.402 23.3203H260.383V35.6953C260.383 37.3359 259.895 38.6289 258.918 39.5742C257.949 40.5195 256.645 40.9922 255.004 40.9922C254.09 40.9922 253.195 40.7969 252.32 40.4062C251.445 40.0156 250.777 39.4805 250.316 38.8008L251.441 37.5C252.371 38.6484 253.508 39.2227 254.852 39.2227C255.906 39.2227 256.727 38.9258 257.312 38.332C257.906 37.7383 258.203 36.9023 258.203 35.8242V34.7344C257.336 35.7344 256.152 36.2344 254.652 36.2344C253.168 36.2344 251.965 35.6367 251.043 34.4414C250.129 33.2461 249.672 31.6172 249.672 29.5547ZM251.852 29.8008C251.852 31.2305 252.145 32.3555 252.73 33.1758C253.316 33.9883 254.137 34.3945 255.191 34.3945C256.559 34.3945 257.562 33.7734 258.203 32.5312V26.7422C257.539 25.5312 256.543 24.9258 255.215 24.9258C254.16 24.9258 253.336 25.3359 252.742 26.1562C252.148 26.9766 251.852 28.1914 251.852 29.8008ZM266.02 36H263.852V23.3203H266.02V36ZM263.676 19.957C263.676 19.6055 263.781 19.3086 263.992 19.0664C264.211 18.8242 264.531 18.7031 264.953 18.7031C265.375 18.7031 265.695 18.8242 265.914 19.0664C266.133 19.3086 266.242 19.6055 266.242 19.957C266.242 20.3086 266.133 20.6016 265.914 20.8359C265.695 21.0703 265.375 21.1875 264.953 21.1875C264.531 21.1875 264.211 21.0703 263.992 20.8359C263.781 20.6016 263.676 20.3086 263.676 19.957ZM271.551 23.3203L271.621 24.9141C272.59 23.6953 273.855 23.0859 275.418 23.0859C278.098 23.0859 279.449 24.5977 279.473 27.6211V36H277.305V27.6094C277.297 26.6953 277.086 26.0195 276.672 25.582C276.266 25.1445 275.629 24.9258 274.762 24.9258C274.059 24.9258 273.441 25.1133 272.91 25.4883C272.379 25.8633 271.965 26.3555 271.668 26.9648V36H269.5V23.3203H271.551ZM290.57 36C290.445 35.75 290.344 35.3047 290.266 34.6641C289.258 35.7109 288.055 36.2344 286.656 36.2344C285.406 36.2344 284.379 35.8828 283.574 35.1797C282.777 34.4688 282.379 33.5703 282.379 32.4844C282.379 31.1641 282.879 30.1406 283.879 29.4141C284.887 28.6797 286.301 28.3125 288.121 28.3125H290.23V27.3164C290.23 26.5586 290.004 25.957 289.551 25.5117C289.098 25.0586 288.43 24.832 287.547 24.832C286.773 24.832 286.125 25.0273 285.602 25.418C285.078 25.8086 284.816 26.2812 284.816 26.8359H282.637C282.637 26.2031 282.859 25.5938 283.305 25.0078C283.758 24.4141 284.367 23.9453 285.133 23.6016C285.906 23.2578 286.754 23.0859 287.676 23.0859C289.137 23.0859 290.281 23.4531 291.109 24.1875C291.938 24.9141 292.367 25.918 292.398 27.1992V33.0352C292.398 34.1992 292.547 35.125 292.844 35.8125V36H290.57ZM286.973 34.3477C287.652 34.3477 288.297 34.1719 288.906 33.8203C289.516 33.4688 289.957 33.0117 290.23 32.4492V29.8477H288.531C285.875 29.8477 284.547 30.625 284.547 32.1797C284.547 32.8594 284.773 33.3906 285.227 33.7734C285.68 34.1562 286.262 34.3477 286.973 34.3477ZM298.152 36H295.984V18H298.152V36ZM303.988 36H301.82V18H303.988V36ZM311.617 32.8242L314.57 23.3203H316.891L311.793 37.957C311.004 40.0664 309.75 41.1211 308.031 41.1211L307.621 41.0859L306.812 40.9336V39.1758L307.398 39.2227C308.133 39.2227 308.703 39.0742 309.109 38.7773C309.523 38.4805 309.863 37.9375 310.129 37.1484L310.609 35.8594L306.086 23.3203H308.453L311.617 32.8242ZM335.523 29.8008C335.523 31.7383 335.078 33.2969 334.188 34.4766C333.297 35.6484 332.102 36.2344 330.602 36.2344C329 36.2344 327.762 35.668 326.887 34.5352L326.781 36H324.789V18H326.957V24.7148C327.832 23.6289 329.039 23.0859 330.578 23.0859C332.117 23.0859 333.324 23.668 334.199 24.832C335.082 25.9961 335.523 27.5898 335.523 29.6133V29.8008ZM333.355 29.5547C333.355 28.0781 333.07 26.9375 332.5 26.1328C331.93 25.3281 331.109 24.9258 330.039 24.9258C328.609 24.9258 327.582 25.5898 326.957 26.918V32.4023C327.621 33.7305 328.656 34.3945 330.062 34.3945C331.102 34.3945 331.91 33.9922 332.488 33.1875C333.066 32.3828 333.355 31.1719 333.355 29.5547ZM344.395 25.2656C344.066 25.2109 343.711 25.1836 343.328 25.1836C341.906 25.1836 340.941 25.7891 340.434 27V36H338.266V23.3203H340.375L340.41 24.7852C341.121 23.6523 342.129 23.0859 343.434 23.0859C343.855 23.0859 344.176 23.1406 344.395 23.25V25.2656ZM351.426 36.2344C349.707 36.2344 348.309 35.6719 347.23 34.5469C346.152 33.4141 345.613 31.9023 345.613 30.0117V29.6133C345.613 28.3555 345.852 27.2344 346.328 26.25C346.812 25.2578 347.484 24.4844 348.344 23.9297C349.211 23.3672 350.148 23.0859 351.156 23.0859C352.805 23.0859 354.086 23.6289 355 24.7148C355.914 25.8008 356.371 27.3555 356.371 29.3789V30.2812H347.781C347.812 31.5312 348.176 32.543 348.871 33.3164C349.574 34.082 350.465 34.4648 351.543 34.4648C352.309 34.4648 352.957 34.3086 353.488 33.9961C354.02 33.6836 354.484 33.2695 354.883 32.7539L356.207 33.7852C355.145 35.418 353.551 36.2344 351.426 36.2344ZM351.156 24.8672C350.281 24.8672 349.547 25.1875 348.953 25.8281C348.359 26.4609 347.992 27.3516 347.852 28.5H354.203V28.3359C354.141 27.2344 353.844 26.3828 353.312 25.7812C352.781 25.1719 352.062 24.8672 351.156 24.8672ZM358.363 29.5547C358.363 27.6094 358.824 26.0469 359.746 24.8672C360.668 23.6797 361.875 23.0859 363.367 23.0859C364.852 23.0859 366.027 23.5938 366.895 24.6094V18H369.062V36H367.07L366.965 34.6406C366.098 35.7031 364.891 36.2344 363.344 36.2344C361.875 36.2344 360.676 35.6328 359.746 34.4297C358.824 33.2266 358.363 31.6562 358.363 29.7188V29.5547ZM360.531 29.8008C360.531 31.2383 360.828 32.3633 361.422 33.1758C362.016 33.9883 362.836 34.3945 363.883 34.3945C365.258 34.3945 366.262 33.7773 366.895 32.543V26.7188C366.246 25.5234 365.25 24.9258 363.906 24.9258C362.844 24.9258 362.016 25.3359 361.422 26.1562C360.828 26.9766 360.531 28.1914 360.531 29.8008ZM29.582 48.25V51.3203H31.9492V52.9961H29.582V60.8594C29.582 61.3672 29.6875 61.75 29.8984 62.0078C30.1094 62.2578 30.4688 62.3828 30.9766 62.3828C31.2266 62.3828 31.5703 62.3359 32.0078 62.2422V64C31.4375 64.1562 30.8828 64.2344 30.3438 64.2344C29.375 64.2344 28.6445 63.9414 28.1523 63.3555C27.6602 62.7695 27.4141 61.9375 27.4141 60.8594V52.9961H25.1055V51.3203H27.4141V48.25H29.582ZM33.6836 57.543C33.6836 56.3008 33.9258 55.1836 34.4102 54.1914C34.9023 53.1992 35.582 52.4336 36.4492 51.8945C37.3242 51.3555 38.3203 51.0859 39.4375 51.0859C41.1641 51.0859 42.5586 51.6836 43.6211 52.8789C44.6914 54.0742 45.2266 55.6641 45.2266 57.6484V57.8008C45.2266 59.0352 44.9883 60.1445 44.5117 61.1289C44.043 62.1055 43.3672 62.8672 42.4844 63.4141C41.6094 63.9609 40.6016 64.2344 39.4609 64.2344C37.7422 64.2344 36.3477 63.6367 35.2773 62.4414C34.2148 61.2461 33.6836 59.6641 33.6836 57.6953V57.543ZM35.8633 57.8008C35.8633 59.207 36.1875 60.3359 36.8359 61.1875C37.4922 62.0391 38.3672 62.4648 39.4609 62.4648C40.5625 62.4648 41.4375 62.0352 42.0859 61.1758C42.7344 60.3086 43.0586 59.0977 43.0586 57.543C43.0586 56.1523 42.7266 55.0273 42.0625 54.168C41.4062 53.3008 40.5312 52.8672 39.4375 52.8672C38.3672 52.8672 37.5039 53.293 36.8477 54.1445C36.1914 54.9961 35.8633 56.2148 35.8633 57.8008ZM54.625 64V52.9961H52.6211V51.3203H54.625V50.2422C54.625 48.8281 55.0273 47.7266 55.832 46.9375C56.6445 46.1484 57.7891 45.7539 59.2656 45.7539C60.1406 45.7539 61.2461 45.9922 62.582 46.4688L62.2188 48.2969C61.2422 47.9062 60.3125 47.7109 59.4297 47.7109C58.5 47.7109 57.8281 47.9219 57.4141 48.3438C57.0078 48.7578 56.8047 49.3828 56.8047 50.2188V51.3203H59.3945V52.9961H56.8047V64H54.625ZM63.6602 64H61.4805V51.3203H63.6602V64ZM66.6719 57.5547C66.6719 55.5781 67.1289 54.0078 68.043 52.8438C68.957 51.6719 70.168 51.0859 71.6758 51.0859C73.2227 51.0859 74.4297 51.6328 75.2969 52.7266L75.4023 51.3203H77.3828V63.6953C77.3828 65.3359 76.8945 66.6289 75.918 67.5742C74.9492 68.5195 73.6445 68.9922 72.0039 68.9922C71.0898 68.9922 70.1953 68.7969 69.3203 68.4062C68.4453 68.0156 67.7773 67.4805 67.3164 66.8008L68.4414 65.5C69.3711 66.6484 70.5078 67.2227 71.8516 67.2227C72.9062 67.2227 73.7266 66.9258 74.3125 66.332C74.9062 65.7383 75.2031 64.9023 75.2031 63.8242V62.7344C74.3359 63.7344 73.1523 64.2344 71.6523 64.2344C70.168 64.2344 68.9648 63.6367 68.043 62.4414C67.1289 61.2461 66.6719 59.6172 66.6719 57.5547ZM68.8516 57.8008C68.8516 59.2305 69.1445 60.3555 69.7305 61.1758C70.3164 61.9883 71.1367 62.3945 72.1914 62.3945C73.5586 62.3945 74.5625 61.7734 75.2031 60.5312V54.7422C74.5391 53.5312 73.543 52.9258 72.2148 52.9258C71.1602 52.9258 70.3359 53.3359 69.7422 54.1562C69.1484 54.9766 68.8516 56.1914 68.8516 57.8008ZM82.832 52.8555C83.793 51.6758 85.043 51.0859 86.582 51.0859C89.2617 51.0859 90.6133 52.5977 90.6367 55.6211V64H88.4688V55.6094C88.4609 54.6953 88.25 54.0195 87.8359 53.582C87.4297 53.1445 86.793 52.9258 85.9258 52.9258C85.2227 52.9258 84.6055 53.1133 84.0742 53.4883C83.543 53.8633 83.1289 54.3555 82.832 54.9648V64H80.6641V46H82.832V52.8555ZM96.8242 48.25V51.3203H99.1914V52.9961H96.8242V60.8594C96.8242 61.3672 96.9297 61.75 97.1406 62.0078C97.3516 62.2578 97.7109 62.3828 98.2188 62.3828C98.4688 62.3828 98.8125 62.3359 99.25 62.2422V64C98.6797 64.1562 98.125 64.2344 97.5859 64.2344C96.6172 64.2344 95.8867 63.9414 95.3945 63.3555C94.9023 62.7695 94.6562 61.9375 94.6562 60.8594V52.9961H92.3477V51.3203H94.6562V48.25H96.8242ZM118.422 57.8008C118.422 59.7383 117.977 61.2969 117.086 62.4766C116.195 63.6484 115 64.2344 113.5 64.2344C111.898 64.2344 110.66 63.668 109.785 62.5352L109.68 64H107.688V46H109.855V52.7148C110.73 51.6289 111.938 51.0859 113.477 51.0859C115.016 51.0859 116.223 51.668 117.098 52.832C117.98 53.9961 118.422 55.5898 118.422 57.6133V57.8008ZM116.254 57.5547C116.254 56.0781 115.969 54.9375 115.398 54.1328C114.828 53.3281 114.008 52.9258 112.938 52.9258C111.508 52.9258 110.48 53.5898 109.855 54.918V60.4023C110.52 61.7305 111.555 62.3945 112.961 62.3945C114 62.3945 114.809 61.9922 115.387 61.1875C115.965 60.3828 116.254 59.1719 116.254 57.5547ZM128.992 64C128.867 63.75 128.766 63.3047 128.688 62.6641C127.68 63.7109 126.477 64.2344 125.078 64.2344C123.828 64.2344 122.801 63.8828 121.996 63.1797C121.199 62.4688 120.801 61.5703 120.801 60.4844C120.801 59.1641 121.301 58.1406 122.301 57.4141C123.309 56.6797 124.723 56.3125 126.543 56.3125H128.652V55.3164C128.652 54.5586 128.426 53.957 127.973 53.5117C127.52 53.0586 126.852 52.832 125.969 52.832C125.195 52.832 124.547 53.0273 124.023 53.418C123.5 53.8086 123.238 54.2812 123.238 54.8359H121.059C121.059 54.2031 121.281 53.5938 121.727 53.0078C122.18 52.4141 122.789 51.9453 123.555 51.6016C124.328 51.2578 125.176 51.0859 126.098 51.0859C127.559 51.0859 128.703 51.4531 129.531 52.1875C130.359 52.9141 130.789 53.918 130.82 55.1992V61.0352C130.82 62.1992 130.969 63.125 131.266 63.8125V64H128.992ZM125.395 62.3477C126.074 62.3477 126.719 62.1719 127.328 61.8203C127.938 61.4688 128.379 61.0117 128.652 60.4492V57.8477H126.953C124.297 57.8477 122.969 58.625 122.969 60.1797C122.969 60.8594 123.195 61.3906 123.648 61.7734C124.102 62.1562 124.684 62.3477 125.395 62.3477ZM133.691 57.5547C133.691 55.6094 134.152 54.0469 135.074 52.8672C135.996 51.6797 137.203 51.0859 138.695 51.0859C140.18 51.0859 141.355 51.5938 142.223 52.6094V46H144.391V64H142.398L142.293 62.6406C141.426 63.7031 140.219 64.2344 138.672 64.2344C137.203 64.2344 136.004 63.6328 135.074 62.4297C134.152 61.2266 133.691 59.6562 133.691 57.7188V57.5547ZM135.859 57.8008C135.859 59.2383 136.156 60.3633 136.75 61.1758C137.344 61.9883 138.164 62.3945 139.211 62.3945C140.586 62.3945 141.59 61.7773 142.223 60.543V54.7188C141.574 53.5234 140.578 52.9258 139.234 52.9258C138.172 52.9258 137.344 53.3359 136.75 54.1562C136.156 54.9766 135.859 56.1914 135.859 57.8008ZM147.25 57.5547C147.25 55.5781 147.707 54.0078 148.621 52.8438C149.535 51.6719 150.746 51.0859 152.254 51.0859C153.801 51.0859 155.008 51.6328 155.875 52.7266L155.98 51.3203H157.961V63.6953C157.961 65.3359 157.473 66.6289 156.496 67.5742C155.527 68.5195 154.223 68.9922 152.582 68.9922C151.668 68.9922 150.773 68.7969 149.898 68.4062C149.023 68.0156 148.355 67.4805 147.895 66.8008L149.02 65.5C149.949 66.6484 151.086 67.2227 152.43 67.2227C153.484 67.2227 154.305 66.9258 154.891 66.332C155.484 65.7383 155.781 64.9023 155.781 63.8242V62.7344C154.914 63.7344 153.73 64.2344 152.23 64.2344C150.746 64.2344 149.543 63.6367 148.621 62.4414C147.707 61.2461 147.25 59.6172 147.25 57.5547ZM149.43 57.8008C149.43 59.2305 149.723 60.3555 150.309 61.1758C150.895 61.9883 151.715 62.3945 152.77 62.3945C154.137 62.3945 155.141 61.7734 155.781 60.5312V54.7422C155.117 53.5312 154.121 52.9258 152.793 52.9258C151.738 52.9258 150.914 53.3359 150.32 54.1562C149.727 54.9766 149.43 56.1914 149.43 57.8008ZM166.504 64.2344C164.785 64.2344 163.387 63.6719 162.309 62.5469C161.23 61.4141 160.691 59.9023 160.691 58.0117V57.6133C160.691 56.3555 160.93 55.2344 161.406 54.25C161.891 53.2578 162.562 52.4844 163.422 51.9297C164.289 51.3672 165.227 51.0859 166.234 51.0859C167.883 51.0859 169.164 51.6289 170.078 52.7148C170.992 53.8008 171.449 55.3555 171.449 57.3789V58.2812H162.859C162.891 59.5312 163.254 60.543 163.949 61.3164C164.652 62.082 165.543 62.4648 166.621 62.4648C167.387 62.4648 168.035 62.3086 168.566 61.9961C169.098 61.6836 169.562 61.2695 169.961 60.7539L171.285 61.7852C170.223 63.418 168.629 64.2344 166.504 64.2344ZM166.234 52.8672C165.359 52.8672 164.625 53.1875 164.031 53.8281C163.438 54.4609 163.07 55.3516 162.93 56.5H169.281V56.3359C169.219 55.2344 168.922 54.3828 168.391 53.7812C167.859 53.1719 167.141 52.8672 166.234 52.8672ZM180.098 53.2656C179.77 53.2109 179.414 53.1836 179.031 53.1836C177.609 53.1836 176.645 53.7891 176.137 55V64H173.969V51.3203H176.078L176.113 52.7852C176.824 51.6523 177.832 51.0859 179.137 51.0859C179.559 51.0859 179.879 51.1406 180.098 51.25V53.2656ZM189.484 60.6367C189.484 60.0508 189.262 59.5977 188.816 59.2773C188.379 58.9492 187.609 58.668 186.508 58.4336C185.414 58.1992 184.543 57.918 183.895 57.5898C183.254 57.2617 182.777 56.8711 182.465 56.418C182.16 55.9648 182.008 55.4258 182.008 54.8008C182.008 53.7617 182.445 52.8828 183.32 52.1641C184.203 51.4453 185.328 51.0859 186.695 51.0859C188.133 51.0859 189.297 51.457 190.188 52.1992C191.086 52.9414 191.535 53.8906 191.535 55.0469H189.355C189.355 54.4531 189.102 53.9414 188.594 53.5117C188.094 53.082 187.461 52.8672 186.695 52.8672C185.906 52.8672 185.289 53.0391 184.844 53.3828C184.398 53.7266 184.176 54.1758 184.176 54.7305C184.176 55.2539 184.383 55.6484 184.797 55.9141C185.211 56.1797 185.957 56.4336 187.035 56.6758C188.121 56.918 189 57.207 189.672 57.543C190.344 57.8789 190.84 58.2852 191.16 58.7617C191.488 59.2305 191.652 59.8047 191.652 60.4844C191.652 61.6172 191.199 62.5273 190.293 63.2148C189.387 63.8945 188.211 64.2344 186.766 64.2344C185.75 64.2344 184.852 64.0547 184.07 63.6953C183.289 63.3359 182.676 62.8359 182.23 62.1953C181.793 61.5469 181.574 60.8477 181.574 60.0977H183.742C183.781 60.8242 184.07 61.4023 184.609 61.832C185.156 62.2539 185.875 62.4648 186.766 62.4648C187.586 62.4648 188.242 62.3008 188.734 61.9727C189.234 61.6367 189.484 61.1914 189.484 60.6367ZM194.523 62.8633C194.523 62.4883 194.633 62.1758 194.852 61.9258C195.078 61.6758 195.414 61.5508 195.859 61.5508C196.305 61.5508 196.641 61.6758 196.867 61.9258C197.102 62.1758 197.219 62.4883 197.219 62.8633C197.219 63.2227 197.102 63.5234 196.867 63.7656C196.641 64.0078 196.305 64.1289 195.859 64.1289C195.414 64.1289 195.078 64.0078 194.852 63.7656C194.633 63.5234 194.523 63.2227 194.523 62.8633Z" fill="black"/>
</svg>
