<svg width="555" height="75" viewBox="0 0 555 75" fill="none" xmlns="http://www.w3.org/2000/svg">
<rect x="0.5" y="0.5" width="554" height="74" rx="24.5" fill="#A9CDF7" stroke="black"/>
<path d="M26.2422 27.1602H34.3281V29H23.9805V11.9375H26.2422V27.1602ZM44.3828 29C44.2578 28.75 44.1562 28.3047 44.0781 27.6641C43.0703 28.7109 41.8672 29.2344 40.4688 29.2344C39.2188 29.2344 38.1914 28.8828 37.3867 28.1797C36.5898 27.4688 36.1914 26.5703 36.1914 25.4844C36.1914 24.1641 36.6914 23.1406 37.6914 22.4141C38.6992 21.6797 40.1133 21.3125 41.9336 21.3125H44.043V20.3164C44.043 19.5586 43.8164 18.957 43.3633 18.5117C42.9102 18.0586 42.2422 17.832 41.3594 17.832C40.5859 17.832 39.9375 18.0273 39.4141 18.418C38.8906 18.8086 38.6289 19.2812 38.6289 19.8359H36.4492C36.4492 19.2031 36.6719 18.5938 37.1172 18.0078C37.5703 17.4141 38.1797 16.9453 38.9453 16.6016C39.7188 16.2578 40.5664 16.0859 41.4883 16.0859C42.9492 16.0859 44.0938 16.4531 44.9219 17.1875C45.75 17.9141 46.1797 18.918 46.2109 20.1992V26.0352C46.2109 27.1992 46.3594 28.125 46.6562 28.8125V29H44.3828ZM40.7852 27.3477C41.4648 27.3477 42.1094 27.1719 42.7188 26.8203C43.3281 26.4688 43.7695 26.0117 44.043 25.4492V22.8477H42.3438C39.6875 22.8477 38.3594 23.625 38.3594 25.1797C38.3594 25.8594 38.5859 26.3906 39.0391 26.7734C39.4922 27.1562 40.0742 27.3477 40.7852 27.3477ZM60.3438 22.8008C60.3438 24.7383 59.8984 26.2969 59.0078 27.4766C58.1172 28.6484 56.9219 29.2344 55.4219 29.2344C53.8203 29.2344 52.582 28.668 51.707 27.5352L51.6016 29H49.6094V11H51.7773V17.7148C52.6523 16.6289 53.8594 16.0859 55.3984 16.0859C56.9375 16.0859 58.1445 16.668 59.0195 17.832C59.9023 18.9961 60.3438 20.5898 60.3438 22.6133V22.8008ZM58.1758 22.5547C58.1758 21.0781 57.8906 19.9375 57.3203 19.1328C56.75 18.3281 55.9297 17.9258 54.8594 17.9258C53.4297 17.9258 52.4023 18.5898 51.7773 19.918V25.4023C52.4414 26.7305 53.4766 27.3945 54.8828 27.3945C55.9219 27.3945 56.7305 26.9922 57.3086 26.1875C57.8867 25.3828 58.1758 24.1719 58.1758 22.5547ZM69.2148 18.2656C68.8867 18.2109 68.5312 18.1836 68.1484 18.1836C66.7266 18.1836 65.7617 18.7891 65.2539 20V29H63.0859V16.3203H65.1953L65.2305 17.7852C65.9414 16.6523 66.9492 16.0859 68.2539 16.0859C68.6758 16.0859 68.9961 16.1406 69.2148 16.25V18.2656ZM78.5781 29C78.4531 28.75 78.3516 28.3047 78.2734 27.6641C77.2656 28.7109 76.0625 29.2344 74.6641 29.2344C73.4141 29.2344 72.3867 28.8828 71.582 28.1797C70.7852 27.4688 70.3867 26.5703 70.3867 25.4844C70.3867 24.1641 70.8867 23.1406 71.8867 22.4141C72.8945 21.6797 74.3086 21.3125 76.1289 21.3125H78.2383V20.3164C78.2383 19.5586 78.0117 18.957 77.5586 18.5117C77.1055 18.0586 76.4375 17.832 75.5547 17.832C74.7812 17.832 74.1328 18.0273 73.6094 18.418C73.0859 18.8086 72.8242 19.2812 72.8242 19.8359H70.6445C70.6445 19.2031 70.8672 18.5938 71.3125 18.0078C71.7656 17.4141 72.375 16.9453 73.1406 16.6016C73.9141 16.2578 74.7617 16.0859 75.6836 16.0859C77.1445 16.0859 78.2891 16.4531 79.1172 17.1875C79.9453 17.9141 80.375 18.918 80.4062 20.1992V26.0352C80.4062 27.1992 80.5547 28.125 80.8516 28.8125V29H78.5781ZM74.9805 27.3477C75.6602 27.3477 76.3047 27.1719 76.9141 26.8203C77.5234 26.4688 77.9648 26.0117 78.2383 25.4492V22.8477H76.5391C73.8828 22.8477 72.5547 23.625 72.5547 25.1797C72.5547 25.8594 72.7812 26.3906 73.2344 26.7734C73.6875 27.1562 74.2695 27.3477 74.9805 27.3477ZM83.2773 22.5547C83.2773 20.6094 83.7383 19.0469 84.6602 17.8672C85.582 16.6797 86.7891 16.0859 88.2812 16.0859C89.7656 16.0859 90.9414 16.5938 91.8086 17.6094V11H93.9766V29H91.9844L91.8789 27.6406C91.0117 28.7031 89.8047 29.2344 88.2578 29.2344C86.7891 29.2344 85.5898 28.6328 84.6602 27.4297C83.7383 26.2266 83.2773 24.6562 83.2773 22.7188V22.5547ZM85.4453 22.8008C85.4453 24.2383 85.7422 25.3633 86.3359 26.1758C86.9297 26.9883 87.75 27.3945 88.7969 27.3945C90.1719 27.3945 91.1758 26.7773 91.8086 25.543V19.7188C91.1602 18.5234 90.1641 17.9258 88.8203 17.9258C87.7578 17.9258 86.9297 18.3359 86.3359 19.1562C85.7422 19.9766 85.4453 21.1914 85.4453 22.8008ZM96.7773 22.543C96.7773 21.3008 97.0195 20.1836 97.5039 19.1914C97.9961 18.1992 98.6758 17.4336 99.543 16.8945C100.418 16.3555 101.414 16.0859 102.531 16.0859C104.258 16.0859 105.652 16.6836 106.715 17.8789C107.785 19.0742 108.32 20.6641 108.32 22.6484V22.8008C108.32 24.0352 108.082 25.1445 107.605 26.1289C107.137 27.1055 106.461 27.8672 105.578 28.4141C104.703 28.9609 103.695 29.2344 102.555 29.2344C100.836 29.2344 99.4414 28.6367 98.3711 27.4414C97.3086 26.2461 96.7773 24.6641 96.7773 22.6953V22.543ZM98.957 22.8008C98.957 24.207 99.2812 25.3359 99.9297 26.1875C100.586 27.0391 101.461 27.4648 102.555 27.4648C103.656 27.4648 104.531 27.0352 105.18 26.1758C105.828 25.3086 106.152 24.0977 106.152 22.543C106.152 21.1523 105.82 20.0273 105.156 19.168C104.5 18.3008 103.625 17.8672 102.531 17.8672C101.461 17.8672 100.598 18.293 99.9414 19.1445C99.2852 19.9961 98.957 21.2148 98.957 22.8008ZM117.168 18.2656C116.84 18.2109 116.484 18.1836 116.102 18.1836C114.68 18.1836 113.715 18.7891 113.207 20V29H111.039V16.3203H113.148L113.184 17.7852C113.895 16.6523 114.902 16.0859 116.207 16.0859C116.629 16.0859 116.949 16.1406 117.168 16.25V18.2656ZM126.555 25.6367C126.555 25.0508 126.332 24.5977 125.887 24.2773C125.449 23.9492 124.68 23.668 123.578 23.4336C122.484 23.1992 121.613 22.918 120.965 22.5898C120.324 22.2617 119.848 21.8711 119.535 21.418C119.23 20.9648 119.078 20.4258 119.078 19.8008C119.078 18.7617 119.516 17.8828 120.391 17.1641C121.273 16.4453 122.398 16.0859 123.766 16.0859C125.203 16.0859 126.367 16.457 127.258 17.1992C128.156 17.9414 128.605 18.8906 128.605 20.0469H126.426C126.426 19.4531 126.172 18.9414 125.664 18.5117C125.164 18.082 124.531 17.8672 123.766 17.8672C122.977 17.8672 122.359 18.0391 121.914 18.3828C121.469 18.7266 121.246 19.1758 121.246 19.7305C121.246 20.2539 121.453 20.6484 121.867 20.9141C122.281 21.1797 123.027 21.4336 124.105 21.6758C125.191 21.918 126.07 22.207 126.742 22.543C127.414 22.8789 127.91 23.2852 128.23 23.7617C128.559 24.2305 128.723 24.8047 128.723 25.4844C128.723 26.6172 128.27 27.5273 127.363 28.2148C126.457 28.8945 125.281 29.2344 123.836 29.2344C122.82 29.2344 121.922 29.0547 121.141 28.6953C120.359 28.3359 119.746 27.8359 119.301 27.1953C118.863 26.5469 118.645 25.8477 118.645 25.0977H120.812C120.852 25.8242 121.141 26.4023 121.68 26.832C122.227 27.2539 122.945 27.4648 123.836 27.4648C124.656 27.4648 125.312 27.3008 125.805 26.9727C126.305 26.6367 126.555 26.1914 126.555 25.6367ZM139.668 17.8555C140.629 16.6758 141.879 16.0859 143.418 16.0859C146.098 16.0859 147.449 17.5977 147.473 20.6211V29H145.305V20.6094C145.297 19.6953 145.086 19.0195 144.672 18.582C144.266 18.1445 143.629 17.9258 142.762 17.9258C142.059 17.9258 141.441 18.1133 140.91 18.4883C140.379 18.8633 139.965 19.3555 139.668 19.9648V29H137.5V11H139.668V17.8555ZM158.547 29C158.422 28.75 158.32 28.3047 158.242 27.6641C157.234 28.7109 156.031 29.2344 154.633 29.2344C153.383 29.2344 152.355 28.8828 151.551 28.1797C150.754 27.4688 150.355 26.5703 150.355 25.4844C150.355 24.1641 150.855 23.1406 151.855 22.4141C152.863 21.6797 154.277 21.3125 156.098 21.3125H158.207V20.3164C158.207 19.5586 157.98 18.957 157.527 18.5117C157.074 18.0586 156.406 17.832 155.523 17.832C154.75 17.832 154.102 18.0273 153.578 18.418C153.055 18.8086 152.793 19.2812 152.793 19.8359H150.613C150.613 19.2031 150.836 18.5938 151.281 18.0078C151.734 17.4141 152.344 16.9453 153.109 16.6016C153.883 16.2578 154.73 16.0859 155.652 16.0859C157.113 16.0859 158.258 16.4531 159.086 17.1875C159.914 17.9141 160.344 18.918 160.375 20.1992V26.0352C160.375 27.1992 160.523 28.125 160.82 28.8125V29H158.547ZM154.949 27.3477C155.629 27.3477 156.273 27.1719 156.883 26.8203C157.492 26.4688 157.934 26.0117 158.207 25.4492V22.8477H156.508C153.852 22.8477 152.523 23.625 152.523 25.1797C152.523 25.8594 152.75 26.3906 153.203 26.7734C153.656 27.1562 154.238 27.3477 154.949 27.3477ZM167.77 26.0586L170.91 16.3203H173.125L168.578 29H166.926L162.332 16.3203H164.547L167.77 26.0586ZM180.309 29.2344C178.59 29.2344 177.191 28.6719 176.113 27.5469C175.035 26.4141 174.496 24.9023 174.496 23.0117V22.6133C174.496 21.3555 174.734 20.2344 175.211 19.25C175.695 18.2578 176.367 17.4844 177.227 16.9297C178.094 16.3672 179.031 16.0859 180.039 16.0859C181.688 16.0859 182.969 16.6289 183.883 17.7148C184.797 18.8008 185.254 20.3555 185.254 22.3789V23.2812H176.664C176.695 24.5312 177.059 25.543 177.754 26.3164C178.457 27.082 179.348 27.4648 180.426 27.4648C181.191 27.4648 181.84 27.3086 182.371 26.9961C182.902 26.6836 183.367 26.2695 183.766 25.7539L185.09 26.7852C184.027 28.418 182.434 29.2344 180.309 29.2344ZM180.039 17.8672C179.164 17.8672 178.43 18.1875 177.836 18.8281C177.242 19.4609 176.875 20.3516 176.734 21.5H183.086V21.3359C183.023 20.2344 182.727 19.3828 182.195 18.7812C181.664 18.1719 180.945 17.8672 180.039 17.8672ZM204.461 22.8008C204.461 24.7383 204.016 26.2969 203.125 27.4766C202.234 28.6484 201.039 29.2344 199.539 29.2344C197.938 29.2344 196.699 28.668 195.824 27.5352L195.719 29H193.727V11H195.895V17.7148C196.77 16.6289 197.977 16.0859 199.516 16.0859C201.055 16.0859 202.262 16.668 203.137 17.832C204.02 18.9961 204.461 20.5898 204.461 22.6133V22.8008ZM202.293 22.5547C202.293 21.0781 202.008 19.9375 201.438 19.1328C200.867 18.3281 200.047 17.9258 198.977 17.9258C197.547 17.9258 196.52 18.5898 195.895 19.918V25.4023C196.559 26.7305 197.594 27.3945 199 27.3945C200.039 27.3945 200.848 26.9922 201.426 26.1875C202.004 25.3828 202.293 24.1719 202.293 22.5547ZM212.465 29.2344C210.746 29.2344 209.348 28.6719 208.27 27.5469C207.191 26.4141 206.652 24.9023 206.652 23.0117V22.6133C206.652 21.3555 206.891 20.2344 207.367 19.25C207.852 18.2578 208.523 17.4844 209.383 16.9297C210.25 16.3672 211.188 16.0859 212.195 16.0859C213.844 16.0859 215.125 16.6289 216.039 17.7148C216.953 18.8008 217.41 20.3555 217.41 22.3789V23.2812H208.82C208.852 24.5312 209.215 25.543 209.91 26.3164C210.613 27.082 211.504 27.4648 212.582 27.4648C213.348 27.4648 213.996 27.3086 214.527 26.9961C215.059 26.6836 215.523 26.2695 215.922 25.7539L217.246 26.7852C216.184 28.418 214.59 29.2344 212.465 29.2344ZM212.195 17.8672C211.32 17.8672 210.586 18.1875 209.992 18.8281C209.398 19.4609 209.031 20.3516 208.891 21.5H215.242V21.3359C215.18 20.2344 214.883 19.3828 214.352 18.7812C213.82 18.1719 213.102 17.8672 212.195 17.8672ZM225.191 29.2344C223.473 29.2344 222.074 28.6719 220.996 27.5469C219.918 26.4141 219.379 24.9023 219.379 23.0117V22.6133C219.379 21.3555 219.617 20.2344 220.094 19.25C220.578 18.2578 221.25 17.4844 222.109 16.9297C222.977 16.3672 223.914 16.0859 224.922 16.0859C226.57 16.0859 227.852 16.6289 228.766 17.7148C229.68 18.8008 230.137 20.3555 230.137 22.3789V23.2812H221.547C221.578 24.5312 221.941 25.543 222.637 26.3164C223.34 27.082 224.23 27.4648 225.309 27.4648C226.074 27.4648 226.723 27.3086 227.254 26.9961C227.785 26.6836 228.25 26.2695 228.648 25.7539L229.973 26.7852C228.91 28.418 227.316 29.2344 225.191 29.2344ZM224.922 17.8672C224.047 17.8672 223.312 18.1875 222.719 18.8281C222.125 19.4609 221.758 20.3516 221.617 21.5H227.969V21.3359C227.906 20.2344 227.609 19.3828 227.078 18.7812C226.547 18.1719 225.828 17.8672 224.922 17.8672ZM234.707 16.3203L234.777 17.9141C235.746 16.6953 237.012 16.0859 238.574 16.0859C241.254 16.0859 242.605 17.5977 242.629 20.6211V29H240.461V20.6094C240.453 19.6953 240.242 19.0195 239.828 18.582C239.422 18.1445 238.785 17.9258 237.918 17.9258C237.215 17.9258 236.598 18.1133 236.066 18.4883C235.535 18.8633 235.121 19.3555 234.824 19.9648V29H232.656V16.3203H234.707ZM254.793 13.25V16.3203H257.16V17.9961H254.793V25.8594C254.793 26.3672 254.898 26.75 255.109 27.0078C255.32 27.2578 255.68 27.3828 256.188 27.3828C256.438 27.3828 256.781 27.3359 257.219 27.2422V29C256.648 29.1562 256.094 29.2344 255.555 29.2344C254.586 29.2344 253.855 28.9414 253.363 28.3555C252.871 27.7695 252.625 26.9375 252.625 25.8594V17.9961H250.316V16.3203H252.625V13.25H254.793ZM261.871 17.8555C262.832 16.6758 264.082 16.0859 265.621 16.0859C268.301 16.0859 269.652 17.5977 269.676 20.6211V29H267.508V20.6094C267.5 19.6953 267.289 19.0195 266.875 18.582C266.469 18.1445 265.832 17.9258 264.965 17.9258C264.262 17.9258 263.645 18.1133 263.113 18.4883C262.582 18.8633 262.168 19.3555 261.871 19.9648V29H259.703V11H261.871V17.8555ZM278.184 29.2344C276.465 29.2344 275.066 28.6719 273.988 27.5469C272.91 26.4141 272.371 24.9023 272.371 23.0117V22.6133C272.371 21.3555 272.609 20.2344 273.086 19.25C273.57 18.2578 274.242 17.4844 275.102 16.9297C275.969 16.3672 276.906 16.0859 277.914 16.0859C279.562 16.0859 280.844 16.6289 281.758 17.7148C282.672 18.8008 283.129 20.3555 283.129 22.3789V23.2812H274.539C274.57 24.5312 274.934 25.543 275.629 26.3164C276.332 27.082 277.223 27.4648 278.301 27.4648C279.066 27.4648 279.715 27.3086 280.246 26.9961C280.777 26.6836 281.242 26.2695 281.641 25.7539L282.965 26.7852C281.902 28.418 280.309 29.2344 278.184 29.2344ZM277.914 17.8672C277.039 17.8672 276.305 18.1875 275.711 18.8281C275.117 19.4609 274.75 20.3516 274.609 21.5H280.961V21.3359C280.898 20.2344 280.602 19.3828 280.07 18.7812C279.539 18.1719 278.82 17.8672 277.914 17.8672ZM293.641 16.3203L293.699 17.7266C294.629 16.6328 295.883 16.0859 297.461 16.0859C299.234 16.0859 300.441 16.7656 301.082 18.125C301.504 17.5156 302.051 17.0234 302.723 16.6484C303.402 16.2734 304.203 16.0859 305.125 16.0859C307.906 16.0859 309.32 17.5586 309.367 20.5039V29H307.199V20.6328C307.199 19.7266 306.992 19.0508 306.578 18.6055C306.164 18.1523 305.469 17.9258 304.492 17.9258C303.688 17.9258 303.02 18.168 302.488 18.6523C301.957 19.1289 301.648 19.7734 301.562 20.5859V29H299.383V20.6914C299.383 18.8477 298.48 17.9258 296.676 17.9258C295.254 17.9258 294.281 18.5312 293.758 19.7422V29H291.59V16.3203H293.641ZM312.074 22.543C312.074 21.3008 312.316 20.1836 312.801 19.1914C313.293 18.1992 313.973 17.4336 314.84 16.8945C315.715 16.3555 316.711 16.0859 317.828 16.0859C319.555 16.0859 320.949 16.6836 322.012 17.8789C323.082 19.0742 323.617 20.6641 323.617 22.6484V22.8008C323.617 24.0352 323.379 25.1445 322.902 26.1289C322.434 27.1055 321.758 27.8672 320.875 28.4141C320 28.9609 318.992 29.2344 317.852 29.2344C316.133 29.2344 314.738 28.6367 313.668 27.4414C312.605 26.2461 312.074 24.6641 312.074 22.6953V22.543ZM314.254 22.8008C314.254 24.207 314.578 25.3359 315.227 26.1875C315.883 27.0391 316.758 27.4648 317.852 27.4648C318.953 27.4648 319.828 27.0352 320.477 26.1758C321.125 25.3086 321.449 24.0977 321.449 22.543C321.449 21.1523 321.117 20.0273 320.453 19.168C319.797 18.3008 318.922 17.8672 317.828 17.8672C316.758 17.8672 315.895 18.293 315.238 19.1445C314.582 19.9961 314.254 21.2148 314.254 22.8008ZM333.719 25.6367C333.719 25.0508 333.496 24.5977 333.051 24.2773C332.613 23.9492 331.844 23.668 330.742 23.4336C329.648 23.1992 328.777 22.918 328.129 22.5898C327.488 22.2617 327.012 21.8711 326.699 21.418C326.395 20.9648 326.242 20.4258 326.242 19.8008C326.242 18.7617 326.68 17.8828 327.555 17.1641C328.438 16.4453 329.562 16.0859 330.93 16.0859C332.367 16.0859 333.531 16.457 334.422 17.1992C335.32 17.9414 335.77 18.8906 335.77 20.0469H333.59C333.59 19.4531 333.336 18.9414 332.828 18.5117C332.328 18.082 331.695 17.8672 330.93 17.8672C330.141 17.8672 329.523 18.0391 329.078 18.3828C328.633 18.7266 328.41 19.1758 328.41 19.7305C328.41 20.2539 328.617 20.6484 329.031 20.9141C329.445 21.1797 330.191 21.4336 331.27 21.6758C332.355 21.918 333.234 22.207 333.906 22.543C334.578 22.8789 335.074 23.2852 335.395 23.7617C335.723 24.2305 335.887 24.8047 335.887 25.4844C335.887 26.6172 335.434 27.5273 334.527 28.2148C333.621 28.8945 332.445 29.2344 331 29.2344C329.984 29.2344 329.086 29.0547 328.305 28.6953C327.523 28.3359 326.91 27.8359 326.465 27.1953C326.027 26.5469 325.809 25.8477 325.809 25.0977H327.977C328.016 25.8242 328.305 26.4023 328.844 26.832C329.391 27.2539 330.109 27.4648 331 27.4648C331.82 27.4648 332.477 27.3008 332.969 26.9727C333.469 26.6367 333.719 26.1914 333.719 25.6367ZM341.652 13.25V16.3203H344.02V17.9961H341.652V25.8594C341.652 26.3672 341.758 26.75 341.969 27.0078C342.18 27.2578 342.539 27.3828 343.047 27.3828C343.297 27.3828 343.641 27.3359 344.078 27.2422V29C343.508 29.1562 342.953 29.2344 342.414 29.2344C341.445 29.2344 340.715 28.9414 340.223 28.3555C339.73 27.7695 339.484 26.9375 339.484 25.8594V17.9961H337.176V16.3203H339.484V13.25H341.652ZM363.227 22.8008C363.227 24.7305 362.785 26.2852 361.902 27.4648C361.02 28.6445 359.824 29.2344 358.316 29.2344C356.777 29.2344 355.566 28.7461 354.684 27.7695V33.875H352.516V16.3203H354.496L354.602 17.7266C355.484 16.6328 356.711 16.0859 358.281 16.0859C359.805 16.0859 361.008 16.6602 361.891 17.8086C362.781 18.957 363.227 20.5547 363.227 22.6016V22.8008ZM361.059 22.5547C361.059 21.125 360.754 19.9961 360.145 19.168C359.535 18.3398 358.699 17.9258 357.637 17.9258C356.324 17.9258 355.34 18.5078 354.684 19.6719V25.7305C355.332 26.8867 356.324 27.4648 357.66 27.4648C358.699 27.4648 359.523 27.0547 360.133 26.2344C360.75 25.4062 361.059 24.1797 361.059 22.5547ZM365.418 22.543C365.418 21.3008 365.66 20.1836 366.145 19.1914C366.637 18.1992 367.316 17.4336 368.184 16.8945C369.059 16.3555 370.055 16.0859 371.172 16.0859C372.898 16.0859 374.293 16.6836 375.355 17.8789C376.426 19.0742 376.961 20.6641 376.961 22.6484V22.8008C376.961 24.0352 376.723 25.1445 376.246 26.1289C375.777 27.1055 375.102 27.8672 374.219 28.4141C373.344 28.9609 372.336 29.2344 371.195 29.2344C369.477 29.2344 368.082 28.6367 367.012 27.4414C365.949 26.2461 365.418 24.6641 365.418 22.6953V22.543ZM367.598 22.8008C367.598 24.207 367.922 25.3359 368.57 26.1875C369.227 27.0391 370.102 27.4648 371.195 27.4648C372.297 27.4648 373.172 27.0352 373.82 26.1758C374.469 25.3086 374.793 24.0977 374.793 22.543C374.793 21.1523 374.461 20.0273 373.797 19.168C373.141 18.3008 372.266 17.8672 371.172 17.8672C370.102 17.8672 369.238 18.293 368.582 19.1445C367.926 19.9961 367.598 21.2148 367.598 22.8008ZM390.391 22.8008C390.391 24.7305 389.949 26.2852 389.066 27.4648C388.184 28.6445 386.988 29.2344 385.48 29.2344C383.941 29.2344 382.73 28.7461 381.848 27.7695V33.875H379.68V16.3203H381.66L381.766 17.7266C382.648 16.6328 383.875 16.0859 385.445 16.0859C386.969 16.0859 388.172 16.6602 389.055 17.8086C389.945 18.957 390.391 20.5547 390.391 22.6016V22.8008ZM388.223 22.5547C388.223 21.125 387.918 19.9961 387.309 19.168C386.699 18.3398 385.863 17.9258 384.801 17.9258C383.488 17.9258 382.504 18.5078 381.848 19.6719V25.7305C382.496 26.8867 383.488 27.4648 384.824 27.4648C385.863 27.4648 386.688 27.0547 387.297 26.2344C387.914 25.4062 388.223 24.1797 388.223 22.5547ZM400.984 27.7461C400.141 28.7383 398.902 29.2344 397.27 29.2344C395.918 29.2344 394.887 28.8438 394.176 28.0625C393.473 27.2734 393.117 26.1094 393.109 24.5703V16.3203H395.277V24.5117C395.277 26.4336 396.059 27.3945 397.621 27.3945C399.277 27.3945 400.379 26.7773 400.926 25.543V16.3203H403.094V29H401.031L400.984 27.7461ZM408.754 29H406.586V11H408.754V29ZM420.062 29C419.938 28.75 419.836 28.3047 419.758 27.6641C418.75 28.7109 417.547 29.2344 416.148 29.2344C414.898 29.2344 413.871 28.8828 413.066 28.1797C412.27 27.4688 411.871 26.5703 411.871 25.4844C411.871 24.1641 412.371 23.1406 413.371 22.4141C414.379 21.6797 415.793 21.3125 417.613 21.3125H419.723V20.3164C419.723 19.5586 419.496 18.957 419.043 18.5117C418.59 18.0586 417.922 17.832 417.039 17.832C416.266 17.832 415.617 18.0273 415.094 18.418C414.57 18.8086 414.309 19.2812 414.309 19.8359H412.129C412.129 19.2031 412.352 18.5938 412.797 18.0078C413.25 17.4141 413.859 16.9453 414.625 16.6016C415.398 16.2578 416.246 16.0859 417.168 16.0859C418.629 16.0859 419.773 16.4531 420.602 17.1875C421.43 17.9141 421.859 18.918 421.891 20.1992V26.0352C421.891 27.1992 422.039 28.125 422.336 28.8125V29H420.062ZM416.465 27.3477C417.145 27.3477 417.789 27.1719 418.398 26.8203C419.008 26.4688 419.449 26.0117 419.723 25.4492V22.8477H418.023C415.367 22.8477 414.039 23.625 414.039 25.1797C414.039 25.8594 414.266 26.3906 414.719 26.7734C415.172 27.1562 415.754 27.3477 416.465 27.3477ZM431.418 18.2656C431.09 18.2109 430.734 18.1836 430.352 18.1836C428.93 18.1836 427.965 18.7891 427.457 20V29H425.289V16.3203H427.398L427.434 17.7852C428.145 16.6523 429.152 16.0859 430.457 16.0859C430.879 16.0859 431.199 16.1406 431.418 16.25V18.2656ZM40.3281 50.8008C40.3281 52.7383 39.8828 54.2969 38.9922 55.4766C38.1016 56.6484 36.9062 57.2344 35.4062 57.2344C33.8047 57.2344 32.5664 56.668 31.6914 55.5352L31.5859 57H29.5938V39H31.7617V45.7148C32.6367 44.6289 33.8438 44.0859 35.3828 44.0859C36.9219 44.0859 38.1289 44.668 39.0039 45.832C39.8867 46.9961 40.3281 48.5898 40.3281 50.6133V50.8008ZM38.1602 50.5547C38.1602 49.0781 37.875 47.9375 37.3047 47.1328C36.7344 46.3281 35.9141 45.9258 34.8438 45.9258C33.4141 45.9258 32.3867 46.5898 31.7617 47.918V53.4023C32.4258 54.7305 33.4609 55.3945 34.8672 55.3945C35.9062 55.3945 36.7148 54.9922 37.293 54.1875C37.8711 53.3828 38.1602 52.1719 38.1602 50.5547ZM49.1992 46.2656C48.8711 46.2109 48.5156 46.1836 48.1328 46.1836C46.7109 46.1836 45.7461 46.7891 45.2383 48V57H43.0703V44.3203H45.1797L45.2148 45.7852C45.9258 44.6523 46.9336 44.0859 48.2383 44.0859C48.6602 44.0859 48.9805 44.1406 49.1992 44.25V46.2656ZM56.2305 57.2344C54.5117 57.2344 53.1133 56.6719 52.0352 55.5469C50.957 54.4141 50.418 52.9023 50.418 51.0117V50.6133C50.418 49.3555 50.6562 48.2344 51.1328 47.25C51.6172 46.2578 52.2891 45.4844 53.1484 44.9297C54.0156 44.3672 54.9531 44.0859 55.9609 44.0859C57.6094 44.0859 58.8906 44.6289 59.8047 45.7148C60.7188 46.8008 61.1758 48.3555 61.1758 50.3789V51.2812H52.5859C52.6172 52.5312 52.9805 53.543 53.6758 54.3164C54.3789 55.082 55.2695 55.4648 56.3477 55.4648C57.1133 55.4648 57.7617 55.3086 58.293 54.9961C58.8242 54.6836 59.2891 54.2695 59.6875 53.7539L61.0117 54.7852C59.9492 56.418 58.3555 57.2344 56.2305 57.2344ZM55.9609 45.8672C55.0859 45.8672 54.3516 46.1875 53.7578 46.8281C53.1641 47.4609 52.7969 48.3516 52.6562 49.5H59.0078V49.3359C58.9453 48.2344 58.6484 47.3828 58.1172 46.7812C57.5859 46.1719 56.8672 45.8672 55.9609 45.8672ZM68.957 57.2344C67.2383 57.2344 65.8398 56.6719 64.7617 55.5469C63.6836 54.4141 63.1445 52.9023 63.1445 51.0117V50.6133C63.1445 49.3555 63.3828 48.2344 63.8594 47.25C64.3438 46.2578 65.0156 45.4844 65.875 44.9297C66.7422 44.3672 67.6797 44.0859 68.6875 44.0859C70.3359 44.0859 71.6172 44.6289 72.5312 45.7148C73.4453 46.8008 73.9023 48.3555 73.9023 50.3789V51.2812H65.3125C65.3438 52.5312 65.707 53.543 66.4023 54.3164C67.1055 55.082 67.9961 55.4648 69.0742 55.4648C69.8398 55.4648 70.4883 55.3086 71.0195 54.9961C71.5508 54.6836 72.0156 54.2695 72.4141 53.7539L73.7383 54.7852C72.6758 56.418 71.082 57.2344 68.957 57.2344ZM68.6875 45.8672C67.8125 45.8672 67.0781 46.1875 66.4844 46.8281C65.8906 47.4609 65.5234 48.3516 65.3828 49.5H71.7344V49.3359C71.6719 48.2344 71.375 47.3828 70.8438 46.7812C70.3125 46.1719 69.5938 45.8672 68.6875 45.8672ZM75.8945 50.5547C75.8945 48.6094 76.3555 47.0469 77.2773 45.8672C78.1992 44.6797 79.4062 44.0859 80.8984 44.0859C82.3828 44.0859 83.5586 44.5938 84.4258 45.6094V39H86.5938V57H84.6016L84.4961 55.6406C83.6289 56.7031 82.4219 57.2344 80.875 57.2344C79.4062 57.2344 78.207 56.6328 77.2773 55.4297C76.3555 54.2266 75.8945 52.6562 75.8945 50.7188V50.5547ZM78.0625 50.8008C78.0625 52.2383 78.3594 53.3633 78.9531 54.1758C79.5469 54.9883 80.3672 55.3945 81.4141 55.3945C82.7891 55.3945 83.793 54.7773 84.4258 53.543V47.7188C83.7773 46.5234 82.7812 45.9258 81.4375 45.9258C80.375 45.9258 79.5469 46.3359 78.9531 47.1562C78.3594 47.9766 78.0625 49.1914 78.0625 50.8008ZM98.2773 57H96.1094V44.3203H98.2773V57ZM95.9336 40.957C95.9336 40.6055 96.0391 40.3086 96.25 40.0664C96.4688 39.8242 96.7891 39.7031 97.2109 39.7031C97.6328 39.7031 97.9531 39.8242 98.1719 40.0664C98.3906 40.3086 98.5 40.6055 98.5 40.957C98.5 41.3086 98.3906 41.6016 98.1719 41.8359C97.9531 42.0703 97.6328 42.1875 97.2109 42.1875C96.7891 42.1875 96.4688 42.0703 96.25 41.8359C96.0391 41.6016 95.9336 41.3086 95.9336 40.957ZM103.809 44.3203L103.879 45.9141C104.848 44.6953 106.113 44.0859 107.676 44.0859C110.355 44.0859 111.707 45.5977 111.73 48.6211V57H109.562V48.6094C109.555 47.6953 109.344 47.0195 108.93 46.582C108.523 46.1445 107.887 45.9258 107.02 45.9258C106.316 45.9258 105.699 46.1133 105.168 46.4883C104.637 46.8633 104.223 47.3555 103.926 47.9648V57H101.758V44.3203H103.809ZM123.895 41.25V44.3203H126.262V45.9961H123.895V53.8594C123.895 54.3672 124 54.75 124.211 55.0078C124.422 55.2578 124.781 55.3828 125.289 55.3828C125.539 55.3828 125.883 55.3359 126.32 55.2422V57C125.75 57.1562 125.195 57.2344 124.656 57.2344C123.688 57.2344 122.957 56.9414 122.465 56.3555C121.973 55.7695 121.727 54.9375 121.727 53.8594V45.9961H119.418V44.3203H121.727V41.25H123.895ZM130.973 45.8555C131.934 44.6758 133.184 44.0859 134.723 44.0859C137.402 44.0859 138.754 45.5977 138.777 48.6211V57H136.609V48.6094C136.602 47.6953 136.391 47.0195 135.977 46.582C135.57 46.1445 134.934 45.9258 134.066 45.9258C133.363 45.9258 132.746 46.1133 132.215 46.4883C131.684 46.8633 131.27 47.3555 130.973 47.9648V57H128.805V39H130.973V45.8555ZM147.285 57.2344C145.566 57.2344 144.168 56.6719 143.09 55.5469C142.012 54.4141 141.473 52.9023 141.473 51.0117V50.6133C141.473 49.3555 141.711 48.2344 142.188 47.25C142.672 46.2578 143.344 45.4844 144.203 44.9297C145.07 44.3672 146.008 44.0859 147.016 44.0859C148.664 44.0859 149.945 44.6289 150.859 45.7148C151.773 46.8008 152.23 48.3555 152.23 50.3789V51.2812H143.641C143.672 52.5312 144.035 53.543 144.73 54.3164C145.434 55.082 146.324 55.4648 147.402 55.4648C148.168 55.4648 148.816 55.3086 149.348 54.9961C149.879 54.6836 150.344 54.2695 150.742 53.7539L152.066 54.7852C151.004 56.418 149.41 57.2344 147.285 57.2344ZM147.016 45.8672C146.141 45.8672 145.406 46.1875 144.812 46.8281C144.219 47.4609 143.852 48.3516 143.711 49.5H150.062V49.3359C150 48.2344 149.703 47.3828 149.172 46.7812C148.641 46.1719 147.922 45.8672 147.016 45.8672ZM173.055 39.9375V51.5391C173.047 53.1484 172.539 54.4648 171.531 55.4883C170.531 56.5117 169.172 57.0859 167.453 57.2109L166.855 57.2344C164.988 57.2344 163.5 56.7305 162.391 55.7227C161.281 54.7148 160.719 53.3281 160.703 51.5625V39.9375H162.93V51.4922C162.93 52.7266 163.27 53.6875 163.949 54.375C164.629 55.0547 165.598 55.3945 166.855 55.3945C168.129 55.3945 169.102 55.0547 169.773 54.375C170.453 53.6953 170.793 52.7383 170.793 51.5039V39.9375H173.055ZM178.316 44.3203L178.387 45.9141C179.355 44.6953 180.621 44.0859 182.184 44.0859C184.863 44.0859 186.215 45.5977 186.238 48.6211V57H184.07V48.6094C184.062 47.6953 183.852 47.0195 183.438 46.582C183.031 46.1445 182.395 45.9258 181.527 45.9258C180.824 45.9258 180.207 46.1133 179.676 46.4883C179.145 46.8633 178.73 47.3555 178.434 47.9648V57H176.266V44.3203H178.316ZM191.863 57H189.695V44.3203H191.863V57ZM189.52 40.957C189.52 40.6055 189.625 40.3086 189.836 40.0664C190.055 39.8242 190.375 39.7031 190.797 39.7031C191.219 39.7031 191.539 39.8242 191.758 40.0664C191.977 40.3086 192.086 40.6055 192.086 40.957C192.086 41.3086 191.977 41.6016 191.758 41.8359C191.539 42.0703 191.219 42.1875 190.797 42.1875C190.375 42.1875 190.055 42.0703 189.836 41.8359C189.625 41.6016 189.52 41.3086 189.52 40.957ZM198.285 41.25V44.3203H200.652V45.9961H198.285V53.8594C198.285 54.3672 198.391 54.75 198.602 55.0078C198.812 55.2578 199.172 55.3828 199.68 55.3828C199.93 55.3828 200.273 55.3359 200.711 55.2422V57C200.141 57.1562 199.586 57.2344 199.047 57.2344C198.078 57.2344 197.348 56.9414 196.855 56.3555C196.363 55.7695 196.117 54.9375 196.117 53.8594V45.9961H193.809V44.3203H196.117V41.25H198.285ZM208.457 57.2344C206.738 57.2344 205.34 56.6719 204.262 55.5469C203.184 54.4141 202.645 52.9023 202.645 51.0117V50.6133C202.645 49.3555 202.883 48.2344 203.359 47.25C203.844 46.2578 204.516 45.4844 205.375 44.9297C206.242 44.3672 207.18 44.0859 208.188 44.0859C209.836 44.0859 211.117 44.6289 212.031 45.7148C212.945 46.8008 213.402 48.3555 213.402 50.3789V51.2812H204.812C204.844 52.5312 205.207 53.543 205.902 54.3164C206.605 55.082 207.496 55.4648 208.574 55.4648C209.34 55.4648 209.988 55.3086 210.52 54.9961C211.051 54.6836 211.516 54.2695 211.914 53.7539L213.238 54.7852C212.176 56.418 210.582 57.2344 208.457 57.2344ZM208.188 45.8672C207.312 45.8672 206.578 46.1875 205.984 46.8281C205.391 47.4609 205.023 48.3516 204.883 49.5H211.234V49.3359C211.172 48.2344 210.875 47.3828 210.344 46.7812C209.812 46.1719 209.094 45.8672 208.188 45.8672ZM215.395 50.5547C215.395 48.6094 215.855 47.0469 216.777 45.8672C217.699 44.6797 218.906 44.0859 220.398 44.0859C221.883 44.0859 223.059 44.5938 223.926 45.6094V39H226.094V57H224.102L223.996 55.6406C223.129 56.7031 221.922 57.2344 220.375 57.2344C218.906 57.2344 217.707 56.6328 216.777 55.4297C215.855 54.2266 215.395 52.6562 215.395 50.7188V50.5547ZM217.562 50.8008C217.562 52.2383 217.859 53.3633 218.453 54.1758C219.047 54.9883 219.867 55.3945 220.914 55.3945C222.289 55.3945 223.293 54.7773 223.926 53.543V47.7188C223.277 46.5234 222.281 45.9258 220.938 45.9258C219.875 45.9258 219.047 46.3359 218.453 47.1562C217.859 47.9766 217.562 49.1914 217.562 50.8008ZM240.789 49.3945C238.859 48.8398 237.453 48.1602 236.57 47.3555C235.695 46.543 235.258 45.543 235.258 44.3555C235.258 43.0117 235.793 41.9023 236.863 41.0273C237.941 40.1445 239.34 39.7031 241.059 39.7031C242.23 39.7031 243.273 39.9297 244.188 40.3828C245.109 40.8359 245.82 41.4609 246.32 42.2578C246.828 43.0547 247.082 43.9258 247.082 44.8711H244.82C244.82 43.8398 244.492 43.0312 243.836 42.4453C243.18 41.8516 242.254 41.5547 241.059 41.5547C239.949 41.5547 239.082 41.8008 238.457 42.293C237.84 42.7773 237.531 43.4531 237.531 44.3203C237.531 45.0156 237.824 45.6055 238.41 46.0898C239.004 46.5664 240.008 47.0039 241.422 47.4023C242.844 47.8008 243.953 48.2422 244.75 48.7266C245.555 49.2031 246.148 49.7617 246.531 50.4023C246.922 51.043 247.117 51.7969 247.117 52.6641C247.117 54.0469 246.578 55.1562 245.5 55.9922C244.422 56.8203 242.98 57.2344 241.176 57.2344C240.004 57.2344 238.91 57.0117 237.895 56.5664C236.879 56.1133 236.094 55.4961 235.539 54.7148C234.992 53.9336 234.719 53.0469 234.719 52.0547H236.98C236.98 53.0859 237.359 53.9023 238.117 54.5039C238.883 55.0977 239.902 55.3945 241.176 55.3945C242.363 55.3945 243.273 55.1523 243.906 54.668C244.539 54.1836 244.855 53.5234 244.855 52.6875C244.855 51.8516 244.562 51.207 243.977 50.7539C243.391 50.293 242.328 49.8398 240.789 49.3945ZM252.613 41.25V44.3203H254.98V45.9961H252.613V53.8594C252.613 54.3672 252.719 54.75 252.93 55.0078C253.141 55.2578 253.5 55.3828 254.008 55.3828C254.258 55.3828 254.602 55.3359 255.039 55.2422V57C254.469 57.1562 253.914 57.2344 253.375 57.2344C252.406 57.2344 251.676 56.9414 251.184 56.3555C250.691 55.7695 250.445 54.9375 250.445 53.8594V45.9961H248.137V44.3203H250.445V41.25H252.613ZM265.352 57C265.227 56.75 265.125 56.3047 265.047 55.6641C264.039 56.7109 262.836 57.2344 261.438 57.2344C260.188 57.2344 259.16 56.8828 258.355 56.1797C257.559 55.4688 257.16 54.5703 257.16 53.4844C257.16 52.1641 257.66 51.1406 258.66 50.4141C259.668 49.6797 261.082 49.3125 262.902 49.3125H265.012V48.3164C265.012 47.5586 264.785 46.957 264.332 46.5117C263.879 46.0586 263.211 45.832 262.328 45.832C261.555 45.832 260.906 46.0273 260.383 46.418C259.859 46.8086 259.598 47.2812 259.598 47.8359H257.418C257.418 47.2031 257.641 46.5938 258.086 46.0078C258.539 45.4141 259.148 44.9453 259.914 44.6016C260.688 44.2578 261.535 44.0859 262.457 44.0859C263.918 44.0859 265.062 44.4531 265.891 45.1875C266.719 45.9141 267.148 46.918 267.18 48.1992V54.0352C267.18 55.1992 267.328 56.125 267.625 56.8125V57H265.352ZM261.754 55.3477C262.434 55.3477 263.078 55.1719 263.688 54.8203C264.297 54.4688 264.738 54.0117 265.012 53.4492V50.8477H263.312C260.656 50.8477 259.328 51.625 259.328 53.1797C259.328 53.8594 259.555 54.3906 260.008 54.7734C260.461 55.1562 261.043 55.3477 261.754 55.3477ZM273.52 41.25V44.3203H275.887V45.9961H273.52V53.8594C273.52 54.3672 273.625 54.75 273.836 55.0078C274.047 55.2578 274.406 55.3828 274.914 55.3828C275.164 55.3828 275.508 55.3359 275.945 55.2422V57C275.375 57.1562 274.82 57.2344 274.281 57.2344C273.312 57.2344 272.582 56.9414 272.09 56.3555C271.598 55.7695 271.352 54.9375 271.352 53.8594V45.9961H269.043V44.3203H271.352V41.25H273.52ZM283.691 57.2344C281.973 57.2344 280.574 56.6719 279.496 55.5469C278.418 54.4141 277.879 52.9023 277.879 51.0117V50.6133C277.879 49.3555 278.117 48.2344 278.594 47.25C279.078 46.2578 279.75 45.4844 280.609 44.9297C281.477 44.3672 282.414 44.0859 283.422 44.0859C285.07 44.0859 286.352 44.6289 287.266 45.7148C288.18 46.8008 288.637 48.3555 288.637 50.3789V51.2812H280.047C280.078 52.5312 280.441 53.543 281.137 54.3164C281.84 55.082 282.73 55.4648 283.809 55.4648C284.574 55.4648 285.223 55.3086 285.754 54.9961C286.285 54.6836 286.75 54.2695 287.148 53.7539L288.473 54.7852C287.41 56.418 285.816 57.2344 283.691 57.2344ZM283.422 45.8672C282.547 45.8672 281.812 46.1875 281.219 46.8281C280.625 47.4609 280.258 48.3516 280.117 49.5H286.469V49.3359C286.406 48.2344 286.109 47.3828 285.578 46.7812C285.047 46.1719 284.328 45.8672 283.422 45.8672ZM298.539 53.6367C298.539 53.0508 298.316 52.5977 297.871 52.2773C297.434 51.9492 296.664 51.668 295.562 51.4336C294.469 51.1992 293.598 50.918 292.949 50.5898C292.309 50.2617 291.832 49.8711 291.52 49.418C291.215 48.9648 291.062 48.4258 291.062 47.8008C291.062 46.7617 291.5 45.8828 292.375 45.1641C293.258 44.4453 294.383 44.0859 295.75 44.0859C297.188 44.0859 298.352 44.457 299.242 45.1992C300.141 45.9414 300.59 46.8906 300.59 48.0469H298.41C298.41 47.4531 298.156 46.9414 297.648 46.5117C297.148 46.082 296.516 45.8672 295.75 45.8672C294.961 45.8672 294.344 46.0391 293.898 46.3828C293.453 46.7266 293.23 47.1758 293.23 47.7305C293.23 48.2539 293.438 48.6484 293.852 48.9141C294.266 49.1797 295.012 49.4336 296.09 49.6758C297.176 49.918 298.055 50.207 298.727 50.543C299.398 50.8789 299.895 51.2852 300.215 51.7617C300.543 52.2305 300.707 52.8047 300.707 53.4844C300.707 54.6172 300.254 55.5273 299.348 56.2148C298.441 56.8945 297.266 57.2344 295.82 57.2344C294.805 57.2344 293.906 57.0547 293.125 56.6953C292.344 56.3359 291.73 55.8359 291.285 55.1953C290.848 54.5469 290.629 53.8477 290.629 53.0977H292.797C292.836 53.8242 293.125 54.4023 293.664 54.832C294.211 55.2539 294.93 55.4648 295.82 55.4648C296.641 55.4648 297.297 55.3008 297.789 54.9727C298.289 54.6367 298.539 54.1914 298.539 53.6367ZM310.551 57V45.9961H308.547V44.3203H310.551V43.0195C310.551 41.6602 310.914 40.6094 311.641 39.8672C312.367 39.125 313.395 38.7539 314.723 38.7539C315.223 38.7539 315.719 38.8203 316.211 38.9531L316.094 40.7109C315.727 40.6406 315.336 40.6055 314.922 40.6055C314.219 40.6055 313.676 40.8125 313.293 41.2266C312.91 41.6328 312.719 42.2188 312.719 42.9844V44.3203H315.426V45.9961H312.719V57H310.551ZM317.254 50.543C317.254 49.3008 317.496 48.1836 317.98 47.1914C318.473 46.1992 319.152 45.4336 320.02 44.8945C320.895 44.3555 321.891 44.0859 323.008 44.0859C324.734 44.0859 326.129 44.6836 327.191 45.8789C328.262 47.0742 328.797 48.6641 328.797 50.6484V50.8008C328.797 52.0352 328.559 53.1445 328.082 54.1289C327.613 55.1055 326.938 55.8672 326.055 56.4141C325.18 56.9609 324.172 57.2344 323.031 57.2344C321.312 57.2344 319.918 56.6367 318.848 55.4414C317.785 54.2461 317.254 52.6641 317.254 50.6953V50.543ZM319.434 50.8008C319.434 52.207 319.758 53.3359 320.406 54.1875C321.062 55.0391 321.938 55.4648 323.031 55.4648C324.133 55.4648 325.008 55.0352 325.656 54.1758C326.305 53.3086 326.629 52.0977 326.629 50.543C326.629 49.1523 326.297 48.0273 325.633 47.168C324.977 46.3008 324.102 45.8672 323.008 45.8672C321.938 45.8672 321.074 46.293 320.418 47.1445C319.762 47.9961 319.434 49.2148 319.434 50.8008ZM337.645 46.2656C337.316 46.2109 336.961 46.1836 336.578 46.1836C335.156 46.1836 334.191 46.7891 333.684 48V57H331.516V44.3203H333.625L333.66 45.7852C334.371 44.6523 335.379 44.0859 336.684 44.0859C337.105 44.0859 337.426 44.1406 337.645 44.25V46.2656ZM348.543 41.25V44.3203H350.91V45.9961H348.543V53.8594C348.543 54.3672 348.648 54.75 348.859 55.0078C349.07 55.2578 349.43 55.3828 349.938 55.3828C350.188 55.3828 350.531 55.3359 350.969 55.2422V57C350.398 57.1562 349.844 57.2344 349.305 57.2344C348.336 57.2344 347.605 56.9414 347.113 56.3555C346.621 55.7695 346.375 54.9375 346.375 53.8594V45.9961H344.066V44.3203H346.375V41.25H348.543ZM355.621 45.8555C356.582 44.6758 357.832 44.0859 359.371 44.0859C362.051 44.0859 363.402 45.5977 363.426 48.6211V57H361.258V48.6094C361.25 47.6953 361.039 47.0195 360.625 46.582C360.219 46.1445 359.582 45.9258 358.715 45.9258C358.012 45.9258 357.395 46.1133 356.863 46.4883C356.332 46.8633 355.918 47.3555 355.621 47.9648V57H353.453V39H355.621V45.8555ZM371.934 57.2344C370.215 57.2344 368.816 56.6719 367.738 55.5469C366.66 54.4141 366.121 52.9023 366.121 51.0117V50.6133C366.121 49.3555 366.359 48.2344 366.836 47.25C367.32 46.2578 367.992 45.4844 368.852 44.9297C369.719 44.3672 370.656 44.0859 371.664 44.0859C373.312 44.0859 374.594 44.6289 375.508 45.7148C376.422 46.8008 376.879 48.3555 376.879 50.3789V51.2812H368.289C368.32 52.5312 368.684 53.543 369.379 54.3164C370.082 55.082 370.973 55.4648 372.051 55.4648C372.816 55.4648 373.465 55.3086 373.996 54.9961C374.527 54.6836 374.992 54.2695 375.391 53.7539L376.715 54.7852C375.652 56.418 374.059 57.2344 371.934 57.2344ZM371.664 45.8672C370.789 45.8672 370.055 46.1875 369.461 46.8281C368.867 47.4609 368.5 48.3516 368.359 49.5H374.711V49.3359C374.648 48.2344 374.352 47.3828 373.82 46.7812C373.289 46.1719 372.57 45.8672 371.664 45.8672ZM393.66 57H391.492V39H393.66V57ZM404.969 57C404.844 56.75 404.742 56.3047 404.664 55.6641C403.656 56.7109 402.453 57.2344 401.055 57.2344C399.805 57.2344 398.777 56.8828 397.973 56.1797C397.176 55.4688 396.777 54.5703 396.777 53.4844C396.777 52.1641 397.277 51.1406 398.277 50.4141C399.285 49.6797 400.699 49.3125 402.52 49.3125H404.629V48.3164C404.629 47.5586 404.402 46.957 403.949 46.5117C403.496 46.0586 402.828 45.832 401.945 45.832C401.172 45.832 400.523 46.0273 400 46.418C399.477 46.8086 399.215 47.2812 399.215 47.8359H397.035C397.035 47.2031 397.258 46.5938 397.703 46.0078C398.156 45.4141 398.766 44.9453 399.531 44.6016C400.305 44.2578 401.152 44.0859 402.074 44.0859C403.535 44.0859 404.68 44.4531 405.508 45.1875C406.336 45.9141 406.766 46.918 406.797 48.1992V54.0352C406.797 55.1992 406.945 56.125 407.242 56.8125V57H404.969ZM401.371 55.3477C402.051 55.3477 402.695 55.1719 403.305 54.8203C403.914 54.4688 404.355 54.0117 404.629 53.4492V50.8477H402.93C400.273 50.8477 398.945 51.625 398.945 53.1797C398.945 53.8594 399.172 54.3906 399.625 54.7734C400.078 55.1562 400.66 55.3477 401.371 55.3477ZM417.578 53.6367C417.578 53.0508 417.355 52.5977 416.91 52.2773C416.473 51.9492 415.703 51.668 414.602 51.4336C413.508 51.1992 412.637 50.918 411.988 50.5898C411.348 50.2617 410.871 49.8711 410.559 49.418C410.254 48.9648 410.102 48.4258 410.102 47.8008C410.102 46.7617 410.539 45.8828 411.414 45.1641C412.297 44.4453 413.422 44.0859 414.789 44.0859C416.227 44.0859 417.391 44.457 418.281 45.1992C419.18 45.9414 419.629 46.8906 419.629 48.0469H417.449C417.449 47.4531 417.195 46.9414 416.688 46.5117C416.188 46.082 415.555 45.8672 414.789 45.8672C414 45.8672 413.383 46.0391 412.938 46.3828C412.492 46.7266 412.27 47.1758 412.27 47.7305C412.27 48.2539 412.477 48.6484 412.891 48.9141C413.305 49.1797 414.051 49.4336 415.129 49.6758C416.215 49.918 417.094 50.207 417.766 50.543C418.438 50.8789 418.934 51.2852 419.254 51.7617C419.582 52.2305 419.746 52.8047 419.746 53.4844C419.746 54.6172 419.293 55.5273 418.387 56.2148C417.48 56.8945 416.305 57.2344 414.859 57.2344C413.844 57.2344 412.945 57.0547 412.164 56.6953C411.383 56.3359 410.77 55.8359 410.324 55.1953C409.887 54.5469 409.668 53.8477 409.668 53.0977H411.836C411.875 53.8242 412.164 54.4023 412.703 54.832C413.25 55.2539 413.969 55.4648 414.859 55.4648C415.68 55.4648 416.336 55.3008 416.828 54.9727C417.328 54.6367 417.578 54.1914 417.578 53.6367ZM425.512 41.25V44.3203H427.879V45.9961H425.512V53.8594C425.512 54.3672 425.617 54.75 425.828 55.0078C426.039 55.2578 426.398 55.3828 426.906 55.3828C427.156 55.3828 427.5 55.3359 427.938 55.2422V57C427.367 57.1562 426.812 57.2344 426.273 57.2344C425.305 57.2344 424.574 56.9414 424.082 56.3555C423.59 55.7695 423.344 54.9375 423.344 53.8594V45.9961H421.035V44.3203H423.344V41.25H425.512ZM447.332 57H436.152V55.4414L442.059 48.8789C442.934 47.8867 443.535 47.082 443.863 46.4648C444.199 45.8398 444.367 45.1953 444.367 44.5312C444.367 43.6406 444.098 42.9102 443.559 42.3398C443.02 41.7695 442.301 41.4844 441.402 41.4844C440.324 41.4844 439.484 41.793 438.883 42.4102C438.289 43.0195 437.992 43.8711 437.992 44.9648H435.824C435.824 43.3945 436.328 42.125 437.336 41.1562C438.352 40.1875 439.707 39.7031 441.402 39.7031C442.988 39.7031 444.242 40.1211 445.164 40.957C446.086 41.7852 446.547 42.8906 446.547 44.2734C446.547 45.9531 445.477 47.9531 443.336 50.2734L438.766 55.2305H447.332V57ZM458.137 39.9258V41.7656H457.738C456.051 41.7969 454.707 42.2969 453.707 43.2656C452.707 44.2344 452.129 45.5977 451.973 47.3555C452.871 46.3242 454.098 45.8086 455.652 45.8086C457.137 45.8086 458.32 46.332 459.203 47.3789C460.094 48.4258 460.539 49.7773 460.539 51.4336C460.539 53.1914 460.059 54.5977 459.098 55.6523C458.145 56.707 456.863 57.2344 455.254 57.2344C453.621 57.2344 452.297 56.6094 451.281 55.3594C450.266 54.1016 449.758 52.4844 449.758 50.5078V49.6758C449.758 46.5352 450.426 44.1367 451.762 42.4805C453.105 40.8164 455.102 39.9648 457.75 39.9258H458.137ZM455.289 47.6133C454.547 47.6133 453.863 47.8359 453.238 48.2812C452.613 48.7266 452.18 49.2852 451.938 49.957V50.7539C451.938 52.1602 452.254 53.293 452.887 54.1523C453.52 55.0117 454.309 55.4414 455.254 55.4414C456.23 55.4414 456.996 55.082 457.551 54.3633C458.113 53.6445 458.395 52.7031 458.395 51.5391C458.395 50.3672 458.109 49.4219 457.539 48.7031C456.977 47.9766 456.227 47.6133 455.289 47.6133ZM473.43 53.8242L476.383 44.3203H478.703L473.605 58.957C472.816 61.0664 471.562 62.1211 469.844 62.1211L469.434 62.0859L468.625 61.9336V60.1758L469.211 60.2227C469.945 60.2227 470.516 60.0742 470.922 59.7773C471.336 59.4805 471.676 58.9375 471.941 58.1484L472.422 56.8594L467.898 44.3203H470.266L473.43 53.8242ZM485.746 57.2344C484.027 57.2344 482.629 56.6719 481.551 55.5469C480.473 54.4141 479.934 52.9023 479.934 51.0117V50.6133C479.934 49.3555 480.172 48.2344 480.648 47.25C481.133 46.2578 481.805 45.4844 482.664 44.9297C483.531 44.3672 484.469 44.0859 485.477 44.0859C487.125 44.0859 488.406 44.6289 489.32 45.7148C490.234 46.8008 490.691 48.3555 490.691 50.3789V51.2812H482.102C482.133 52.5312 482.496 53.543 483.191 54.3164C483.895 55.082 484.785 55.4648 485.863 55.4648C486.629 55.4648 487.277 55.3086 487.809 54.9961C488.34 54.6836 488.805 54.2695 489.203 53.7539L490.527 54.7852C489.465 56.418 487.871 57.2344 485.746 57.2344ZM485.477 45.8672C484.602 45.8672 483.867 46.1875 483.273 46.8281C482.68 47.4609 482.312 48.3516 482.172 49.5H488.523V49.3359C488.461 48.2344 488.164 47.3828 487.633 46.7812C487.102 46.1719 486.383 45.8672 485.477 45.8672ZM501.039 57C500.914 56.75 500.812 56.3047 500.734 55.6641C499.727 56.7109 498.523 57.2344 497.125 57.2344C495.875 57.2344 494.848 56.8828 494.043 56.1797C493.246 55.4688 492.848 54.5703 492.848 53.4844C492.848 52.1641 493.348 51.1406 494.348 50.4141C495.355 49.6797 496.77 49.3125 498.59 49.3125H500.699V48.3164C500.699 47.5586 500.473 46.957 500.02 46.5117C499.566 46.0586 498.898 45.832 498.016 45.832C497.242 45.832 496.594 46.0273 496.07 46.418C495.547 46.8086 495.285 47.2812 495.285 47.8359H493.105C493.105 47.2031 493.328 46.5938 493.773 46.0078C494.227 45.4141 494.836 44.9453 495.602 44.6016C496.375 44.2578 497.223 44.0859 498.145 44.0859C499.605 44.0859 500.75 44.4531 501.578 45.1875C502.406 45.9141 502.836 46.918 502.867 48.1992V54.0352C502.867 55.1992 503.016 56.125 503.312 56.8125V57H501.039ZM497.441 55.3477C498.121 55.3477 498.766 55.1719 499.375 54.8203C499.984 54.4688 500.426 54.0117 500.699 53.4492V50.8477H499C496.344 50.8477 495.016 51.625 495.016 53.1797C495.016 53.8594 495.242 54.3906 495.695 54.7734C496.148 55.1562 496.73 55.3477 497.441 55.3477ZM512.395 46.2656C512.066 46.2109 511.711 46.1836 511.328 46.1836C509.906 46.1836 508.941 46.7891 508.434 48V57H506.266V44.3203H508.375L508.41 45.7852C509.121 44.6523 510.129 44.0859 511.434 44.0859C511.855 44.0859 512.176 44.1406 512.395 44.25V46.2656ZM521.781 53.6367C521.781 53.0508 521.559 52.5977 521.113 52.2773C520.676 51.9492 519.906 51.668 518.805 51.4336C517.711 51.1992 516.84 50.918 516.191 50.5898C515.551 50.2617 515.074 49.8711 514.762 49.418C514.457 48.9648 514.305 48.4258 514.305 47.8008C514.305 46.7617 514.742 45.8828 515.617 45.1641C516.5 44.4453 517.625 44.0859 518.992 44.0859C520.43 44.0859 521.594 44.457 522.484 45.1992C523.383 45.9414 523.832 46.8906 523.832 48.0469H521.652C521.652 47.4531 521.398 46.9414 520.891 46.5117C520.391 46.082 519.758 45.8672 518.992 45.8672C518.203 45.8672 517.586 46.0391 517.141 46.3828C516.695 46.7266 516.473 47.1758 516.473 47.7305C516.473 48.2539 516.68 48.6484 517.094 48.9141C517.508 49.1797 518.254 49.4336 519.332 49.6758C520.418 49.918 521.297 50.207 521.969 50.543C522.641 50.8789 523.137 51.2852 523.457 51.7617C523.785 52.2305 523.949 52.8047 523.949 53.4844C523.949 54.6172 523.496 55.5273 522.59 56.2148C521.684 56.8945 520.508 57.2344 519.062 57.2344C518.047 57.2344 517.148 57.0547 516.367 56.6953C515.586 56.3359 514.973 55.8359 514.527 55.1953C514.09 54.5469 513.871 53.8477 513.871 53.0977H516.039C516.078 53.8242 516.367 54.4023 516.906 54.832C517.453 55.2539 518.172 55.4648 519.062 55.4648C519.883 55.4648 520.539 55.3008 521.031 54.9727C521.531 54.6367 521.781 54.1914 521.781 53.6367ZM526.82 55.8633C526.82 55.4883 526.93 55.1758 527.148 54.9258C527.375 54.6758 527.711 54.5508 528.156 54.5508C528.602 54.5508 528.938 54.6758 529.164 54.9258C529.398 55.1758 529.516 55.4883 529.516 55.8633C529.516 56.2227 529.398 56.5234 529.164 56.7656C528.938 57.0078 528.602 57.1289 528.156 57.1289C527.711 57.1289 527.375 57.0078 527.148 56.7656C526.93 56.5234 526.82 56.2227 526.82 55.8633Z" fill="black"/>
</svg>
