<svg width="792" height="134" viewBox="0 0 792 134" fill="none" xmlns="http://www.w3.org/2000/svg">
<rect x="5.17385" y="0.772636" width="786.846" height="94.788" rx="47.394" transform="rotate(2.76685 5.17385 0.772636)" fill="#A9CDF6"/>
<path d="M48.5901 31.2663L48.0944 41.2735L44.7235 41.1066L45.9897 15.5442L55.4176 16.0112C58.215 16.1497 60.3683 16.9721 61.8777 18.4783C63.3988 19.9851 64.101 21.9148 63.9845 24.2674C63.8616 26.7487 62.9885 28.6238 61.3651 29.8927C59.754 31.1505 57.503 31.7078 54.612 31.5646L48.5901 31.2663ZM48.7266 28.5099L54.7837 28.8099C56.5861 28.8992 57.9881 28.5463 58.9896 27.7511C59.9917 26.9442 60.5325 25.739 60.6119 24.1355C60.6873 22.6139 60.2677 21.3729 59.3531 20.4124C58.4386 19.4519 57.1453 18.9127 55.4734 18.7947L49.2232 18.4851L48.7266 28.5099ZM78.7184 40.9073C77.3807 42.3312 75.4887 42.9825 73.0425 42.8613C71.0176 42.761 69.5016 42.0993 68.4945 40.8761C67.4997 39.6417 67.0535 37.8714 67.156 35.5651L67.7682 23.2052L71.0162 23.3661L70.4083 35.6382C70.2657 38.5174 71.3648 40.0151 73.7057 40.131C76.187 40.2539 77.8832 39.411 78.7941 37.6023L79.4785 23.7853L82.7265 23.9462L81.7855 42.9424L78.6955 42.7893L78.7184 40.9073ZM103.243 34.6951C103.1 37.5861 102.323 39.8825 100.913 41.5843C99.5031 43.2862 97.6685 44.0812 95.4096 43.9693C93.1038 43.855 91.3259 43.0337 90.0757 41.5051L89.6227 50.6521L86.3747 50.4912L87.6774 24.1914L90.6445 24.3384L90.6981 26.453C92.1019 24.8799 93.9801 24.1516 96.3327 24.2682C98.615 24.3812 100.375 25.3308 101.612 27.1168C102.861 28.9035 103.41 31.3301 103.258 34.3966L103.243 34.6951ZM100.014 34.1655C100.12 32.0236 99.7469 30.3097 98.8954 29.0238C98.044 27.7379 96.8223 27.0556 95.2305 26.9767C93.2642 26.8793 91.7462 27.6782 90.6767 29.3735L90.2271 38.4502C91.1127 40.2306 92.5563 41.1704 94.5577 41.2695C96.1144 41.3466 97.3797 40.7933 98.3535 39.6096C99.3396 38.4147 99.8929 36.6 100.014 34.1655ZM123.433 35.6952C123.29 38.5862 122.513 40.8826 121.103 42.5844C119.693 44.2863 117.859 45.0813 115.6 44.9694C113.294 44.8552 111.516 44.0338 110.266 42.5052L109.813 51.6522L106.565 51.4913L107.868 25.1915L110.835 25.3385L110.888 27.4531C112.292 25.88 114.17 25.1517 116.523 25.2683C118.805 25.3813 120.565 26.3309 121.802 28.1169C123.051 29.9036 123.6 32.3302 123.448 35.3967L123.433 35.6952ZM120.204 35.1656C120.31 33.0237 119.937 31.3098 119.086 30.0239C118.234 28.738 117.012 28.0557 115.421 27.9768C113.454 27.8794 111.936 28.6783 110.867 30.3736L110.417 39.4504C111.303 41.2307 112.746 42.1705 114.748 42.2696C116.305 42.3467 117.57 41.7934 118.544 40.6097C119.53 39.4148 120.083 37.6001 120.204 35.1656ZM130.646 45.3627L127.398 45.2018L128.339 26.2055L131.586 26.3664L130.646 45.3627ZM128.325 21.1537C128.351 20.6271 128.531 20.1901 128.865 19.8429C129.211 19.4963 129.699 19.3387 130.331 19.37C130.964 19.4013 131.434 19.6065 131.744 19.9856C132.054 20.3646 132.196 20.8175 132.17 21.3442C132.144 21.8709 131.958 22.3017 131.613 22.6366C131.268 22.9715 130.779 23.1233 130.147 23.092C129.515 23.0607 129.044 22.8613 128.734 22.494C128.435 22.1272 128.299 21.6804 128.325 21.1537ZM143.725 46.3626C141.15 46.235 139.097 45.2885 137.565 43.5231C136.034 41.7459 135.339 39.4411 135.479 36.6087L135.509 36.0117C135.602 34.1273 136.042 32.4654 136.829 31.026C137.628 29.5755 138.692 28.4666 140.021 27.6994C141.362 26.921 142.787 26.5693 144.297 26.6441C146.767 26.7664 148.646 27.6749 149.935 29.3697C151.224 31.0644 151.793 33.4275 151.643 36.4589L151.576 37.8108L138.707 37.1733C138.661 39.0484 139.13 40.591 140.115 41.8014C141.111 43.0006 142.417 43.6402 144.032 43.7202C145.179 43.777 146.162 43.5911 146.981 43.1623C147.8 42.7336 148.528 42.1477 149.163 41.4048L151.07 43.0481C149.357 45.4154 146.909 46.5203 143.725 46.3626ZM144.165 29.3127C142.854 29.2477 141.73 29.6731 140.793 30.5888C139.857 31.4928 139.24 32.7998 138.945 34.51L148.46 34.9813L148.472 34.7355C148.461 33.0806 148.079 31.7828 147.328 30.8421C146.577 29.8897 145.523 29.3799 144.165 29.3127ZM166.237 42.0745C166.28 41.1967 165.98 40.5013 165.337 39.9884C164.706 39.4644 163.574 38.9859 161.941 38.553C160.319 38.1207 159.035 37.6347 158.088 37.095C157.153 36.5559 156.468 35.9353 156.033 35.2332C155.61 34.5318 155.422 33.7129 155.469 32.7765C155.546 31.2198 156.266 29.9356 157.631 28.9237C159.006 27.9124 160.719 27.4575 162.767 27.5589C164.92 27.6656 166.637 28.308 167.916 29.486C169.207 30.6646 169.81 32.12 169.724 33.8522L166.458 33.6905C166.502 32.8009 166.16 32.0155 165.431 31.334C164.714 30.6532 163.782 30.2844 162.635 30.2275C161.453 30.169 160.515 30.3807 159.822 30.8626C159.13 31.3446 158.763 32.001 158.722 32.8321C158.683 33.6163 158.964 34.2227 159.564 34.6514C160.165 35.08 161.264 35.5158 162.861 35.9587C164.47 36.4021 165.765 36.9004 166.747 37.4535C167.729 38.0067 168.442 38.6521 168.886 39.3898C169.343 40.1165 169.546 40.9889 169.496 42.0072C169.412 43.7043 168.665 45.0343 167.257 45.997C165.848 46.948 164.062 47.3699 161.896 47.2627C160.375 47.1873 159.042 46.8514 157.898 46.255C156.755 45.6587 155.873 44.8641 155.253 43.8713C154.646 42.8673 154.37 41.8035 154.426 40.6799L157.674 40.8408C157.678 41.9322 158.069 42.8198 158.844 43.5035C159.632 44.1762 160.693 44.5455 162.028 44.6116C163.257 44.6725 164.252 44.4754 165.014 44.0203C165.788 43.5542 166.195 42.9056 166.237 42.0745ZM182.091 38.2312C182.237 35.2699 183.039 32.9513 184.494 31.2751C185.951 29.5873 187.808 28.7994 190.067 28.9113C192.385 29.026 194.153 29.9349 195.371 31.6379L195.633 29.5389L198.6 29.6859L197.682 48.2257C197.56 50.6836 196.732 52.5844 195.199 53.9282C193.678 55.2725 191.688 55.8838 189.23 55.7621C187.861 55.6943 186.535 55.3353 185.253 54.6851C183.971 54.0349 183.01 53.1836 182.37 52.1311L184.152 50.2658C185.46 52.0554 187.12 53 189.133 53.0997C190.713 53.178 191.964 52.7941 192.886 51.9481C193.82 51.1026 194.327 49.8722 194.407 48.257L194.487 46.6243C193.114 48.0581 191.304 48.7193 189.056 48.608C186.833 48.4979 185.075 47.5132 183.782 45.654C182.501 43.7954 181.938 41.3211 182.091 38.2312ZM185.338 38.7616C185.232 40.9035 185.587 42.6107 186.404 43.8831C187.222 45.1439 188.421 45.8134 190.001 45.8916C192.049 45.9931 193.599 45.1371 194.651 43.3236L195.081 34.6507C194.176 32.7872 192.728 31.8062 190.738 31.7076C189.158 31.6294 187.893 32.1827 186.943 33.3676C185.992 34.5525 185.457 36.3505 185.338 38.7616ZM212.554 33.2986C212.066 33.1924 211.536 33.125 210.962 33.0966C208.832 32.9911 207.341 33.8266 206.491 35.6031L205.823 49.0865L202.575 48.9257L203.516 29.9294L206.676 30.0859L206.62 32.2831C207.769 30.6388 209.321 29.865 211.276 29.9618C211.908 29.9931 212.384 30.0988 212.703 30.2789L212.554 33.2986ZM214.027 39.7955C214.119 37.9345 214.565 36.2787 215.364 34.8282C216.175 33.3783 217.25 32.2817 218.589 31.5385C219.94 30.7958 221.453 30.4659 223.126 30.5488C225.713 30.6769 227.758 31.6758 229.261 33.5454C230.776 35.4156 231.46 37.8372 231.312 40.8101L231.301 41.0384C231.209 42.8877 230.77 44.532 229.983 45.9714C229.208 47.3996 228.139 48.4907 226.776 49.2445C225.425 49.9988 223.895 50.3337 222.186 50.2491C219.611 50.1215 217.566 49.1226 216.051 47.2524C214.548 45.3828 213.87 42.9732 214.016 40.0237L214.027 39.7955ZM217.273 40.3435C217.169 42.4503 217.571 44.1656 218.479 45.4895C219.399 46.814 220.678 47.5168 222.317 47.598C223.967 47.6798 225.31 47.101 226.345 45.8616C227.381 44.6105 227.957 42.8204 228.072 40.4912C228.175 38.4078 227.761 36.6978 226.83 35.361C225.912 34.0131 224.633 33.2986 222.994 33.2174C221.391 33.138 220.066 33.7118 219.019 34.9389C217.973 36.166 217.391 37.9675 217.273 40.3435ZM251.955 46.8838L256.326 32.5453L259.574 32.7062L253.103 51.4285L250.469 51.2981L246.565 36.6729L241.357 50.8467L238.724 50.7163L234.152 31.447L237.383 31.607L240.418 46.0131L245.546 32.0114L248.162 32.141L251.955 46.8838ZM276.446 28.9308L276.218 33.5307L279.764 33.7063L279.64 36.2169L276.093 36.0413L275.51 47.8217C275.472 48.5825 275.602 49.1639 275.899 49.5658C276.196 49.956 276.725 50.1699 277.486 50.2076C277.861 50.2261 278.379 50.1814 279.041 50.0734L278.911 52.7069C278.045 52.8987 277.208 52.9746 276.401 52.9346C274.949 52.8627 273.877 52.3695 273.183 51.4552C272.489 50.5408 272.182 49.2761 272.262 47.6608L272.845 35.8804L269.387 35.709L269.511 33.1985L272.97 33.3698L273.198 28.7699L276.446 28.9308ZM281.901 43.1576C281.993 41.2966 282.439 39.6408 283.238 38.1903C284.049 36.7404 285.124 35.6438 286.463 34.9006C287.814 34.1579 289.326 33.828 291 33.9109C293.587 34.039 295.632 35.0379 297.135 36.9075C298.65 38.7777 299.333 41.1993 299.186 44.1722L299.175 44.4005C299.083 46.2498 298.644 47.8941 297.857 49.3335C297.082 50.7617 296.013 51.8528 294.65 52.6066C293.299 53.3609 291.768 53.6958 290.06 53.6112C287.485 53.4836 285.44 52.4847 283.925 50.6145C282.422 48.7449 281.743 46.3353 281.889 43.3858L281.901 43.1576ZM285.147 43.7056C285.043 45.8124 285.445 47.5277 286.353 48.8516C287.273 50.1761 288.552 50.8789 290.191 50.9601C291.841 51.0419 293.184 50.4631 294.219 49.2237C295.255 47.9726 295.831 46.1825 295.946 43.8533C296.049 41.7699 295.635 40.0599 294.704 38.7231C293.785 37.3752 292.507 36.6607 290.868 36.5795C289.265 36.5001 287.94 37.0739 286.893 38.301C285.847 39.5281 285.265 41.3296 285.147 43.7056ZM315.782 37.796C317.309 36.1 319.225 35.309 321.531 35.4232C325.546 35.6221 327.458 37.9872 327.269 42.5186L326.647 55.0715L323.399 54.9106L324.022 42.3401C324.078 40.9701 323.812 39.942 323.224 39.2559C322.648 38.5703 321.711 38.1953 320.411 38.1309C319.358 38.0788 318.419 38.3139 317.596 38.8362C316.772 39.3586 316.115 40.0653 315.625 40.9562L314.955 54.4923L311.707 54.3314L313.043 27.3645L316.29 27.5254L315.782 37.796ZM343.238 55.8933C343.07 55.5095 342.951 54.8348 342.881 53.8693C341.293 55.3629 339.452 56.0578 337.357 55.954C335.484 55.8613 333.971 55.2583 332.818 54.1452C331.677 53.021 331.147 51.6454 331.227 50.0185C331.325 48.0404 332.15 46.5443 333.702 45.53C335.267 44.5045 337.412 44.0594 340.14 44.1945L343.3 44.351L343.374 42.8587C343.43 41.7234 343.135 40.8053 342.489 40.1045C341.844 39.3921 340.86 39.0031 339.538 38.9375C338.379 38.8801 337.393 39.1246 336.58 39.671C335.766 40.2174 335.339 40.9061 335.298 41.7371L332.033 41.5753C332.08 40.6273 332.458 39.7309 333.169 38.8861C333.892 38.0302 334.84 37.3731 336.012 36.9149C337.196 36.4573 338.479 36.2628 339.86 36.3312C342.049 36.4396 343.736 37.0746 344.923 38.2363C346.109 39.3863 346.679 40.9222 346.63 42.844L346.197 51.5872C346.111 53.3312 346.265 54.7291 346.658 55.7812L346.644 56.0621L343.238 55.8933ZM337.971 53.1509C338.989 53.2013 339.968 52.9858 340.907 52.5043C341.846 52.0229 342.541 51.3709 342.993 50.5485L343.186 46.6509L340.64 46.5248C336.661 46.3277 334.613 47.3937 334.498 49.7229C334.447 50.7412 334.747 51.5539 335.398 52.161C336.048 52.7682 336.906 53.0981 337.971 53.1509ZM354.597 56.456L351.35 56.2951L352.685 29.3282L355.933 29.4891L354.597 56.456ZM361.409 56.7934L362.226 40.3078L359.224 40.1591L359.348 37.6485L362.35 37.7972L362.447 35.8484C362.548 33.8119 363.17 32.2646 364.314 31.2066C365.457 30.1486 367.024 29.6689 369.014 29.7674C369.763 29.8045 370.501 29.9408 371.229 30.1763L370.923 32.8011C370.378 32.6685 369.795 32.5869 369.175 32.5561C368.121 32.504 367.292 32.7738 366.688 33.3658C366.085 33.946 365.754 34.8096 365.698 35.9566L365.598 37.9581L369.654 38.159L369.53 40.6696L365.474 40.4687L364.657 56.9543L361.409 56.7934ZM386.806 34.3975L386.579 38.9973L390.125 39.173L390.001 41.6836L386.454 41.5079L385.871 53.2884C385.833 54.0492 385.963 54.6305 386.259 55.0324C386.557 55.4226 387.086 55.6366 387.847 55.6742C388.221 55.6928 388.74 55.6481 389.402 55.5401L389.272 58.1736C388.406 58.3654 387.569 58.4412 386.761 58.4012C385.31 58.3293 384.237 57.8362 383.543 56.9219C382.85 56.0075 382.543 54.7427 382.623 53.1275L383.206 41.347L379.748 41.1757L379.872 38.6651L383.331 38.8364L383.558 34.2366L386.806 34.3975ZM397.069 41.8225C398.596 40.1265 400.512 39.3355 402.818 39.4498C406.833 39.6486 408.745 42.0137 408.556 46.5451L407.934 59.098L404.686 58.9371L405.309 46.3666C405.365 44.9966 405.099 43.9685 404.512 43.2824C403.935 42.5968 402.998 42.2218 401.698 42.1574C400.645 42.1053 399.707 42.3404 398.883 42.8628C398.059 43.3851 397.402 44.0918 396.912 44.9827L396.242 58.5188L392.994 58.358L394.33 31.391L397.578 31.5519L397.069 41.8225ZM420.663 60.0805C418.088 59.953 416.035 59.0065 414.503 57.2411C412.972 55.4639 412.277 53.1591 412.417 50.3266L412.446 49.7297C412.54 47.8453 412.98 46.1834 413.767 44.744C414.566 43.2935 415.63 42.1846 416.959 41.4174C418.3 40.639 419.725 40.2872 421.235 40.362C423.705 40.4844 425.584 41.3929 426.873 43.0876C428.162 44.7824 428.731 47.1455 428.581 50.1769L428.514 51.5288L415.645 50.8913C415.599 52.7663 416.068 54.309 417.052 55.5194C418.049 56.7186 419.355 57.3582 420.97 57.4382C422.117 57.495 423.1 57.309 423.919 56.8803C424.738 56.4515 425.465 55.8657 426.101 55.1228L428.008 56.766C426.295 59.1334 423.847 60.2382 420.663 60.0805ZM421.103 43.0306C419.792 42.9657 418.668 43.3911 417.731 44.3068C416.794 45.2108 416.178 46.5178 415.882 48.2279L425.398 48.6993L425.41 48.4535C425.398 46.7985 425.017 45.5007 424.265 44.5601C423.515 43.6077 422.461 43.0979 421.103 43.0306ZM435.393 60.4582L432.145 60.2973L433.086 41.3011L436.334 41.4619L435.393 60.4582ZM433.072 36.2493C433.098 35.7226 433.278 35.2856 433.612 34.9384C433.958 34.5918 434.447 34.4342 435.079 34.4655C435.711 34.4968 436.182 34.702 436.492 35.0811C436.801 35.4601 436.943 35.913 436.917 36.4397C436.891 36.9664 436.705 37.3972 436.36 37.7321C436.015 38.067 435.527 38.2188 434.895 38.1875C434.263 38.1562 433.791 37.9569 433.481 37.5895C433.182 37.2227 433.046 36.776 433.072 36.2493ZM450.586 45.0895C450.098 44.9832 449.568 44.9158 448.994 44.8874C446.864 44.7819 445.374 45.6174 444.523 47.3939L443.855 60.8774L440.607 60.7165L441.548 41.7202L444.708 41.8768L444.652 44.074C445.802 42.4296 447.353 41.6558 449.308 41.7526C449.94 41.7839 450.416 41.8896 450.736 42.0697L450.586 45.0895ZM478.252 53.271C478.108 56.1737 477.326 58.4756 475.904 60.1769C474.482 61.8665 472.648 62.6556 470.401 62.5443C468.002 62.4254 466.188 61.485 464.962 59.7229L464.695 61.9096L461.71 61.7618L463.046 34.7949L466.294 34.9557L465.796 45.0157C467.187 43.4537 469.036 42.7298 471.342 42.844C473.647 42.9583 475.413 43.9198 476.637 45.7287C477.873 47.5382 478.416 49.9586 478.266 52.9901L478.252 53.271ZM475.022 52.7414C475.132 50.5293 474.789 48.7993 473.995 47.5514C473.2 46.3035 472.001 45.6398 470.397 45.5604C468.256 45.4543 466.667 46.373 465.632 48.3163L465.225 56.5328C466.122 58.5718 467.623 59.6435 469.73 59.7479C471.287 59.825 472.528 59.2822 473.454 58.1196C474.38 56.9569 474.902 55.1642 475.022 52.7414ZM481.519 53.0456C481.611 51.1846 482.057 49.5288 482.857 48.0783C483.668 46.6284 484.743 45.5318 486.082 44.7886C487.433 44.0459 488.945 43.716 490.619 43.7989C493.205 43.9271 495.25 44.9259 496.753 46.7955C498.268 48.6657 498.952 51.0873 498.805 54.0602L498.793 54.2885C498.702 56.1378 498.262 57.7821 497.475 59.2215C496.701 60.6498 495.632 61.7408 494.269 62.4946C492.917 63.2489 491.387 63.5838 489.678 63.4992C487.103 63.3716 485.058 62.3727 483.543 60.5025C482.04 58.6329 481.362 56.2233 481.508 53.2738L481.519 53.0456ZM484.766 53.5936C484.661 55.7004 485.063 57.4157 485.972 58.7396C486.892 60.0641 488.171 60.7669 489.809 60.8481C491.46 60.9299 492.803 60.3511 493.838 59.1117C494.874 57.8606 495.449 56.0705 495.565 53.7413C495.668 51.6579 495.254 49.9479 494.323 48.6111C493.404 47.2632 492.125 46.5487 490.487 46.4675C488.883 46.3881 487.558 46.9619 486.512 48.189C485.465 49.4161 484.883 51.2176 484.766 53.5936ZM502.095 54.0824C502.239 51.168 503.046 48.8613 504.514 47.1624C505.984 45.4517 507.836 44.6518 510.071 44.7625C512.295 44.8727 514.019 45.7207 515.243 47.3066L515.733 37.4047L518.981 37.5656L517.646 64.5325L514.661 64.3847L514.604 62.3403C513.226 63.8677 511.378 64.5741 509.061 64.4593C506.86 64.3503 505.108 63.36 503.805 61.4886C502.513 59.6177 501.939 57.2309 502.083 54.3282L502.095 54.0824ZM505.324 54.612C505.218 56.7656 505.579 58.473 506.408 59.7344C507.238 60.9957 508.436 61.6652 510.005 61.7429C512.065 61.8449 513.615 60.9948 514.654 59.1924L515.086 50.4668C514.204 48.6279 512.756 47.6586 510.743 47.5589C509.151 47.48 507.88 48.0331 506.929 49.218C505.979 50.4029 505.444 52.2009 505.324 54.612ZM529.153 60.333L534.282 46.3138L537.758 46.486L529.035 68.0358C527.696 71.1375 525.74 72.6245 523.165 72.497L522.553 72.4139L521.353 72.1256L521.483 69.4921L522.357 69.6058C523.458 69.6603 524.323 69.4803 524.954 69.0657C525.596 68.6516 526.146 67.8634 526.602 66.7009L527.418 64.8054L521.571 45.6841L525.118 45.8598L529.153 60.333ZM565.692 62.4245L570.063 48.0861L573.31 48.247L566.839 66.9693L564.206 66.8389L560.301 52.2137L555.094 66.3875L552.46 66.2571L547.889 46.9877L551.119 47.1478L554.154 61.5538L559.283 47.5522L561.899 47.6817L565.692 62.4245ZM583.553 68.1492C580.978 68.0217 578.925 67.0752 577.393 65.3097C575.862 63.5326 575.167 61.2278 575.307 58.3953L575.337 57.7984C575.43 55.914 575.87 54.2521 576.657 52.8127C577.456 51.3622 578.52 50.2533 579.849 49.4861C581.19 48.7077 582.615 48.3559 584.125 48.4307C586.595 48.553 588.474 49.4616 589.763 51.1563C591.052 52.8511 591.621 55.2142 591.471 58.2456L591.404 59.5975L578.535 58.96C578.489 60.835 578.958 62.3777 579.942 63.588C580.939 64.7873 582.245 65.4269 583.86 65.5069C585.007 65.5637 585.99 65.3777 586.809 64.949C587.628 64.5202 588.356 63.9344 588.991 63.1915L590.898 64.8347C589.185 67.2021 586.737 68.3069 583.553 68.1492ZM583.993 51.0993C582.682 51.0344 581.558 51.4598 580.621 52.3755C579.685 53.2795 579.068 54.5865 578.772 56.2966L588.288 56.768L588.3 56.5222C588.288 54.8672 587.907 53.5694 587.156 52.6288C586.405 51.6764 585.351 51.1666 583.993 51.0993ZM598.283 68.5269L595.035 68.366L595.976 49.3697L599.224 49.5306L598.283 68.5269ZM595.962 44.3179C595.988 43.7913 596.168 43.3543 596.502 43.0071C596.848 42.6605 597.337 42.5029 597.969 42.5342C598.601 42.5655 599.072 42.7707 599.382 43.1498C599.691 43.5288 599.833 43.9817 599.807 44.5084C599.781 45.0351 599.596 45.4659 599.25 45.8008C598.905 46.1357 598.417 46.2875 597.785 46.2562C597.153 46.2249 596.681 46.0255 596.371 45.6582C596.072 45.2914 595.936 44.8446 595.962 44.3179ZM603.203 59.0908C603.35 56.1295 604.151 53.8109 605.607 52.1348C607.063 50.4469 608.921 49.659 611.18 49.7709C613.497 49.8857 615.265 50.7945 616.483 52.4975L616.746 50.3985L619.713 50.5455L618.794 69.0853C618.672 71.5432 617.845 73.444 616.312 74.7878C614.79 76.1322 612.801 76.7434 610.343 76.6217C608.973 76.5539 607.648 76.1949 606.366 75.5447C605.084 74.8946 604.123 74.0432 603.483 72.9907L605.265 71.1255C606.572 72.915 608.233 73.8596 610.246 73.9593C611.826 74.0376 613.077 73.6537 613.999 72.8077C614.932 71.9622 615.439 70.7319 615.519 69.1166L615.6 67.4839C614.227 68.9177 612.416 69.5789 610.169 69.4676C607.945 69.3575 606.187 68.3728 604.895 66.5136C603.614 64.655 603.05 62.1807 603.203 59.0908ZM606.45 59.6212C606.344 61.7631 606.7 63.4703 607.517 64.7427C608.334 66.0035 609.533 66.673 611.113 66.7512C613.161 66.8527 614.712 65.9967 615.764 64.1832L616.193 55.5103C615.288 53.6468 613.841 52.6658 611.851 52.5672C610.271 52.489 609.006 53.0423 608.055 54.2272C607.105 55.4121 606.57 57.2101 606.45 59.6212ZM627.762 53.2498C629.29 51.5538 631.206 50.7628 633.512 50.8771C637.527 51.0759 639.439 53.441 639.25 57.9724L638.628 70.5253L635.38 70.3645L636.003 57.7939C636.059 56.4239 635.793 55.3958 635.205 54.7097C634.629 54.0241 633.691 53.6491 632.392 53.5847C631.339 53.5326 630.4 53.7677 629.577 54.2901C628.753 54.8124 628.096 55.5191 627.606 56.41L626.935 69.9461L623.687 69.7853L625.023 42.8183L628.271 42.9792L627.762 53.2498ZM649.067 47.3884L648.839 51.9883L652.385 52.1639L652.261 54.6745L648.715 54.4989L648.131 66.2793C648.093 67.0401 648.223 67.6215 648.52 68.0234C648.817 68.4136 649.346 68.6275 650.107 68.6652C650.482 68.6837 651 68.639 651.663 68.531L651.532 71.1645C650.666 71.3563 649.829 71.4322 649.022 71.3922C647.57 71.3203 646.498 70.8272 645.804 69.9128C645.11 68.9984 644.803 67.7337 644.883 66.1185L645.467 54.338L642.008 54.1667L642.132 51.6561L645.591 51.8274L645.819 47.2276L649.067 47.3884ZM667.702 71.9655L664.454 71.8046L665.395 52.8084L668.643 52.9693L667.702 71.9655ZM665.381 47.7566C665.407 47.2299 665.587 46.7929 665.921 46.4458C666.267 46.0992 666.756 45.9415 667.388 45.9728C668.02 46.0041 668.491 46.2093 668.8 46.5884C669.11 46.9674 669.252 47.4203 669.226 47.947C669.2 48.4737 669.014 48.9045 668.669 49.2394C668.324 49.5743 667.835 49.7261 667.203 49.6948C666.571 49.6635 666.1 49.4642 665.79 49.0968C665.491 48.73 665.355 48.2833 665.381 47.7566ZM676.93 53.3797L676.917 55.7726C678.458 54.0187 680.4 53.1996 682.741 53.3156C686.755 53.5144 688.668 55.8795 688.479 60.4109L687.857 72.9639L684.609 72.803L685.232 60.2324C685.288 58.8625 685.022 57.8344 684.434 57.1482C683.858 56.4626 682.92 56.0876 681.621 56.0233C680.568 55.9711 679.629 56.2062 678.805 56.7286C677.981 57.251 677.325 57.9576 676.835 58.8485L676.164 72.3847L672.916 72.2238L673.857 53.2275L676.93 53.3797ZM707.249 50.2705L707.022 54.8703L710.568 55.046L710.444 57.5566L706.897 57.3809L706.314 69.1614C706.276 69.9222 706.406 70.5035 706.702 70.9054C707 71.2956 707.529 71.5096 708.29 71.5472C708.664 71.5658 709.183 71.5211 709.845 71.4131L709.715 74.0466C708.849 74.2383 708.012 74.3142 707.204 74.2742C705.753 74.2023 704.68 73.7092 703.986 72.7949C703.293 71.8805 702.986 70.6157 703.066 69.0005L703.649 57.22L700.191 57.0487L700.315 54.5381L703.774 54.7094L704.001 50.1096L707.249 50.2705ZM717.512 57.6955C719.039 55.9995 720.955 55.2085 723.261 55.3228C727.276 55.5216 729.189 57.8867 728.999 62.4181L728.377 74.971L725.129 74.8101L725.752 62.2396C725.808 60.8696 725.542 59.8415 724.955 59.1554C724.378 58.4698 723.441 58.0948 722.142 58.0304C721.088 57.9783 720.15 58.2134 719.326 58.7357C718.502 59.2581 717.845 59.9648 717.355 60.8557L716.685 74.3918L713.437 74.2309L714.773 47.264L718.021 47.4249L717.512 57.6955ZM741.106 75.9535C738.531 75.826 736.478 74.8795 734.946 73.114C733.415 71.3369 732.72 69.0321 732.86 66.1996L732.889 65.6027C732.983 63.7183 733.423 62.0564 734.21 60.617C735.009 59.1665 736.073 58.0576 737.402 57.2904C738.743 56.512 740.168 56.1602 741.678 56.235C744.148 56.3574 746.027 57.2659 747.316 58.9606C748.605 60.6554 749.174 63.0185 749.024 66.0499L748.957 67.4018L736.088 66.7643C736.042 68.6393 736.511 70.182 737.495 71.3924C738.492 72.5916 739.798 73.2312 741.413 73.3112C742.56 73.368 743.543 73.182 744.362 72.7533C745.181 72.3245 745.908 71.7387 746.544 70.9958L748.451 72.639C746.738 75.0064 744.29 76.1112 741.106 75.9535ZM741.546 58.9036C740.235 58.8387 739.111 59.2641 738.174 60.1798C737.237 61.0838 736.621 62.3908 736.325 64.1009L745.841 64.5723L745.853 64.3265C745.841 62.6715 745.46 61.3737 744.708 60.4331C743.958 59.4807 742.904 58.9709 741.546 58.9036ZM43.225 83.0838L44.0416 66.5982L41.0394 66.4495L41.1638 63.9389L44.166 64.0876L44.246 62.4724C44.3509 60.3539 45.0354 58.7334 46.2995 57.611C47.5754 56.4891 49.3193 55.983 51.5315 56.0926C52.8423 56.1575 54.4808 56.5965 56.4469 57.4096L55.767 60.1215C54.3329 59.4638 52.9546 59.1022 51.632 59.0367C50.2392 58.9677 49.217 59.2339 48.5653 59.8352C47.926 60.4254 47.5753 61.3466 47.5132 62.599L47.4315 64.2493L51.3115 64.4415L51.1871 66.9521L47.3071 66.7599L46.4905 83.2456L43.225 83.0838ZM56.7611 83.7543L53.4956 83.5926L54.4366 64.5963L57.7021 64.7581L56.7611 83.7543ZM72.0244 68.3891C71.5368 68.2828 71.0063 68.2155 70.4328 68.187C68.3026 68.0815 66.8122 68.917 65.9615 70.6935L65.2936 84.177L62.0457 84.0161L62.9866 65.0199L66.1468 65.1764L66.0908 67.3736C67.2399 65.7292 68.7918 64.9554 70.7465 65.0522C71.3785 65.0836 71.8543 65.1893 72.1739 65.3693L72.0244 68.3891ZM85.5402 80.1288C85.5837 79.2509 85.2837 78.5556 84.6403 78.0426C84.0092 77.5186 82.8772 77.0401 81.2443 76.6072C79.6231 76.1749 78.3389 75.6889 77.3918 75.1492C76.4564 74.6101 75.7714 73.9895 75.3369 73.2875C74.914 72.586 74.7258 71.7671 74.7722 70.8308C74.8493 69.2741 75.5699 67.9898 76.9342 66.9779C78.3101 65.9666 80.0222 65.5117 82.0705 65.6132C84.2241 65.7199 85.9405 66.3622 87.2197 67.5402C88.5107 68.7188 89.1132 70.1742 89.0274 71.9065L85.7619 71.7447C85.806 70.8552 85.4635 70.0697 84.7346 69.3883C84.0174 68.7074 83.0853 68.3386 81.9383 68.2818C80.7562 68.2232 79.8188 68.4349 79.1261 68.9169C78.4334 69.3988 78.0665 70.0553 78.0254 70.8863C77.9865 71.6705 78.2674 72.2769 78.868 72.7056C79.4686 73.1343 80.5676 73.57 82.1648 74.0129C83.7737 74.4563 85.069 74.9546 86.0507 75.5078C87.0323 76.0609 87.7454 76.7063 88.1899 77.4441C88.6467 78.1707 88.8499 79.0431 88.7995 80.0614C88.7154 81.7586 87.969 83.0885 86.5603 84.0512C85.1521 85.0023 83.3654 85.4242 81.2001 85.3169C79.6785 85.2415 78.3458 84.9056 77.2021 84.3093C76.0583 83.7129 75.1766 82.9183 74.557 81.9255C73.9497 80.9216 73.6738 79.8578 73.7295 78.7342L76.9775 78.895C76.9821 79.9865 77.3722 80.874 78.1479 81.5578C78.9359 82.2304 79.9971 82.5998 81.3314 82.6658C82.5603 82.7267 83.5557 82.5296 84.3174 82.0746C85.0914 81.6084 85.499 80.9598 85.5402 80.1288ZM98.3452 62.1602L98.1174 66.76L101.664 66.9357L101.539 69.4463L97.993 69.2706L97.4095 81.0511C97.3718 81.8119 97.5014 82.3932 97.7983 82.7951C98.0957 83.1853 98.6249 83.3993 99.3857 83.437C99.7602 83.4555 100.279 83.4108 100.941 83.3028L100.811 85.9363C99.9446 86.1281 99.1078 86.2039 98.3002 86.1639C96.8489 86.092 95.7762 85.5989 95.0823 84.6846C94.3884 83.7702 94.0815 82.5054 94.1615 80.8902L94.745 69.1097L91.2864 68.9384L91.4108 66.4278L94.8694 66.5992L95.0973 61.9993L98.3452 62.1602ZM115.049 86.6416L115.866 70.1559L112.863 70.0072L112.988 67.4966L115.99 67.6454L116.087 65.6966C116.187 63.66 116.81 62.1127 117.953 61.0547C119.097 59.9967 120.663 59.517 122.653 59.6156C123.402 59.6527 124.141 59.789 124.868 60.0245L124.562 62.6493C124.017 62.5167 123.435 62.435 122.814 62.4043C121.761 62.3521 120.932 62.622 120.328 63.2139C119.724 63.7941 119.394 64.6578 119.337 65.8048L119.238 67.8062L123.294 68.0071L123.169 70.5177L119.114 70.3168L118.297 86.8025L115.049 86.6416ZM125.571 77.4654C125.663 75.6044 126.109 73.9486 126.908 72.4981C127.719 71.0481 128.794 69.9516 130.133 69.2083C131.484 68.4656 132.996 68.1358 134.67 68.2187C137.257 68.3468 139.302 69.3457 140.805 71.2153C142.319 73.0855 143.003 75.5071 142.856 78.48L142.845 78.7082C142.753 80.5575 142.314 82.2018 141.527 83.6412C140.752 85.0695 139.683 86.1605 138.32 86.9143C136.968 87.6687 135.438 88.0036 133.729 87.9189C131.154 87.7914 129.11 86.7925 127.595 84.9223C126.092 83.0527 125.413 80.6431 125.559 77.6936L125.571 77.4654ZM128.817 78.0134C128.713 80.1201 129.115 81.8355 130.023 83.1594C130.943 84.4839 132.222 85.1867 133.861 85.2679C135.511 85.3496 136.854 84.7708 137.889 83.5314C138.925 82.2804 139.5 80.4903 139.616 78.1611C139.719 76.0777 139.305 74.3676 138.374 73.0309C137.455 71.683 136.176 70.9684 134.538 70.8873C132.934 70.8078 131.609 71.3817 130.563 72.6087C129.517 73.8358 128.935 75.6374 128.817 78.0134ZM158.279 86.8998C156.941 88.3236 155.049 88.975 152.603 88.8538C150.578 88.7535 149.062 88.0917 148.055 86.8685C147.06 85.6342 146.614 83.8639 146.716 81.5575L147.329 69.1977L150.576 69.3586L149.969 81.6306C149.826 84.5099 150.925 86.0075 153.266 86.1235C155.747 86.2464 157.443 85.4035 158.354 83.5948L159.039 69.7778L162.287 69.9386L161.346 88.9349L158.256 88.7818L158.279 86.8998ZM176.275 73.5531C175.788 73.4468 175.257 73.3795 174.684 73.3511C172.554 73.2456 171.063 74.081 170.213 75.8575L169.545 89.341L166.297 89.1801L167.238 70.1839L170.398 70.3404L170.342 72.5376C171.491 70.8932 173.043 70.1194 174.998 70.2163C175.63 70.2476 176.105 70.3533 176.425 70.5334L176.275 73.5531ZM192.975 66.8477L192.747 71.4475L196.294 71.6232L196.17 74.1338L192.623 73.9581L192.04 85.7386C192.002 86.4994 192.131 87.0807 192.428 87.4826C192.726 87.8728 193.255 88.0867 194.016 88.1244C194.39 88.143 194.909 88.0983 195.571 87.9903L195.441 90.6238C194.575 90.8155 193.738 90.8914 192.93 90.8514C191.479 90.7795 190.406 90.2864 189.712 89.372C189.019 88.4577 188.712 87.1929 188.792 85.5777L189.375 73.7972L185.916 73.6259L186.041 71.1153L189.499 71.2866L189.727 66.6868L192.975 66.8477ZM198.43 81.0744C198.523 79.2134 198.968 77.5577 199.768 76.1072C200.579 74.6572 201.654 73.5606 202.993 72.8174C204.344 72.0747 205.856 71.7448 207.53 71.8277C210.117 71.9559 212.161 72.9548 213.665 74.8244C215.179 76.6946 215.863 79.1161 215.716 82.0891L215.705 82.3173C215.613 84.1666 215.174 85.8109 214.387 87.2503C213.612 88.6786 212.543 89.7696 211.18 90.5234C209.828 91.2778 208.298 91.6126 206.589 91.528C204.014 91.4004 201.969 90.4016 200.455 88.5314C198.952 86.6617 198.273 84.2522 198.419 81.3027L198.43 81.0744ZM201.677 81.6224C201.573 83.7292 201.974 85.4446 202.883 86.7685C203.803 88.093 205.082 88.7958 206.721 88.8769C208.371 88.9587 209.714 88.3799 210.749 87.1405C211.785 85.8895 212.36 84.0993 212.476 81.7702C212.579 79.6868 212.165 77.9767 211.234 76.6399C210.315 75.292 209.036 74.5775 207.398 74.4963C205.794 74.4169 204.469 74.9907 203.423 76.2178C202.377 77.4449 201.795 79.2464 201.677 81.6224ZM229.325 92.3022L230.142 75.8165L227.139 75.6678L227.264 73.1572L230.266 73.306L230.346 71.6907C230.451 69.5723 231.135 67.9518 232.399 66.8294C233.675 65.7075 235.419 65.2014 237.631 65.311C238.942 65.3759 240.581 65.8149 242.547 66.628L241.867 69.3399C240.433 68.6822 239.055 68.3206 237.732 68.2551C236.339 68.1861 235.317 68.4522 234.665 69.0536C234.026 69.6437 233.675 70.565 233.613 71.8174L233.531 73.4677L237.411 73.6599L237.287 76.1705L233.407 75.9783L232.59 92.464L229.325 92.3022ZM242.861 92.9727L239.596 92.8109L240.537 73.8147L243.802 73.9765L242.861 92.9727ZM254.632 89.1382L260.059 74.7818L263.378 74.9461L255.625 93.6049L253.149 93.4823L247.208 74.1452L250.526 74.3095L254.632 89.1382ZM273.181 94.8266C270.607 94.6991 268.553 93.7526 267.021 91.9871C265.49 90.21 264.795 87.9052 264.935 85.0727L264.965 84.4758C265.058 82.5914 265.498 80.9295 266.285 79.4901C267.085 78.0396 268.149 76.9307 269.477 76.1635C270.818 75.3851 272.244 75.0333 273.753 75.1081C276.223 75.2304 278.102 76.139 279.391 77.8337C280.68 79.5285 281.249 81.8915 281.099 84.923L281.032 86.2748L268.163 85.6374C268.117 87.5124 268.586 89.0551 269.571 90.2654C270.567 91.4646 271.873 92.1042 273.488 92.1843C274.635 92.2411 275.618 92.0551 276.438 91.6263C277.257 91.1976 277.984 90.6118 278.619 89.8688L280.526 91.5121C278.813 93.8795 276.365 94.9843 273.181 94.8266ZM273.621 77.7767C272.31 77.7118 271.186 78.1371 270.249 79.0528C269.313 79.9568 268.697 81.2639 268.401 82.974L277.916 83.4454L277.929 83.1996C277.917 81.5446 277.535 80.2468 276.784 79.3061C276.033 78.3538 274.979 77.844 273.621 77.7767ZM297.297 76.6263L297.28 78.7374C298.754 77.1678 300.674 76.4416 303.038 76.5587C305.695 76.6903 307.453 77.7981 308.311 79.8823C308.989 79.0006 309.845 78.3038 310.879 77.7919C311.925 77.2805 313.139 77.059 314.52 77.1274C318.687 77.3338 320.696 79.6451 320.547 84.0611L319.917 96.7896L316.669 96.6287L317.29 84.0933C317.357 82.7356 317.097 81.7078 316.51 81.0099C315.923 80.3004 314.898 79.9093 313.435 79.8369C312.23 79.7771 311.211 80.0904 310.379 80.7767C309.548 81.4512 309.038 82.3939 308.849 83.6048L308.224 96.2104L304.959 96.0487L305.575 83.6011C305.712 80.8388 304.429 79.3907 301.725 79.2568C299.595 79.1513 298.093 79.9862 297.219 81.7615L296.532 95.6312L293.284 95.4704L294.225 76.4741L297.297 76.6263ZM324.452 87.3168C324.544 85.4558 324.99 83.8001 325.789 82.3496C326.6 80.8996 327.675 79.803 329.014 79.0598C330.365 78.3171 331.877 77.9872 333.551 78.0701C336.138 78.1983 338.183 79.1972 339.686 81.0668C341.201 82.937 341.884 85.3585 341.737 88.3315L341.726 88.5597C341.634 90.409 341.195 92.0533 340.408 93.4927C339.633 94.921 338.564 96.012 337.201 96.7658C335.85 97.5202 334.319 97.855 332.611 97.7704C330.036 97.6428 327.991 96.644 326.476 94.7738C324.973 92.9041 324.294 90.4946 324.44 87.5451L324.452 87.3168ZM327.698 87.8648C327.594 89.9716 327.996 91.687 328.904 93.0109C329.824 94.3354 331.103 95.0382 332.742 95.1193C334.392 95.2011 335.735 94.6223 336.77 93.3829C337.806 92.1319 338.382 90.3417 338.497 88.0126C338.6 85.9292 338.186 84.2191 337.255 82.8823C336.336 81.5344 335.058 80.8199 333.419 80.7388C331.816 80.6593 330.491 81.2331 329.444 82.4602C328.398 83.6873 327.816 85.4888 327.698 87.8648ZM349.352 79.2048L349.339 81.5978C350.881 79.8438 352.822 79.0247 355.163 79.1407C359.178 79.3396 361.091 81.7047 360.901 86.236L360.28 98.789L357.032 98.6281L357.654 86.0576C357.71 84.6876 357.445 83.6595 356.857 82.9733C356.281 82.2877 355.343 81.9127 354.044 81.8484C352.99 81.7962 352.052 82.0313 351.228 82.5537C350.404 83.0761 349.747 83.7827 349.257 84.6736L348.587 98.2098L345.339 98.0489L346.28 79.0527L349.352 79.2048ZM370.753 75.6538L370.526 80.2536L374.072 80.4293L373.948 82.9399L370.401 82.7642L369.818 94.5447C369.78 95.3055 369.91 95.8868 370.206 96.2887C370.504 96.6789 371.033 96.8929 371.794 96.9306C372.168 96.9491 372.687 96.9044 373.349 96.7964L373.219 99.4299C372.353 99.6217 371.516 99.6976 370.708 99.6575C369.257 99.5857 368.184 99.0925 367.491 98.1782C366.797 97.2638 366.49 95.999 366.57 94.3838L367.153 82.6034L363.695 82.432L363.819 79.9214L367.278 80.0928L367.505 75.4929L370.753 75.6538ZM381.016 83.0788C382.543 81.3828 384.459 80.5919 386.765 80.7061C390.78 80.9049 392.693 83.27 392.503 87.8014L391.881 100.354L388.633 100.193L389.256 87.6229C389.312 86.2529 389.046 85.2249 388.459 84.5387C387.882 83.8531 386.945 83.4781 385.646 83.4138C384.592 83.3616 383.654 83.5967 382.83 84.1191C382.006 84.6415 381.349 85.3481 380.859 86.239L380.189 99.7752L376.941 99.6143L378.277 72.6473L381.525 72.8082L381.016 83.0788ZM408.055 96.1044C408.098 95.2266 407.798 94.5312 407.155 94.0183C406.524 93.4942 405.392 93.0157 403.759 92.5829C402.138 92.1506 400.854 91.6646 399.907 91.1248C398.971 90.5857 398.286 89.9651 397.852 89.2631C397.429 88.5616 397.24 87.7427 397.287 86.8064C397.364 85.2497 398.085 83.9654 399.449 82.9535C400.825 81.9422 402.537 81.4873 404.585 81.5888C406.739 81.6955 408.455 82.3378 409.734 83.5158C411.025 84.6944 411.628 86.1498 411.542 87.8821L408.277 87.7203C408.321 86.8308 407.978 86.0453 407.249 85.3639C406.532 84.683 405.6 84.3142 404.453 84.2574C403.271 84.1988 402.333 84.4105 401.641 84.8925C400.948 85.3744 400.581 86.0309 400.54 86.8619C400.501 87.6461 400.782 88.2525 401.383 88.6812C401.983 89.1099 403.082 89.5457 404.68 89.9885C406.288 90.4319 407.584 90.9302 408.565 91.4834C409.547 92.0365 410.26 92.682 410.705 93.4197C411.161 94.1463 411.365 95.0188 411.314 96.037C411.23 97.7342 410.484 99.0641 409.075 100.027C407.667 100.978 405.88 101.4 403.715 101.293C402.193 101.217 400.861 100.881 399.717 100.285C398.573 99.6885 397.691 98.8939 397.072 97.9011C396.464 96.8972 396.189 95.8334 396.244 94.7098L399.492 94.8707C399.497 95.9621 399.887 96.8496 400.663 97.5334C401.451 98.206 402.512 98.5754 403.846 98.6415C405.075 98.7023 406.07 98.5052 406.832 98.0502C407.606 97.584 408.014 96.9354 408.055 96.1044ZM419.276 94.4779L416.344 94.3326L417.025 75.9747L420.431 76.1434L419.276 94.4779ZM415.716 99.8982C415.743 99.3715 415.922 98.9405 416.256 98.605C416.601 98.2584 417.09 98.1007 417.722 98.132C418.354 98.1633 418.825 98.3685 419.135 98.7476C419.445 99.115 419.587 99.562 419.561 100.089C419.535 100.615 419.35 101.046 419.005 101.381C418.66 101.704 418.172 101.85 417.54 101.819C416.908 101.788 416.436 101.594 416.125 101.238C415.827 100.872 415.69 100.425 415.716 99.8982Z" fill="black"/>
</svg>
