<svg width="768" height="103" viewBox="0 0 768 103" fill="none" xmlns="http://www.w3.org/2000/svg">
<rect x="2.91351" y="0.91951" width="765.148" height="70.7719" rx="30" transform="rotate(2.2943 2.91351 0.91951)" fill="#A9CDF6"/>
<path d="M42.9559 29.0313L34.7364 28.6902L33.7903 51.487L30.4357 51.3477L31.3819 28.551L23.18 28.2106L23.2952 25.4356L43.0711 26.2564L42.9559 29.0313ZM49.2364 35.3969C50.75 33.6886 52.66 32.8824 54.9667 32.9781C58.9827 33.1448 60.9143 35.4945 60.7613 40.0272L60.2401 52.5848L56.991 52.4499L57.5129 39.8748C57.5581 38.5044 57.284 37.4785 56.6906 36.797C56.109 36.1161 55.1683 35.7486 53.8687 35.6947C52.8149 35.651 51.8782 35.8936 51.0587 36.4225C50.2392 36.9515 49.588 37.6634 49.1052 38.5582L48.5432 52.0993L45.294 51.9644L46.4137 24.9877L49.6629 25.1225L49.2364 35.3969ZM72.9763 53.4652C70.4004 53.3583 68.3395 52.4283 66.7937 50.6752C65.2484 48.9104 64.5345 46.6112 64.6521 43.7777L64.6769 43.1806C64.7552 41.2955 65.182 39.6301 65.9575 38.1845C66.7451 36.7276 67.8002 35.6102 69.1226 34.8324C70.4573 34.0433 71.8798 33.6801 73.3902 33.7428C75.8608 33.8453 77.7472 34.7388 79.0496 36.4231C80.3519 38.1075 80.9402 40.466 80.8143 43.4985L80.7582 44.8509L67.8845 44.3165C67.8536 46.1919 68.3351 47.7307 69.3291 48.9332C70.3352 50.1243 71.6462 50.7535 73.262 50.8205C74.4095 50.8681 75.391 50.6743 76.2066 50.239C77.0223 49.8037 77.7447 49.2121 78.3739 48.4641L80.2944 50.092C78.6004 52.473 76.1611 53.5974 72.9763 53.4652ZM73.2794 36.4124C71.9681 36.3579 70.8475 36.7923 69.9178 37.7155C68.9886 38.627 68.3829 39.9389 68.1007 41.6513L77.6198 42.0464L77.6301 41.8005C77.6049 40.1457 77.2129 38.851 76.4542 37.9164C75.6959 36.9701 74.6376 36.4687 73.2794 36.4124ZM94.0317 37.8719C93.5433 37.7695 93.0123 37.7064 92.4386 37.6826C90.3076 37.5941 88.8239 38.4415 87.9875 40.2248L87.4277 53.7132L84.1785 53.5783L84.9672 34.5752L88.1286 34.7064L88.0902 36.9039C89.2261 35.2504 90.7718 34.4642 92.7271 34.5454C93.3594 34.5716 93.836 34.6735 94.1571 34.851L94.0317 37.8719ZM103.887 54.7482C101.311 54.6413 99.2504 53.7113 97.7046 51.9582C96.1593 50.1933 95.4454 47.8942 95.563 45.0607L95.5878 44.4635C95.666 42.5784 96.0929 40.9131 96.8684 39.4674C97.656 38.0106 98.7111 36.8932 100.034 36.1153C101.368 35.3262 102.791 34.9631 104.301 35.0257C106.772 35.1283 108.658 36.0217 109.96 37.7061C111.263 39.3905 111.851 41.7489 111.725 44.7815L111.669 46.1338L98.7954 45.5995C98.7645 47.4748 99.246 49.0137 100.24 50.2161C101.246 51.4073 102.557 52.0364 104.173 52.1035C105.32 52.1511 106.302 51.9573 107.118 51.522C107.933 51.0867 108.656 50.495 109.285 49.747L111.205 51.3749C109.511 53.756 107.072 54.8804 103.887 54.7482ZM104.19 37.6953C102.879 37.6409 101.758 38.0753 100.829 38.9984C99.8995 39.9099 99.2938 41.2219 99.0116 42.9343L108.531 43.3294L108.541 43.0835C108.516 41.4287 108.124 40.134 107.365 39.1994C106.607 38.253 105.549 37.7517 104.19 37.6953ZM135.744 55.7185C135.572 55.3361 135.447 54.6624 135.37 53.6974C133.794 55.2037 131.959 55.9133 129.863 55.8263C127.989 55.7486 126.472 55.1578 125.309 54.0539C124.159 52.9389 123.618 51.5676 123.686 49.9401C123.768 47.9613 124.581 46.4586 126.125 45.4319C127.681 44.394 129.823 43.9316 132.551 44.0448L135.712 44.176L135.774 42.6832C135.821 41.5475 135.519 40.6318 134.868 39.9362C134.217 39.2289 133.23 38.8478 131.907 38.7929C130.748 38.7448 129.764 38.9972 128.955 39.5501C128.146 40.1029 127.725 40.795 127.69 41.6263L124.423 41.4908C124.463 40.5423 124.834 39.6429 125.538 38.7925C126.254 37.9308 127.197 37.2662 128.365 36.7986C129.546 36.3316 130.827 36.1267 132.209 36.184C134.398 36.2749 136.091 36.8964 137.286 38.0485C138.482 39.189 139.064 40.7203 139.031 42.6424L138.668 51.3888C138.595 53.1334 138.76 54.5301 139.162 55.5789L139.151 55.8599L135.744 55.7185ZM130.454 53.0183C131.473 53.0606 132.45 52.8373 133.385 52.3483C134.32 51.8593 135.01 51.2018 135.455 50.3758L135.617 46.4768L133.07 46.3711C129.089 46.2059 127.05 47.2883 126.954 49.6183C126.911 50.637 127.218 51.4472 127.873 52.0491C128.529 52.6511 129.389 52.9741 130.454 53.0183ZM153.43 40.3372C152.941 40.2348 152.41 40.1717 151.837 40.1479C149.706 40.0594 148.222 40.9068 147.386 42.6901L146.826 56.1785L143.577 56.0436L144.365 37.0405L147.527 37.1717L147.488 39.3692C148.624 37.7157 150.17 36.9295 152.125 37.0107C152.757 37.0369 153.234 37.1388 153.555 37.3163L153.43 40.3372ZM163.285 57.2135C160.709 57.1066 158.649 56.1766 157.103 54.4235C155.557 52.6586 154.843 50.3595 154.961 47.526L154.986 46.9288C155.064 45.0437 155.491 43.3784 156.266 41.9327C157.054 40.4759 158.109 39.3585 159.432 38.5806C160.766 37.7915 162.189 37.4284 163.699 37.491C166.17 37.5936 168.056 38.487 169.359 40.1714C170.661 41.8558 171.249 44.2142 171.123 47.2468L171.067 48.5991L158.193 48.0648C158.163 49.9401 158.644 51.479 159.638 52.6814C160.644 53.8726 161.955 54.5017 163.571 54.5688C164.718 54.6164 165.7 54.4226 166.516 53.9873C167.331 53.552 168.054 52.9603 168.683 52.2123L170.603 53.8402C168.909 56.2213 166.47 57.3457 163.285 57.2135ZM163.588 40.1606C162.277 40.1062 161.156 40.5406 160.227 41.4637C159.298 42.3752 158.692 43.6872 158.41 45.3996L167.929 45.7947L167.939 45.5488C167.914 43.894 167.522 42.5993 166.763 41.6647C166.005 40.7183 164.947 40.217 163.588 40.1606ZM195.142 58.1838C194.97 57.8014 194.845 57.1277 194.768 56.1627C193.193 57.669 191.357 58.3786 189.261 58.2916C187.388 58.2139 185.87 57.6231 184.707 56.5192C183.557 55.4042 183.016 54.0329 183.084 52.4054C183.166 50.4266 183.979 48.9239 185.523 47.8972C187.079 46.8593 189.221 46.3969 191.949 46.5101L195.11 46.6413L195.172 45.1485C195.22 44.0128 194.917 43.0971 194.266 42.4015C193.615 41.6942 192.628 41.3131 191.305 41.2582C190.146 41.2101 189.162 41.4625 188.353 42.0154C187.544 42.5682 187.123 43.2603 187.088 44.0916L183.821 43.9561C183.861 43.0076 184.232 42.1082 184.936 41.2578C185.652 40.3961 186.595 39.7315 187.764 39.2639C188.944 38.7969 190.225 38.592 191.607 38.6493C193.796 38.7402 195.489 39.3617 196.684 40.5138C197.88 41.6543 198.462 43.1856 198.429 45.1077L198.066 53.8541C197.993 55.5987 198.158 56.9954 198.56 58.0442L198.549 58.3252L195.142 58.1838ZM189.853 55.4836C190.871 55.5259 191.848 55.3026 192.783 54.8136C193.718 54.3246 194.408 53.6671 194.853 52.8411L195.015 48.9421L192.468 48.8364C188.487 48.6712 186.449 49.7536 186.352 52.0836C186.31 53.1023 186.616 53.9125 187.271 54.5144C187.927 55.1164 188.787 55.4394 189.853 55.4836ZM219.448 49.8858C219.327 52.7896 218.563 55.0977 217.155 56.8104C215.747 58.5113 213.919 59.3151 211.671 59.2217C209.271 59.1221 207.45 58.1962 206.21 56.444L205.96 58.6329L202.975 58.5089L204.094 31.5322L207.344 31.667L206.926 41.7306C208.305 40.1575 210.147 39.4189 212.454 39.5146C214.761 39.6103 216.534 40.5577 217.772 42.3567C219.023 44.1562 219.586 46.5723 219.46 49.6048L219.448 49.8858ZM216.214 49.3821C216.306 47.1692 215.95 45.442 215.145 44.2005C214.34 42.9591 213.136 42.305 211.532 42.2385C209.389 42.1495 207.808 43.0809 206.789 45.0325L206.448 53.2519C207.36 55.2837 208.87 56.3434 210.978 56.4308C212.535 56.4955 213.772 55.9428 214.689 54.7727C215.605 53.6027 216.114 51.8058 216.214 49.3821ZM222.713 49.6343C222.79 47.7726 223.223 46.1133 224.011 44.6565C224.81 43.2001 225.876 42.0949 227.209 41.3409C228.554 40.5875 230.064 40.2455 231.738 40.315C234.326 40.4224 236.379 41.4048 237.897 43.2624C239.426 45.1204 240.13 47.5364 240.006 50.5104L239.997 50.7387C239.92 52.5887 239.494 54.2365 238.718 55.6821C237.955 57.1165 236.895 58.2161 235.538 58.9808C234.192 59.746 232.665 60.0931 230.956 60.0221C228.38 59.9152 226.327 58.9328 224.797 57.0748C223.279 55.2172 222.581 52.8132 222.704 49.8626L222.713 49.6343ZM225.964 50.1563C225.876 52.2638 226.292 53.9759 227.211 55.2925C228.142 56.6095 229.426 57.3021 231.066 57.3701C232.717 57.4386 234.055 56.8491 235.08 55.6015C236.106 54.3421 236.667 52.5475 236.764 50.2174C236.85 48.1333 236.422 46.4266 235.481 45.0973C234.551 43.7569 233.267 43.0526 231.627 42.9846C230.023 42.918 228.703 43.5024 227.667 44.7378C226.63 45.9733 226.063 47.7794 225.964 50.1563ZM255.496 58.8063C254.17 60.2408 252.283 60.9073 249.836 60.8057C247.81 60.7217 246.289 60.0721 245.272 58.857C244.267 57.6307 243.807 55.864 243.891 53.5569L244.404 41.1925L247.653 41.3274L247.144 53.6039C247.024 56.4843 248.135 57.973 250.477 58.0702C252.959 58.1733 254.649 57.3168 255.545 55.5008L256.119 41.6788L259.368 41.8136L258.579 60.8168L255.488 60.6885L255.496 58.8063ZM268.92 37.6006L268.729 42.2021L272.277 42.3494L272.172 44.8609L268.625 44.7136L268.136 56.4984C268.104 57.2595 268.238 57.8398 268.538 58.2393C268.839 58.6271 269.37 58.8368 270.131 58.8684C270.506 58.8839 271.024 58.835 271.685 58.7217L271.576 61.3562C270.711 61.5549 269.875 61.6375 269.067 61.6039C267.615 61.5437 266.539 61.0592 265.838 60.1504C265.136 59.2416 264.819 57.9794 264.886 56.3636L265.376 44.5788L261.916 44.4352L262.02 41.9237L265.48 42.0673L265.671 37.4658L268.92 37.6006ZM297.961 53.8482L301.508 53.9954L301.398 56.6474L297.851 56.5002L297.604 62.4365L294.337 62.3009L294.584 56.3646L282.94 55.8813L283.019 53.967L295.206 36.7212L298.665 36.8648L297.961 53.8482ZM286.738 53.3824L294.694 53.7126L295.214 41.1726L294.799 41.8591L286.738 53.3824ZM320.573 52.4644C320.415 56.2697 319.647 59.0704 318.271 60.8664C316.895 62.6624 314.825 63.5031 312.061 63.3884C309.333 63.2752 307.351 62.2898 306.115 60.4322C304.878 58.5629 304.312 55.8301 304.414 52.2336L304.594 47.8955C304.75 44.137 305.516 41.3715 306.891 39.5989C308.267 37.8262 310.342 36.9975 313.117 37.1127C315.868 37.2269 317.857 38.195 319.084 40.0169C320.31 41.8272 320.865 44.5713 320.748 48.2493L320.573 52.4644ZM317.508 47.8861C317.622 45.1346 317.319 43.1163 316.598 41.8314C315.878 40.5348 314.68 39.8518 313.006 39.7823C311.343 39.7133 310.106 40.2894 309.293 41.5106C308.479 42.7319 308.007 44.6417 307.876 47.24L307.66 52.4387C307.546 55.2019 307.859 57.2616 308.6 58.6177C309.354 59.9626 310.544 60.6688 312.172 60.7364C313.776 60.803 314.99 60.2317 315.814 59.0227C316.65 57.8141 317.141 55.8758 317.287 53.2077L317.508 47.8861ZM340.77 53.3027C340.612 57.108 339.845 59.9087 338.468 61.7047C337.092 63.5007 335.022 64.3414 332.259 64.2267C329.531 64.1135 327.548 63.1281 326.312 61.2705C325.076 59.4012 324.509 56.6684 324.611 53.0718L324.791 48.7338C324.947 44.9753 325.713 42.2098 327.089 40.4371C328.464 38.6645 330.539 37.8358 333.314 37.951C336.066 38.0652 338.055 39.0333 339.281 40.8552C340.508 42.6655 341.062 45.4096 340.945 49.0876L340.77 53.3027ZM337.705 48.7244C337.82 45.9728 337.516 43.9546 336.795 42.6697C336.075 41.3731 334.878 40.6901 333.204 40.6206C331.541 40.5516 330.303 41.1277 329.49 42.3489C328.677 43.5702 328.205 45.48 328.073 48.0783L327.858 53.277C327.743 56.0402 328.056 58.0999 328.798 59.456C329.551 60.8009 330.742 61.5071 332.369 61.5747C333.973 61.6413 335.187 61.07 336.012 59.861C336.848 58.6524 337.339 56.7141 337.484 54.046L337.705 48.7244ZM357.58 45.8899L357.581 48.0011C359.042 46.4197 360.955 45.6781 363.32 45.7763C365.978 45.8866 367.745 46.9803 368.62 49.0575C369.291 48.1704 370.141 47.4668 371.171 46.9466C372.213 46.4268 373.425 46.1956 374.807 46.253C378.975 46.426 381.002 48.721 380.89 53.1381L380.361 65.8713L377.112 65.7364L377.632 53.1965C377.689 51.8383 377.42 50.8126 376.828 50.1194C376.235 49.4146 375.207 49.0318 373.744 48.971C372.538 48.921 371.522 49.2424 370.695 49.9353C369.869 50.6165 369.367 51.5632 369.187 52.7756L368.664 65.3858L365.397 65.2502L365.914 52.7981C366.029 50.0348 364.734 48.5971 362.029 48.4848C359.898 48.3964 358.403 49.2433 357.543 51.0256L356.967 64.9003L353.718 64.7655L354.507 45.7623L357.58 45.8899ZM388.809 66.2219L385.56 66.0871L386.348 47.0839L389.598 47.2188L388.809 66.2219ZM386.294 42.0324C386.316 41.5055 386.493 41.0671 386.824 40.7173C387.167 40.3679 387.654 40.2064 388.287 40.2326C388.919 40.2588 389.391 40.4602 389.704 40.8368C390.017 41.2134 390.162 41.6651 390.14 42.192C390.119 42.7189 389.936 43.1512 389.594 43.4888C389.252 43.8265 388.764 43.9822 388.132 43.956C387.5 43.9297 387.027 43.7342 386.714 43.3693C386.412 43.0049 386.272 42.5593 386.294 42.0324ZM397.555 66.5849L394.306 66.4501L395.426 39.4733L398.675 39.6082L397.555 66.5849ZM406.302 66.948L403.052 66.8131L404.172 39.8363L407.421 39.9712L406.302 66.948ZM415.048 67.311L411.799 67.1761L412.588 48.1729L415.837 48.3078L415.048 67.311ZM412.533 43.1214C412.555 42.5945 412.732 42.1562 413.063 41.8063C413.406 41.457 413.893 41.2954 414.526 41.3216C415.158 41.3479 415.63 41.5493 415.943 41.9259C416.256 42.3024 416.401 42.7542 416.38 43.2811C416.358 43.808 416.176 44.2402 415.833 44.5779C415.491 44.9155 415.003 45.0712 414.371 45.045C413.739 45.0188 413.266 44.8232 412.953 44.4583C412.651 44.094 412.511 43.6483 412.533 43.1214ZM419.805 57.8145C419.883 55.9529 420.315 54.2936 421.103 52.8367C421.902 51.3803 422.968 50.2752 424.301 49.5212C425.646 48.7677 427.156 48.4257 428.83 48.4952C431.418 48.6026 433.471 49.5851 434.989 51.4426C436.519 53.3006 437.222 55.7166 437.098 58.6906L437.089 58.9189C437.012 60.7689 436.586 62.4167 435.81 63.8624C435.047 65.2968 433.987 66.3963 432.63 67.161C431.284 67.9262 429.757 68.2733 428.048 68.2024C425.472 68.0955 423.419 67.113 421.889 65.255C420.371 63.3975 419.673 60.9934 419.796 58.0429L419.805 57.8145ZM423.056 58.3365C422.968 60.4441 423.384 62.1561 424.303 63.4727C425.234 64.7898 426.518 65.4823 428.158 65.5504C429.809 65.6189 431.147 65.0293 432.172 63.7817C433.198 62.5224 433.759 60.7277 433.856 58.3977C433.942 56.3135 433.514 54.6068 432.573 53.2776C431.643 51.9371 430.359 51.2328 428.72 51.1648C427.115 51.0982 425.795 51.6827 424.759 52.9181C423.722 54.1535 423.155 55.9596 423.056 58.3365ZM444.64 49.5033L444.646 51.8962C446.174 50.1299 448.109 49.2954 450.45 49.3926C454.466 49.5593 456.398 51.909 456.245 56.4417L455.724 68.9992L452.475 68.8644L452.997 56.2892C453.042 54.9188 452.768 53.8929 452.174 53.2115C451.593 52.5305 450.652 52.1631 449.352 52.1091C448.299 52.0654 447.362 52.308 446.542 52.837C445.723 53.366 445.072 54.0778 444.589 54.9727L444.027 68.5137L440.778 68.3789L441.566 49.3757L444.64 49.5033ZM469.157 59.8804C469.278 56.965 470.066 54.6519 471.521 52.9413C472.976 51.2189 474.822 50.4041 477.058 50.4969C479.283 50.5893 481.014 51.4235 482.25 52.9995L482.661 43.094L485.91 43.2288L484.791 70.2056L481.805 70.0817L481.731 68.0378C480.366 69.5763 478.524 70.2974 476.205 70.2012C474.004 70.1098 472.244 69.1336 470.926 67.2727C469.619 65.4122 469.026 63.0301 469.146 60.1263L469.157 59.8804ZM472.39 60.3841C472.301 62.5385 472.676 64.243 473.515 65.4977C474.355 66.7523 475.559 67.4122 477.128 67.4773C479.188 67.5628 480.731 66.7003 481.757 64.8897L482.119 56.1609C481.221 54.3291 479.766 53.3714 477.752 53.2878C476.159 53.2218 474.893 53.7849 473.952 54.9774C473.011 56.1699 472.491 57.9721 472.39 60.3841ZM489.39 60.7026C489.467 58.8409 489.9 57.1817 490.687 55.7248C491.487 54.2684 492.553 53.1632 493.886 52.4093C495.231 51.6558 496.741 51.3138 498.415 51.3833C501.003 51.4907 503.055 52.4732 504.573 54.3307C506.103 56.1887 506.806 58.6047 506.683 61.5787L506.673 61.807C506.597 63.657 506.17 65.3048 505.395 66.7504C504.632 68.1849 503.572 69.2844 502.214 70.0491C500.869 70.8143 499.342 71.1614 497.632 71.0905C495.056 70.9836 493.003 70.0011 491.474 68.1431C489.956 66.2856 489.258 63.8815 489.38 60.9309L489.39 60.7026ZM492.641 61.2246C492.553 63.3322 492.969 65.0442 493.888 66.3608C494.818 67.6779 496.103 68.3704 497.742 68.4385C499.393 68.507 500.731 67.9174 501.757 66.6698C502.782 65.4105 503.344 63.6158 503.44 61.2858C503.527 59.2016 503.099 57.4949 502.157 56.1657C501.228 54.8252 499.943 54.1209 498.304 54.0529C496.7 53.9863 495.38 54.5707 494.343 55.8062C493.307 57.0416 492.739 58.8477 492.641 61.2246ZM509.991 61.5752C510.113 58.6129 510.896 56.2879 512.338 54.6002C513.781 52.9008 515.633 52.0979 517.892 52.1917C520.211 52.2879 521.986 53.1826 523.217 54.8758L523.463 52.7748L526.431 52.898L525.661 71.4445C525.559 73.9033 524.747 75.8107 523.224 77.1667C521.714 78.5232 519.729 79.1505 517.27 79.0484C515.9 78.9915 514.572 78.6432 513.285 78.0033C511.998 77.3635 511.03 76.5199 510.381 75.4725L512.148 73.593C513.47 75.372 515.138 76.3033 517.152 76.3869C518.733 76.4525 519.981 76.0586 520.896 75.2052C521.822 74.3523 522.319 73.1179 522.386 71.5021L522.454 69.8688C521.092 71.3135 519.287 71.9893 517.039 71.896C514.815 71.8036 513.049 70.8331 511.741 68.9843C510.446 67.136 509.862 64.6663 509.991 61.5752ZM513.242 62.0796C513.153 64.2223 513.522 65.9266 514.349 67.1925C515.177 68.4466 516.381 69.1065 517.962 69.1721C520.011 69.2571 521.554 68.3887 522.591 66.5669L522.951 57.8908C522.031 56.0346 520.576 55.0653 518.586 54.9826C517.005 54.917 515.744 55.4805 514.803 56.673C513.863 57.8654 513.342 59.6677 513.242 62.0796ZM541.834 67.5239C541.87 66.6458 541.565 65.9528 540.917 65.4451C540.282 64.9261 539.146 64.4567 537.51 64.0369C535.885 63.6176 534.597 63.1419 533.646 62.6098C532.706 62.0782 532.016 61.4631 531.576 60.7646C531.147 60.0665 530.953 59.2492 530.992 58.3125C531.056 56.7552 531.767 55.4652 533.123 54.4424C534.49 53.4201 536.199 52.9515 538.248 53.0366C540.402 53.126 542.124 53.7546 543.412 54.9223C544.713 56.0905 545.327 57.541 545.255 59.2739L541.988 59.1383C542.025 58.2485 541.676 57.4658 540.942 56.7902C540.22 56.1151 539.284 55.7538 538.137 55.7061C536.954 55.6571 536.019 55.8763 535.33 56.3637C534.641 56.8512 534.28 57.5106 534.245 58.3419C534.213 59.1264 534.498 59.7306 535.102 60.1544C535.706 60.5783 536.809 61.0052 538.409 61.4353C540.022 61.8658 541.321 62.3537 542.307 62.8989C543.293 63.4442 544.011 64.0839 544.462 64.8181C544.924 65.541 545.135 66.4118 545.092 67.4304C545.022 69.1282 544.286 70.4641 542.885 71.4381C541.485 72.4004 539.701 72.8365 537.535 72.7466C536.013 72.6835 534.678 72.3583 533.529 71.7711C532.381 71.1839 531.493 70.3964 530.865 69.4086C530.25 68.4095 529.966 67.348 530.012 66.224L533.261 66.3588C533.275 67.4502 533.672 68.3346 534.453 69.0121C535.247 69.6784 536.311 70.0392 537.645 70.0946C538.875 70.1456 539.869 69.9406 540.627 69.4794C541.397 69.0071 541.799 68.3552 541.834 67.5239ZM561.559 73.3918L558.309 73.257L559.098 54.2538L562.347 54.3887L561.559 73.3918ZM559.044 49.2023C559.066 48.6754 559.242 48.237 559.573 47.8872C559.916 47.5378 560.404 47.3763 561.036 47.4025C561.668 47.4288 562.141 47.6302 562.454 48.0067C562.767 48.3833 562.912 48.8351 562.89 49.3619C562.868 49.8888 562.686 50.3211 562.344 50.6588C562.001 50.9964 561.514 51.1521 560.882 51.1259C560.249 51.0996 559.777 50.9041 559.463 50.5392C559.162 50.1748 559.022 49.7292 559.044 49.2023ZM570.637 54.7327L570.643 57.1257C572.171 55.3594 574.106 54.5248 576.447 54.622C580.463 54.7887 582.395 57.1384 582.242 61.6711L581.721 74.2287L578.472 74.0938L578.994 61.5187C579.039 60.1483 578.765 59.1224 578.171 58.441C577.59 57.76 576.649 57.3925 575.349 57.3386C574.296 57.2949 573.359 57.5375 572.539 58.0665C571.72 58.5954 571.069 59.3073 570.586 60.2021L570.024 73.7432L566.775 73.6083L567.563 54.6052L570.637 54.7327ZM600.931 51.3806L600.74 55.9822L604.288 56.1294L604.183 58.6409L600.636 58.4937L600.147 70.2784C600.115 71.0395 600.249 71.6198 600.549 72.0193C600.85 72.4071 601.381 72.6168 602.142 72.6484C602.517 72.6639 603.035 72.6151 603.696 72.5018L603.587 75.1362C602.722 75.3349 601.886 75.4175 601.078 75.384C599.626 75.3237 598.55 74.8392 597.849 73.9304C597.147 73.0217 596.83 71.7594 596.897 70.1436L597.387 58.3588L593.927 58.2152L594.031 55.7037L597.491 55.8473L597.682 51.2458L600.931 51.3806ZM611.253 58.7232C612.766 57.015 614.676 56.2087 616.983 56.3044C620.999 56.4711 622.93 58.8208 622.777 63.3535L622.256 75.9111L619.007 75.7762L619.529 63.2011C619.574 61.8307 619.3 60.8048 618.707 60.1234C618.125 59.4424 617.184 59.075 615.885 59.021C614.831 58.9773 613.894 59.2199 613.075 59.7489C612.255 60.2778 611.604 60.9897 611.121 61.8845L610.559 75.4256L607.31 75.2908L608.43 48.314L611.679 48.4488L611.253 58.7232ZM634.992 76.7916C632.417 76.6847 630.356 75.7546 628.81 74.0015C627.265 72.2367 626.551 69.9376 626.668 67.1041L626.693 66.5069C626.771 64.6218 627.198 62.9564 627.974 61.5108C628.761 60.0539 629.816 58.9366 631.139 58.1587C632.473 57.3696 633.896 57.0064 635.406 57.0691C637.877 57.1716 639.763 58.0651 641.066 59.7495C642.368 61.4338 642.956 63.7923 642.83 66.8248L642.774 68.1772L629.901 67.6429C629.87 69.5182 630.351 71.0571 631.345 72.2595C632.351 73.4507 633.662 74.0798 635.278 74.1468C636.426 74.1945 637.407 74.0006 638.223 73.5653C639.038 73.13 639.761 72.5384 640.39 71.7904L642.31 73.4183C640.617 75.7993 638.177 76.9237 634.992 76.7916ZM635.296 59.7387C633.984 59.6843 632.864 60.1186 631.934 61.0418C631.005 61.9533 630.399 63.2652 630.117 64.9777L639.636 65.3727L639.646 65.1269C639.621 63.4721 639.229 62.1773 638.47 61.2427C637.712 60.2964 636.654 59.7951 635.296 59.7387ZM672.128 73.4947L676.384 59.1217L679.633 59.2566L673.312 78.0301L670.677 77.9208L666.656 63.3274L661.562 77.5425L658.928 77.4331L654.202 58.2011L657.433 58.3352L660.584 72.7165L665.6 58.6742L668.217 58.7828L672.128 73.4947ZM681.705 68.6846C681.782 66.8229 682.214 65.1636 683.002 63.7068C683.801 62.2504 684.868 61.1452 686.201 60.3913C687.546 59.6378 689.055 59.2958 690.73 59.3653C693.317 59.4727 695.37 60.4552 696.888 62.3127C698.418 64.1707 699.121 66.5867 698.998 69.5607L698.988 69.789C698.911 71.639 698.485 73.2868 697.71 74.7324C696.947 76.1668 695.886 77.2664 694.529 78.0311C693.184 78.7963 691.657 79.1434 689.947 79.0724C687.371 78.9655 685.318 77.9831 683.789 76.1251C682.271 74.2676 681.573 71.8635 681.695 68.9129L681.705 68.6846ZM684.955 69.2066C684.868 71.3141 685.284 73.0262 686.202 74.3428C687.133 75.6598 688.418 76.3524 690.057 76.4204C691.708 76.489 693.046 75.8994 694.071 74.6518C695.097 73.3925 695.658 71.5978 695.755 69.2678C695.842 67.1836 695.414 65.4769 694.472 64.1476C693.543 62.8072 692.258 62.1029 690.619 62.0349C689.015 61.9683 687.695 62.5527 686.658 63.7881C685.622 65.0236 685.054 66.8297 684.955 69.2066ZM712.53 63.5425C712.042 63.4401 711.511 63.377 710.937 63.3532C708.806 63.2647 707.323 64.1122 706.486 65.8954L705.926 79.3838L702.677 79.2489L703.466 60.2458L706.627 60.377L706.589 62.5745C707.725 60.921 709.271 60.1348 711.226 60.216C711.858 60.2422 712.335 60.3441 712.656 60.5216L712.53 63.5425ZM718.396 79.9013L715.147 79.7665L716.267 52.7897L719.516 52.9246L718.396 79.9013ZM723.223 70.4254C723.344 67.5099 724.132 65.1969 725.587 63.4862C727.042 61.7638 728.888 60.9491 731.125 61.0419C733.349 61.1342 735.08 61.9684 736.316 63.5445L736.728 53.6389L739.977 53.7738L738.857 80.7506L735.871 80.6267L735.798 78.5828C734.432 80.1212 732.59 80.8423 730.272 80.7461C728.071 80.6547 726.311 79.6786 724.992 77.8176C723.685 75.9571 723.092 73.575 723.213 70.6713L723.223 70.4254ZM726.457 70.9291C726.367 73.0835 726.742 74.788 727.582 76.0426C728.421 77.2972 729.625 77.9571 731.194 78.0222C733.255 78.1078 734.798 77.2452 735.823 75.4346L736.185 66.7058C735.288 64.8741 733.832 63.9164 731.818 63.8328C730.226 63.7667 728.959 64.3299 728.018 65.5224C727.077 66.7149 726.557 68.5171 726.457 70.9291ZM744.056 79.2598C744.079 78.6978 744.263 78.2363 744.606 77.8752C744.961 77.5146 745.473 77.3482 746.14 77.3759C746.807 77.4036 747.303 77.6118 747.627 78.0006C747.963 78.3898 748.119 78.8655 748.096 79.4275C748.073 79.9661 747.879 80.4096 747.513 80.758C747.158 81.1068 746.647 81.2674 745.98 81.2397C745.312 81.212 744.816 81.0096 744.492 80.6326C744.179 80.256 744.034 79.7984 744.056 79.2598Z" fill="black"/>
</svg>
