<svg width="402" height="97" viewBox="0 0 402 97" fill="none" xmlns="http://www.w3.org/2000/svg">
<rect width="402" height="97" rx="35" fill="#A9CDF6"/>
<path d="M51.6543 21.1836H43.4277V44H40.0703V21.1836H31.8613V18.4062H51.6543V21.1836ZM58.1934 27.2832C59.6348 25.5137 61.5098 24.6289 63.8184 24.6289C67.8379 24.6289 69.8652 26.8965 69.9004 31.4316V44H66.6484V31.4141C66.6367 30.043 66.3203 29.0293 65.6992 28.373C65.0898 27.7168 64.1348 27.3887 62.834 27.3887C61.7793 27.3887 60.8535 27.6699 60.0566 28.2324C59.2598 28.7949 58.6387 29.5332 58.1934 30.4473V44H54.9414V17H58.1934V27.2832ZM82.6621 44.3516C80.084 44.3516 77.9863 43.5078 76.3691 41.8203C74.752 40.1211 73.9434 37.8535 73.9434 35.0176V34.4199C73.9434 32.5332 74.3008 30.8516 75.0156 29.375C75.7422 27.8867 76.75 26.7266 78.0391 25.8945C79.3398 25.0508 80.7461 24.6289 82.2578 24.6289C84.7305 24.6289 86.6523 25.4434 88.0234 27.0723C89.3945 28.7012 90.0801 31.0332 90.0801 34.0684V35.4219H77.1953C77.2422 37.2969 77.7871 38.8145 78.8301 39.9746C79.8848 41.123 81.2207 41.6973 82.8379 41.6973C83.9863 41.6973 84.959 41.4629 85.7559 40.9941C86.5527 40.5254 87.25 39.9043 87.8477 39.1309L89.834 40.6777C88.2402 43.127 85.8496 44.3516 82.6621 44.3516ZM82.2578 27.3008C80.9453 27.3008 79.8438 27.7812 78.9531 28.7422C78.0625 29.6914 77.5117 31.0273 77.3008 32.75H86.8281V32.5039C86.7344 30.8516 86.2891 29.5742 85.4922 28.6719C84.6953 27.7578 83.6172 27.3008 82.2578 27.3008ZM114.531 44C114.344 43.625 114.191 42.957 114.074 41.9961C112.562 43.5664 110.758 44.3516 108.66 44.3516C106.785 44.3516 105.244 43.8242 104.037 42.7695C102.842 41.7031 102.244 40.3555 102.244 38.7266C102.244 36.7461 102.994 35.2109 104.494 34.1211C106.006 33.0195 108.127 32.4688 110.857 32.4688H114.021V30.9746C114.021 29.8379 113.682 28.9355 113.002 28.2676C112.322 27.5879 111.32 27.248 109.996 27.248C108.836 27.248 107.863 27.541 107.078 28.127C106.293 28.7129 105.9 29.4219 105.9 30.2539H102.631C102.631 29.3047 102.965 28.3906 103.633 27.5117C104.312 26.6211 105.227 25.918 106.375 25.4023C107.535 24.8867 108.807 24.6289 110.189 24.6289C112.381 24.6289 114.098 25.1797 115.34 26.2812C116.582 27.3711 117.227 28.877 117.273 30.7988V39.5527C117.273 41.2988 117.496 42.6875 117.941 43.7188V44H114.531ZM109.135 41.5215C110.154 41.5215 111.121 41.2578 112.035 40.7305C112.949 40.2031 113.611 39.5176 114.021 38.6738V34.7715H111.473C107.488 34.7715 105.496 35.9375 105.496 38.2695C105.496 39.2891 105.836 40.0859 106.516 40.6602C107.195 41.2344 108.068 41.5215 109.135 41.5215ZM128.365 39.5879L133.076 24.9805H136.398L129.578 44H127.1L120.209 24.9805H123.531L128.365 39.5879ZM147.174 44.3516C144.596 44.3516 142.498 43.5078 140.881 41.8203C139.264 40.1211 138.455 37.8535 138.455 35.0176V34.4199C138.455 32.5332 138.812 30.8516 139.527 29.375C140.254 27.8867 141.262 26.7266 142.551 25.8945C143.852 25.0508 145.258 24.6289 146.77 24.6289C149.242 24.6289 151.164 25.4434 152.535 27.0723C153.906 28.7012 154.592 31.0332 154.592 34.0684V35.4219H141.707C141.754 37.2969 142.299 38.8145 143.342 39.9746C144.396 41.123 145.732 41.6973 147.35 41.6973C148.498 41.6973 149.471 41.4629 150.268 40.9941C151.064 40.5254 151.762 39.9043 152.359 39.1309L154.346 40.6777C152.752 43.127 150.361 44.3516 147.174 44.3516ZM146.77 27.3008C145.457 27.3008 144.355 27.7812 143.465 28.7422C142.574 29.6914 142.023 31.0273 141.812 32.75H151.34V32.5039C151.246 30.8516 150.801 29.5742 150.004 28.6719C149.207 27.7578 148.129 27.3008 146.77 27.3008ZM167.564 27.8984C167.072 27.8164 166.539 27.7754 165.965 27.7754C163.832 27.7754 162.385 28.6836 161.623 30.5V44H158.371V24.9805H161.535L161.588 27.1777C162.654 25.4785 164.166 24.6289 166.123 24.6289C166.756 24.6289 167.236 24.7109 167.564 24.875V27.8984ZM181.609 44C181.422 43.625 181.27 42.957 181.152 41.9961C179.641 43.5664 177.836 44.3516 175.738 44.3516C173.863 44.3516 172.322 43.8242 171.115 42.7695C169.92 41.7031 169.322 40.3555 169.322 38.7266C169.322 36.7461 170.072 35.2109 171.572 34.1211C173.084 33.0195 175.205 32.4688 177.936 32.4688H181.1V30.9746C181.1 29.8379 180.76 28.9355 180.08 28.2676C179.4 27.5879 178.398 27.248 177.074 27.248C175.914 27.248 174.941 27.541 174.156 28.127C173.371 28.7129 172.979 29.4219 172.979 30.2539H169.709C169.709 29.3047 170.043 28.3906 170.711 27.5117C171.391 26.6211 172.305 25.918 173.453 25.4023C174.613 24.8867 175.885 24.6289 177.268 24.6289C179.459 24.6289 181.176 25.1797 182.418 26.2812C183.66 27.3711 184.305 28.877 184.352 30.7988V39.5527C184.352 41.2988 184.574 42.6875 185.02 43.7188V44H181.609ZM176.213 41.5215C177.232 41.5215 178.199 41.2578 179.113 40.7305C180.027 40.2031 180.689 39.5176 181.1 38.6738V34.7715H178.551C174.566 34.7715 172.574 35.9375 172.574 38.2695C172.574 39.2891 172.914 40.0859 173.594 40.6602C174.273 41.2344 175.146 41.5215 176.213 41.5215ZM188.676 34.332C188.676 31.3672 189.361 29.0117 190.732 27.2656C192.104 25.5078 193.92 24.6289 196.182 24.6289C198.502 24.6289 200.312 25.4492 201.613 27.0898L201.771 24.9805H204.742V43.543C204.742 46.0039 204.01 47.9434 202.545 49.3613C201.092 50.7793 199.135 51.4883 196.674 51.4883C195.303 51.4883 193.961 51.1953 192.648 50.6094C191.336 50.0234 190.334 49.2207 189.643 48.2012L191.33 46.25C192.725 47.9727 194.43 48.834 196.445 48.834C198.027 48.834 199.258 48.3887 200.137 47.498C201.027 46.6074 201.473 45.3535 201.473 43.7363V42.1016C200.172 43.6016 198.396 44.3516 196.146 44.3516C193.92 44.3516 192.115 43.4551 190.732 41.6621C189.361 39.8691 188.676 37.4258 188.676 34.332ZM191.945 34.7012C191.945 36.8457 192.385 38.5332 193.264 39.7637C194.143 40.9824 195.373 41.5918 196.955 41.5918C199.006 41.5918 200.512 40.6602 201.473 38.7969V30.1133C200.477 28.2969 198.982 27.3887 196.99 27.3887C195.408 27.3887 194.172 28.0039 193.281 29.2344C192.391 30.4648 191.945 32.2871 191.945 34.7012ZM217.557 44.3516C214.979 44.3516 212.881 43.5078 211.264 41.8203C209.646 40.1211 208.838 37.8535 208.838 35.0176V34.4199C208.838 32.5332 209.195 30.8516 209.91 29.375C210.637 27.8867 211.645 26.7266 212.934 25.8945C214.234 25.0508 215.641 24.6289 217.152 24.6289C219.625 24.6289 221.547 25.4434 222.918 27.0723C224.289 28.7012 224.975 31.0332 224.975 34.0684V35.4219H212.09C212.137 37.2969 212.682 38.8145 213.725 39.9746C214.779 41.123 216.115 41.6973 217.732 41.6973C218.881 41.6973 219.854 41.4629 220.65 40.9941C221.447 40.5254 222.145 39.9043 222.742 39.1309L224.729 40.6777C223.135 43.127 220.744 44.3516 217.557 44.3516ZM217.152 27.3008C215.84 27.3008 214.738 27.7812 213.848 28.7422C212.957 29.6914 212.406 31.0273 212.195 32.75H221.723V32.5039C221.629 30.8516 221.184 29.5742 220.387 28.6719C219.59 27.7578 218.512 27.3008 217.152 27.3008ZM236.893 34.332C236.893 31.4141 237.584 29.0703 238.967 27.3008C240.35 25.5195 242.16 24.6289 244.398 24.6289C246.625 24.6289 248.389 25.3906 249.689 26.9141V17H252.941V44H249.953L249.795 41.9609C248.494 43.5547 246.684 44.3516 244.363 44.3516C242.16 44.3516 240.361 43.4492 238.967 41.6445C237.584 39.8398 236.893 37.4844 236.893 34.5781V34.332ZM240.145 34.7012C240.145 36.8574 240.59 38.5449 241.48 39.7637C242.371 40.9824 243.602 41.5918 245.172 41.5918C247.234 41.5918 248.74 40.666 249.689 38.8145V30.0781C248.717 28.2852 247.223 27.3887 245.207 27.3887C243.613 27.3887 242.371 28.0039 241.48 29.2344C240.59 30.4648 240.145 32.2871 240.145 34.7012ZM257.143 34.3145C257.143 32.4512 257.506 30.7754 258.232 29.2871C258.971 27.7988 259.99 26.6504 261.291 25.8418C262.604 25.0332 264.098 24.6289 265.773 24.6289C268.363 24.6289 270.455 25.5254 272.049 27.3184C273.654 29.1113 274.457 31.4961 274.457 34.4727V34.7012C274.457 36.5527 274.1 38.2168 273.385 39.6934C272.682 41.1582 271.668 42.3008 270.344 43.1211C269.031 43.9414 267.52 44.3516 265.809 44.3516C263.23 44.3516 261.139 43.4551 259.533 41.6621C257.939 39.8691 257.143 37.4961 257.143 34.543V34.3145ZM260.412 34.7012C260.412 36.8105 260.898 38.5039 261.871 39.7812C262.855 41.0586 264.168 41.6973 265.809 41.6973C267.461 41.6973 268.773 41.0527 269.746 39.7637C270.719 38.4629 271.205 36.6465 271.205 34.3145C271.205 32.2285 270.707 30.541 269.711 29.252C268.727 27.9512 267.414 27.3008 265.773 27.3008C264.168 27.3008 262.873 27.9395 261.889 29.2168C260.904 30.4941 260.412 32.3223 260.412 34.7012ZM277.762 34.332C277.762 31.3672 278.447 29.0117 279.818 27.2656C281.189 25.5078 283.006 24.6289 285.268 24.6289C287.588 24.6289 289.398 25.4492 290.699 27.0898L290.857 24.9805H293.828V43.543C293.828 46.0039 293.096 47.9434 291.631 49.3613C290.178 50.7793 288.221 51.4883 285.76 51.4883C284.389 51.4883 283.047 51.1953 281.734 50.6094C280.422 50.0234 279.42 49.2207 278.729 48.2012L280.416 46.25C281.811 47.9727 283.516 48.834 285.531 48.834C287.113 48.834 288.344 48.3887 289.223 47.498C290.113 46.6074 290.559 45.3535 290.559 43.7363V42.1016C289.258 43.6016 287.482 44.3516 285.232 44.3516C283.006 44.3516 281.201 43.4551 279.818 41.6621C278.447 39.8691 277.762 37.4258 277.762 34.332ZM281.031 34.7012C281.031 36.8457 281.471 38.5332 282.35 39.7637C283.229 40.9824 284.459 41.5918 286.041 41.5918C288.092 41.5918 289.598 40.6602 290.559 38.7969V30.1133C289.562 28.2969 288.068 27.3887 286.076 27.3887C284.494 27.3887 283.258 28.0039 282.367 29.2344C281.477 30.4648 281.031 32.2871 281.031 34.7012ZM311.213 44H307.961V17H311.213V44ZM319.967 44H316.715V24.9805H319.967V44ZM316.451 19.9355C316.451 19.4082 316.609 18.9629 316.926 18.5996C317.254 18.2363 317.734 18.0547 318.367 18.0547C319 18.0547 319.48 18.2363 319.809 18.5996C320.137 18.9629 320.301 19.4082 320.301 19.9355C320.301 20.4629 320.137 20.9023 319.809 21.2539C319.48 21.6055 319 21.7812 318.367 21.7812C317.734 21.7812 317.254 21.6055 316.926 21.2539C316.609 20.9023 316.451 20.4629 316.451 19.9355ZM331.463 39.5879L336.174 24.9805H339.496L332.676 44H330.197L323.307 24.9805H326.629L331.463 39.5879ZM350.271 44.3516C347.693 44.3516 345.596 43.5078 343.979 41.8203C342.361 40.1211 341.553 37.8535 341.553 35.0176V34.4199C341.553 32.5332 341.91 30.8516 342.625 29.375C343.352 27.8867 344.359 26.7266 345.648 25.8945C346.949 25.0508 348.355 24.6289 349.867 24.6289C352.34 24.6289 354.262 25.4434 355.633 27.0723C357.004 28.7012 357.689 31.0332 357.689 34.0684V35.4219H344.805C344.852 37.2969 345.396 38.8145 346.439 39.9746C347.494 41.123 348.83 41.6973 350.447 41.6973C351.596 41.6973 352.568 41.4629 353.365 40.9941C354.162 40.5254 354.859 39.9043 355.457 39.1309L357.443 40.6777C355.85 43.127 353.459 44.3516 350.271 44.3516ZM349.867 27.3008C348.555 27.3008 347.453 27.7812 346.562 28.7422C345.672 29.6914 345.121 31.0273 344.91 32.75H354.438V32.5039C354.344 30.8516 353.898 29.5742 353.102 28.6719C352.305 27.7578 351.227 27.3008 349.867 27.3008ZM372.543 38.9551C372.543 38.0762 372.209 37.3965 371.541 36.916C370.885 36.4238 369.73 36.002 368.078 35.6504C366.438 35.2988 365.131 34.877 364.158 34.3848C363.197 33.8926 362.482 33.3066 362.014 32.627C361.557 31.9473 361.328 31.1387 361.328 30.2012C361.328 28.6426 361.984 27.3242 363.297 26.2461C364.621 25.168 366.309 24.6289 368.359 24.6289C370.516 24.6289 372.262 25.1855 373.598 26.2988C374.945 27.4121 375.619 28.8359 375.619 30.5703H372.35C372.35 29.6797 371.969 28.9121 371.207 28.2676C370.457 27.623 369.508 27.3008 368.359 27.3008C367.176 27.3008 366.25 27.5586 365.582 28.0742C364.914 28.5898 364.58 29.2637 364.58 30.0957C364.58 30.8809 364.891 31.4727 365.512 31.8711C366.133 32.2695 367.252 32.6504 368.869 33.0137C370.498 33.377 371.816 33.8105 372.824 34.3145C373.832 34.8184 374.576 35.4277 375.057 36.1426C375.549 36.8457 375.795 37.707 375.795 38.7266C375.795 40.4258 375.115 41.791 373.756 42.8223C372.396 43.8418 370.633 44.3516 368.465 44.3516C366.941 44.3516 365.594 44.082 364.422 43.543C363.25 43.0039 362.33 42.2539 361.662 41.293C361.006 40.3203 360.678 39.2715 360.678 38.1465H363.93C363.988 39.2363 364.422 40.1035 365.23 40.748C366.051 41.3809 367.129 41.6973 368.465 41.6973C369.695 41.6973 370.68 41.4512 371.418 40.959C372.168 40.4551 372.543 39.7871 372.543 38.9551ZM43.8145 86H40.5449V64.3262L33.9883 66.7344V63.7812L43.3047 60.2832H43.8145V86ZM69.3906 75.084C69.3906 78.8926 68.7402 81.7227 67.4395 83.5742C66.1387 85.4258 64.1055 86.3516 61.3398 86.3516C58.6094 86.3516 56.5879 85.4492 55.2754 83.6445C53.9629 81.8281 53.2832 79.1211 53.2363 75.5234V71.1816C53.2363 67.4199 53.8867 64.625 55.1875 62.7969C56.4883 60.9688 58.5273 60.0547 61.3047 60.0547C64.0586 60.0547 66.0859 60.9395 67.3867 62.709C68.6875 64.4668 69.3555 67.1855 69.3906 70.8652V75.084ZM66.1387 70.6367C66.1387 67.8828 65.752 65.8789 64.9785 64.625C64.2051 63.3594 62.9805 62.7266 61.3047 62.7266C59.6406 62.7266 58.4277 63.3535 57.666 64.6074C56.9043 65.8613 56.5117 67.7891 56.4883 70.3906V75.5938C56.4883 78.3594 56.8867 80.4043 57.6836 81.7285C58.4922 83.041 59.7109 83.6973 61.3398 83.6973C62.9453 83.6973 64.1348 83.0762 64.9082 81.834C65.6934 80.5918 66.1035 78.6348 66.1387 75.9629V70.6367ZM87.2324 62.375V66.9805H90.7832V69.4941H87.2324V81.2891C87.2324 82.0508 87.3906 82.625 87.707 83.0117C88.0234 83.3867 88.5625 83.5742 89.3242 83.5742C89.6992 83.5742 90.2148 83.5039 90.8711 83.3633V86C90.0156 86.2344 89.1836 86.3516 88.375 86.3516C86.9219 86.3516 85.8262 85.9121 85.0879 85.0332C84.3496 84.1543 83.9805 82.9062 83.9805 81.2891V69.4941H80.5176V66.9805H83.9805V62.375H87.2324ZM93.3848 76.3145C93.3848 74.4512 93.748 72.7754 94.4746 71.2871C95.2129 69.7988 96.2324 68.6504 97.5332 67.8418C98.8457 67.0332 100.34 66.6289 102.016 66.6289C104.605 66.6289 106.697 67.5254 108.291 69.3184C109.896 71.1113 110.699 73.4961 110.699 76.4727V76.7012C110.699 78.5527 110.342 80.2168 109.627 81.6934C108.924 83.1582 107.91 84.3008 106.586 85.1211C105.273 85.9414 103.762 86.3516 102.051 86.3516C99.4727 86.3516 97.3809 85.4551 95.7754 83.6621C94.1816 81.8691 93.3848 79.4961 93.3848 76.543V76.3145ZM96.6543 76.7012C96.6543 78.8105 97.1406 80.5039 98.1133 81.7812C99.0977 83.0586 100.41 83.6973 102.051 83.6973C103.703 83.6973 105.016 83.0527 105.988 81.7637C106.961 80.4629 107.447 78.6465 107.447 76.3145C107.447 74.2285 106.949 72.541 105.953 71.252C104.969 69.9512 103.656 69.3008 102.016 69.3008C100.41 69.3008 99.1152 69.9395 98.1309 71.2168C97.1465 72.4941 96.6543 74.3223 96.6543 76.7012ZM134.061 86H130.791V64.3262L124.234 66.7344V63.7812L133.551 60.2832H134.061V86ZM157.316 77.4043H160.867V80.0586H157.316V86H154.047V80.0586H142.393V78.1426L153.854 60.4062H157.316V77.4043ZM146.084 77.4043H154.047V64.8535L153.66 65.5566L146.084 77.4043ZM179.289 81.2363L183.719 66.9805H187.199L179.553 88.9355C178.369 92.0996 176.488 93.6816 173.91 93.6816L173.295 93.6289L172.082 93.4004V90.7637L172.961 90.834C174.062 90.834 174.918 90.6113 175.527 90.166C176.148 89.7207 176.658 88.9062 177.057 87.7227L177.777 85.7891L170.992 66.9805H174.543L179.289 81.2363ZM197.764 86.3516C195.186 86.3516 193.088 85.5078 191.471 83.8203C189.854 82.1211 189.045 79.8535 189.045 77.0176V76.4199C189.045 74.5332 189.402 72.8516 190.117 71.375C190.844 69.8867 191.852 68.7266 193.141 67.8945C194.441 67.0508 195.848 66.6289 197.359 66.6289C199.832 66.6289 201.754 67.4434 203.125 69.0723C204.496 70.7012 205.182 73.0332 205.182 76.0684V77.4219H192.297C192.344 79.2969 192.889 80.8145 193.932 81.9746C194.986 83.123 196.322 83.6973 197.939 83.6973C199.088 83.6973 200.061 83.4629 200.857 82.9941C201.654 82.5254 202.352 81.9043 202.949 81.1309L204.936 82.6777C203.342 85.127 200.951 86.3516 197.764 86.3516ZM197.359 69.3008C196.047 69.3008 194.945 69.7812 194.055 70.7422C193.164 71.6914 192.613 73.0273 192.402 74.75H201.93V74.5039C201.836 72.8516 201.391 71.5742 200.594 70.6719C199.797 69.7578 198.719 69.3008 197.359 69.3008ZM220.703 86C220.516 85.625 220.363 84.957 220.246 83.9961C218.734 85.5664 216.93 86.3516 214.832 86.3516C212.957 86.3516 211.416 85.8242 210.209 84.7695C209.014 83.7031 208.416 82.3555 208.416 80.7266C208.416 78.7461 209.166 77.2109 210.666 76.1211C212.178 75.0195 214.299 74.4688 217.029 74.4688H220.193V72.9746C220.193 71.8379 219.854 70.9355 219.174 70.2676C218.494 69.5879 217.492 69.248 216.168 69.248C215.008 69.248 214.035 69.541 213.25 70.127C212.465 70.7129 212.072 71.4219 212.072 72.2539H208.803C208.803 71.3047 209.137 70.3906 209.805 69.5117C210.484 68.6211 211.398 67.918 212.547 67.4023C213.707 66.8867 214.979 66.6289 216.361 66.6289C218.553 66.6289 220.27 67.1797 221.512 68.2812C222.754 69.3711 223.398 70.877 223.445 72.7988V81.5527C223.445 83.2988 223.668 84.6875 224.113 85.7188V86H220.703ZM215.307 83.5215C216.326 83.5215 217.293 83.2578 218.207 82.7305C219.121 82.2031 219.783 81.5176 220.193 80.6738V76.7715H217.645C213.66 76.7715 211.668 77.9375 211.668 80.2695C211.668 81.2891 212.008 82.0859 212.688 82.6602C213.367 83.2344 214.24 83.5215 215.307 83.5215ZM237.736 69.8984C237.244 69.8164 236.711 69.7754 236.137 69.7754C234.004 69.7754 232.557 70.6836 231.795 72.5V86H228.543V66.9805H231.707L231.76 69.1777C232.826 67.4785 234.338 66.6289 236.295 66.6289C236.928 66.6289 237.408 66.7109 237.736 66.875V69.8984ZM251.816 80.9551C251.816 80.0762 251.482 79.3965 250.814 78.916C250.158 78.4238 249.004 78.002 247.352 77.6504C245.711 77.2988 244.404 76.877 243.432 76.3848C242.471 75.8926 241.756 75.3066 241.287 74.627C240.83 73.9473 240.602 73.1387 240.602 72.2012C240.602 70.6426 241.258 69.3242 242.57 68.2461C243.895 67.168 245.582 66.6289 247.633 66.6289C249.789 66.6289 251.535 67.1855 252.871 68.2988C254.219 69.4121 254.893 70.8359 254.893 72.5703H251.623C251.623 71.6797 251.242 70.9121 250.48 70.2676C249.73 69.623 248.781 69.3008 247.633 69.3008C246.449 69.3008 245.523 69.5586 244.855 70.0742C244.188 70.5898 243.854 71.2637 243.854 72.0957C243.854 72.8809 244.164 73.4727 244.785 73.8711C245.406 74.2695 246.525 74.6504 248.143 75.0137C249.771 75.377 251.09 75.8105 252.098 76.3145C253.105 76.8184 253.85 77.4277 254.33 78.1426C254.822 78.8457 255.068 79.707 255.068 80.7266C255.068 82.4258 254.389 83.791 253.029 84.8223C251.67 85.8418 249.906 86.3516 247.738 86.3516C246.215 86.3516 244.867 86.082 243.695 85.543C242.523 85.0039 241.604 84.2539 240.936 83.293C240.279 82.3203 239.951 81.2715 239.951 80.1465H243.203C243.262 81.2363 243.695 82.1035 244.504 82.748C245.324 83.3809 246.402 83.6973 247.738 83.6973C248.969 83.6973 249.953 83.4512 250.691 82.959C251.441 82.4551 251.816 81.7871 251.816 80.9551ZM259.375 84.2949C259.375 83.7324 259.539 83.2637 259.867 82.8887C260.207 82.5137 260.711 82.3262 261.379 82.3262C262.047 82.3262 262.551 82.5137 262.891 82.8887C263.242 83.2637 263.418 83.7324 263.418 84.2949C263.418 84.834 263.242 85.2852 262.891 85.6484C262.551 86.0117 262.047 86.1934 261.379 86.1934C260.711 86.1934 260.207 86.0117 259.867 85.6484C259.539 85.2852 259.375 84.834 259.375 84.2949Z" fill="black"/>
</svg>
