<svg width="800" height="60" viewBox="0 0 800 60" fill="none" xmlns="http://www.w3.org/2000/svg">
<rect width="800" height="60" rx="30" fill="#A9CDF6"/>
<path d="M32.3457 30.9805V41H28.9707V15.4062H38.4102C41.2109 15.4062 43.4023 16.1211 44.9844 17.5508C46.5781 18.9805 47.375 20.873 47.375 23.2285C47.375 25.7129 46.5957 27.6289 45.0371 28.9766C43.4902 30.3125 41.2695 30.9805 38.375 30.9805H32.3457ZM32.3457 28.2207H38.4102C40.2148 28.2207 41.5977 27.7988 42.5586 26.9551C43.5195 26.0996 44 24.8691 44 23.2637C44 21.7402 43.5195 20.5215 42.5586 19.6074C41.5977 18.6934 40.2793 18.2188 38.6035 18.1836H32.3457V28.2207ZM62.9141 39.1191C61.6484 40.6074 59.791 41.3516 57.3418 41.3516C55.3145 41.3516 53.7676 40.7656 52.7012 39.5938C51.6465 38.4102 51.1133 36.6641 51.1016 34.3555V21.9805H54.3535V34.2676C54.3535 37.1504 55.5254 38.5918 57.8691 38.5918C60.3535 38.5918 62.0059 37.666 62.8262 35.8145V21.9805H66.0781V41H62.9844L62.9141 39.1191ZM87.1016 31.7012C87.1016 34.5957 86.4395 36.9277 85.1152 38.6973C83.791 40.4668 81.998 41.3516 79.7363 41.3516C77.4277 41.3516 75.6113 40.6191 74.2871 39.1543V48.3125H71.0352V21.9805H74.0059L74.1641 24.0898C75.4883 22.4492 77.3281 21.6289 79.6836 21.6289C81.9688 21.6289 83.7734 22.4902 85.0977 24.2129C86.4336 25.9355 87.1016 28.332 87.1016 31.4023V31.7012ZM83.8496 31.332C83.8496 29.1875 83.3926 27.4941 82.4785 26.252C81.5645 25.0098 80.3105 24.3887 78.7168 24.3887C76.748 24.3887 75.2715 25.2617 74.2871 27.0078V36.0957C75.2598 37.8301 76.748 38.6973 78.752 38.6973C80.3105 38.6973 81.5469 38.082 82.4609 36.8516C83.3867 35.6094 83.8496 33.7695 83.8496 31.332ZM107.316 31.7012C107.316 34.5957 106.654 36.9277 105.33 38.6973C104.006 40.4668 102.213 41.3516 99.9512 41.3516C97.6426 41.3516 95.8262 40.6191 94.502 39.1543V48.3125H91.25V21.9805H94.2207L94.3789 24.0898C95.7031 22.4492 97.543 21.6289 99.8984 21.6289C102.184 21.6289 103.988 22.4902 105.312 24.2129C106.648 25.9355 107.316 28.332 107.316 31.4023V31.7012ZM104.064 31.332C104.064 29.1875 103.607 27.4941 102.693 26.252C101.779 25.0098 100.525 24.3887 98.9316 24.3887C96.9629 24.3887 95.4863 25.2617 94.502 27.0078V36.0957C95.4746 37.8301 96.9629 38.6973 98.9668 38.6973C100.525 38.6973 101.762 38.082 102.676 36.8516C103.602 35.6094 104.064 33.7695 104.064 31.332ZM114.998 41H111.746V21.9805H114.998V41ZM111.482 16.9355C111.482 16.4082 111.641 15.9629 111.957 15.5996C112.285 15.2363 112.766 15.0547 113.398 15.0547C114.031 15.0547 114.512 15.2363 114.84 15.5996C115.168 15.9629 115.332 16.4082 115.332 16.9355C115.332 17.4629 115.168 17.9023 114.84 18.2539C114.512 18.6055 114.031 18.7812 113.398 18.7812C112.766 18.7812 112.285 18.6055 111.957 18.2539C111.641 17.9023 111.482 17.4629 111.482 16.9355ZM128.111 41.3516C125.533 41.3516 123.436 40.5078 121.818 38.8203C120.201 37.1211 119.393 34.8535 119.393 32.0176V31.4199C119.393 29.5332 119.75 27.8516 120.465 26.375C121.191 24.8867 122.199 23.7266 123.488 22.8945C124.789 22.0508 126.195 21.6289 127.707 21.6289C130.18 21.6289 132.102 22.4434 133.473 24.0723C134.844 25.7012 135.529 28.0332 135.529 31.0684V32.4219H122.645C122.691 34.2969 123.236 35.8145 124.279 36.9746C125.334 38.123 126.67 38.6973 128.287 38.6973C129.436 38.6973 130.408 38.4629 131.205 37.9941C132.002 37.5254 132.699 36.9043 133.297 36.1309L135.283 37.6777C133.689 40.127 131.299 41.3516 128.111 41.3516ZM127.707 24.3008C126.395 24.3008 125.293 24.7812 124.402 25.7422C123.512 26.6914 122.961 28.0273 122.75 29.75H132.277V29.5039C132.184 27.8516 131.738 26.5742 130.941 25.6719C130.145 24.7578 129.066 24.3008 127.707 24.3008ZM150.383 35.9551C150.383 35.0762 150.049 34.3965 149.381 33.916C148.725 33.4238 147.57 33.002 145.918 32.6504C144.277 32.2988 142.971 31.877 141.998 31.3848C141.037 30.8926 140.322 30.3066 139.854 29.627C139.396 28.9473 139.168 28.1387 139.168 27.2012C139.168 25.6426 139.824 24.3242 141.137 23.2461C142.461 22.168 144.148 21.6289 146.199 21.6289C148.355 21.6289 150.102 22.1855 151.438 23.2988C152.785 24.4121 153.459 25.8359 153.459 27.5703H150.189C150.189 26.6797 149.809 25.9121 149.047 25.2676C148.297 24.623 147.348 24.3008 146.199 24.3008C145.016 24.3008 144.09 24.5586 143.422 25.0742C142.754 25.5898 142.42 26.2637 142.42 27.0957C142.42 27.8809 142.73 28.4727 143.352 28.8711C143.973 29.2695 145.092 29.6504 146.709 30.0137C148.338 30.377 149.656 30.8105 150.664 31.3145C151.672 31.8184 152.416 32.4277 152.896 33.1426C153.389 33.8457 153.635 34.707 153.635 35.7266C153.635 37.4258 152.955 38.791 151.596 39.8223C150.236 40.8418 148.473 41.3516 146.305 41.3516C144.781 41.3516 143.434 41.082 142.262 40.543C141.09 40.0039 140.17 39.2539 139.502 38.293C138.846 37.3203 138.518 36.2715 138.518 35.1465H141.77C141.828 36.2363 142.262 37.1035 143.07 37.748C143.891 38.3809 144.969 38.6973 146.305 38.6973C147.535 38.6973 148.52 38.4512 149.258 37.959C150.008 37.4551 150.383 36.7871 150.383 35.9551ZM170.053 24.2832C171.494 22.5137 173.369 21.6289 175.678 21.6289C179.697 21.6289 181.725 23.8965 181.76 28.4316V41H178.508V28.4141C178.496 27.043 178.18 26.0293 177.559 25.373C176.949 24.7168 175.994 24.3887 174.693 24.3887C173.639 24.3887 172.713 24.6699 171.916 25.2324C171.119 25.7949 170.498 26.5332 170.053 27.4473V41H166.801V14H170.053V24.2832ZM198.371 41C198.184 40.625 198.031 39.957 197.914 38.9961C196.402 40.5664 194.598 41.3516 192.5 41.3516C190.625 41.3516 189.084 40.8242 187.877 39.7695C186.682 38.7031 186.084 37.3555 186.084 35.7266C186.084 33.7461 186.834 32.2109 188.334 31.1211C189.846 30.0195 191.967 29.4688 194.697 29.4688H197.861V27.9746C197.861 26.8379 197.521 25.9355 196.842 25.2676C196.162 24.5879 195.16 24.248 193.836 24.248C192.676 24.248 191.703 24.541 190.918 25.127C190.133 25.7129 189.74 26.4219 189.74 27.2539H186.471C186.471 26.3047 186.805 25.3906 187.473 24.5117C188.152 23.6211 189.066 22.918 190.215 22.4023C191.375 21.8867 192.646 21.6289 194.029 21.6289C196.221 21.6289 197.938 22.1797 199.18 23.2812C200.422 24.3711 201.066 25.877 201.113 27.7988V36.5527C201.113 38.2988 201.336 39.6875 201.781 40.7188V41H198.371ZM192.975 38.5215C193.994 38.5215 194.961 38.2578 195.875 37.7305C196.789 37.2031 197.451 36.5176 197.861 35.6738V31.7715H195.312C191.328 31.7715 189.336 32.9375 189.336 35.2695C189.336 36.2891 189.676 37.0859 190.355 37.6602C191.035 38.2344 191.908 38.5215 192.975 38.5215ZM212.205 36.5879L216.916 21.9805H220.238L213.418 41H210.939L204.049 21.9805H207.371L212.205 36.5879ZM231.014 41.3516C228.436 41.3516 226.338 40.5078 224.721 38.8203C223.104 37.1211 222.295 34.8535 222.295 32.0176V31.4199C222.295 29.5332 222.652 27.8516 223.367 26.375C224.094 24.8867 225.102 23.7266 226.391 22.8945C227.691 22.0508 229.098 21.6289 230.609 21.6289C233.082 21.6289 235.004 22.4434 236.375 24.0723C237.746 25.7012 238.432 28.0332 238.432 31.0684V32.4219H225.547C225.594 34.2969 226.139 35.8145 227.182 36.9746C228.236 38.123 229.572 38.6973 231.189 38.6973C232.338 38.6973 233.311 38.4629 234.107 37.9941C234.904 37.5254 235.602 36.9043 236.199 36.1309L238.186 37.6777C236.592 40.127 234.201 41.3516 231.014 41.3516ZM230.609 24.3008C229.297 24.3008 228.195 24.7812 227.305 25.7422C226.414 26.6914 225.863 28.0273 225.652 29.75H235.18V29.5039C235.086 27.8516 234.641 26.5742 233.844 25.6719C233.047 24.7578 231.969 24.3008 230.609 24.3008ZM267.576 41H250.807V38.6621L259.666 28.8184C260.979 27.3301 261.881 26.123 262.373 25.1973C262.877 24.2598 263.129 23.293 263.129 22.2969C263.129 20.9609 262.725 19.8652 261.916 19.0098C261.107 18.1543 260.029 17.7266 258.682 17.7266C257.064 17.7266 255.805 18.1895 254.902 19.1152C254.012 20.0293 253.566 21.3066 253.566 22.9473H250.314C250.314 20.5918 251.07 18.6875 252.582 17.2344C254.105 15.7812 256.139 15.0547 258.682 15.0547C261.061 15.0547 262.941 15.6816 264.324 16.9355C265.707 18.1777 266.398 19.8359 266.398 21.9102C266.398 24.4297 264.793 27.4297 261.582 30.9102L254.727 38.3457H267.576V41ZM286.543 22.0859C286.543 23.3633 286.203 24.5 285.523 25.4961C284.855 26.4922 283.947 27.2715 282.799 27.834C284.135 28.4082 285.189 29.2461 285.963 30.3477C286.748 31.4492 287.141 32.6973 287.141 34.0918C287.141 36.3066 286.391 38.0703 284.891 39.3828C283.402 40.6953 281.439 41.3516 279.002 41.3516C276.541 41.3516 274.566 40.6953 273.078 39.3828C271.602 38.0586 270.863 36.2949 270.863 34.0918C270.863 32.709 271.238 31.4609 271.988 30.3477C272.75 29.2344 273.799 28.3906 275.135 27.8164C273.998 27.2539 273.102 26.4746 272.445 25.4785C271.789 24.4824 271.461 23.3516 271.461 22.0859C271.461 19.9297 272.152 18.2188 273.535 16.9531C274.918 15.6875 276.74 15.0547 279.002 15.0547C281.252 15.0547 283.068 15.6875 284.451 16.9531C285.846 18.2188 286.543 19.9297 286.543 22.0859ZM283.889 34.0215C283.889 32.5918 283.432 31.4258 282.518 30.5234C281.615 29.6211 280.432 29.1699 278.967 29.1699C277.502 29.1699 276.324 29.6152 275.434 30.5059C274.555 31.3965 274.115 32.5684 274.115 34.0215C274.115 35.4746 274.543 36.6172 275.398 37.4492C276.266 38.2812 277.467 38.6973 279.002 38.6973C280.525 38.6973 281.721 38.2812 282.588 37.4492C283.455 36.6055 283.889 35.4629 283.889 34.0215ZM279.002 17.7266C277.725 17.7266 276.688 18.125 275.891 18.9219C275.105 19.707 274.713 20.7793 274.713 22.1387C274.713 23.4395 275.1 24.4941 275.873 25.3027C276.658 26.0996 277.701 26.498 279.002 26.498C280.303 26.498 281.34 26.0996 282.113 25.3027C282.898 24.4941 283.291 23.4395 283.291 22.1387C283.291 20.8379 282.887 19.7773 282.078 18.957C281.27 18.1367 280.244 17.7266 279.002 17.7266ZM304.912 17.375V21.9805H308.463V24.4941H304.912V36.2891C304.912 37.0508 305.07 37.625 305.387 38.0117C305.703 38.3867 306.242 38.5742 307.004 38.5742C307.379 38.5742 307.895 38.5039 308.551 38.3633V41C307.695 41.2344 306.863 41.3516 306.055 41.3516C304.602 41.3516 303.506 40.9121 302.768 40.0332C302.029 39.1543 301.66 37.9062 301.66 36.2891V24.4941H298.197V21.9805H301.66V17.375H304.912ZM320.17 41.3516C317.592 41.3516 315.494 40.5078 313.877 38.8203C312.26 37.1211 311.451 34.8535 311.451 32.0176V31.4199C311.451 29.5332 311.809 27.8516 312.523 26.375C313.25 24.8867 314.258 23.7266 315.547 22.8945C316.848 22.0508 318.254 21.6289 319.766 21.6289C322.238 21.6289 324.16 22.4434 325.531 24.0723C326.902 25.7012 327.588 28.0332 327.588 31.0684V32.4219H314.703C314.75 34.2969 315.295 35.8145 316.338 36.9746C317.393 38.123 318.729 38.6973 320.346 38.6973C321.494 38.6973 322.467 38.4629 323.264 37.9941C324.061 37.5254 324.758 36.9043 325.355 36.1309L327.342 37.6777C325.748 40.127 323.357 41.3516 320.17 41.3516ZM319.766 24.3008C318.453 24.3008 317.352 24.7812 316.461 25.7422C315.57 26.6914 315.02 28.0273 314.809 29.75H324.336V29.5039C324.242 27.8516 323.797 26.5742 323 25.6719C322.203 24.7578 321.125 24.3008 319.766 24.3008ZM339.26 41.3516C336.682 41.3516 334.584 40.5078 332.967 38.8203C331.35 37.1211 330.541 34.8535 330.541 32.0176V31.4199C330.541 29.5332 330.898 27.8516 331.613 26.375C332.34 24.8867 333.348 23.7266 334.637 22.8945C335.938 22.0508 337.344 21.6289 338.855 21.6289C341.328 21.6289 343.25 22.4434 344.621 24.0723C345.992 25.7012 346.678 28.0332 346.678 31.0684V32.4219H333.793C333.84 34.2969 334.385 35.8145 335.428 36.9746C336.482 38.123 337.818 38.6973 339.436 38.6973C340.584 38.6973 341.557 38.4629 342.354 37.9941C343.15 37.5254 343.848 36.9043 344.445 36.1309L346.432 37.6777C344.838 40.127 342.447 41.3516 339.26 41.3516ZM338.855 24.3008C337.543 24.3008 336.441 24.7812 335.551 25.7422C334.66 26.6914 334.109 28.0273 333.898 29.75H343.426V29.5039C343.332 27.8516 342.887 26.5742 342.09 25.6719C341.293 24.7578 340.215 24.3008 338.855 24.3008ZM354.869 17.375V21.9805H358.42V24.4941H354.869V36.2891C354.869 37.0508 355.027 37.625 355.344 38.0117C355.66 38.3867 356.199 38.5742 356.961 38.5742C357.336 38.5742 357.852 38.5039 358.508 38.3633V41C357.652 41.2344 356.82 41.3516 356.012 41.3516C354.559 41.3516 353.463 40.9121 352.725 40.0332C351.986 39.1543 351.617 37.9062 351.617 36.2891V24.4941H348.154V21.9805H351.617V17.375H354.869ZM365.486 24.2832C366.928 22.5137 368.803 21.6289 371.111 21.6289C375.131 21.6289 377.158 23.8965 377.193 28.4316V41H373.941V28.4141C373.93 27.043 373.613 26.0293 372.992 25.373C372.383 24.7168 371.428 24.3887 370.127 24.3887C369.072 24.3887 368.146 24.6699 367.35 25.2324C366.553 25.7949 365.932 26.5332 365.486 27.4473V41H362.234V14H365.486V24.2832ZM402.734 41C402.547 40.625 402.395 39.957 402.277 38.9961C400.766 40.5664 398.961 41.3516 396.863 41.3516C394.988 41.3516 393.447 40.8242 392.24 39.7695C391.045 38.7031 390.447 37.3555 390.447 35.7266C390.447 33.7461 391.197 32.2109 392.697 31.1211C394.209 30.0195 396.33 29.4688 399.061 29.4688H402.225V27.9746C402.225 26.8379 401.885 25.9355 401.205 25.2676C400.525 24.5879 399.523 24.248 398.199 24.248C397.039 24.248 396.066 24.541 395.281 25.127C394.496 25.7129 394.104 26.4219 394.104 27.2539H390.834C390.834 26.3047 391.168 25.3906 391.836 24.5117C392.516 23.6211 393.43 22.918 394.578 22.4023C395.738 21.8867 397.01 21.6289 398.393 21.6289C400.584 21.6289 402.301 22.1797 403.543 23.2812C404.785 24.3711 405.43 25.877 405.477 27.7988V36.5527C405.477 38.2988 405.699 39.6875 406.145 40.7188V41H402.734ZM397.338 38.5215C398.357 38.5215 399.324 38.2578 400.238 37.7305C401.152 37.2031 401.814 36.5176 402.225 35.6738V31.7715H399.676C395.691 31.7715 393.699 32.9375 393.699 35.2695C393.699 36.2891 394.039 37.0859 394.719 37.6602C395.398 38.2344 396.271 38.5215 397.338 38.5215ZM413.65 21.9805L413.756 24.3711C415.209 22.543 417.107 21.6289 419.451 21.6289C423.471 21.6289 425.498 23.8965 425.533 28.4316V41H422.281V28.4141C422.27 27.043 421.953 26.0293 421.332 25.373C420.723 24.7168 419.768 24.3887 418.467 24.3887C417.412 24.3887 416.486 24.6699 415.689 25.2324C414.893 25.7949 414.271 26.5332 413.826 27.4473V41H410.574V21.9805H413.65ZM429.646 31.332C429.646 28.4141 430.338 26.0703 431.721 24.3008C433.104 22.5195 434.914 21.6289 437.152 21.6289C439.379 21.6289 441.143 22.3906 442.443 23.9141V14H445.695V41H442.707L442.549 38.9609C441.248 40.5547 439.438 41.3516 437.117 41.3516C434.914 41.3516 433.115 40.4492 431.721 38.6445C430.338 36.8398 429.646 34.4844 429.646 31.5781V31.332ZM432.898 31.7012C432.898 33.8574 433.344 35.5449 434.234 36.7637C435.125 37.9824 436.355 38.5918 437.926 38.5918C439.988 38.5918 441.494 37.666 442.443 35.8145V27.0781C441.471 25.2852 439.977 24.3887 437.961 24.3887C436.367 24.3887 435.125 25.0039 434.234 26.2344C433.344 27.4648 432.898 29.2871 432.898 31.7012ZM471.43 41C471.242 40.625 471.09 39.957 470.973 38.9961C469.461 40.5664 467.656 41.3516 465.559 41.3516C463.684 41.3516 462.143 40.8242 460.936 39.7695C459.74 38.7031 459.143 37.3555 459.143 35.7266C459.143 33.7461 459.893 32.2109 461.393 31.1211C462.904 30.0195 465.025 29.4688 467.756 29.4688H470.92V27.9746C470.92 26.8379 470.58 25.9355 469.9 25.2676C469.221 24.5879 468.219 24.248 466.895 24.248C465.734 24.248 464.762 24.541 463.977 25.127C463.191 25.7129 462.799 26.4219 462.799 27.2539H459.529C459.529 26.3047 459.863 25.3906 460.531 24.5117C461.211 23.6211 462.125 22.918 463.273 22.4023C464.434 21.8867 465.705 21.6289 467.088 21.6289C469.279 21.6289 470.996 22.1797 472.238 23.2812C473.48 24.3711 474.125 25.877 474.172 27.7988V36.5527C474.172 38.2988 474.395 39.6875 474.84 40.7188V41H471.43ZM466.033 38.5215C467.053 38.5215 468.02 38.2578 468.934 37.7305C469.848 37.2031 470.51 36.5176 470.92 35.6738V31.7715H468.371C464.387 31.7715 462.395 32.9375 462.395 35.2695C462.395 36.2891 462.734 37.0859 463.414 37.6602C464.094 38.2344 464.967 38.5215 466.033 38.5215ZM478.479 31.332C478.479 28.4141 479.17 26.0703 480.553 24.3008C481.936 22.5195 483.746 21.6289 485.984 21.6289C488.211 21.6289 489.975 22.3906 491.275 23.9141V14H494.527V41H491.539L491.381 38.9609C490.08 40.5547 488.27 41.3516 485.949 41.3516C483.746 41.3516 481.947 40.4492 480.553 38.6445C479.17 36.8398 478.479 34.4844 478.479 31.5781V31.332ZM481.73 31.7012C481.73 33.8574 482.176 35.5449 483.066 36.7637C483.957 37.9824 485.188 38.5918 486.758 38.5918C488.82 38.5918 490.326 37.666 491.275 35.8145V27.0781C490.303 25.2852 488.809 24.3887 486.793 24.3887C485.199 24.3887 483.957 25.0039 483.066 26.2344C482.176 27.4648 481.73 29.2871 481.73 31.7012ZM511.332 39.1191C510.066 40.6074 508.209 41.3516 505.76 41.3516C503.732 41.3516 502.186 40.7656 501.119 39.5938C500.064 38.4102 499.531 36.6641 499.52 34.3555V21.9805H502.771V34.2676C502.771 37.1504 503.943 38.5918 506.287 38.5918C508.771 38.5918 510.424 37.666 511.244 35.8145V21.9805H514.496V41H511.402L511.332 39.1191ZM522.986 41H519.734V14H522.986V41ZM532.619 17.375V21.9805H536.17V24.4941H532.619V36.2891C532.619 37.0508 532.777 37.625 533.094 38.0117C533.41 38.3867 533.949 38.5742 534.711 38.5742C535.086 38.5742 535.602 38.5039 536.258 38.3633V41C535.402 41.2344 534.57 41.3516 533.762 41.3516C532.309 41.3516 531.213 40.9121 530.475 40.0332C529.736 39.1543 529.367 37.9062 529.367 36.2891V24.4941H525.904V21.9805H529.367V17.375H532.619ZM548.123 31.332C548.123 28.4141 548.814 26.0703 550.197 24.3008C551.58 22.5195 553.391 21.6289 555.629 21.6289C557.855 21.6289 559.619 22.3906 560.92 23.9141V14H564.172V41H561.184L561.025 38.9609C559.725 40.5547 557.914 41.3516 555.594 41.3516C553.391 41.3516 551.592 40.4492 550.197 38.6445C548.814 36.8398 548.123 34.4844 548.123 31.5781V31.332ZM551.375 31.7012C551.375 33.8574 551.82 35.5449 552.711 36.7637C553.602 37.9824 554.832 38.5918 556.402 38.5918C558.465 38.5918 559.971 37.666 560.92 35.8145V27.0781C559.947 25.2852 558.453 24.3887 556.438 24.3887C554.844 24.3887 553.602 25.0039 552.711 26.2344C551.82 27.4648 551.375 29.2871 551.375 31.7012ZM568.373 31.3145C568.373 29.4512 568.736 27.7754 569.463 26.2871C570.201 24.7988 571.221 23.6504 572.521 22.8418C573.834 22.0332 575.328 21.6289 577.004 21.6289C579.594 21.6289 581.686 22.5254 583.279 24.3184C584.885 26.1113 585.688 28.4961 585.688 31.4727V31.7012C585.688 33.5527 585.33 35.2168 584.615 36.6934C583.912 38.1582 582.898 39.3008 581.574 40.1211C580.262 40.9414 578.75 41.3516 577.039 41.3516C574.461 41.3516 572.369 40.4551 570.764 38.6621C569.17 36.8691 568.373 34.4961 568.373 31.543V31.3145ZM571.643 31.7012C571.643 33.8105 572.129 35.5039 573.102 36.7812C574.086 38.0586 575.398 38.6973 577.039 38.6973C578.691 38.6973 580.004 38.0527 580.977 36.7637C581.949 35.4629 582.436 33.6465 582.436 31.3145C582.436 29.2285 581.938 27.541 580.941 26.252C579.957 24.9512 578.645 24.3008 577.004 24.3008C575.398 24.3008 574.104 24.9395 573.119 26.2168C572.135 27.4941 571.643 29.3223 571.643 31.7012ZM588.992 31.332C588.992 28.3672 589.678 26.0117 591.049 24.2656C592.42 22.5078 594.236 21.6289 596.498 21.6289C598.818 21.6289 600.629 22.4492 601.93 24.0898L602.088 21.9805H605.059V40.543C605.059 43.0039 604.326 44.9434 602.861 46.3613C601.408 47.7793 599.451 48.4883 596.99 48.4883C595.619 48.4883 594.277 48.1953 592.965 47.6094C591.652 47.0234 590.65 46.2207 589.959 45.2012L591.646 43.25C593.041 44.9727 594.746 45.834 596.762 45.834C598.344 45.834 599.574 45.3887 600.453 44.498C601.344 43.6074 601.789 42.3535 601.789 40.7363V39.1016C600.488 40.6016 598.713 41.3516 596.463 41.3516C594.236 41.3516 592.432 40.4551 591.049 38.6621C589.678 36.8691 588.992 34.4258 588.992 31.332ZM592.262 31.7012C592.262 33.8457 592.701 35.5332 593.58 36.7637C594.459 37.9824 595.689 38.5918 597.271 38.5918C599.322 38.5918 600.828 37.6602 601.789 35.7969V27.1133C600.793 25.2969 599.299 24.3887 597.307 24.3887C595.725 24.3887 594.488 25.0039 593.598 26.2344C592.707 27.4648 592.262 29.2871 592.262 31.7012ZM621.055 35.9551C621.055 35.0762 620.721 34.3965 620.053 33.916C619.396 33.4238 618.242 33.002 616.59 32.6504C614.949 32.2988 613.643 31.877 612.67 31.3848C611.709 30.8926 610.994 30.3066 610.525 29.627C610.068 28.9473 609.84 28.1387 609.84 27.2012C609.84 25.6426 610.496 24.3242 611.809 23.2461C613.133 22.168 614.82 21.6289 616.871 21.6289C619.027 21.6289 620.773 22.1855 622.109 23.2988C623.457 24.4121 624.131 25.8359 624.131 27.5703H620.861C620.861 26.6797 620.48 25.9121 619.719 25.2676C618.969 24.623 618.02 24.3008 616.871 24.3008C615.688 24.3008 614.762 24.5586 614.094 25.0742C613.426 25.5898 613.092 26.2637 613.092 27.0957C613.092 27.8809 613.402 28.4727 614.023 28.8711C614.645 29.2695 615.764 29.6504 617.381 30.0137C619.01 30.377 620.328 30.8105 621.336 31.3145C622.344 31.8184 623.088 32.4277 623.568 33.1426C624.061 33.8457 624.307 34.707 624.307 35.7266C624.307 37.4258 623.627 38.791 622.268 39.8223C620.908 40.8418 619.145 41.3516 616.977 41.3516C615.453 41.3516 614.105 41.082 612.934 40.543C611.762 40.0039 610.842 39.2539 610.174 38.293C609.518 37.3203 609.189 36.2715 609.189 35.1465H612.441C612.5 36.2363 612.934 37.1035 613.742 37.748C614.562 38.3809 615.641 38.6973 616.977 38.6973C618.207 38.6973 619.191 38.4512 619.93 37.959C620.68 37.4551 621.055 36.7871 621.055 35.9551ZM640.725 24.2832C642.166 22.5137 644.041 21.6289 646.35 21.6289C650.369 21.6289 652.396 23.8965 652.432 28.4316V41H649.18V28.4141C649.168 27.043 648.852 26.0293 648.23 25.373C647.621 24.7168 646.666 24.3887 645.365 24.3887C644.311 24.3887 643.385 24.6699 642.588 25.2324C641.791 25.7949 641.17 26.5332 640.725 27.4473V41H637.473V14H640.725V24.2832ZM669.043 41C668.855 40.625 668.703 39.957 668.586 38.9961C667.074 40.5664 665.27 41.3516 663.172 41.3516C661.297 41.3516 659.756 40.8242 658.549 39.7695C657.354 38.7031 656.756 37.3555 656.756 35.7266C656.756 33.7461 657.506 32.2109 659.006 31.1211C660.518 30.0195 662.639 29.4688 665.369 29.4688H668.533V27.9746C668.533 26.8379 668.193 25.9355 667.514 25.2676C666.834 24.5879 665.832 24.248 664.508 24.248C663.348 24.248 662.375 24.541 661.59 25.127C660.805 25.7129 660.412 26.4219 660.412 27.2539H657.143C657.143 26.3047 657.477 25.3906 658.145 24.5117C658.824 23.6211 659.738 22.918 660.887 22.4023C662.047 21.8867 663.318 21.6289 664.701 21.6289C666.893 21.6289 668.609 22.1797 669.852 23.2812C671.094 24.3711 671.738 25.877 671.785 27.7988V36.5527C671.785 38.2988 672.008 39.6875 672.453 40.7188V41H669.043ZM663.646 38.5215C664.666 38.5215 665.633 38.2578 666.547 37.7305C667.461 37.2031 668.123 36.5176 668.533 35.6738V31.7715H665.984C662 31.7715 660.008 32.9375 660.008 35.2695C660.008 36.2891 660.348 37.0859 661.027 37.6602C661.707 38.2344 662.58 38.5215 663.646 38.5215ZM682.877 36.5879L687.588 21.9805H690.91L684.09 41H681.611L674.721 21.9805H678.043L682.877 36.5879ZM701.686 41.3516C699.107 41.3516 697.01 40.5078 695.393 38.8203C693.775 37.1211 692.967 34.8535 692.967 32.0176V31.4199C692.967 29.5332 693.324 27.8516 694.039 26.375C694.766 24.8867 695.773 23.7266 697.062 22.8945C698.363 22.0508 699.77 21.6289 701.281 21.6289C703.754 21.6289 705.676 22.4434 707.047 24.0723C708.418 25.7012 709.104 28.0332 709.104 31.0684V32.4219H696.219C696.266 34.2969 696.811 35.8145 697.854 36.9746C698.908 38.123 700.244 38.6973 701.861 38.6973C703.01 38.6973 703.982 38.4629 704.779 37.9941C705.576 37.5254 706.273 36.9043 706.871 36.1309L708.857 37.6777C707.264 40.127 704.873 41.3516 701.686 41.3516ZM701.281 24.3008C699.969 24.3008 698.867 24.7812 697.977 25.7422C697.086 26.6914 696.535 28.0273 696.324 29.75H705.852V29.5039C705.758 27.8516 705.312 26.5742 704.516 25.6719C703.719 24.7578 702.641 24.3008 701.281 24.3008ZM735.207 32.4043H738.758V35.0586H735.207V41H731.938V35.0586H720.283V33.1426L731.744 15.4062H735.207V32.4043ZM723.975 32.4043H731.938V19.8535L731.551 20.5566L723.975 32.4043ZM758.463 41H741.693V38.6621L750.553 28.8184C751.865 27.3301 752.768 26.123 753.26 25.1973C753.764 24.2598 754.016 23.293 754.016 22.2969C754.016 20.9609 753.611 19.8652 752.803 19.0098C751.994 18.1543 750.916 17.7266 749.568 17.7266C747.951 17.7266 746.691 18.1895 745.789 19.1152C744.898 20.0293 744.453 21.3066 744.453 22.9473H741.201C741.201 20.5918 741.957 18.6875 743.469 17.2344C744.992 15.7812 747.025 15.0547 749.568 15.0547C751.947 15.0547 753.828 15.6816 755.211 16.9355C756.594 18.1777 757.285 19.8359 757.285 21.9102C757.285 24.4297 755.68 27.4297 752.469 30.9102L745.613 38.3457H758.463V41ZM762.312 39.2949C762.312 38.7324 762.477 38.2637 762.805 37.8887C763.145 37.5137 763.648 37.3262 764.316 37.3262C764.984 37.3262 765.488 37.5137 765.828 37.8887C766.18 38.2637 766.355 38.7324 766.355 39.2949C766.355 39.834 766.18 40.2852 765.828 40.6484C765.488 41.0117 764.984 41.1934 764.316 41.1934C763.648 41.1934 763.145 41.0117 762.805 40.6484C762.477 40.2852 762.312 39.834 762.312 39.2949Z" fill="black"/>
</svg>
