<svg width="440" height="84" viewBox="0 0 440 84" fill="none" xmlns="http://www.w3.org/2000/svg">
<rect width="440" height="84" rx="25" fill="#A9CDF7"/>
<path d="M31.3164 28.0664L29.2305 30.2344V36H26.9805V18.9375H29.2305V27.375L36.8125 18.9375H39.5312L32.8164 26.4727L40.0586 36H37.3633L31.3164 28.0664ZM46.6445 36.2344C44.9258 36.2344 43.5273 35.6719 42.4492 34.5469C41.3711 33.4141 40.832 31.9023 40.832 30.0117V29.6133C40.832 28.3555 41.0703 27.2344 41.5469 26.25C42.0312 25.2578 42.7031 24.4844 43.5625 23.9297C44.4297 23.3672 45.3672 23.0859 46.375 23.0859C48.0234 23.0859 49.3047 23.6289 50.2188 24.7148C51.1328 25.8008 51.5898 27.3555 51.5898 29.3789V30.2812H43C43.0312 31.5312 43.3945 32.543 44.0898 33.3164C44.793 34.082 45.6836 34.4648 46.7617 34.4648C47.5273 34.4648 48.1758 34.3086 48.707 33.9961C49.2383 33.6836 49.7031 33.2695 50.1016 32.7539L51.4258 33.7852C50.3633 35.418 48.7695 36.2344 46.6445 36.2344ZM46.375 24.8672C45.5 24.8672 44.7656 25.1875 44.1719 25.8281C43.5781 26.4609 43.2109 27.3516 43.0703 28.5H49.4219V28.3359C49.3594 27.2344 49.0625 26.3828 48.5312 25.7812C48 25.1719 47.2812 24.8672 46.375 24.8672ZM57.0508 20.25V23.3203H59.418V24.9961H57.0508V32.8594C57.0508 33.3672 57.1562 33.75 57.3672 34.0078C57.5781 34.2578 57.9375 34.3828 58.4453 34.3828C58.6953 34.3828 59.0391 34.3359 59.4766 34.2422V36C58.9062 36.1562 58.3516 36.2344 57.8125 36.2344C56.8438 36.2344 56.1133 35.9414 55.6211 35.3555C55.1289 34.7695 54.8828 33.9375 54.8828 32.8594V24.9961H52.5742V23.3203H54.8828V20.25H57.0508ZM69.7891 34.7461C68.9453 35.7383 67.707 36.2344 66.0742 36.2344C64.7227 36.2344 63.6914 35.8438 62.9805 35.0625C62.2773 34.2734 61.9219 33.1094 61.9141 31.5703V23.3203H64.082V31.5117C64.082 33.4336 64.8633 34.3945 66.4258 34.3945C68.082 34.3945 69.1836 33.7773 69.7305 32.543V23.3203H71.8984V36H69.8359L69.7891 34.7461ZM81.332 25.2656C81.0039 25.2109 80.6484 25.1836 80.2656 25.1836C78.8438 25.1836 77.8789 25.7891 77.3711 27V36H75.2031V23.3203H77.3125L77.3477 24.7852C78.0586 23.6523 79.0664 23.0859 80.3711 23.0859C80.793 23.0859 81.1133 23.1406 81.332 23.25V25.2656ZM85.6914 36H83.5234V23.3203H85.6914V36ZM83.3477 19.957C83.3477 19.6055 83.4531 19.3086 83.6641 19.0664C83.8828 18.8242 84.2031 18.7031 84.625 18.7031C85.0469 18.7031 85.3672 18.8242 85.5859 19.0664C85.8047 19.3086 85.9141 19.6055 85.9141 19.957C85.9141 20.3086 85.8047 20.6016 85.5859 20.8359C85.3672 21.0703 85.0469 21.1875 84.625 21.1875C84.2031 21.1875 83.8828 21.0703 83.6641 20.8359C83.4531 20.6016 83.3477 20.3086 83.3477 19.957ZM97 36C96.875 35.75 96.7734 35.3047 96.6953 34.6641C95.6875 35.7109 94.4844 36.2344 93.0859 36.2344C91.8359 36.2344 90.8086 35.8828 90.0039 35.1797C89.207 34.4688 88.8086 33.5703 88.8086 32.4844C88.8086 31.1641 89.3086 30.1406 90.3086 29.4141C91.3164 28.6797 92.7305 28.3125 94.5508 28.3125H96.6602V27.3164C96.6602 26.5586 96.4336 25.957 95.9805 25.5117C95.5273 25.0586 94.8594 24.832 93.9766 24.832C93.2031 24.832 92.5547 25.0273 92.0312 25.418C91.5078 25.8086 91.2461 26.2812 91.2461 26.8359H89.0664C89.0664 26.2031 89.2891 25.5938 89.7344 25.0078C90.1875 24.4141 90.7969 23.9453 91.5625 23.6016C92.3359 23.2578 93.1836 23.0859 94.1055 23.0859C95.5664 23.0859 96.7109 23.4531 97.5391 24.1875C98.3672 24.9141 98.7969 25.918 98.8281 27.1992V33.0352C98.8281 34.1992 98.9766 35.125 99.2734 35.8125V36H97ZM93.4023 34.3477C94.082 34.3477 94.7266 34.1719 95.3359 33.8203C95.9453 33.4688 96.3867 33.0117 96.6602 32.4492V29.8477H94.9609C92.3047 29.8477 90.9766 30.625 90.9766 32.1797C90.9766 32.8594 91.2031 33.3906 91.6562 33.7734C92.1094 34.1562 92.6914 34.3477 93.4023 34.3477ZM109.609 32.6367C109.609 32.0508 109.387 31.5977 108.941 31.2773C108.504 30.9492 107.734 30.668 106.633 30.4336C105.539 30.1992 104.668 29.918 104.02 29.5898C103.379 29.2617 102.902 28.8711 102.59 28.418C102.285 27.9648 102.133 27.4258 102.133 26.8008C102.133 25.7617 102.57 24.8828 103.445 24.1641C104.328 23.4453 105.453 23.0859 106.82 23.0859C108.258 23.0859 109.422 23.457 110.312 24.1992C111.211 24.9414 111.66 25.8906 111.66 27.0469H109.48C109.48 26.4531 109.227 25.9414 108.719 25.5117C108.219 25.082 107.586 24.8672 106.82 24.8672C106.031 24.8672 105.414 25.0391 104.969 25.3828C104.523 25.7266 104.301 26.1758 104.301 26.7305C104.301 27.2539 104.508 27.6484 104.922 27.9141C105.336 28.1797 106.082 28.4336 107.16 28.6758C108.246 28.918 109.125 29.207 109.797 29.543C110.469 29.8789 110.965 30.2852 111.285 30.7617C111.613 31.2305 111.777 31.8047 111.777 32.4844C111.777 33.6172 111.324 34.5273 110.418 35.2148C109.512 35.8945 108.336 36.2344 106.891 36.2344C105.875 36.2344 104.977 36.0547 104.195 35.6953C103.414 35.3359 102.801 34.8359 102.355 34.1953C101.918 33.5469 101.699 32.8477 101.699 32.0977H103.867C103.906 32.8242 104.195 33.4023 104.734 33.832C105.281 34.2539 106 34.4648 106.891 34.4648C107.711 34.4648 108.367 34.3008 108.859 33.9727C109.359 33.6367 109.609 33.1914 109.609 32.6367ZM114.074 29.5547C114.074 27.6094 114.535 26.0469 115.457 24.8672C116.379 23.6797 117.586 23.0859 119.078 23.0859C120.562 23.0859 121.738 23.5938 122.605 24.6094V18H124.773V36H122.781L122.676 34.6406C121.809 35.7031 120.602 36.2344 119.055 36.2344C117.586 36.2344 116.387 35.6328 115.457 34.4297C114.535 33.2266 114.074 31.6562 114.074 29.7188V29.5547ZM116.242 29.8008C116.242 31.2383 116.539 32.3633 117.133 33.1758C117.727 33.9883 118.547 34.3945 119.594 34.3945C120.969 34.3945 121.973 33.7773 122.605 32.543V26.7188C121.957 25.5234 120.961 24.9258 119.617 24.9258C118.555 24.9258 117.727 25.3359 117.133 26.1562C116.539 26.9766 116.242 28.1914 116.242 29.8008ZM133.41 36.2344C131.691 36.2344 130.293 35.6719 129.215 34.5469C128.137 33.4141 127.598 31.9023 127.598 30.0117V29.6133C127.598 28.3555 127.836 27.2344 128.312 26.25C128.797 25.2578 129.469 24.4844 130.328 23.9297C131.195 23.3672 132.133 23.0859 133.141 23.0859C134.789 23.0859 136.07 23.6289 136.984 24.7148C137.898 25.8008 138.355 27.3555 138.355 29.3789V30.2812H129.766C129.797 31.5312 130.16 32.543 130.855 33.3164C131.559 34.082 132.449 34.4648 133.527 34.4648C134.293 34.4648 134.941 34.3086 135.473 33.9961C136.004 33.6836 136.469 33.2695 136.867 32.7539L138.191 33.7852C137.129 35.418 135.535 36.2344 133.41 36.2344ZM133.141 24.8672C132.266 24.8672 131.531 25.1875 130.938 25.8281C130.344 26.4609 129.977 27.3516 129.836 28.5H136.188V28.3359C136.125 27.2344 135.828 26.3828 135.297 25.7812C134.766 25.1719 134.047 24.8672 133.141 24.8672ZM148.258 32.6367C148.258 32.0508 148.035 31.5977 147.59 31.2773C147.152 30.9492 146.383 30.668 145.281 30.4336C144.188 30.1992 143.316 29.918 142.668 29.5898C142.027 29.2617 141.551 28.8711 141.238 28.418C140.934 27.9648 140.781 27.4258 140.781 26.8008C140.781 25.7617 141.219 24.8828 142.094 24.1641C142.977 23.4453 144.102 23.0859 145.469 23.0859C146.906 23.0859 148.07 23.457 148.961 24.1992C149.859 24.9414 150.309 25.8906 150.309 27.0469H148.129C148.129 26.4531 147.875 25.9414 147.367 25.5117C146.867 25.082 146.234 24.8672 145.469 24.8672C144.68 24.8672 144.062 25.0391 143.617 25.3828C143.172 25.7266 142.949 26.1758 142.949 26.7305C142.949 27.2539 143.156 27.6484 143.57 27.9141C143.984 28.1797 144.73 28.4336 145.809 28.6758C146.895 28.918 147.773 29.207 148.445 29.543C149.117 29.8789 149.613 30.2852 149.934 30.7617C150.262 31.2305 150.426 31.8047 150.426 32.4844C150.426 33.6172 149.973 34.5273 149.066 35.2148C148.16 35.8945 146.984 36.2344 145.539 36.2344C144.523 36.2344 143.625 36.0547 142.844 35.6953C142.062 35.3359 141.449 34.8359 141.004 34.1953C140.566 33.5469 140.348 32.8477 140.348 32.0977H142.516C142.555 32.8242 142.844 33.4023 143.383 33.832C143.93 34.2539 144.648 34.4648 145.539 34.4648C146.359 34.4648 147.016 34.3008 147.508 33.9727C148.008 33.6367 148.258 33.1914 148.258 32.6367ZM145.809 19.9922L147.566 18H149.441V18.1172L146.465 21.3281H145.141L142.199 18.1172V18H144.039L145.809 19.9922ZM155.605 36H153.438V23.3203H155.605V36ZM153.262 19.957C153.262 19.6055 153.367 19.3086 153.578 19.0664C153.797 18.8242 154.117 18.7031 154.539 18.7031C154.961 18.7031 155.281 18.8242 155.5 19.0664C155.719 19.3086 155.828 19.6055 155.828 19.957C155.828 20.3086 155.719 20.6016 155.5 20.8359C155.281 21.0703 154.961 21.1875 154.539 21.1875C154.117 21.1875 153.797 21.0703 153.578 20.8359C153.367 20.6016 153.262 20.3086 153.262 19.957ZM161.125 23.3203L161.184 24.7266C162.113 23.6328 163.367 23.0859 164.945 23.0859C166.719 23.0859 167.926 23.7656 168.566 25.125C168.988 24.5156 169.535 24.0234 170.207 23.6484C170.887 23.2734 171.688 23.0859 172.609 23.0859C175.391 23.0859 176.805 24.5586 176.852 27.5039V36H174.684V27.6328C174.684 26.7266 174.477 26.0508 174.062 25.6055C173.648 25.1523 172.953 24.9258 171.977 24.9258C171.172 24.9258 170.504 25.168 169.973 25.6523C169.441 26.1289 169.133 26.7734 169.047 27.5859V36H166.867V27.6914C166.867 25.8477 165.965 24.9258 164.16 24.9258C162.738 24.9258 161.766 25.5312 161.242 26.7422V36H159.074V23.3203H161.125ZM183.074 20.25V23.3203H185.441V24.9961H183.074V32.8594C183.074 33.3672 183.18 33.75 183.391 34.0078C183.602 34.2578 183.961 34.3828 184.469 34.3828C184.719 34.3828 185.062 34.3359 185.5 34.2422V36C184.93 36.1562 184.375 36.2344 183.836 36.2344C182.867 36.2344 182.137 35.9414 181.645 35.3555C181.152 34.7695 180.906 33.9375 180.906 32.8594V24.9961H178.598V23.3203H180.906V20.25H183.074ZM204.648 29.8008C204.648 31.7305 204.207 33.2852 203.324 34.4648C202.441 35.6445 201.246 36.2344 199.738 36.2344C198.199 36.2344 196.988 35.7461 196.105 34.7695V40.875H193.938V23.3203H195.918L196.023 24.7266C196.906 23.6328 198.133 23.0859 199.703 23.0859C201.227 23.0859 202.43 23.6602 203.312 24.8086C204.203 25.957 204.648 27.5547 204.648 29.6016V29.8008ZM202.48 29.5547C202.48 28.125 202.176 26.9961 201.566 26.168C200.957 25.3398 200.121 24.9258 199.059 24.9258C197.746 24.9258 196.762 25.5078 196.105 26.6719V32.7305C196.754 33.8867 197.746 34.4648 199.082 34.4648C200.121 34.4648 200.945 34.0547 201.555 33.2344C202.172 32.4062 202.48 31.1797 202.48 29.5547ZM212.676 36.2344C210.957 36.2344 209.559 35.6719 208.48 34.5469C207.402 33.4141 206.863 31.9023 206.863 30.0117V29.6133C206.863 28.3555 207.102 27.2344 207.578 26.25C208.062 25.2578 208.734 24.4844 209.594 23.9297C210.461 23.3672 211.398 23.0859 212.406 23.0859C214.055 23.0859 215.336 23.6289 216.25 24.7148C217.164 25.8008 217.621 27.3555 217.621 29.3789V30.2812H209.031C209.062 31.5312 209.426 32.543 210.121 33.3164C210.824 34.082 211.715 34.4648 212.793 34.4648C213.559 34.4648 214.207 34.3086 214.738 33.9961C215.27 33.6836 215.734 33.2695 216.133 32.7539L217.457 33.7852C216.395 35.418 214.801 36.2344 212.676 36.2344ZM212.406 24.8672C211.531 24.8672 210.797 25.1875 210.203 25.8281C209.609 26.4609 209.242 27.3516 209.102 28.5H215.453V28.3359C215.391 27.2344 215.094 26.3828 214.562 25.7812C214.031 25.1719 213.312 24.8672 212.406 24.8672ZM222.191 23.3203L222.262 24.9141C223.23 23.6953 224.496 23.0859 226.059 23.0859C228.738 23.0859 230.09 24.5977 230.113 27.6211V36H227.945V27.6094C227.938 26.6953 227.727 26.0195 227.312 25.582C226.906 25.1445 226.27 24.9258 225.402 24.9258C224.699 24.9258 224.082 25.1133 223.551 25.4883C223.02 25.8633 222.605 26.3555 222.309 26.9648V36H220.141V23.3203H222.191ZM236.922 30.1289L235.562 31.5469V36H233.395V18H235.562V28.8867L236.723 27.4922L240.672 23.3203H243.309L238.375 28.6172L243.883 36H241.34L236.922 30.1289ZM247.902 36H245.734V23.3203H247.902V36ZM245.559 19.957C245.559 19.6055 245.664 19.3086 245.875 19.0664C246.094 18.8242 246.414 18.7031 246.836 18.7031C247.258 18.7031 247.578 18.8242 247.797 19.0664C248.016 19.3086 248.125 19.6055 248.125 19.957C248.125 20.3086 248.016 20.6016 247.797 20.8359C247.578 21.0703 247.258 21.1875 246.836 21.1875C246.414 21.1875 246.094 21.0703 245.875 20.8359C245.664 20.6016 245.559 20.3086 245.559 19.957ZM268.047 29.8008C268.047 31.7305 267.605 33.2852 266.723 34.4648C265.84 35.6445 264.645 36.2344 263.137 36.2344C261.598 36.2344 260.387 35.7461 259.504 34.7695V40.875H257.336V23.3203H259.316L259.422 24.7266C260.305 23.6328 261.531 23.0859 263.102 23.0859C264.625 23.0859 265.828 23.6602 266.711 24.8086C267.602 25.957 268.047 27.5547 268.047 29.6016V29.8008ZM265.879 29.5547C265.879 28.125 265.574 26.9961 264.965 26.168C264.355 25.3398 263.52 24.9258 262.457 24.9258C261.145 24.9258 260.16 25.5078 259.504 26.6719V32.7305C260.152 33.8867 261.145 34.4648 262.48 34.4648C263.52 34.4648 264.344 34.0547 264.953 33.2344C265.57 32.4062 265.879 31.1797 265.879 29.5547ZM276.941 25.2656C276.613 25.2109 276.258 25.1836 275.875 25.1836C274.453 25.1836 273.488 25.7891 272.98 27V36H270.812V23.3203H272.922L272.957 24.7852C273.668 23.6523 274.676 23.0859 275.98 23.0859C276.402 23.0859 276.723 23.1406 276.941 23.25V25.2656ZM278.137 29.543C278.137 28.3008 278.379 27.1836 278.863 26.1914C279.355 25.1992 280.035 24.4336 280.902 23.8945C281.777 23.3555 282.773 23.0859 283.891 23.0859C285.617 23.0859 287.012 23.6836 288.074 24.8789C289.145 26.0742 289.68 27.6641 289.68 29.6484V29.8008C289.68 31.0352 289.441 32.1445 288.965 33.1289C288.496 34.1055 287.82 34.8672 286.938 35.4141C286.062 35.9609 285.055 36.2344 283.914 36.2344C282.195 36.2344 280.801 35.6367 279.73 34.4414C278.668 33.2461 278.137 31.6641 278.137 29.6953V29.543ZM280.316 29.8008C280.316 31.207 280.641 32.3359 281.289 33.1875C281.945 34.0391 282.82 34.4648 283.914 34.4648C285.016 34.4648 285.891 34.0352 286.539 33.1758C287.188 32.3086 287.512 31.0977 287.512 29.543C287.512 28.1523 287.18 27.0273 286.516 26.168C285.859 25.3008 284.984 24.8672 283.891 24.8672C282.82 24.8672 281.957 25.293 281.301 26.1445C280.645 26.9961 280.316 28.2148 280.316 29.8008ZM297.484 34.4648C298.258 34.4648 298.934 34.2305 299.512 33.7617C300.09 33.293 300.41 32.707 300.473 32.0039H302.523C302.484 32.7305 302.234 33.4219 301.773 34.0781C301.312 34.7344 300.695 35.2578 299.922 35.6484C299.156 36.0391 298.344 36.2344 297.484 36.2344C295.758 36.2344 294.383 35.6602 293.359 34.5117C292.344 33.3555 291.836 31.7773 291.836 29.7773V29.4141C291.836 28.1797 292.062 27.082 292.516 26.1211C292.969 25.1602 293.617 24.4141 294.461 23.8828C295.312 23.3516 296.316 23.0859 297.473 23.0859C298.895 23.0859 300.074 23.5117 301.012 24.3633C301.957 25.2148 302.461 26.3203 302.523 27.6797H300.473C300.41 26.8594 300.098 26.1875 299.535 25.6641C298.98 25.1328 298.293 24.8672 297.473 24.8672C296.371 24.8672 295.516 25.2656 294.906 26.0625C294.305 26.8516 294.004 27.9961 294.004 29.4961V29.9062C294.004 31.3672 294.305 32.4922 294.906 33.2812C295.508 34.0703 296.367 34.4648 297.484 34.4648ZM310.223 36.2344C308.504 36.2344 307.105 35.6719 306.027 34.5469C304.949 33.4141 304.41 31.9023 304.41 30.0117V29.6133C304.41 28.3555 304.648 27.2344 305.125 26.25C305.609 25.2578 306.281 24.4844 307.141 23.9297C308.008 23.3672 308.945 23.0859 309.953 23.0859C311.602 23.0859 312.883 23.6289 313.797 24.7148C314.711 25.8008 315.168 27.3555 315.168 29.3789V30.2812H306.578C306.609 31.5312 306.973 32.543 307.668 33.3164C308.371 34.082 309.262 34.4648 310.34 34.4648C311.105 34.4648 311.754 34.3086 312.285 33.9961C312.816 33.6836 313.281 33.2695 313.68 32.7539L315.004 33.7852C313.941 35.418 312.348 36.2344 310.223 36.2344ZM309.953 24.8672C309.078 24.8672 308.344 25.1875 307.75 25.8281C307.156 26.4609 306.789 27.3516 306.648 28.5H313V28.3359C312.938 27.2344 312.641 26.3828 312.109 25.7812C311.578 25.1719 310.859 24.8672 309.953 24.8672ZM319.738 23.3203L319.809 24.9141C320.777 23.6953 322.043 23.0859 323.605 23.0859C326.285 23.0859 327.637 24.5977 327.66 27.6211V36H325.492V27.6094C325.484 26.6953 325.273 26.0195 324.859 25.582C324.453 25.1445 323.816 24.9258 322.949 24.9258C322.246 24.9258 321.629 25.1133 321.098 25.4883C320.566 25.8633 320.152 26.3555 319.855 26.9648V36H317.688V23.3203H319.738ZM333.871 20.25V23.3203H336.238V24.9961H333.871V32.8594C333.871 33.3672 333.977 33.75 334.188 34.0078C334.398 34.2578 334.758 34.3828 335.266 34.3828C335.516 34.3828 335.859 34.3359 336.297 34.2422V36C335.727 36.1562 335.172 36.2344 334.633 36.2344C333.664 36.2344 332.934 35.9414 332.441 35.3555C331.949 34.7695 331.703 33.9375 331.703 32.8594V24.9961H329.395V23.3203H331.703V20.25H333.871ZM346.609 36C346.484 35.75 346.383 35.3047 346.305 34.6641C345.297 35.7109 344.094 36.2344 342.695 36.2344C341.445 36.2344 340.418 35.8828 339.613 35.1797C338.816 34.4688 338.418 33.5703 338.418 32.4844C338.418 31.1641 338.918 30.1406 339.918 29.4141C340.926 28.6797 342.34 28.3125 344.16 28.3125H346.27V27.3164C346.27 26.5586 346.043 25.957 345.59 25.5117C345.137 25.0586 344.469 24.832 343.586 24.832C342.812 24.832 342.164 25.0273 341.641 25.418C341.117 25.8086 340.855 26.2812 340.855 26.8359H338.676C338.676 26.2031 338.898 25.5938 339.344 25.0078C339.797 24.4141 340.406 23.9453 341.172 23.6016C341.945 23.2578 342.793 23.0859 343.715 23.0859C345.176 23.0859 346.32 23.4531 347.148 24.1875C347.977 24.9141 348.406 25.918 348.438 27.1992V33.0352C348.438 34.1992 348.586 35.125 348.883 35.8125V36H346.609ZM343.012 34.3477C343.691 34.3477 344.336 34.1719 344.945 33.8203C345.555 33.4688 345.996 33.0117 346.27 32.4492V29.8477H344.57C341.914 29.8477 340.586 30.625 340.586 32.1797C340.586 32.8594 340.812 33.3906 341.266 33.7734C341.719 34.1562 342.301 34.3477 343.012 34.3477ZM354.191 36H352.023V23.3203H354.191V36ZM351.848 19.957C351.848 19.6055 351.953 19.3086 352.164 19.0664C352.383 18.8242 352.703 18.7031 353.125 18.7031C353.547 18.7031 353.867 18.8242 354.086 19.0664C354.305 19.3086 354.414 19.6055 354.414 19.957C354.414 20.3086 354.305 20.6016 354.086 20.8359C353.867 21.0703 353.547 21.1875 353.125 21.1875C352.703 21.1875 352.383 21.0703 352.164 20.8359C351.953 20.6016 351.848 20.3086 351.848 19.957ZM39.9766 60.6367C39.9766 60.0508 39.7539 59.5977 39.3086 59.2773C38.8711 58.9492 38.1016 58.668 37 58.4336C35.9062 58.1992 35.0352 57.918 34.3867 57.5898C33.7461 57.2617 33.2695 56.8711 32.957 56.418C32.6523 55.9648 32.5 55.4258 32.5 54.8008C32.5 53.7617 32.9375 52.8828 33.8125 52.1641C34.6953 51.4453 35.8203 51.0859 37.1875 51.0859C38.625 51.0859 39.7891 51.457 40.6797 52.1992C41.5781 52.9414 42.0273 53.8906 42.0273 55.0469H39.8477C39.8477 54.4531 39.5938 53.9414 39.0859 53.5117C38.5859 53.082 37.9531 52.8672 37.1875 52.8672C36.3984 52.8672 35.7812 53.0391 35.3359 53.3828C34.8906 53.7266 34.668 54.1758 34.668 54.7305C34.668 55.2539 34.875 55.6484 35.2891 55.9141C35.7031 56.1797 36.4492 56.4336 37.5273 56.6758C38.6133 56.918 39.4922 57.207 40.1641 57.543C40.8359 57.8789 41.332 58.2852 41.6523 58.7617C41.9805 59.2305 42.1445 59.8047 42.1445 60.4844C42.1445 61.6172 41.6914 62.5273 40.7852 63.2148C39.8789 63.8945 38.7031 64.2344 37.2578 64.2344C36.2422 64.2344 35.3438 64.0547 34.5625 63.6953C33.7812 63.3359 33.168 62.8359 32.7227 62.1953C32.2852 61.5469 32.0664 60.8477 32.0664 60.0977H34.2344C34.2734 60.8242 34.5625 61.4023 35.1016 61.832C35.6484 62.2539 36.3672 62.4648 37.2578 62.4648C38.0781 62.4648 38.7344 62.3008 39.2266 61.9727C39.7266 61.6367 39.9766 61.1914 39.9766 60.6367ZM37.5273 47.9922L39.2852 46H41.1602V46.1172L38.1836 49.3281H36.8594L33.918 46.1172V46H35.7578L37.5273 47.9922ZM52.7969 62.7461C51.9531 63.7383 50.7148 64.2344 49.082 64.2344C47.7305 64.2344 46.6992 63.8438 45.9883 63.0625C45.2852 62.2734 44.9297 61.1094 44.9219 59.5703V51.3203H47.0898V59.5117C47.0898 61.4336 47.8711 62.3945 49.4336 62.3945C51.0898 62.3945 52.1914 61.7773 52.7383 60.543V51.3203H54.9062V64H52.8438L52.7969 62.7461ZM60.2617 51.3203L60.332 52.9141C61.3008 51.6953 62.5664 51.0859 64.1289 51.0859C66.8086 51.0859 68.1602 52.5977 68.1836 55.6211V64H66.0156V55.6094C66.0078 54.6953 65.7969 54.0195 65.3828 53.582C64.9766 53.1445 64.3398 52.9258 63.4727 52.9258C62.7695 52.9258 62.1523 53.1133 61.6211 53.4883C61.0898 53.8633 60.6758 54.3555 60.3789 54.9648V64H58.2109V51.3203H60.2617ZM81.2734 64L80.5938 64.5273C79.7109 65.2383 79.2695 65.9297 79.2695 66.6016C79.2695 67.1641 79.5742 67.4453 80.1836 67.4453C80.5586 67.4453 80.9492 67.3438 81.3555 67.1406L81.5078 68.5586C80.9609 68.9023 80.3359 69.0742 79.6328 69.0742C78.9375 69.0742 78.3867 68.8711 77.9805 68.4648C77.582 68.0586 77.3828 67.5195 77.3828 66.8477C77.3828 65.7305 78.0312 64.7578 79.3281 63.9297L79.2812 62.7461C78.4375 63.7383 77.1992 64.2344 75.5664 64.2344C74.2148 64.2344 73.1836 63.8438 72.4727 63.0625C71.7695 62.2734 71.4141 61.1094 71.4062 59.5703V51.3203H73.5742V59.5117C73.5742 61.4336 74.3555 62.3945 75.918 62.3945C77.5742 62.3945 78.6758 61.7773 79.2227 60.543V51.3203H81.3906V64H81.2734ZM98.1367 46.9375H100.398V59.0195C100.398 60.6523 99.9062 61.9297 98.9219 62.8516C97.9453 63.7734 96.6406 64.2344 95.0078 64.2344C93.3125 64.2344 91.9922 63.8008 91.0469 62.9336C90.1016 62.0664 89.6289 60.8516 89.6289 59.2891H91.8789C91.8789 60.2656 92.1445 61.0273 92.6758 61.5742C93.2148 62.1211 93.9922 62.3945 95.0078 62.3945C95.9375 62.3945 96.6875 62.1016 97.2578 61.5156C97.8359 60.9297 98.1289 60.1094 98.1367 59.0547V46.9375ZM113.395 59.5469H106.246L104.641 64H102.32L108.836 46.9375H110.805L117.332 64H115.023L113.395 59.5469ZM106.926 57.6953H112.727L109.82 49.7148L106.926 57.6953ZM124.246 61.0117L129.121 46.9375H131.582L125.254 64H123.262L116.945 46.9375H119.395L124.246 61.0117ZM141.531 51.3203L141.59 52.7266C142.52 51.6328 143.773 51.0859 145.352 51.0859C147.125 51.0859 148.332 51.7656 148.973 53.125C149.395 52.5156 149.941 52.0234 150.613 51.6484C151.293 51.2734 152.094 51.0859 153.016 51.0859C155.797 51.0859 157.211 52.5586 157.258 55.5039V64H155.09V55.6328C155.09 54.7266 154.883 54.0508 154.469 53.6055C154.055 53.1523 153.359 52.9258 152.383 52.9258C151.578 52.9258 150.91 53.168 150.379 53.6523C149.848 54.1289 149.539 54.7734 149.453 55.5859V64H147.273V55.6914C147.273 53.8477 146.371 52.9258 144.566 52.9258C143.145 52.9258 142.172 53.5312 141.648 54.7422V64H139.48V51.3203H141.531ZM162.895 64H160.727V51.3203H162.895V64ZM160.551 47.957C160.551 47.6055 160.656 47.3086 160.867 47.0664C161.086 46.8242 161.406 46.7031 161.828 46.7031C162.25 46.7031 162.57 46.8242 162.789 47.0664C163.008 47.3086 163.117 47.6055 163.117 47.957C163.117 48.3086 163.008 48.6016 162.789 48.8359C162.57 49.0703 162.25 49.1875 161.828 49.1875C161.406 49.1875 161.086 49.0703 160.867 48.8359C160.656 48.6016 160.551 48.3086 160.551 47.957ZM171.637 64.2344C169.918 64.2344 168.52 63.6719 167.441 62.5469C166.363 61.4141 165.824 59.9023 165.824 58.0117V57.6133C165.824 56.3555 166.062 55.2344 166.539 54.25C167.023 53.2578 167.695 52.4844 168.555 51.9297C169.422 51.3672 170.359 51.0859 171.367 51.0859C173.016 51.0859 174.297 51.6289 175.211 52.7148C176.125 53.8008 176.582 55.3555 176.582 57.3789V58.2812H167.992C168.023 59.5312 168.387 60.543 169.082 61.3164C169.785 62.082 170.676 62.4648 171.754 62.4648C172.52 62.4648 173.168 62.3086 173.699 61.9961C174.23 61.6836 174.695 61.2695 175.094 60.7539L176.418 61.7852C175.355 63.418 173.762 64.2344 171.637 64.2344ZM171.367 52.8672C170.492 52.8672 169.758 53.1875 169.164 53.8281C168.57 54.4609 168.203 55.3516 168.062 56.5H174.414V56.3359C174.352 55.2344 174.055 54.3828 173.523 53.7812C172.992 53.1719 172.273 52.8672 171.367 52.8672ZM178.586 57.5547C178.586 55.5781 179.043 54.0078 179.957 52.8438C180.871 51.6719 182.082 51.0859 183.59 51.0859C185.137 51.0859 186.344 51.6328 187.211 52.7266L187.316 51.3203H189.297V63.6953C189.297 65.3359 188.809 66.6289 187.832 67.5742C186.863 68.5195 185.559 68.9922 183.918 68.9922C183.004 68.9922 182.109 68.7969 181.234 68.4062C180.359 68.0156 179.691 67.4805 179.23 66.8008L180.355 65.5C181.285 66.6484 182.422 67.2227 183.766 67.2227C184.82 67.2227 185.641 66.9258 186.227 66.332C186.82 65.7383 187.117 64.9023 187.117 63.8242V62.7344C186.25 63.7344 185.066 64.2344 183.566 64.2344C182.082 64.2344 180.879 63.6367 179.957 62.4414C179.043 61.2461 178.586 59.6172 178.586 57.5547ZM180.766 57.8008C180.766 59.2305 181.059 60.3555 181.645 61.1758C182.23 61.9883 183.051 62.3945 184.105 62.3945C185.473 62.3945 186.477 61.7734 187.117 60.5312V54.7422C186.453 53.5312 185.457 52.9258 184.129 52.9258C183.074 52.9258 182.25 53.3359 181.656 54.1562C181.062 54.9766 180.766 56.1914 180.766 57.8008ZM200.406 64C200.281 63.75 200.18 63.3047 200.102 62.6641C199.094 63.7109 197.891 64.2344 196.492 64.2344C195.242 64.2344 194.215 63.8828 193.41 63.1797C192.613 62.4688 192.215 61.5703 192.215 60.4844C192.215 59.1641 192.715 58.1406 193.715 57.4141C194.723 56.6797 196.137 56.3125 197.957 56.3125H200.066V55.3164C200.066 54.5586 199.84 53.957 199.387 53.5117C198.934 53.0586 198.266 52.832 197.383 52.832C196.609 52.832 195.961 53.0273 195.438 53.418C194.914 53.8086 194.652 54.2812 194.652 54.8359H192.473C192.473 54.2031 192.695 53.5938 193.141 53.0078C193.594 52.4141 194.203 51.9453 194.969 51.6016C195.742 51.2578 196.59 51.0859 197.512 51.0859C198.973 51.0859 200.117 51.4531 200.945 52.1875C201.773 52.9141 202.203 53.918 202.234 55.1992V61.0352C202.234 62.1992 202.383 63.125 202.68 63.8125V64H200.406ZM196.809 62.3477C197.488 62.3477 198.133 62.1719 198.742 61.8203C199.352 61.4688 199.793 61.0117 200.066 60.4492V57.8477H198.367C195.711 57.8477 194.383 58.625 194.383 60.1797C194.383 60.8594 194.609 61.3906 195.062 61.7734C195.516 62.1562 196.098 62.3477 196.809 62.3477ZM218.969 60.6367C218.969 60.0508 218.746 59.5977 218.301 59.2773C217.863 58.9492 217.094 58.668 215.992 58.4336C214.898 58.1992 214.027 57.918 213.379 57.5898C212.738 57.2617 212.262 56.8711 211.949 56.418C211.645 55.9648 211.492 55.4258 211.492 54.8008C211.492 53.7617 211.93 52.8828 212.805 52.1641C213.688 51.4453 214.812 51.0859 216.18 51.0859C217.617 51.0859 218.781 51.457 219.672 52.1992C220.57 52.9414 221.02 53.8906 221.02 55.0469H218.84C218.84 54.4531 218.586 53.9414 218.078 53.5117C217.578 53.082 216.945 52.8672 216.18 52.8672C215.391 52.8672 214.773 53.0391 214.328 53.3828C213.883 53.7266 213.66 54.1758 213.66 54.7305C213.66 55.2539 213.867 55.6484 214.281 55.9141C214.695 56.1797 215.441 56.4336 216.52 56.6758C217.605 56.918 218.484 57.207 219.156 57.543C219.828 57.8789 220.324 58.2852 220.645 58.7617C220.973 59.2305 221.137 59.8047 221.137 60.4844C221.137 61.6172 220.684 62.5273 219.777 63.2148C218.871 63.8945 217.695 64.2344 216.25 64.2344C215.234 64.2344 214.336 64.0547 213.555 63.6953C212.773 63.3359 212.16 62.8359 211.715 62.1953C211.277 61.5469 211.059 60.8477 211.059 60.0977H213.227C213.266 60.8242 213.555 61.4023 214.094 61.832C214.641 62.2539 215.359 62.4648 216.25 62.4648C217.07 62.4648 217.727 62.3008 218.219 61.9727C218.719 61.6367 218.969 61.1914 218.969 60.6367ZM216.52 47.9922L218.277 46H220.152V46.1172L217.176 49.3281H215.852L212.91 46.1172V46H214.75L216.52 47.9922ZM229.223 64.2344C227.504 64.2344 226.105 63.6719 225.027 62.5469C223.949 61.4141 223.41 59.9023 223.41 58.0117V57.6133C223.41 56.3555 223.648 55.2344 224.125 54.25C224.609 53.2578 225.281 52.4844 226.141 51.9297C227.008 51.3672 227.945 51.0859 228.953 51.0859C230.602 51.0859 231.883 51.6289 232.797 52.7148C233.711 53.8008 234.168 55.3555 234.168 57.3789V58.2812H225.578C225.609 59.5312 225.973 60.543 226.668 61.3164C227.371 62.082 228.262 62.4648 229.34 62.4648C230.105 62.4648 230.754 62.3086 231.285 61.9961C231.816 61.6836 232.281 61.2695 232.68 60.7539L234.004 61.7852C232.941 63.418 231.348 64.2344 229.223 64.2344ZM228.953 52.8672C228.078 52.8672 227.344 53.1875 226.75 53.8281C226.156 54.4609 225.789 55.3516 225.648 56.5H232V56.3359C231.938 55.2344 231.641 54.3828 231.109 53.7812C230.578 53.1719 229.859 52.8672 228.953 52.8672ZM239.043 64H236.875V51.3203H239.043V64ZM236.699 47.957C236.699 47.6055 236.805 47.3086 237.016 47.0664C237.234 46.8242 237.555 46.7031 237.977 46.7031C238.398 46.7031 238.719 46.8242 238.938 47.0664C239.156 47.3086 239.266 47.6055 239.266 47.957C239.266 48.3086 239.156 48.6016 238.938 48.8359C238.719 49.0703 238.398 49.1875 237.977 49.1875C237.555 49.1875 237.234 49.0703 237.016 48.8359C236.805 48.6016 236.699 48.3086 236.699 47.957ZM244.562 51.3203L244.621 52.7266C245.551 51.6328 246.805 51.0859 248.383 51.0859C250.156 51.0859 251.363 51.7656 252.004 53.125C252.426 52.5156 252.973 52.0234 253.645 51.6484C254.324 51.2734 255.125 51.0859 256.047 51.0859C258.828 51.0859 260.242 52.5586 260.289 55.5039V64H258.121V55.6328C258.121 54.7266 257.914 54.0508 257.5 53.6055C257.086 53.1523 256.391 52.9258 255.414 52.9258C254.609 52.9258 253.941 53.168 253.41 53.6523C252.879 54.1289 252.57 54.7734 252.484 55.5859V64H250.305V55.6914C250.305 53.8477 249.402 52.9258 247.598 52.9258C246.176 52.9258 245.203 53.5312 244.68 54.7422V64H242.512V51.3203H244.562ZM265.926 64H263.758V51.3203H265.926V64ZM263.582 47.957C263.582 47.6055 263.688 47.3086 263.898 47.0664C264.117 46.8242 264.438 46.7031 264.859 46.7031C265.281 46.7031 265.602 46.8242 265.82 47.0664C266.039 47.3086 266.148 47.6055 266.148 47.957C266.148 48.3086 266.039 48.6016 265.82 48.8359C265.602 49.0703 265.281 49.1875 264.859 49.1875C264.438 49.1875 264.117 49.0703 263.898 48.8359C263.688 48.6016 263.582 48.3086 263.582 47.957ZM271.457 51.3203L271.527 52.9141C272.496 51.6953 273.762 51.0859 275.324 51.0859C278.004 51.0859 279.355 52.5977 279.379 55.6211V64H277.211V55.6094C277.203 54.6953 276.992 54.0195 276.578 53.582C276.172 53.1445 275.535 52.9258 274.668 52.9258C273.965 52.9258 273.348 53.1133 272.816 53.4883C272.285 53.8633 271.871 54.3555 271.574 54.9648V64H269.406V51.3203H271.457ZM285.004 64H282.836V51.3203H285.004V64ZM282.66 47.957C282.66 47.6055 282.766 47.3086 282.977 47.0664C283.195 46.8242 283.516 46.7031 283.938 46.7031C284.359 46.7031 284.68 46.8242 284.898 47.0664C285.117 47.3086 285.227 47.6055 285.227 47.957C285.227 48.3086 285.117 48.6016 284.898 48.8359C284.68 49.0703 284.359 49.1875 283.938 49.1875C283.516 49.1875 283.195 49.0703 282.977 48.8359C282.766 48.6016 282.66 48.3086 282.66 47.957ZM290.535 51.3203L290.605 52.9141C291.574 51.6953 292.84 51.0859 294.402 51.0859C297.082 51.0859 298.434 52.5977 298.457 55.6211V64H296.289V55.6094C296.281 54.6953 296.07 54.0195 295.656 53.582C295.25 53.1445 294.613 52.9258 293.746 52.9258C293.043 52.9258 292.426 53.1133 291.895 53.4883C291.363 53.8633 290.949 54.3555 290.652 54.9648V64H288.484V51.3203H290.535ZM305.266 58.1289L303.906 59.5469V64H301.738V46H303.906V56.8867L305.066 55.4922L309.016 51.3203H311.652L306.719 56.6172L312.227 64H309.684L305.266 58.1289ZM313.316 57.543C313.316 56.3008 313.559 55.1836 314.043 54.1914C314.535 53.1992 315.215 52.4336 316.082 51.8945C316.957 51.3555 317.953 51.0859 319.07 51.0859C320.797 51.0859 322.191 51.6836 323.254 52.8789C324.324 54.0742 324.859 55.6641 324.859 57.6484V57.8008C324.859 59.0352 324.621 60.1445 324.145 61.1289C323.676 62.1055 323 62.8672 322.117 63.4141C321.242 63.9609 320.234 64.2344 319.094 64.2344C317.375 64.2344 315.98 63.6367 314.91 62.4414C313.848 61.2461 313.316 59.6641 313.316 57.6953V57.543ZM315.496 57.8008C315.496 59.207 315.82 60.3359 316.469 61.1875C317.125 62.0391 318 62.4648 319.094 62.4648C320.195 62.4648 321.07 62.0352 321.719 61.1758C322.367 60.3086 322.691 59.0977 322.691 57.543C322.691 56.1523 322.359 55.0273 321.695 54.168C321.039 53.3008 320.164 52.8672 319.07 52.8672C318 52.8672 317.137 53.293 316.48 54.1445C315.824 54.9961 315.496 56.2148 315.496 57.8008ZM335.887 64H333.719V46H335.887V64ZM338.793 57.543C338.793 56.3008 339.035 55.1836 339.52 54.1914C340.012 53.1992 340.691 52.4336 341.559 51.8945C342.434 51.3555 343.43 51.0859 344.547 51.0859C346.273 51.0859 347.668 51.6836 348.73 52.8789C349.801 54.0742 350.336 55.6641 350.336 57.6484V57.8008C350.336 59.0352 350.098 60.1445 349.621 61.1289C349.152 62.1055 348.477 62.8672 347.594 63.4141C346.719 63.9609 345.711 64.2344 344.57 64.2344C342.852 64.2344 341.457 63.6367 340.387 62.4414C339.324 61.2461 338.793 59.6641 338.793 57.6953V57.543ZM340.973 57.8008C340.973 59.207 341.297 60.3359 341.945 61.1875C342.602 62.0391 343.477 62.4648 344.57 62.4648C345.672 62.4648 346.547 62.0352 347.195 61.1758C347.844 60.3086 348.168 59.0977 348.168 57.543C348.168 56.1523 347.836 55.0273 347.172 54.168C346.516 53.3008 345.641 52.8672 344.547 52.8672C343.477 52.8672 342.613 53.293 341.957 54.1445C341.301 54.9961 340.973 56.2148 340.973 57.8008ZM357.051 61.0586L360.191 51.3203H362.406L357.859 64H356.207L351.613 51.3203H353.828L357.051 61.0586ZM363.73 57.543C363.73 56.3008 363.973 55.1836 364.457 54.1914C364.949 53.1992 365.629 52.4336 366.496 51.8945C367.371 51.3555 368.367 51.0859 369.484 51.0859C371.211 51.0859 372.605 51.6836 373.668 52.8789C374.738 54.0742 375.273 55.6641 375.273 57.6484V57.8008C375.273 59.0352 375.035 60.1445 374.559 61.1289C374.09 62.1055 373.414 62.8672 372.531 63.4141C371.656 63.9609 370.648 64.2344 369.508 64.2344C367.789 64.2344 366.395 63.6367 365.324 62.4414C364.262 61.2461 363.73 59.6641 363.73 57.6953V57.543ZM365.91 57.8008C365.91 59.207 366.234 60.3359 366.883 61.1875C367.539 62.0391 368.414 62.4648 369.508 62.4648C370.609 62.4648 371.484 62.0352 372.133 61.1758C372.781 60.3086 373.105 59.0977 373.105 57.543C373.105 56.1523 372.773 55.0273 372.109 54.168C371.453 53.3008 370.578 52.8672 369.484 52.8672C368.414 52.8672 367.551 53.293 366.895 54.1445C366.238 54.9961 365.91 56.2148 365.91 57.8008ZM380.23 51.3203V65.4648C380.23 67.9023 379.125 69.1211 376.914 69.1211C376.438 69.1211 375.996 69.0508 375.59 68.9102V67.1758C375.84 67.2383 376.168 67.2695 376.574 67.2695C377.059 67.2695 377.426 67.1367 377.676 66.8711C377.934 66.6133 378.062 66.1602 378.062 65.5117V51.3203H380.23ZM377.84 47.957C377.84 47.6133 377.945 47.3203 378.156 47.0781C378.375 46.8281 378.691 46.7031 379.105 46.7031C379.527 46.7031 379.848 46.8242 380.066 47.0664C380.285 47.3086 380.395 47.6055 380.395 47.957C380.395 48.3086 380.285 48.6016 380.066 48.8359C379.848 49.0703 379.527 49.1875 379.105 49.1875C378.684 49.1875 378.367 49.0703 378.156 48.8359C377.945 48.6016 377.84 48.3086 377.84 47.957ZM388.996 64.2344C387.277 64.2344 385.879 63.6719 384.801 62.5469C383.723 61.4141 383.184 59.9023 383.184 58.0117V57.6133C383.184 56.3555 383.422 55.2344 383.898 54.25C384.383 53.2578 385.055 52.4844 385.914 51.9297C386.781 51.3672 387.719 51.0859 388.727 51.0859C390.375 51.0859 391.656 51.6289 392.57 52.7148C393.484 53.8008 393.941 55.3555 393.941 57.3789V58.2812H385.352C385.383 59.5312 385.746 60.543 386.441 61.3164C387.145 62.082 388.035 62.4648 389.113 62.4648C389.879 62.4648 390.527 62.3086 391.059 61.9961C391.59 61.6836 392.055 61.2695 392.453 60.7539L393.777 61.7852C392.715 63.418 391.121 64.2344 388.996 64.2344ZM388.727 52.8672C387.852 52.8672 387.117 53.1875 386.523 53.8281C385.93 54.4609 385.562 55.3516 385.422 56.5H391.773V56.3359C391.711 55.2344 391.414 54.3828 390.883 53.7812C390.352 53.1719 389.633 52.8672 388.727 52.8672ZM402.461 62.8633C402.461 62.4883 402.57 62.1758 402.789 61.9258C403.016 61.6758 403.352 61.5508 403.797 61.5508C404.242 61.5508 404.578 61.6758 404.805 61.9258C405.039 62.1758 405.156 62.4883 405.156 62.8633C405.156 63.2227 405.039 63.5234 404.805 63.7656C404.578 64.0078 404.242 64.1289 403.797 64.1289C403.352 64.1289 403.016 64.0078 402.789 63.7656C402.57 63.5234 402.461 63.2227 402.461 62.8633Z" fill="black"/>
</svg>
