<svg width="600" height="97" viewBox="0 0 600 97" fill="none" xmlns="http://www.w3.org/2000/svg">
<rect width="600" height="97" rx="48.5" fill="#A9CDF6"/>
<path d="M45.9707 40V14.4062H53.1953C55.4219 14.4062 57.3906 14.8984 59.1016 15.8828C60.8125 16.8672 62.1309 18.2676 63.0566 20.084C63.9941 21.9004 64.4688 23.9863 64.4805 26.3418V27.9766C64.4805 30.3906 64.0117 32.5059 63.0742 34.3223C62.1484 36.1387 60.8184 37.5332 59.084 38.5059C57.3613 39.4785 55.3516 39.9766 53.0547 40H45.9707ZM49.3457 17.1836V37.2402H52.8965C55.498 37.2402 57.5195 36.4316 58.9609 34.8145C60.4141 33.1973 61.1406 30.8945 61.1406 27.9062V26.4121C61.1406 23.5059 60.4551 21.25 59.084 19.6445C57.7246 18.0273 55.791 17.207 53.2832 17.1836H49.3457ZM68.2246 30.3145C68.2246 28.4512 68.5879 26.7754 69.3145 25.2871C70.0527 23.7988 71.0723 22.6504 72.373 21.8418C73.6855 21.0332 75.1797 20.6289 76.8555 20.6289C79.4453 20.6289 81.5371 21.5254 83.1309 23.3184C84.7363 25.1113 85.5391 27.4961 85.5391 30.4727V30.7012C85.5391 32.5527 85.1816 34.2168 84.4668 35.6934C83.7637 37.1582 82.75 38.3008 81.4258 39.1211C80.1133 39.9414 78.6016 40.3516 76.8906 40.3516C74.3125 40.3516 72.2207 39.4551 70.6152 37.6621C69.0215 35.8691 68.2246 33.4961 68.2246 30.543V30.3145ZM71.4941 30.7012C71.4941 32.8105 71.9805 34.5039 72.9531 35.7812C73.9375 37.0586 75.25 37.6973 76.8906 37.6973C78.543 37.6973 79.8555 37.0527 80.8281 35.7637C81.8008 34.4629 82.2871 32.6465 82.2871 30.3145C82.2871 28.2285 81.7891 26.541 80.793 25.252C79.8086 23.9512 78.4961 23.3008 76.8555 23.3008C75.25 23.3008 73.9551 23.9395 72.9707 25.2168C71.9863 26.4941 71.4941 28.3223 71.4941 30.7012ZM88.8438 30.332C88.8438 27.3672 89.5293 25.0117 90.9004 23.2656C92.2715 21.5078 94.0879 20.6289 96.3496 20.6289C98.6699 20.6289 100.48 21.4492 101.781 23.0898L101.939 20.9805H104.91V39.543C104.91 42.0039 104.178 43.9434 102.713 45.3613C101.26 46.7793 99.3027 47.4883 96.8418 47.4883C95.4707 47.4883 94.1289 47.1953 92.8164 46.6094C91.5039 46.0234 90.502 45.2207 89.8105 44.2012L91.498 42.25C92.8926 43.9727 94.5977 44.834 96.6133 44.834C98.1953 44.834 99.4258 44.3887 100.305 43.498C101.195 42.6074 101.641 41.3535 101.641 39.7363V38.1016C100.34 39.6016 98.5645 40.3516 96.3145 40.3516C94.0879 40.3516 92.2832 39.4551 90.9004 37.6621C89.5293 35.8691 88.8438 33.4258 88.8438 30.332ZM92.1133 30.7012C92.1133 32.8457 92.5527 34.5332 93.4316 35.7637C94.3105 36.9824 95.541 37.5918 97.123 37.5918C99.1738 37.5918 100.68 36.6602 101.641 34.7969V26.1133C100.645 24.2969 99.1504 23.3887 97.1582 23.3887C95.5762 23.3887 94.3398 24.0039 93.4492 25.2344C92.5586 26.4648 92.1133 28.2871 92.1133 30.7012ZM120.906 34.9551C120.906 34.0762 120.572 33.3965 119.904 32.916C119.248 32.4238 118.094 32.002 116.441 31.6504C114.801 31.2988 113.494 30.877 112.521 30.3848C111.561 29.8926 110.846 29.3066 110.377 28.627C109.92 27.9473 109.691 27.1387 109.691 26.2012C109.691 24.6426 110.348 23.3242 111.66 22.2461C112.984 21.168 114.672 20.6289 116.723 20.6289C118.879 20.6289 120.625 21.1855 121.961 22.2988C123.309 23.4121 123.982 24.8359 123.982 26.5703H120.713C120.713 25.6797 120.332 24.9121 119.57 24.2676C118.82 23.623 117.871 23.3008 116.723 23.3008C115.539 23.3008 114.613 23.5586 113.945 24.0742C113.277 24.5898 112.943 25.2637 112.943 26.0957C112.943 26.8809 113.254 27.4727 113.875 27.8711C114.496 28.2695 115.615 28.6504 117.232 29.0137C118.861 29.377 120.18 29.8105 121.188 30.3145C122.195 30.8184 122.939 31.4277 123.42 32.1426C123.912 32.8457 124.158 33.707 124.158 34.7266C124.158 36.4258 123.479 37.791 122.119 38.8223C120.76 39.8418 118.996 40.3516 116.828 40.3516C115.305 40.3516 113.957 40.082 112.785 39.543C111.613 39.0039 110.693 38.2539 110.025 37.293C109.369 36.3203 109.041 35.2715 109.041 34.1465H112.293C112.352 35.2363 112.785 36.1035 113.594 36.748C114.414 37.3809 115.492 37.6973 116.828 37.6973C118.059 37.6973 119.043 37.4512 119.781 36.959C120.531 36.4551 120.906 35.7871 120.906 34.9551ZM144.953 37.6973C146.113 37.6973 147.127 37.3457 147.994 36.6426C148.861 35.9395 149.342 35.0605 149.436 34.0059H152.512C152.453 35.0957 152.078 36.1328 151.387 37.1172C150.695 38.1016 149.77 38.8867 148.609 39.4727C147.461 40.0586 146.242 40.3516 144.953 40.3516C142.363 40.3516 140.301 39.4902 138.766 37.7676C137.242 36.0332 136.48 33.666 136.48 30.666V30.1211C136.48 28.2695 136.82 26.623 137.5 25.1816C138.18 23.7402 139.152 22.6211 140.418 21.8242C141.695 21.0273 143.201 20.6289 144.936 20.6289C147.068 20.6289 148.838 21.2676 150.244 22.5449C151.662 23.8223 152.418 25.4805 152.512 27.5195H149.436C149.342 26.2891 148.873 25.2812 148.029 24.4961C147.197 23.6992 146.166 23.3008 144.936 23.3008C143.283 23.3008 142 23.8984 141.086 25.0938C140.184 26.2773 139.732 27.9941 139.732 30.2441V30.8594C139.732 33.0508 140.184 34.7383 141.086 35.9219C141.988 37.1055 143.277 37.6973 144.953 37.6973ZM167.91 40C167.723 39.625 167.57 38.957 167.453 37.9961C165.941 39.5664 164.137 40.3516 162.039 40.3516C160.164 40.3516 158.623 39.8242 157.416 38.7695C156.221 37.7031 155.623 36.3555 155.623 34.7266C155.623 32.7461 156.373 31.2109 157.873 30.1211C159.385 29.0195 161.506 28.4688 164.236 28.4688H167.4V26.9746C167.4 25.8379 167.061 24.9355 166.381 24.2676C165.701 23.5879 164.699 23.248 163.375 23.248C162.215 23.248 161.242 23.541 160.457 24.127C159.672 24.7129 159.279 25.4219 159.279 26.2539H156.01C156.01 25.3047 156.344 24.3906 157.012 23.5117C157.691 22.6211 158.605 21.918 159.754 21.4023C160.914 20.8867 162.186 20.6289 163.568 20.6289C165.76 20.6289 167.477 21.1797 168.719 22.2812C169.961 23.3711 170.605 24.877 170.652 26.7988V35.5527C170.652 37.2988 170.875 38.6875 171.32 39.7188V40H167.91ZM162.514 37.5215C163.533 37.5215 164.5 37.2578 165.414 36.7305C166.328 36.2031 166.99 35.5176 167.4 34.6738V30.7715H164.852C160.867 30.7715 158.875 31.9375 158.875 34.2695C158.875 35.2891 159.215 36.0859 159.895 36.6602C160.574 37.2344 161.447 37.5215 162.514 37.5215ZM178.826 20.9805L178.932 23.3711C180.385 21.543 182.283 20.6289 184.627 20.6289C188.646 20.6289 190.674 22.8965 190.709 27.4316V40H187.457V27.4141C187.445 26.043 187.129 25.0293 186.508 24.373C185.898 23.7168 184.943 23.3887 183.643 23.3887C182.588 23.3887 181.662 23.6699 180.865 24.2324C180.068 24.7949 179.447 25.5332 179.002 26.4473V40H175.75V20.9805H178.826ZM220.645 30.7012C220.645 33.6074 219.977 35.9453 218.641 37.7148C217.305 39.4727 215.512 40.3516 213.262 40.3516C210.859 40.3516 209.002 39.502 207.689 37.8027L207.531 40H204.543V13H207.795V23.0723C209.107 21.4434 210.918 20.6289 213.227 20.6289C215.535 20.6289 217.346 21.502 218.658 23.248C219.982 24.9941 220.645 27.3848 220.645 30.4199V30.7012ZM217.393 30.332C217.393 28.1172 216.965 26.4062 216.109 25.1992C215.254 23.9922 214.023 23.3887 212.418 23.3887C210.273 23.3887 208.732 24.3848 207.795 26.377V34.6035C208.791 36.5957 210.344 37.5918 212.453 37.5918C214.012 37.5918 215.225 36.9883 216.092 35.7812C216.959 34.5742 217.393 32.7578 217.393 30.332ZM232.65 40.3516C230.072 40.3516 227.975 39.5078 226.357 37.8203C224.74 36.1211 223.932 33.8535 223.932 31.0176V30.4199C223.932 28.5332 224.289 26.8516 225.004 25.375C225.73 23.8867 226.738 22.7266 228.027 21.8945C229.328 21.0508 230.734 20.6289 232.246 20.6289C234.719 20.6289 236.641 21.4434 238.012 23.0723C239.383 24.7012 240.068 27.0332 240.068 30.0684V31.4219H227.184C227.23 33.2969 227.775 34.8145 228.818 35.9746C229.873 37.123 231.209 37.6973 232.826 37.6973C233.975 37.6973 234.947 37.4629 235.744 36.9941C236.541 36.5254 237.238 35.9043 237.836 35.1309L239.822 36.6777C238.229 39.127 235.838 40.3516 232.65 40.3516ZM232.246 23.3008C230.934 23.3008 229.832 23.7812 228.941 24.7422C228.051 25.6914 227.5 27.0273 227.289 28.75H236.816V28.5039C236.723 26.8516 236.277 25.5742 235.48 24.6719C234.684 23.7578 233.605 23.3008 232.246 23.3008ZM257.189 16.375V20.9805H260.74V23.4941H257.189V35.2891C257.189 36.0508 257.348 36.625 257.664 37.0117C257.98 37.3867 258.52 37.5742 259.281 37.5742C259.656 37.5742 260.172 37.5039 260.828 37.3633V40C259.973 40.2344 259.141 40.3516 258.332 40.3516C256.879 40.3516 255.783 39.9121 255.045 39.0332C254.307 38.1543 253.938 36.9062 253.938 35.2891V23.4941H250.475V20.9805H253.938V16.375H257.189ZM276.297 40C276.109 39.625 275.957 38.957 275.84 37.9961C274.328 39.5664 272.523 40.3516 270.426 40.3516C268.551 40.3516 267.01 39.8242 265.803 38.7695C264.607 37.7031 264.01 36.3555 264.01 34.7266C264.01 32.7461 264.76 31.2109 266.26 30.1211C267.771 29.0195 269.893 28.4688 272.623 28.4688H275.787V26.9746C275.787 25.8379 275.447 24.9355 274.768 24.2676C274.088 23.5879 273.086 23.248 271.762 23.248C270.602 23.248 269.629 23.541 268.844 24.127C268.059 24.7129 267.666 25.4219 267.666 26.2539H264.396C264.396 25.3047 264.73 24.3906 265.398 23.5117C266.078 22.6211 266.992 21.918 268.141 21.4023C269.301 20.8867 270.572 20.6289 271.955 20.6289C274.146 20.6289 275.863 21.1797 277.105 22.2812C278.348 23.3711 278.992 24.877 279.039 26.7988V35.5527C279.039 37.2988 279.262 38.6875 279.707 39.7188V40H276.297ZM270.9 37.5215C271.92 37.5215 272.887 37.2578 273.801 36.7305C274.715 36.2031 275.377 35.5176 275.787 34.6738V30.7715H273.238C269.254 30.7715 267.262 31.9375 267.262 34.2695C267.262 35.2891 267.602 36.0859 268.281 36.6602C268.961 37.2344 269.834 37.5215 270.9 37.5215ZM295.879 38.1191C294.613 39.6074 292.756 40.3516 290.307 40.3516C288.279 40.3516 286.732 39.7656 285.666 38.5938C284.611 37.4102 284.078 35.6641 284.066 33.3555V20.9805H287.318V33.2676C287.318 36.1504 288.49 37.5918 290.834 37.5918C293.318 37.5918 294.971 36.666 295.791 34.8145V20.9805H299.043V40H295.949L295.879 38.1191ZM303.227 30.332C303.227 27.3672 303.912 25.0117 305.283 23.2656C306.654 21.5078 308.471 20.6289 310.732 20.6289C313.053 20.6289 314.863 21.4492 316.164 23.0898L316.322 20.9805H319.293V39.543C319.293 42.0039 318.561 43.9434 317.096 45.3613C315.643 46.7793 313.686 47.4883 311.225 47.4883C309.854 47.4883 308.512 47.1953 307.199 46.6094C305.887 46.0234 304.885 45.2207 304.193 44.2012L305.881 42.25C307.275 43.9727 308.98 44.834 310.996 44.834C312.578 44.834 313.809 44.3887 314.688 43.498C315.578 42.6074 316.023 41.3535 316.023 39.7363V38.1016C314.723 39.6016 312.947 40.3516 310.697 40.3516C308.471 40.3516 306.666 39.4551 305.283 37.6621C303.912 35.8691 303.227 33.4258 303.227 30.332ZM306.496 30.7012C306.496 32.8457 306.936 34.5332 307.814 35.7637C308.693 36.9824 309.924 37.5918 311.506 37.5918C313.557 37.5918 315.062 36.6602 316.023 34.7969V26.1133C315.027 24.2969 313.533 23.3887 311.541 23.3887C309.959 23.3887 308.723 24.0039 307.832 25.2344C306.941 26.4648 306.496 28.2871 306.496 30.7012ZM327.467 23.2832C328.908 21.5137 330.783 20.6289 333.092 20.6289C337.111 20.6289 339.139 22.8965 339.174 27.4316V40H335.922V27.4141C335.91 26.043 335.594 25.0293 334.973 24.373C334.363 23.7168 333.408 23.3887 332.107 23.3887C331.053 23.3887 330.127 23.6699 329.33 24.2324C328.533 24.7949 327.912 25.5332 327.467 26.4473V40H324.215V13H327.467V23.2832ZM348.455 16.375V20.9805H352.006V23.4941H348.455V35.2891C348.455 36.0508 348.613 36.625 348.93 37.0117C349.246 37.3867 349.785 37.5742 350.547 37.5742C350.922 37.5742 351.438 37.5039 352.094 37.3633V40C351.238 40.2344 350.406 40.3516 349.598 40.3516C348.145 40.3516 347.049 39.9121 346.311 39.0332C345.572 38.1543 345.203 36.9062 345.203 35.2891V23.4941H341.74V20.9805H345.203V16.375H348.455ZM369.162 16.375V20.9805H372.713V23.4941H369.162V35.2891C369.162 36.0508 369.32 36.625 369.637 37.0117C369.953 37.3867 370.492 37.5742 371.254 37.5742C371.629 37.5742 372.145 37.5039 372.801 37.3633V40C371.945 40.2344 371.113 40.3516 370.305 40.3516C368.852 40.3516 367.756 39.9121 367.018 39.0332C366.279 38.1543 365.91 36.9062 365.91 35.2891V23.4941H362.447V20.9805H365.91V16.375H369.162ZM375.314 30.3145C375.314 28.4512 375.678 26.7754 376.404 25.2871C377.143 23.7988 378.162 22.6504 379.463 21.8418C380.775 21.0332 382.27 20.6289 383.945 20.6289C386.535 20.6289 388.627 21.5254 390.221 23.3184C391.826 25.1113 392.629 27.4961 392.629 30.4727V30.7012C392.629 32.5527 392.271 34.2168 391.557 35.6934C390.854 37.1582 389.84 38.3008 388.516 39.1211C387.203 39.9414 385.691 40.3516 383.98 40.3516C381.402 40.3516 379.311 39.4551 377.705 37.6621C376.111 35.8691 375.314 33.4961 375.314 30.543V30.3145ZM378.584 30.7012C378.584 32.8105 379.07 34.5039 380.043 35.7812C381.027 37.0586 382.34 37.6973 383.98 37.6973C385.633 37.6973 386.945 37.0527 387.918 35.7637C388.891 34.4629 389.377 32.6465 389.377 30.3145C389.377 28.2285 388.879 26.541 387.883 25.252C386.898 23.9512 385.586 23.3008 383.945 23.3008C382.34 23.3008 381.045 23.9395 380.061 25.2168C379.076 26.4941 378.584 28.3223 378.584 30.7012ZM413.266 37.6973C414.426 37.6973 415.439 37.3457 416.307 36.6426C417.174 35.9395 417.654 35.0605 417.748 34.0059H420.824C420.766 35.0957 420.391 36.1328 419.699 37.1172C419.008 38.1016 418.082 38.8867 416.922 39.4727C415.773 40.0586 414.555 40.3516 413.266 40.3516C410.676 40.3516 408.613 39.4902 407.078 37.7676C405.555 36.0332 404.793 33.666 404.793 30.666V30.1211C404.793 28.2695 405.133 26.623 405.812 25.1816C406.492 23.7402 407.465 22.6211 408.73 21.8242C410.008 21.0273 411.514 20.6289 413.248 20.6289C415.381 20.6289 417.15 21.2676 418.557 22.5449C419.975 23.8223 420.73 25.4805 420.824 27.5195H417.748C417.654 26.2891 417.186 25.2812 416.342 24.4961C415.51 23.6992 414.479 23.3008 413.248 23.3008C411.596 23.3008 410.312 23.8984 409.398 25.0938C408.496 26.2773 408.045 27.9941 408.045 30.2441V30.8594C408.045 33.0508 408.496 34.7383 409.398 35.9219C410.301 37.1055 411.59 37.6973 413.266 37.6973ZM423.619 30.3145C423.619 28.4512 423.982 26.7754 424.709 25.2871C425.447 23.7988 426.467 22.6504 427.768 21.8418C429.08 21.0332 430.574 20.6289 432.25 20.6289C434.84 20.6289 436.932 21.5254 438.525 23.3184C440.131 25.1113 440.934 27.4961 440.934 30.4727V30.7012C440.934 32.5527 440.576 34.2168 439.861 35.6934C439.158 37.1582 438.145 38.3008 436.82 39.1211C435.508 39.9414 433.996 40.3516 432.285 40.3516C429.707 40.3516 427.615 39.4551 426.01 37.6621C424.416 35.8691 423.619 33.4961 423.619 30.543V30.3145ZM426.889 30.7012C426.889 32.8105 427.375 34.5039 428.348 35.7812C429.332 37.0586 430.645 37.6973 432.285 37.6973C433.938 37.6973 435.25 37.0527 436.223 35.7637C437.195 34.4629 437.682 32.6465 437.682 30.3145C437.682 28.2285 437.184 26.541 436.188 25.252C435.203 23.9512 433.891 23.3008 432.25 23.3008C430.645 23.3008 429.35 23.9395 428.365 25.2168C427.381 26.4941 426.889 28.3223 426.889 30.7012ZM456.754 38.1191C455.488 39.6074 453.631 40.3516 451.182 40.3516C449.154 40.3516 447.607 39.7656 446.541 38.5938C445.486 37.4102 444.953 35.6641 444.941 33.3555V20.9805H448.193V33.2676C448.193 36.1504 449.365 37.5918 451.709 37.5918C454.193 37.5918 455.846 36.666 456.666 34.8145V20.9805H459.918V40H456.824L456.754 38.1191ZM467.951 20.9805L468.057 23.3711C469.51 21.543 471.408 20.6289 473.752 20.6289C477.771 20.6289 479.799 22.8965 479.834 27.4316V40H476.582V27.4141C476.57 26.043 476.254 25.0293 475.633 24.373C475.023 23.7168 474.068 23.3887 472.768 23.3887C471.713 23.3887 470.787 23.6699 469.99 24.2324C469.193 24.7949 468.572 25.5332 468.127 26.4473V40H464.875V20.9805H467.951ZM489.15 16.375V20.9805H492.701V23.4941H489.15V35.2891C489.15 36.0508 489.309 36.625 489.625 37.0117C489.941 37.3867 490.48 37.5742 491.242 37.5742C491.617 37.5742 492.133 37.5039 492.789 37.3633V40C491.934 40.2344 491.102 40.3516 490.293 40.3516C488.84 40.3516 487.744 39.9121 487.006 39.0332C486.268 38.1543 485.898 36.9062 485.898 35.2891V23.4941H482.436V20.9805H485.898V16.375H489.15ZM517.188 40C517 39.625 516.848 38.957 516.73 37.9961C515.219 39.5664 513.414 40.3516 511.316 40.3516C509.441 40.3516 507.9 39.8242 506.693 38.7695C505.498 37.7031 504.9 36.3555 504.9 34.7266C504.9 32.7461 505.65 31.2109 507.15 30.1211C508.662 29.0195 510.783 28.4688 513.514 28.4688H516.678V26.9746C516.678 25.8379 516.338 24.9355 515.658 24.2676C514.979 23.5879 513.977 23.248 512.652 23.248C511.492 23.248 510.52 23.541 509.734 24.127C508.949 24.7129 508.557 25.4219 508.557 26.2539H505.287C505.287 25.3047 505.621 24.3906 506.289 23.5117C506.969 22.6211 507.883 21.918 509.031 21.4023C510.191 20.8867 511.463 20.6289 512.846 20.6289C515.037 20.6289 516.754 21.1797 517.996 22.2812C519.238 23.3711 519.883 24.877 519.93 26.7988V35.5527C519.93 37.2988 520.152 38.6875 520.598 39.7188V40H517.188ZM511.791 37.5215C512.811 37.5215 513.777 37.2578 514.691 36.7305C515.605 36.2031 516.268 35.5176 516.678 34.6738V30.7715H514.129C510.145 30.7715 508.152 31.9375 508.152 34.2695C508.152 35.2891 508.492 36.0859 509.172 36.6602C509.852 37.2344 510.725 37.5215 511.791 37.5215ZM528.104 20.9805L528.209 23.3711C529.662 21.543 531.561 20.6289 533.904 20.6289C537.924 20.6289 539.951 22.8965 539.986 27.4316V40H536.734V27.4141C536.723 26.043 536.406 25.0293 535.785 24.373C535.176 23.7168 534.221 23.3887 532.92 23.3887C531.865 23.3887 530.939 23.6699 530.143 24.2324C529.346 24.7949 528.725 25.5332 528.279 26.4473V40H525.027V20.9805H528.104ZM544.1 30.332C544.1 27.4141 544.791 25.0703 546.174 23.3008C547.557 21.5195 549.367 20.6289 551.605 20.6289C553.832 20.6289 555.596 21.3906 556.896 22.9141V13H560.148V40H557.16L557.002 37.9609C555.701 39.5547 553.891 40.3516 551.57 40.3516C549.367 40.3516 547.568 39.4492 546.174 37.6445C544.791 35.8398 544.1 33.4844 544.1 30.5781V30.332ZM547.352 30.7012C547.352 32.8574 547.797 34.5449 548.688 35.7637C549.578 36.9824 550.809 37.5918 552.379 37.5918C554.441 37.5918 555.947 36.666 556.896 34.8145V26.0781C555.924 24.2852 554.43 23.3887 552.414 23.3887C550.82 23.3887 549.578 24.0039 548.688 25.2344C547.797 26.4648 547.352 28.2871 547.352 30.7012ZM65.4648 76.9551C65.4648 76.0762 65.1309 75.3965 64.4629 74.916C63.8066 74.4238 62.6523 74.002 61 73.6504C59.3594 73.2988 58.0527 72.877 57.0801 72.3848C56.1191 71.8926 55.4043 71.3066 54.9355 70.627C54.4785 69.9473 54.25 69.1387 54.25 68.2012C54.25 66.6426 54.9062 65.3242 56.2188 64.2461C57.543 63.168 59.2305 62.6289 61.2812 62.6289C63.4375 62.6289 65.1836 63.1855 66.5195 64.2988C67.8672 65.4121 68.541 66.8359 68.541 68.5703H65.2715C65.2715 67.6797 64.8906 66.9121 64.1289 66.2676C63.3789 65.623 62.4297 65.3008 61.2812 65.3008C60.0977 65.3008 59.1719 65.5586 58.5039 66.0742C57.8359 66.5898 57.502 67.2637 57.502 68.0957C57.502 68.8809 57.8125 69.4727 58.4336 69.8711C59.0547 70.2695 60.1738 70.6504 61.791 71.0137C63.4199 71.377 64.7383 71.8105 65.7461 72.3145C66.7539 72.8184 67.498 73.4277 67.9785 74.1426C68.4707 74.8457 68.7168 75.707 68.7168 76.7266C68.7168 78.4258 68.0371 79.791 66.6777 80.8223C65.3184 81.8418 63.5547 82.3516 61.3867 82.3516C59.8633 82.3516 58.5156 82.082 57.3438 81.543C56.1719 81.0039 55.252 80.2539 54.584 79.293C53.9277 78.3203 53.5996 77.2715 53.5996 76.1465H56.8516C56.9102 77.2363 57.3438 78.1035 58.1523 78.748C58.9727 79.3809 60.0508 79.6973 61.3867 79.6973C62.6172 79.6973 63.6016 79.4512 64.3398 78.959C65.0898 78.4551 65.4648 77.7871 65.4648 76.9551ZM72.0918 72.3145C72.0918 70.4512 72.4551 68.7754 73.1816 67.2871C73.9199 65.7988 74.9395 64.6504 76.2402 63.8418C77.5527 63.0332 79.0469 62.6289 80.7227 62.6289C83.3125 62.6289 85.4043 63.5254 86.998 65.3184C88.6035 67.1113 89.4062 69.4961 89.4062 72.4727V72.7012C89.4062 74.5527 89.0488 76.2168 88.334 77.6934C87.6309 79.1582 86.6172 80.3008 85.293 81.1211C83.9805 81.9414 82.4688 82.3516 80.7578 82.3516C78.1797 82.3516 76.0879 81.4551 74.4824 79.6621C72.8887 77.8691 72.0918 75.4961 72.0918 72.543V72.3145ZM75.3613 72.7012C75.3613 74.8105 75.8477 76.5039 76.8203 77.7812C77.8047 79.0586 79.1172 79.6973 80.7578 79.6973C82.4102 79.6973 83.7227 79.0527 84.6953 77.7637C85.668 76.4629 86.1543 74.6465 86.1543 72.3145C86.1543 70.2285 85.6562 68.541 84.6602 67.252C83.6758 65.9512 82.3633 65.3008 80.7227 65.3008C79.1172 65.3008 77.8223 65.9395 76.8379 67.2168C75.8535 68.4941 75.3613 70.3223 75.3613 72.7012ZM97.0176 82H93.7656V55H97.0176V82ZM108.514 77.5879L113.225 62.9805H116.547L109.727 82H107.248L100.357 62.9805H103.68L108.514 77.5879ZM127.322 82.3516C124.744 82.3516 122.646 81.5078 121.029 79.8203C119.412 78.1211 118.604 75.8535 118.604 73.0176V72.4199C118.604 70.5332 118.961 68.8516 119.676 67.375C120.402 65.8867 121.41 64.7266 122.699 63.8945C124 63.0508 125.406 62.6289 126.918 62.6289C129.391 62.6289 131.312 63.4434 132.684 65.0723C134.055 66.7012 134.74 69.0332 134.74 72.0684V73.4219H121.855C121.902 75.2969 122.447 76.8145 123.49 77.9746C124.545 79.123 125.881 79.6973 127.498 79.6973C128.646 79.6973 129.619 79.4629 130.416 78.9941C131.213 78.5254 131.91 77.9043 132.508 77.1309L134.494 78.6777C132.9 81.127 130.51 82.3516 127.322 82.3516ZM126.918 65.3008C125.605 65.3008 124.504 65.7812 123.613 66.7422C122.723 67.6914 122.172 69.0273 121.961 70.75H131.488V70.5039C131.395 68.8516 130.949 67.5742 130.152 66.6719C129.355 65.7578 128.277 65.3008 126.918 65.3008ZM158.523 76.9551C158.523 76.0762 158.189 75.3965 157.521 74.916C156.865 74.4238 155.711 74.002 154.059 73.6504C152.418 73.2988 151.111 72.877 150.139 72.3848C149.178 71.8926 148.463 71.3066 147.994 70.627C147.537 69.9473 147.309 69.1387 147.309 68.2012C147.309 66.6426 147.965 65.3242 149.277 64.2461C150.602 63.168 152.289 62.6289 154.34 62.6289C156.496 62.6289 158.242 63.1855 159.578 64.2988C160.926 65.4121 161.6 66.8359 161.6 68.5703H158.33C158.33 67.6797 157.949 66.9121 157.188 66.2676C156.438 65.623 155.488 65.3008 154.34 65.3008C153.156 65.3008 152.23 65.5586 151.562 66.0742C150.895 66.5898 150.561 67.2637 150.561 68.0957C150.561 68.8809 150.871 69.4727 151.492 69.8711C152.113 70.2695 153.232 70.6504 154.85 71.0137C156.479 71.377 157.797 71.8105 158.805 72.3145C159.812 72.8184 160.557 73.4277 161.037 74.1426C161.529 74.8457 161.775 75.707 161.775 76.7266C161.775 78.4258 161.096 79.791 159.736 80.8223C158.377 81.8418 156.613 82.3516 154.445 82.3516C152.922 82.3516 151.574 82.082 150.402 81.543C149.23 81.0039 148.311 80.2539 147.643 79.293C146.986 78.3203 146.658 77.2715 146.658 76.1465H149.91C149.969 77.2363 150.402 78.1035 151.211 78.748C152.031 79.3809 153.109 79.6973 154.445 79.6973C155.676 79.6973 156.66 79.4512 157.398 78.959C158.148 78.4551 158.523 77.7871 158.523 76.9551ZM169.545 82H166.293V62.9805H169.545V82ZM166.029 57.9355C166.029 57.4082 166.188 56.9629 166.504 56.5996C166.832 56.2363 167.312 56.0547 167.945 56.0547C168.578 56.0547 169.059 56.2363 169.387 56.5996C169.715 56.9629 169.879 57.4082 169.879 57.9355C169.879 58.4629 169.715 58.9023 169.387 59.2539C169.059 59.6055 168.578 59.7812 167.945 59.7812C167.312 59.7812 166.832 59.6055 166.504 59.2539C166.188 58.9023 166.029 58.4629 166.029 57.9355ZM177.824 62.9805L177.912 65.0898C179.307 63.4492 181.188 62.6289 183.555 62.6289C186.215 62.6289 188.025 63.6484 188.986 65.6875C189.619 64.7734 190.439 64.0352 191.447 63.4727C192.467 62.9102 193.668 62.6289 195.051 62.6289C199.223 62.6289 201.344 64.8379 201.414 69.2559V82H198.162V69.4492C198.162 68.0898 197.852 67.0762 197.23 66.4082C196.609 65.7285 195.566 65.3887 194.102 65.3887C192.895 65.3887 191.893 65.752 191.096 66.4785C190.299 67.1934 189.836 68.1602 189.707 69.3789V82H186.438V69.5371C186.438 66.7715 185.084 65.3887 182.377 65.3887C180.244 65.3887 178.785 66.2969 178 68.1133V82H174.748V62.9805H177.824ZM222.402 72.7012C222.402 75.5957 221.74 77.9277 220.416 79.6973C219.092 81.4668 217.299 82.3516 215.037 82.3516C212.729 82.3516 210.912 81.6191 209.588 80.1543V89.3125H206.336V62.9805H209.307L209.465 65.0898C210.789 63.4492 212.629 62.6289 214.984 62.6289C217.27 62.6289 219.074 63.4902 220.398 65.2129C221.734 66.9355 222.402 69.332 222.402 72.4023V72.7012ZM219.15 72.332C219.15 70.1875 218.693 68.4941 217.779 67.252C216.865 66.0098 215.611 65.3887 214.018 65.3887C212.049 65.3887 210.572 66.2617 209.588 68.0078V77.0957C210.561 78.8301 212.049 79.6973 214.053 79.6973C215.611 79.6973 216.848 79.082 217.762 77.8516C218.688 76.6094 219.15 74.7695 219.15 72.332ZM230.084 82H226.832V55H230.084V82ZM243.197 82.3516C240.619 82.3516 238.521 81.5078 236.904 79.8203C235.287 78.1211 234.479 75.8535 234.479 73.0176V72.4199C234.479 70.5332 234.836 68.8516 235.551 67.375C236.277 65.8867 237.285 64.7266 238.574 63.8945C239.875 63.0508 241.281 62.6289 242.793 62.6289C245.266 62.6289 247.188 63.4434 248.559 65.0723C249.93 66.7012 250.615 69.0332 250.615 72.0684V73.4219H237.73C237.777 75.2969 238.322 76.8145 239.365 77.9746C240.42 79.123 241.756 79.6973 243.373 79.6973C244.521 79.6973 245.494 79.4629 246.291 78.9941C247.088 78.5254 247.785 77.9043 248.383 77.1309L250.369 78.6777C248.775 81.127 246.385 82.3516 243.197 82.3516ZM242.793 65.3008C241.48 65.3008 240.379 65.7812 239.488 66.7422C238.598 67.6914 238.047 69.0273 237.836 70.75H247.363V70.5039C247.27 68.8516 246.824 67.5742 246.027 66.6719C245.23 65.7578 244.152 65.3008 242.793 65.3008ZM266.383 62.9805L266.471 65.0898C267.865 63.4492 269.746 62.6289 272.113 62.6289C274.773 62.6289 276.584 63.6484 277.545 65.6875C278.178 64.7734 278.998 64.0352 280.006 63.4727C281.025 62.9102 282.227 62.6289 283.609 62.6289C287.781 62.6289 289.902 64.8379 289.973 69.2559V82H286.721V69.4492C286.721 68.0898 286.41 67.0762 285.789 66.4082C285.168 65.7285 284.125 65.3887 282.66 65.3887C281.453 65.3887 280.451 65.752 279.654 66.4785C278.857 67.1934 278.395 68.1602 278.266 69.3789V82H274.996V69.5371C274.996 66.7715 273.643 65.3887 270.936 65.3887C268.803 65.3887 267.344 66.2969 266.559 68.1133V82H263.307V62.9805H266.383ZM306.637 82C306.449 81.625 306.297 80.957 306.18 79.9961C304.668 81.5664 302.863 82.3516 300.766 82.3516C298.891 82.3516 297.35 81.8242 296.143 80.7695C294.947 79.7031 294.35 78.3555 294.35 76.7266C294.35 74.7461 295.1 73.2109 296.6 72.1211C298.111 71.0195 300.232 70.4688 302.963 70.4688H306.127V68.9746C306.127 67.8379 305.787 66.9355 305.107 66.2676C304.428 65.5879 303.426 65.248 302.102 65.248C300.941 65.248 299.969 65.541 299.184 66.127C298.398 66.7129 298.006 67.4219 298.006 68.2539H294.736C294.736 67.3047 295.07 66.3906 295.738 65.5117C296.418 64.6211 297.332 63.918 298.48 63.4023C299.641 62.8867 300.912 62.6289 302.295 62.6289C304.486 62.6289 306.203 63.1797 307.445 64.2812C308.688 65.3711 309.332 66.877 309.379 68.7988V77.5527C309.379 79.2988 309.602 80.6875 310.047 81.7188V82H306.637ZM301.24 79.5215C302.26 79.5215 303.227 79.2578 304.141 78.7305C305.055 78.2031 305.717 77.5176 306.127 76.6738V72.7715H303.578C299.594 72.7715 297.602 73.9375 297.602 76.2695C297.602 77.2891 297.941 78.0859 298.621 78.6602C299.301 79.2344 300.174 79.5215 301.24 79.5215ZM318.889 58.375V62.9805H322.439V65.4941H318.889V77.2891C318.889 78.0508 319.047 78.625 319.363 79.0117C319.68 79.3867 320.219 79.5742 320.98 79.5742C321.355 79.5742 321.871 79.5039 322.527 79.3633V82C321.672 82.2344 320.84 82.3516 320.031 82.3516C318.578 82.3516 317.482 81.9121 316.744 81.0332C316.006 80.1543 315.637 78.9062 315.637 77.2891V65.4941H312.174V62.9805H315.637V58.375H318.889ZM329.506 65.2832C330.947 63.5137 332.822 62.6289 335.131 62.6289C339.15 62.6289 341.178 64.8965 341.213 69.4316V82H337.961V69.4141C337.949 68.043 337.633 67.0293 337.012 66.373C336.402 65.7168 335.447 65.3887 334.146 65.3887C333.092 65.3887 332.166 65.6699 331.369 66.2324C330.572 66.7949 329.951 67.5332 329.506 68.4473V82H326.254V55H329.506V65.2832ZM371.078 72.7012C371.078 75.5957 370.416 77.9277 369.092 79.6973C367.768 81.4668 365.975 82.3516 363.713 82.3516C361.404 82.3516 359.588 81.6191 358.264 80.1543V89.3125H355.012V62.9805H357.982L358.141 65.0898C359.465 63.4492 361.305 62.6289 363.66 62.6289C365.945 62.6289 367.75 63.4902 369.074 65.2129C370.41 66.9355 371.078 69.332 371.078 72.4023V72.7012ZM367.826 72.332C367.826 70.1875 367.369 68.4941 366.455 67.252C365.541 66.0098 364.287 65.3887 362.693 65.3887C360.725 65.3887 359.248 66.2617 358.264 68.0078V77.0957C359.236 78.8301 360.725 79.6973 362.729 79.6973C364.287 79.6973 365.523 79.082 366.438 77.8516C367.363 76.6094 367.826 74.7695 367.826 72.332ZM384.42 65.8984C383.928 65.8164 383.395 65.7754 382.82 65.7754C380.688 65.7754 379.24 66.6836 378.479 68.5V82H375.227V62.9805H378.391L378.443 65.1777C379.51 63.4785 381.021 62.6289 382.979 62.6289C383.611 62.6289 384.092 62.7109 384.42 62.875V65.8984ZM386.213 72.3145C386.213 70.4512 386.576 68.7754 387.303 67.2871C388.041 65.7988 389.061 64.6504 390.361 63.8418C391.674 63.0332 393.168 62.6289 394.844 62.6289C397.434 62.6289 399.525 63.5254 401.119 65.3184C402.725 67.1113 403.527 69.4961 403.527 72.4727V72.7012C403.527 74.5527 403.17 76.2168 402.455 77.6934C401.752 79.1582 400.738 80.3008 399.414 81.1211C398.102 81.9414 396.59 82.3516 394.879 82.3516C392.301 82.3516 390.209 81.4551 388.604 79.6621C387.01 77.8691 386.213 75.4961 386.213 72.543V72.3145ZM389.482 72.7012C389.482 74.8105 389.969 76.5039 390.941 77.7812C391.926 79.0586 393.238 79.6973 394.879 79.6973C396.531 79.6973 397.844 79.0527 398.816 77.7637C399.789 76.4629 400.275 74.6465 400.275 72.3145C400.275 70.2285 399.777 68.541 398.781 67.252C397.797 65.9512 396.484 65.3008 394.844 65.3008C393.238 65.3008 391.943 65.9395 390.959 67.2168C389.975 68.4941 389.482 70.3223 389.482 72.7012ZM423.707 72.7012C423.707 75.6074 423.039 77.9453 421.703 79.7148C420.367 81.4727 418.574 82.3516 416.324 82.3516C413.922 82.3516 412.064 81.502 410.752 79.8027L410.594 82H407.605V55H410.857V65.0723C412.17 63.4434 413.98 62.6289 416.289 62.6289C418.598 62.6289 420.408 63.502 421.721 65.248C423.045 66.9941 423.707 69.3848 423.707 72.4199V72.7012ZM420.455 72.332C420.455 70.1172 420.027 68.4062 419.172 67.1992C418.316 65.9922 417.086 65.3887 415.48 65.3887C413.336 65.3887 411.795 66.3848 410.857 68.377V76.6035C411.854 78.5957 413.406 79.5918 415.516 79.5918C417.074 79.5918 418.287 78.9883 419.154 77.7812C420.021 76.5742 420.455 74.7578 420.455 72.332ZM431.354 82H428.102V55H431.354V82ZM444.467 82.3516C441.889 82.3516 439.791 81.5078 438.174 79.8203C436.557 78.1211 435.748 75.8535 435.748 73.0176V72.4199C435.748 70.5332 436.105 68.8516 436.82 67.375C437.547 65.8867 438.555 64.7266 439.844 63.8945C441.145 63.0508 442.551 62.6289 444.062 62.6289C446.535 62.6289 448.457 63.4434 449.828 65.0723C451.199 66.7012 451.885 69.0332 451.885 72.0684V73.4219H439C439.047 75.2969 439.592 76.8145 440.635 77.9746C441.689 79.123 443.025 79.6973 444.643 79.6973C445.791 79.6973 446.764 79.4629 447.561 78.9941C448.357 78.5254 449.055 77.9043 449.652 77.1309L451.639 78.6777C450.045 81.127 447.654 82.3516 444.467 82.3516ZM444.062 65.3008C442.75 65.3008 441.648 65.7812 440.758 66.7422C439.867 67.6914 439.316 69.0273 439.105 70.75H448.633V70.5039C448.539 68.8516 448.094 67.5742 447.297 66.6719C446.5 65.7578 445.422 65.3008 444.062 65.3008ZM458.723 62.9805L458.811 65.0898C460.205 63.4492 462.086 62.6289 464.453 62.6289C467.113 62.6289 468.924 63.6484 469.885 65.6875C470.518 64.7734 471.338 64.0352 472.346 63.4727C473.365 62.9102 474.566 62.6289 475.949 62.6289C480.121 62.6289 482.242 64.8379 482.312 69.2559V82H479.061V69.4492C479.061 68.0898 478.75 67.0762 478.129 66.4082C477.508 65.7285 476.465 65.3887 475 65.3887C473.793 65.3887 472.791 65.752 471.994 66.4785C471.197 67.1934 470.734 68.1602 470.605 69.3789V82H467.336V69.5371C467.336 66.7715 465.982 65.3887 463.275 65.3887C461.143 65.3887 459.684 66.2969 458.898 68.1133V82H455.646V62.9805H458.723ZM498.309 76.9551C498.309 76.0762 497.975 75.3965 497.307 74.916C496.65 74.4238 495.496 74.002 493.844 73.6504C492.203 73.2988 490.896 72.877 489.924 72.3848C488.963 71.8926 488.248 71.3066 487.779 70.627C487.322 69.9473 487.094 69.1387 487.094 68.2012C487.094 66.6426 487.75 65.3242 489.062 64.2461C490.387 63.168 492.074 62.6289 494.125 62.6289C496.281 62.6289 498.027 63.1855 499.363 64.2988C500.711 65.4121 501.385 66.8359 501.385 68.5703H498.115C498.115 67.6797 497.734 66.9121 496.973 66.2676C496.223 65.623 495.273 65.3008 494.125 65.3008C492.941 65.3008 492.016 65.5586 491.348 66.0742C490.68 66.5898 490.346 67.2637 490.346 68.0957C490.346 68.8809 490.656 69.4727 491.277 69.8711C491.898 70.2695 493.018 70.6504 494.635 71.0137C496.264 71.377 497.582 71.8105 498.59 72.3145C499.598 72.8184 500.342 73.4277 500.822 74.1426C501.314 74.8457 501.561 75.707 501.561 76.7266C501.561 78.4258 500.881 79.791 499.521 80.8223C498.162 81.8418 496.398 82.3516 494.23 82.3516C492.707 82.3516 491.359 82.082 490.188 81.543C489.016 81.0039 488.096 80.2539 487.428 79.293C486.771 78.3203 486.443 77.2715 486.443 76.1465H489.695C489.754 77.2363 490.188 78.1035 490.996 78.748C491.816 79.3809 492.895 79.6973 494.23 79.6973C495.461 79.6973 496.445 79.4512 497.184 78.959C497.934 78.4551 498.309 77.7871 498.309 76.9551ZM505.867 80.2949C505.867 79.7324 506.031 79.2637 506.359 78.8887C506.699 78.5137 507.203 78.3262 507.871 78.3262C508.539 78.3262 509.043 78.5137 509.383 78.8887C509.734 79.2637 509.91 79.7324 509.91 80.2949C509.91 80.834 509.734 81.2852 509.383 81.6484C509.043 82.0117 508.539 82.1934 507.871 82.1934C507.203 82.1934 506.699 82.0117 506.359 81.6484C506.031 81.2852 505.867 80.834 505.867 80.2949Z" fill="black"/>
</svg>
